<svg width="136" height="136" viewBox="0 0 136 136" fill="none" xmlns="http://www.w3.org/2000/svg">
<g clip-path="url(#clip0)">
<path d="M132.014 128.031H127.764V49.4072C127.764 47.2068 125.98 45.4229 123.78 45.4229H107.842C105.642 45.4229 103.858 47.2068 103.858 49.4072V128.031H95.8893V75.9693C95.8893 73.7689 94.1054 71.985 91.905 71.985H75.9677C73.7673 71.985 71.9834 73.7689 71.9834 75.9693V128.031H64.0147V90.5785C64.0147 88.3781 62.2308 86.5942 60.0304 86.5942H44.0931C41.8927 86.5942 40.1088 88.3781 40.1088 90.5785V128.031H32.1402V100.141C32.1402 97.9404 30.3563 96.1565 28.1559 96.1565H12.2186C10.0182 96.1565 8.23426 97.9404 8.23426 100.141V128.031H3.98432C1.78391 128.031 0 129.815 0 132.015C0 134.216 1.78391 136 3.98432 136H132.014C134.214 136 135.998 134.216 135.998 132.015C135.998 129.815 134.214 128.031 132.014 128.031Z" fill="#0F7CE3"/>
<path d="M3.98432 85.6124C28.8513 85.6124 55.8177 76.6817 79.9164 60.4652C98.7902 47.7645 114.523 31.5396 124.296 14.9258L128.165 29.3668C128.643 31.147 130.946 32.6849 133.045 32.184C135.186 31.6735 136.432 29.4298 135.862 27.3042L129.338 2.95474C128.768 0.8295 126.585 -0.432201 124.458 0.137557L100.109 6.66201C97.9832 7.23151 96.722 9.41624 97.2915 11.5417C97.8613 13.6672 100.045 14.9289 102.171 14.3589L117.858 10.1557C108.74 25.999 93.6719 41.6037 75.4675 53.8539C52.6698 69.1951 27.2833 77.6438 3.98432 77.6438C1.78391 77.6438 0 79.4277 0 81.6281C0 83.8285 1.78391 85.6124 3.98432 85.6124Z" fill="#FACF38"/>
</g>
<defs>
<clipPath id="clip0">
<rect width="136" height="136" fill="white"/>
</clipPath>
</defs>
</svg>
