<svg width="727" height="647" viewBox="0 0 727 647" fill="none" xmlns="http://www.w3.org/2000/svg">
<g opacity="0.5" clip-path="url(#clip0)">
<g opacity="0.03">
<path d="M816.381 599.951C814.624 599.951 813.745 599.951 811.987 599.072L722.352 547.244C719.716 545.487 717.958 542.852 717.958 539.338C717.958 537.581 717.959 536.703 718.837 534.946C721.474 530.554 726.746 529.675 731.14 531.432L820.775 583.26C823.411 585.017 825.169 587.652 825.169 591.166C825.169 592.923 825.169 593.802 824.29 595.558C822.532 598.194 819.896 599.951 816.381 599.951Z" fill="white"/>
</g>
<g opacity="0.03">
<path d="M816.381 392.637C814.624 392.637 813.745 392.637 811.987 391.759L722.352 339.931C719.716 338.174 717.958 335.539 717.958 332.025C717.958 330.268 717.959 329.39 718.837 327.633C721.474 323.241 726.746 322.362 730.261 324.119L819.896 375.947C824.29 378.582 825.169 383.853 823.411 388.245C822.533 390.88 819.896 392.637 816.381 392.637Z" fill="white"/>
</g>
<g opacity="0.03">
<path d="M368.202 651.778C366.444 651.778 365.566 651.778 363.808 650.9L274.173 599.072C271.537 597.315 269.779 594.68 269.779 591.166C269.779 587.652 271.537 585.017 274.173 583.26L363.808 531.432C366.444 529.675 369.959 529.675 372.596 531.432C375.232 533.189 376.99 535.824 376.99 539.338V642.994C376.99 646.507 375.232 649.143 372.596 650.9C370.838 650.9 369.081 651.778 368.202 651.778ZM296.142 591.166L359.414 628.06V555.15L296.142 591.166Z" fill="white"/>
</g>
<g opacity="0.03">
<path d="M188.933 548.12C187.176 548.12 186.297 548.12 184.54 547.242L94.9048 495.414C92.2685 493.657 90.5109 491.021 90.5109 487.508C90.5109 483.994 92.2685 481.359 94.9048 479.602L184.54 427.774C187.176 426.017 190.691 426.017 193.327 427.774C195.964 429.531 197.721 432.166 197.721 435.68V539.335C197.721 542.849 195.964 545.485 193.327 547.242C191.57 548.12 189.812 548.12 188.933 548.12ZM115.995 487.508L179.267 524.402V451.492L115.995 487.508Z" fill="white"/>
</g>
<g opacity="0.03">
<path d="M637.101 703.605C637.101 703.605 636.222 703.605 637.101 703.605C633.586 703.605 630.95 701.848 629.192 699.213C627.435 695.699 627.435 692.185 630.071 688.672C630.95 687.793 631.829 687.793 631.829 686.915L721.464 635.087C725.857 632.452 731.13 634.209 733.766 638.601C734.645 640.358 734.645 641.236 734.645 642.993C734.645 645.628 732.888 649.142 730.251 650.899L640.616 702.727C639.738 702.727 638.859 703.605 637.101 703.605Z" fill="white"/>
</g>
<g opacity="0.03">
<path d="M278.569 703.605C275.933 703.605 272.418 701.848 270.66 699.213C268.024 694.821 269.782 689.55 274.175 686.915L363.81 635.087C368.204 632.452 373.477 634.209 376.113 638.601C376.992 640.358 376.992 641.236 376.992 642.993C376.992 645.628 375.234 649.142 372.598 650.899L282.963 702.727C281.206 702.727 279.448 703.605 278.569 703.605Z" fill="white"/>
</g>
<g opacity="0.03">
<path d="M547.469 755.433C545.712 755.433 544.833 755.433 543.075 754.555L453.44 702.727C450.804 700.97 449.047 698.335 449.047 694.821C449.047 691.307 450.804 688.672 453.44 686.915L543.075 635.087C545.712 633.33 549.227 633.33 551.863 635.087C554.499 636.844 556.257 639.479 556.257 642.993V746.649C556.257 750.163 554.499 752.798 551.863 754.555C550.106 754.555 549.227 755.433 547.469 755.433ZM475.41 694.821L538.681 731.716V658.805L475.41 694.821Z" fill="white"/>
</g>
<g opacity="0.03">
<path d="M726.746 548.12C724.989 548.12 724.11 548.12 722.352 547.242C719.716 545.485 717.958 542.849 717.958 539.335V435.68C717.958 432.166 719.716 429.531 722.352 427.774C724.989 426.017 728.504 426.017 731.14 427.774L820.775 479.602C823.411 481.359 825.169 483.994 825.169 487.508C825.169 491.021 823.411 493.657 820.775 495.414L731.14 547.242C730.261 548.12 728.504 548.12 726.746 548.12ZM735.534 450.613V523.524L798.806 486.629L735.534 450.613Z" fill="white"/>
</g>
<g opacity="0.03">
<path d="M188.933 340.809C187.176 340.809 186.297 340.809 184.54 339.931L94.9048 288.103C92.2685 286.346 90.5109 283.711 90.5109 280.197C90.5109 276.683 92.2685 274.048 94.9048 272.291L184.54 220.463C187.176 218.706 190.691 218.706 193.327 220.463C195.964 222.22 197.721 224.855 197.721 228.369V332.025C197.721 335.539 195.964 338.174 193.327 339.931C191.57 340.809 189.812 340.809 188.933 340.809ZM115.995 280.197L179.267 317.091V244.181L115.995 280.197Z" fill="white"/>
</g>
<g opacity="0.03">
<path d="M188.933 237.154C187.175 237.154 186.297 237.154 184.539 236.275C181.903 234.518 180.145 231.883 180.145 228.369V124.714C180.145 121.2 181.903 118.565 184.539 116.808C187.175 115.051 190.69 115.051 193.327 116.808L282.962 168.635C285.598 170.392 287.355 173.028 287.355 176.541C287.355 180.055 285.598 182.69 282.962 184.447L193.327 236.275C191.569 237.154 189.812 237.154 188.933 237.154ZM197.721 140.525V213.436L260.992 176.541L197.721 140.525Z" fill="white"/>
</g>
<g opacity="0.03">
<path d="M368.202 237.154C366.444 237.154 365.566 237.154 363.808 236.275L274.173 184.447C271.537 182.69 269.779 180.055 269.779 176.541C269.779 173.028 271.537 170.392 274.173 168.635L363.808 116.808C366.444 115.051 369.959 115.051 372.596 116.808C375.232 118.565 376.99 121.2 376.99 124.714V228.369C376.99 231.883 375.232 234.518 372.596 236.275C370.838 237.154 369.081 237.154 368.202 237.154ZM296.142 176.541L359.414 213.436V140.525L296.142 176.541Z" fill="white"/>
</g>
<g opacity="0.03">
<path d="M547.469 340.809C545.712 340.809 544.833 340.809 543.075 339.931L453.44 288.103C450.804 286.346 449.047 283.711 449.047 280.197C449.047 276.683 450.804 274.048 453.44 272.291L543.075 220.463C545.712 218.706 549.227 218.706 551.863 220.463C554.499 222.22 556.257 224.855 556.257 228.369V332.025C556.257 335.539 554.499 338.174 551.863 339.931C550.106 340.809 549.227 340.809 547.469 340.809ZM475.41 280.197L538.681 317.091V244.181L475.41 280.197Z" fill="white"/>
</g>
<g opacity="0.03">
<path d="M547.478 237.154C545.72 237.154 544.842 237.154 543.084 236.275C540.448 234.518 538.69 231.883 538.69 228.369V124.714C538.69 121.2 540.448 118.565 543.084 116.808C545.72 115.051 549.235 115.051 551.872 116.808L641.507 168.635C644.143 170.392 645.901 173.028 645.901 176.541C645.901 180.055 644.143 182.69 641.507 184.447L551.872 236.275C550.114 237.154 549.235 237.154 547.478 237.154ZM556.266 140.525V213.436L619.537 176.541L556.266 140.525Z" fill="white"/>
</g>
<g opacity="0.03">
<path d="M547.478 444.465C545.72 444.465 544.842 444.465 543.084 443.586C540.448 441.829 538.69 439.194 538.69 435.68V332.025C538.69 328.511 540.448 325.875 543.084 324.119C545.72 322.362 549.235 322.362 551.872 324.119L641.507 375.947C644.143 377.703 645.901 380.339 645.901 383.853C645.901 387.366 644.143 390.002 641.507 391.758L551.872 443.586C550.114 444.465 549.235 444.465 547.478 444.465ZM556.266 347.836V420.747L619.537 383.853L556.266 347.836Z" fill="white"/>
</g>
<g opacity="0.03">
<path d="M368.202 444.465C366.444 444.465 365.566 444.465 363.808 443.586L274.173 391.758C271.537 390.002 269.779 387.366 269.779 383.853C269.779 380.339 271.537 377.703 274.173 375.947L363.808 324.119C366.444 322.362 369.959 322.362 372.596 324.119C375.232 325.875 376.99 328.511 376.99 332.025V435.68C376.99 439.194 375.232 441.829 372.596 443.586C370.838 444.465 369.081 444.465 368.202 444.465ZM296.142 383.853L359.414 420.747V347.836L296.142 383.853Z" fill="white"/>
</g>
<g opacity="0.03">
<path d="M368.201 548.12C366.443 548.12 365.564 548.12 363.807 547.242C361.171 545.485 359.413 542.849 359.413 539.335V435.68C359.413 432.166 361.171 429.531 363.807 427.774C366.443 426.017 369.958 426.017 372.595 427.774L462.23 479.602C464.866 481.359 466.623 483.994 466.623 487.508C466.623 491.021 464.866 493.657 462.23 495.414L372.595 547.242C370.837 548.12 369.079 548.12 368.201 548.12ZM376.988 450.613V523.524L440.26 486.629L376.988 450.613Z" fill="white"/>
</g>
<g opacity="0.03">
<path d="M547.469 548.12C545.712 548.12 544.833 548.12 543.075 547.242L453.44 495.414C450.804 493.657 449.047 491.021 449.047 487.508C449.047 483.994 450.804 481.359 453.44 479.602L543.075 427.774C545.712 426.017 549.227 426.017 551.863 427.774C554.499 429.531 556.257 432.166 556.257 435.68V539.335C556.257 542.849 554.499 545.485 551.863 547.242C550.106 548.12 549.227 548.12 547.469 548.12ZM475.41 487.508L538.681 524.402V451.492L475.41 487.508Z" fill="white"/>
</g>
<g opacity="0.03">
<path d="M368.201 340.809C366.443 340.809 365.564 340.809 363.807 339.931C361.171 338.174 359.413 335.539 359.413 332.025V228.369C359.413 224.855 361.171 222.22 363.807 220.463C366.443 218.706 369.958 218.706 372.595 220.463L462.23 272.291C464.866 274.048 466.623 276.683 466.623 280.197C466.623 283.711 464.866 286.346 462.23 288.103L372.595 339.931C370.837 340.809 369.079 340.809 368.201 340.809ZM376.988 244.181V317.091L440.26 280.197L376.988 244.181Z" fill="white"/>
</g>
<g opacity="0.03">
<path d="M278.567 81.6706C275.931 81.6706 272.416 79.9137 270.658 77.2784C269.779 75.5215 269.779 74.6431 269.779 72.8862C269.779 70.2509 271.537 66.7369 274.173 64.98L363.808 13.1522C368.202 10.5169 373.475 12.2737 376.111 16.6659C376.99 18.4228 376.99 19.3012 376.99 21.0581C376.99 23.6934 375.232 27.2074 372.596 28.9643L282.961 80.7921C281.203 81.6705 279.446 81.6706 278.567 81.6706Z" fill="white"/>
</g>
<g opacity="0.03">
<path d="M726.746 340.809C724.989 340.809 724.11 340.809 722.352 339.931C719.716 338.174 717.958 335.539 717.958 332.025V228.369C717.958 224.855 719.716 222.22 722.352 220.463C724.989 218.706 728.504 218.706 731.14 220.463L820.775 272.291C823.411 274.048 825.169 276.683 825.169 280.197C825.169 283.711 823.411 286.346 820.775 288.103L731.14 339.931C730.261 340.809 728.504 340.809 726.746 340.809ZM735.534 244.181V317.091L798.806 280.197L735.534 244.181Z" fill="white"/>
</g>
<g opacity="0.03">
<path d="M98.4219 185.326C95.7856 185.326 92.2706 183.569 90.513 180.934C89.6343 179.177 89.6342 178.298 89.6342 176.541C89.6342 173.906 91.3918 170.392 94.0281 168.635L183.663 116.808C188.057 114.172 193.329 115.929 195.966 120.321C196.845 122.078 196.845 122.957 196.845 124.714C196.845 127.349 195.087 130.863 192.451 132.619L102.816 184.447C101.937 185.326 100.179 185.326 98.4219 185.326Z" fill="white"/>
</g>
<g opacity="0.03">
<path d="M98.4219 599.95C95.7856 599.95 92.2706 598.193 90.513 595.558C89.6343 593.801 89.6342 592.923 89.6342 591.166C89.6342 588.531 91.3918 585.017 94.0281 583.26L183.663 531.432C188.057 528.797 193.329 530.553 195.966 534.946C196.845 536.702 196.845 537.581 196.845 539.338C196.845 541.973 195.087 545.487 192.451 547.244L102.816 599.072C101.937 599.95 100.179 599.95 98.4219 599.95Z" fill="white"/>
</g>
<g opacity="0.03">
<path d="M368.201 133.498C366.443 133.498 365.564 133.498 363.807 132.62C361.171 130.863 359.413 128.228 359.413 124.714V21.0581C359.413 17.5443 361.171 14.9091 363.807 13.1522C366.443 11.3953 369.958 11.3953 372.595 13.1522L462.23 64.98C464.866 66.7369 466.623 69.3724 466.623 72.8862C466.623 76.3999 464.866 79.0352 462.23 80.7921L372.595 132.62C370.837 133.498 369.079 133.498 368.201 133.498ZM376.988 36.8701V109.78L440.26 72.8862L376.988 36.8701Z" fill="white"/>
</g>
<g opacity="0.03">
<path d="M98.4248 392.637C95.7885 392.637 92.2734 390.88 90.5159 388.245C87.8796 383.852 89.6371 378.582 94.0309 375.947L183.666 324.118C188.06 321.483 193.332 323.24 195.969 327.632C196.847 329.389 196.847 330.268 196.847 332.025C196.847 334.66 195.09 338.174 192.454 339.931L102.819 391.758C101.94 392.637 100.182 392.637 98.4248 392.637Z" fill="white"/>
</g>
<g opacity="0.03">
<path d="M637.113 703.603C635.355 703.603 634.476 703.603 632.719 702.725L543.084 650.897C540.448 649.14 538.69 646.505 538.69 642.991C538.69 641.234 538.69 640.356 539.569 638.599C542.205 634.207 547.478 633.328 551.872 635.085L641.507 686.913C644.143 688.67 645.901 691.305 645.901 694.819C645.901 696.576 645.9 697.454 645.022 699.211C643.264 701.846 639.749 703.603 637.113 703.603Z" fill="white"/>
</g>
<g opacity="0.03">
<path d="M547.478 651.778C545.72 651.778 544.842 651.778 543.084 650.9C540.448 649.143 538.69 646.507 538.69 642.994V539.338C538.69 535.824 540.448 533.189 543.084 531.432C545.72 529.675 549.235 529.675 551.872 531.432L641.507 583.26C644.143 585.017 645.901 587.652 645.901 591.166C645.901 594.68 644.143 597.315 641.507 599.072L551.872 650.9C550.114 650.9 549.235 651.778 547.478 651.778ZM556.266 554.271V627.182L619.537 590.287L556.266 554.271Z" fill="white"/>
</g>
<g opacity="0.03">
<path d="M726.737 444.465C724.979 444.465 724.101 444.465 722.343 443.586L632.708 391.758C630.072 390.002 628.314 387.366 628.314 383.853C628.314 380.339 630.072 377.703 632.708 375.947L722.343 324.119C724.979 322.362 728.495 322.362 731.131 324.119C733.767 325.875 735.525 328.511 735.525 332.025V435.68C735.525 439.194 733.767 441.829 731.131 443.586C730.252 444.465 728.495 444.465 726.737 444.465ZM654.678 383.853L717.949 420.747V347.836L654.678 383.853Z" fill="white"/>
</g>
<g opacity="0.03">
<path d="M726.737 651.778C724.979 651.778 724.101 651.778 722.343 650.9L632.708 599.072C630.072 597.315 628.314 594.68 628.314 591.166C628.314 587.652 630.072 585.017 632.708 583.26L722.343 531.432C724.979 529.675 728.495 529.675 731.131 531.432C733.767 533.189 735.525 535.824 735.525 539.338V642.994C735.525 646.507 733.767 649.143 731.131 650.9C730.252 650.9 728.495 651.778 726.737 651.778ZM654.678 591.166L717.949 628.06V555.15L654.678 591.166Z" fill="white"/>
</g>
<g opacity="0.03">
<path d="M188.933 444.465C187.175 444.465 186.297 444.465 184.539 443.586C181.903 441.829 180.145 439.194 180.145 435.68V332.025C180.145 328.511 181.903 325.875 184.539 324.119C187.175 322.362 190.69 322.362 193.327 324.119L282.962 375.947C285.598 377.703 287.355 380.339 287.355 383.853C287.355 387.366 285.598 390.002 282.962 391.758L193.327 443.586C191.569 444.465 189.812 444.465 188.933 444.465ZM197.721 347.836V420.747L260.992 383.853L197.721 347.836Z" fill="white"/>
</g>
<g opacity="0.03">
<path d="M98.4219 703.606C96.6644 703.606 95.7856 703.606 94.0281 702.727C91.3918 700.971 89.6342 698.335 89.6342 694.822V591.166C89.6342 587.652 91.3918 585.017 94.0281 583.26L183.663 531.432C186.299 529.675 189.814 529.675 192.451 531.432C195.087 533.189 196.845 535.824 196.845 539.338V642.994C196.845 646.507 195.087 649.143 192.451 650.9L102.816 702.727C101.937 702.727 100.179 703.606 98.4219 703.606ZM107.21 596.436V679.888L179.269 638.601V555.15L107.21 596.436Z" fill="white"/>
</g>
<g opacity="0.03">
<path d="M278.567 807.261C276.809 807.261 275.931 807.261 274.173 806.383C271.537 804.626 269.779 801.99 269.779 798.477V694.821C269.779 691.307 271.537 688.672 274.173 686.915L363.808 635.087C366.444 633.33 369.959 633.33 372.596 635.087C375.232 636.844 376.99 639.479 376.99 642.993V746.649C376.99 750.163 375.232 752.798 372.596 754.555L282.961 806.383C281.203 806.383 279.446 807.261 278.567 807.261ZM287.355 700.092V783.543L359.414 742.257V658.805L287.355 700.092Z" fill="white"/>
</g>
<g opacity="0.03">
<path d="M637.102 807.261C635.345 807.261 634.466 807.261 632.708 806.383C630.072 804.626 628.314 801.99 628.314 798.477V694.821C628.314 691.307 630.072 688.672 632.708 686.915L722.343 635.087C724.979 633.33 728.495 633.33 731.131 635.087C733.767 636.844 735.525 639.479 735.525 642.993V746.649C735.525 750.163 733.767 752.798 731.131 754.555L641.496 806.383C639.739 806.383 638.86 807.261 637.102 807.261ZM645.89 700.092V783.543L717.949 742.257V658.805L645.89 700.092Z" fill="white"/>
</g>
<g opacity="0.03">
<path d="M278.569 496.292C275.933 496.292 272.418 494.535 270.66 491.9C268.024 487.508 269.782 482.237 274.175 479.602L363.81 427.774C368.204 425.139 373.477 426.896 376.113 431.288C376.992 433.045 376.992 433.923 376.992 435.68C376.992 438.315 375.234 441.829 372.598 443.586L282.963 495.414C281.206 496.292 279.448 496.292 278.569 496.292Z" fill="white"/>
</g>
<g opacity="0.03">
<path d="M637.102 599.948C635.345 599.948 634.466 599.948 632.708 599.07C630.072 597.313 628.314 594.677 628.314 591.164V487.508C628.314 483.994 630.072 481.359 632.708 479.602L722.343 427.774C724.979 426.017 728.495 426.017 731.131 427.774C733.767 429.531 735.525 432.166 735.525 435.68V539.336C735.525 542.849 733.767 545.485 731.131 547.242L641.496 599.07C639.739 599.948 638.86 599.948 637.102 599.948ZM645.89 492.778V576.23L717.949 534.943V451.492L645.89 492.778Z" fill="white"/>
</g>
<g opacity="0.03">
<path d="M98.4219 496.293C96.6644 496.293 95.7856 496.292 94.0281 495.414C91.3918 493.657 89.6342 491.022 89.6342 487.508V383.852C89.6342 380.339 91.3918 377.703 94.0281 375.947L183.663 324.119C186.299 322.362 189.814 322.362 192.451 324.119C195.087 325.875 196.845 328.511 196.845 332.025V435.68C196.845 439.194 195.087 441.829 192.451 443.586L102.816 495.414C101.937 496.292 100.179 496.293 98.4219 496.293ZM107.21 389.123V472.575L179.269 431.288V347.836L107.21 389.123Z" fill="white"/>
</g>
<g opacity="0.03">
<path d="M278.567 599.948C276.809 599.948 275.931 599.948 274.173 599.07C271.537 597.313 269.779 594.677 269.779 591.164V487.508C269.779 483.994 271.537 481.359 274.173 479.602L363.808 427.774C366.444 426.017 369.959 426.017 372.596 427.774C375.232 429.531 376.99 432.166 376.99 435.68V539.336C376.99 542.849 375.232 545.485 372.596 547.242L282.961 599.07C281.203 599.948 279.446 599.948 278.567 599.948ZM287.355 492.778V576.23L359.414 534.943V451.492L287.355 492.778Z" fill="white"/>
</g>
<g opacity="0.03">
<path d="M457.834 703.606C456.077 703.606 455.198 703.606 453.44 702.727C450.804 700.971 449.047 698.335 449.047 694.822V591.166C449.047 587.652 450.804 585.017 453.44 583.26L543.075 531.432C545.712 529.675 549.227 529.675 551.863 531.432C554.499 533.189 556.257 535.824 556.257 539.338V642.994C556.257 646.507 554.499 649.143 551.863 650.9L462.228 702.727C460.471 702.727 459.592 703.606 457.834 703.606ZM466.622 596.436V679.888L538.681 638.601V555.15L466.622 596.436Z" fill="white"/>
</g>
<g opacity="0.03">
<path d="M457.837 185.326C455.201 185.326 451.686 183.569 449.928 180.934C447.292 176.541 449.05 171.271 453.443 168.635L543.078 116.808C547.472 114.172 552.745 115.929 555.381 120.321C556.26 122.078 556.26 122.957 556.26 124.714C556.26 127.349 554.502 129.984 551.866 131.741L462.231 183.569C460.474 185.326 459.595 185.326 457.837 185.326Z" fill="white"/>
</g>
<g opacity="0.03">
<path d="M278.569 288.981C275.933 288.981 272.418 287.224 270.66 284.589C268.024 280.197 269.782 274.926 274.175 272.291L363.81 220.463C368.204 217.828 373.477 219.585 376.113 223.977C376.992 225.734 376.992 226.612 376.992 228.369C376.992 231.004 375.234 234.518 372.598 236.275L282.963 288.103C281.206 288.981 279.448 288.981 278.569 288.981Z" fill="white"/>
</g>
<g opacity="0.03">
<path d="M457.834 81.6709C456.077 81.6709 455.198 81.6708 453.44 80.7924C450.804 79.0355 449.047 76.4002 449.047 72.8865V-30.7695C449.047 -34.2832 450.804 -36.9185 453.44 -38.6754L543.075 -90.5032C545.712 -92.2601 549.227 -92.2601 551.863 -90.5032C554.499 -88.7463 556.257 -86.1111 556.257 -82.5973V21.0584C556.257 24.5721 554.499 27.2077 551.863 28.9645L462.228 80.7924C460.471 81.6708 459.592 81.6709 457.834 81.6709ZM466.622 -25.4988V57.9529L538.681 16.6662V-66.7855L466.622 -25.4988Z" fill="white"/>
</g>
<g opacity="0.03">
<path d="M278.567 185.326C276.809 185.326 275.931 185.326 274.173 184.448C271.537 182.691 269.779 180.056 269.779 176.542V72.8862C269.779 69.3724 271.537 66.7369 274.173 64.98L363.808 13.1522C366.444 11.3953 369.959 11.3953 372.596 13.1522C375.232 14.9091 376.99 17.5443 376.99 21.0581V124.714C376.99 128.228 375.232 130.863 372.596 132.62L282.961 184.448C281.203 185.326 279.446 185.326 278.567 185.326ZM287.355 78.1566V161.608L359.414 120.322V36.8701L287.355 78.1566Z" fill="white"/>
</g>
<g opacity="0.03">
<path d="M98.4219 288.981C96.6644 288.981 95.7856 288.982 94.0281 288.103C91.3918 286.346 89.6342 283.711 89.6342 280.197V176.541C89.6342 173.028 91.3918 170.392 94.0281 168.635L183.663 116.808C186.299 115.051 189.814 115.051 192.451 116.808C195.087 118.565 196.845 121.2 196.845 124.714V228.369C196.845 231.883 195.087 234.518 192.451 236.275L102.816 288.103C101.937 288.982 100.179 288.981 98.4219 288.981ZM107.21 181.812V265.264L179.269 223.977V140.525L107.21 181.812Z" fill="white"/>
</g>
<g opacity="0.03">
<path d="M637.102 185.326C635.345 185.326 634.466 185.326 632.708 184.448C630.072 182.691 628.314 180.056 628.314 176.542V72.8862C628.314 69.3724 630.072 66.7369 632.708 64.98L722.343 13.1522C724.979 11.3953 728.495 11.3953 731.131 13.1522C733.767 14.9091 735.525 17.5443 735.525 21.0581V124.714C735.525 128.228 733.767 130.863 731.131 132.62L641.496 184.448C639.739 185.326 638.86 185.326 637.102 185.326ZM645.89 78.1566V161.608L717.949 120.322V36.8701L645.89 78.1566Z" fill="white"/>
</g>
<g opacity="0.03">
<path d="M457.834 288.981C456.077 288.981 455.198 288.982 453.44 288.103C450.804 286.346 449.047 283.711 449.047 280.197V176.541C449.047 173.028 450.804 170.392 453.44 168.635L543.075 116.808C545.712 115.051 549.227 115.051 551.863 116.808C554.499 118.565 556.257 121.2 556.257 124.714V228.369C556.257 231.883 554.499 234.518 551.863 236.275L462.228 288.103C460.471 288.982 459.592 288.981 457.834 288.981ZM466.622 181.812V265.264L538.681 223.977V140.525L466.622 181.812Z" fill="white"/>
</g>
<g opacity="0.03">
<path d="M278.567 392.637C276.809 392.637 275.931 392.637 274.173 391.759C271.537 390.002 269.779 387.367 269.779 383.853V280.197C269.779 276.683 271.537 274.048 274.173 272.291L363.808 220.463C366.444 218.706 369.959 218.706 372.596 220.463C375.232 222.22 376.99 224.855 376.99 228.369V332.025C376.99 332.903 376.99 333.782 376.111 334.66C375.232 336.417 374.353 338.174 372.596 339.931L282.961 391.759C281.203 392.637 279.446 392.637 278.567 392.637ZM287.355 285.468V368.919L359.414 327.633V244.181L287.355 285.468Z" fill="white"/>
</g>
<g opacity="0.03">
<path d="M637.102 392.637C635.345 392.637 634.466 392.637 632.708 391.759C630.072 390.002 628.314 387.367 628.314 383.853V280.197C628.314 276.683 630.072 274.048 632.708 272.291L722.343 220.463C724.979 218.706 728.495 218.706 731.131 220.463C733.767 222.22 735.525 224.855 735.525 228.369V332.025C735.525 335.539 733.767 338.174 731.131 339.931L641.496 391.759C639.739 392.637 638.86 392.637 637.102 392.637ZM645.89 285.468V368.919L717.949 327.633V244.181L645.89 285.468Z" fill="white"/>
</g>
<g opacity="0.03">
<path d="M457.834 496.293C456.077 496.293 455.198 496.292 453.44 495.414C450.804 493.657 449.047 491.022 449.047 487.508V383.852C449.047 380.339 450.804 377.703 453.44 375.947L543.075 324.119C545.712 322.362 549.227 322.362 551.863 324.119C554.499 325.875 556.257 328.511 556.257 332.025V435.68C556.257 439.194 554.499 441.829 551.863 443.586L462.228 495.414C460.471 496.292 459.592 496.293 457.834 496.293ZM466.622 389.123V472.575L538.681 431.288V347.836L466.622 389.123Z" fill="white"/>
</g>
<g opacity="0.03">
<path d="M816.381 703.606C814.624 703.606 813.745 703.606 811.987 702.727L722.352 650.9C719.716 649.143 717.958 646.507 717.958 642.994V539.338C717.958 535.824 719.716 533.189 722.352 531.432C724.989 529.675 728.504 529.675 731.14 531.432L820.775 583.26C823.411 585.017 825.169 587.652 825.169 591.166V694.822C825.169 698.335 823.411 700.971 820.775 702.727C819.896 702.727 818.139 703.606 816.381 703.606ZM735.534 637.723L807.593 679.01V595.558L735.534 554.271V637.723Z" fill="white"/>
</g>
<g opacity="0.03">
<path d="M637.113 807.261C635.355 807.261 634.476 807.261 632.719 806.383L543.084 754.555C540.448 752.798 538.69 750.163 538.69 746.649V642.993C538.69 639.479 540.448 636.844 543.084 635.087C545.72 633.33 549.235 633.33 551.872 635.087L641.507 686.915C644.143 688.672 645.901 691.307 645.901 694.821V798.477C645.901 801.99 644.143 804.626 641.507 806.383C639.749 806.383 638.87 807.261 637.113 807.261ZM556.266 741.378L628.325 782.665V699.213L556.266 657.927V741.378Z" fill="white"/>
</g>
<g opacity="0.03">
<path d="M816.381 496.293C814.624 496.293 813.745 496.292 811.987 495.414L722.352 443.586C719.716 441.829 717.958 439.194 717.958 435.68V332.025C717.958 328.511 719.716 325.875 722.352 324.119C724.989 322.362 728.504 322.362 731.14 324.119L820.775 375.947C823.411 377.703 825.169 380.339 825.169 383.852V487.508C825.169 491.022 823.411 493.657 820.775 495.414C819.896 496.292 818.139 496.293 816.381 496.293ZM735.534 430.41L807.593 471.696V388.245L735.534 346.958V430.41Z" fill="white"/>
</g>
<g opacity="0.03">
<path d="M457.836 81.6709C456.078 81.6709 455.199 81.6708 453.442 80.7924L363.807 28.9645C361.171 27.2077 359.413 24.5721 359.413 21.0584V-82.5973C359.413 -86.1111 361.171 -88.7463 363.807 -90.5032C366.443 -92.2601 369.958 -92.2601 372.595 -90.5032L462.23 -38.6754C464.866 -36.9185 466.623 -34.2832 466.623 -30.7695V72.8865C466.623 76.4002 464.866 79.0355 462.23 80.7924C460.472 81.6708 459.593 81.6709 457.836 81.6709ZM376.988 16.6662L449.048 57.9529V-25.4988L376.988 -66.7855V16.6662Z" fill="white"/>
</g>
<g opacity="0.03">
<path d="M278.568 185.326C276.81 185.326 275.931 185.326 274.174 184.448L184.539 132.62C181.903 130.863 180.145 128.228 180.145 124.714V21.0581C180.145 17.5443 181.903 14.9091 184.539 13.1522C187.175 11.3953 190.69 11.3953 193.327 13.1522L282.962 64.98C285.598 66.7369 287.355 69.3724 287.355 72.8862V176.542C287.355 180.056 285.598 182.691 282.962 184.448C281.204 185.326 279.446 185.326 278.568 185.326ZM197.721 120.322L269.78 161.608V78.1566L197.721 36.8701V120.322Z" fill="white"/>
</g>
<g opacity="0.03">
<path d="M637.113 185.326C635.355 185.326 634.476 185.326 632.719 184.448L543.084 132.62C540.448 130.863 538.69 128.228 538.69 124.714V21.0581C538.69 17.5443 540.448 14.9091 543.084 13.1522C545.72 11.3953 549.235 11.3953 551.872 13.1522L641.507 64.98C644.143 66.7369 645.901 69.3724 645.901 72.8862V176.542C645.901 180.056 644.143 182.691 641.507 184.448C639.749 185.326 638.87 185.326 637.113 185.326ZM556.266 120.322L628.325 161.608V78.1566L556.266 36.8701V120.322Z" fill="white"/>
</g>
<g opacity="0.03">
<path d="M457.836 288.981C456.078 288.981 455.199 288.982 453.442 288.103L363.807 236.275C361.171 234.518 359.413 231.883 359.413 228.369V124.714C359.413 121.2 361.171 118.565 363.807 116.808C366.443 115.051 369.958 115.051 372.595 116.808L462.23 168.635C464.866 170.392 466.623 173.028 466.623 176.541V280.197C466.623 283.711 464.866 286.346 462.23 288.103C460.472 288.982 459.593 288.981 457.836 288.981ZM376.988 223.977L449.048 265.264V181.812L376.988 140.525V223.977Z" fill="white"/>
</g>
<g opacity="0.03">
<path d="M816.381 288.981C814.624 288.981 813.745 288.982 811.987 288.103L722.352 236.275C719.716 234.518 717.958 231.883 717.958 228.369V124.714C717.958 121.2 719.716 118.565 722.352 116.808C724.989 115.051 728.504 115.051 731.14 116.808L820.775 168.635C823.411 170.392 825.169 173.028 825.169 176.541V280.197C825.169 283.711 823.411 286.346 820.775 288.103C819.896 288.982 818.139 288.981 816.381 288.981ZM735.534 223.977L807.593 265.264V181.812L735.534 140.525V223.977Z" fill="white"/>
</g>
<g opacity="0.03">
<path d="M637.113 392.637C635.355 392.637 634.477 392.637 633.598 391.759L543.084 339.931C540.448 338.174 538.69 335.539 538.69 332.025V228.369C538.69 224.855 540.448 222.22 543.084 220.463C545.72 218.706 549.235 218.706 551.872 220.463L641.507 272.291C644.143 274.048 645.901 276.683 645.901 280.197V383.853C645.901 386.488 644.143 390.002 641.507 391.759C640.628 392.637 638.87 392.637 637.113 392.637ZM556.266 326.754L628.325 368.041V284.589L556.266 243.303V326.754Z" fill="white"/>
</g>
<g opacity="0.03">
<path d="M98.4226 599.949C96.665 599.949 95.7863 599.949 94.0287 599.071L4.39387 547.243C1.75755 545.486 0 542.85 0 539.337C0 535.823 1.75755 533.188 4.39387 531.431L94.0287 479.603C96.665 477.846 100.18 477.846 102.816 479.603L192.451 531.431C195.088 533.188 196.845 535.823 196.845 539.337C196.845 542.85 195.088 545.486 192.451 547.243L102.816 599.071C101.938 599.071 100.18 599.949 98.4226 599.949ZM26.3632 539.337L98.4226 580.623L170.482 539.337L98.4226 498.05L26.3632 539.337Z" fill="white"/>
</g>
<g opacity="0.03">
<path d="M278.568 703.605C276.81 703.605 275.931 703.604 274.174 702.726L184.539 650.898C181.903 649.141 180.145 646.506 180.145 642.992C180.145 639.479 181.903 636.843 184.539 635.086L274.174 583.258C276.81 581.501 280.325 581.501 282.962 583.258L372.596 635.086C375.233 636.843 376.99 639.479 376.99 642.992C376.99 646.506 375.233 649.141 372.596 650.898L282.962 702.726C281.204 702.726 279.446 703.605 278.568 703.605ZM206.508 642.992L278.568 684.279L350.627 642.992L278.568 601.706L206.508 642.992Z" fill="white"/>
</g>
<g opacity="0.03">
<path d="M816.381 599.949C814.624 599.949 813.745 599.949 811.987 599.071L722.352 547.243C719.716 545.486 717.958 542.85 717.958 539.337C717.958 535.823 719.716 533.188 722.352 531.431L811.987 479.603C814.624 477.846 818.139 477.846 820.775 479.603L910.41 531.431C913.046 533.188 914.804 535.823 914.804 539.337C914.804 542.85 913.046 545.486 910.41 547.243L820.775 599.071C819.896 599.949 818.139 599.949 816.381 599.949ZM744.322 539.337L816.381 580.623L888.441 539.337L816.381 498.05L744.322 539.337Z" fill="white"/>
</g>
<g opacity="0.03">
<path d="M637.113 703.605C635.355 703.605 634.476 703.604 632.719 702.726L543.084 650.898C540.448 649.141 538.69 646.506 538.69 642.992C538.69 639.479 540.448 636.843 543.084 635.086L632.719 583.258C635.355 581.501 638.87 581.501 641.507 583.258L731.141 635.086C733.778 636.843 735.535 639.479 735.535 642.992C735.535 646.506 733.778 649.141 731.141 650.898L641.507 702.726C639.749 702.726 638.87 703.605 637.113 703.605ZM565.053 642.992L637.113 684.279L709.172 642.992L637.113 601.706L565.053 642.992Z" fill="white"/>
</g>
<g opacity="0.03">
<path d="M98.4226 392.638C96.665 392.638 95.7863 392.638 94.0287 391.76L4.39387 339.932C1.75755 338.175 0 335.54 0 332.026C0 328.512 1.75755 325.877 4.39387 324.12L94.0287 272.292C96.665 270.535 100.18 270.535 102.816 272.292L192.451 324.12C195.088 325.877 196.845 328.512 196.845 332.026C196.845 335.54 195.088 338.175 192.451 339.932L102.816 391.76C101.938 392.638 100.18 392.638 98.4226 392.638ZM26.3632 332.026L98.4226 373.312L170.482 332.026L98.4226 290.739L26.3632 332.026Z" fill="white"/>
</g>
<g opacity="0.03">
<path d="M278.568 496.293C276.81 496.293 275.931 496.293 274.174 495.415L184.539 443.587C181.903 441.83 180.145 439.195 180.145 435.681C180.145 432.167 181.903 429.532 184.539 427.775L274.174 375.947C276.81 374.191 280.325 374.191 282.962 375.947L372.596 427.775C375.233 429.532 376.99 432.167 376.99 435.681C376.99 439.195 375.233 441.83 372.596 443.587L282.962 495.415C281.204 496.293 279.446 496.293 278.568 496.293ZM206.508 435.681L278.568 476.968L350.627 435.681L278.568 394.394L206.508 435.681Z" fill="white"/>
</g>
<g opacity="0.03">
<path d="M816.381 392.638C814.624 392.638 813.745 392.638 811.987 391.76L722.352 339.932C719.716 338.175 717.958 335.54 717.958 332.026C717.958 328.512 719.716 325.877 722.352 324.12L811.987 272.292C814.624 270.535 818.139 270.535 820.775 272.292L910.41 324.12C913.046 325.877 914.804 328.512 914.804 332.026C914.804 335.54 913.046 338.175 910.41 339.932L820.775 391.76C819.896 392.638 818.139 392.638 816.381 392.638ZM744.322 332.026L816.381 373.312L888.441 332.026L816.381 290.739L744.322 332.026Z" fill="white"/>
</g>
<g opacity="0.03">
<path d="M457.836 599.949C456.078 599.949 455.199 599.949 453.442 599.071L363.807 547.243C361.171 545.486 359.413 542.85 359.413 539.337C359.413 535.823 361.171 533.188 363.807 531.431L453.442 479.603C456.078 477.846 459.593 477.846 462.23 479.603L551.864 531.431C554.501 533.188 556.258 535.823 556.258 539.337C556.258 542.85 554.501 545.486 551.864 547.243L462.23 599.071C460.472 599.949 459.593 599.949 457.836 599.949ZM385.776 539.337L457.836 580.623L529.895 539.337L457.836 498.05L385.776 539.337Z" fill="white"/>
</g>
<g opacity="0.03">
<path d="M98.4226 703.606C96.665 703.606 95.7862 703.606 94.0287 702.727L4.39387 650.9C1.75755 649.143 0 646.507 0 642.994V539.338C0 535.824 1.75755 533.189 4.39387 531.432C7.03019 529.675 10.5453 529.675 13.1816 531.432L102.816 583.26C105.453 585.017 107.21 587.652 107.21 591.166V694.822C107.21 698.335 105.453 700.971 102.816 702.727C101.938 702.727 100.18 703.606 98.4226 703.606ZM17.5755 637.723L89.6348 679.01V595.558L17.5755 554.271V637.723Z" fill="white"/>
</g>
<g opacity="0.03">
<path d="M547.478 548.122C542.205 548.122 538.69 544.608 538.69 539.337V435.682C538.69 430.411 542.205 426.897 547.478 426.897C552.751 426.897 556.266 430.411 556.266 435.682V469.941V539.337C556.266 544.608 551.872 548.122 547.478 548.122Z" fill="white"/>
</g>
<g opacity="0.03">
<path d="M278.568 807.261C276.81 807.261 275.931 807.261 274.174 806.383L184.539 754.555C181.903 752.798 180.145 750.163 180.145 746.649V642.993C180.145 639.479 181.903 636.844 184.539 635.087C187.175 633.33 190.69 633.33 193.327 635.087L282.962 686.915C285.598 688.672 287.355 691.307 287.355 694.821V798.477C287.355 801.99 285.598 804.626 282.962 806.383C281.204 806.383 279.446 807.261 278.568 807.261ZM197.721 741.378L269.78 782.665V699.213L197.721 657.927V741.378Z" fill="white"/>
</g>
<g opacity="0.03">
<path d="M637.113 496.292C635.355 496.292 634.476 496.292 632.719 495.414L543.084 443.586C540.448 441.829 538.69 439.194 538.69 435.68C538.69 433.923 538.69 433.045 539.569 431.288C542.205 426.896 546.599 426.017 550.993 427.774H551.872L641.507 479.602C645.9 482.238 646.779 487.508 645.022 491.9C643.264 494.536 639.749 496.292 637.113 496.292Z" fill="white"/>
</g>
<g opacity="0.03">
<path d="M368.201 237.154C362.928 237.154 359.413 233.64 359.413 228.369V124.714C359.413 121.2 361.171 118.565 363.807 116.808C366.443 115.051 369.958 115.051 372.595 116.808L462.23 168.635C466.623 171.271 467.502 176.541 465.745 180.934C463.108 185.326 457.836 186.204 453.442 184.447H452.563L376.988 140.525V229.248C376.988 233.64 372.595 237.154 368.201 237.154Z" fill="white"/>
</g>
<g opacity="0.03">
<path d="M98.4226 496.293C96.665 496.293 95.7862 496.292 94.0287 495.414L4.39387 443.586C1.75755 441.829 0 439.194 0 435.68V332.025C0 328.511 1.75755 325.875 4.39387 324.119C7.03019 322.362 10.5453 322.362 13.1816 324.119L102.816 375.947C105.453 377.703 107.21 380.339 107.21 383.852V487.508C107.21 491.022 105.453 493.657 102.816 495.414C101.938 496.292 100.18 496.293 98.4226 496.293ZM17.5755 430.41L89.6348 471.696V388.245L17.5755 346.958V430.41Z" fill="white"/>
</g>
<g opacity="0.03">
<path d="M547.478 340.809C542.205 340.809 538.69 337.296 538.69 332.025V228.369C538.69 224.855 540.448 222.22 543.084 220.463C545.72 218.706 549.235 218.706 551.872 220.463L641.507 272.291C645.9 274.926 646.779 280.197 645.022 284.589C642.385 288.981 637.113 289.86 632.719 288.103H631.84L556.266 244.181V332.903C556.266 337.295 551.872 340.809 547.478 340.809Z" fill="white"/>
</g>
<g opacity="0.03">
<path d="M278.568 599.948C276.81 599.948 275.931 599.948 274.174 599.07L184.539 547.242C181.903 545.485 180.145 542.849 180.145 539.336V435.68C180.145 432.166 181.903 429.531 184.539 427.774C187.175 426.017 190.69 426.017 193.327 427.774L282.962 479.602C285.598 481.359 287.355 483.994 287.355 487.508V591.164C287.355 594.677 285.598 597.313 282.962 599.07C281.204 599.948 279.446 599.948 278.568 599.948ZM197.721 534.065L269.78 575.352V491.9L197.721 450.613V534.065Z" fill="white"/>
</g>
<g opacity="0.03">
<path d="M457.836 703.606C456.078 703.606 455.199 703.606 453.442 702.727L363.807 650.9C361.171 649.143 359.413 646.507 359.413 642.994V539.338C359.413 535.824 361.171 533.189 363.807 531.432C366.443 529.675 369.958 529.675 372.595 531.432L462.23 583.26C464.866 585.017 466.623 587.652 466.623 591.166V694.822C466.623 698.335 464.866 700.971 462.23 702.727C460.472 702.727 459.593 703.606 457.836 703.606ZM376.988 637.723L449.048 679.01V595.558L376.988 554.271V637.723Z" fill="white"/>
</g>
<g opacity="0.03">
<path d="M98.4226 288.981C96.665 288.981 95.7862 288.982 94.0287 288.103L4.39387 236.275C1.75755 234.518 0 231.883 0 228.369V124.714C0 121.2 1.75755 118.565 4.39387 116.808C7.03019 115.051 10.5453 115.051 13.1816 116.808L102.816 168.635C105.453 170.392 107.21 173.028 107.21 176.541V280.197C107.21 283.711 105.453 286.346 102.816 288.103C101.938 288.982 100.18 288.981 98.4226 288.981ZM17.5755 223.977L89.6348 265.264V181.812L17.5755 140.525V223.977Z" fill="white"/>
</g>
<g opacity="0.03">
<path d="M278.568 392.637C276.81 392.637 275.931 392.637 274.174 391.759L184.539 339.931C181.903 338.174 180.145 335.539 180.145 332.025V228.369C180.145 224.855 181.903 222.22 184.539 220.463C187.175 218.706 190.69 218.706 193.327 220.463L282.962 272.291C285.598 274.048 287.355 276.683 287.355 280.197V383.853C287.355 387.367 285.598 390.002 282.962 391.759C281.204 392.637 279.446 392.637 278.568 392.637ZM197.721 326.754L269.78 368.041V284.589L197.721 243.303V326.754Z" fill="white"/>
</g>
<g opacity="0.03">
<path d="M457.836 496.293C456.078 496.293 455.199 496.293 453.442 495.415L363.807 443.587C362.049 442.709 361.171 441.83 360.292 440.073C359.413 439.195 359.413 437.438 359.413 436.56V332.904C359.413 329.39 361.171 326.755 363.807 324.998C366.443 323.241 369.958 323.241 372.595 324.998L462.23 376.826C464.866 378.582 466.623 381.218 466.623 384.732V488.387C466.623 491.901 464.866 494.536 462.23 496.293C460.472 496.293 459.593 496.293 457.836 496.293ZM376.988 430.41L449.048 471.697V388.245L376.988 346.959V430.41Z" fill="white"/>
</g>
<g opacity="0.03">
<path d="M457.836 392.638C456.078 392.638 455.199 392.638 453.442 391.759L363.807 339.931C361.171 338.174 359.413 335.539 359.413 332.025C359.413 328.512 361.171 325.876 363.807 324.119L453.442 272.291C455.199 271.413 457.836 270.534 459.593 271.413C460.472 271.413 461.351 272.291 462.23 272.291L551.864 324.119C553.622 324.998 554.501 325.876 555.379 327.633C557.137 332.025 556.258 337.296 551.864 339.053L462.23 390.881C460.472 392.638 459.593 392.638 457.836 392.638ZM385.776 332.025L457.836 373.312L529.895 332.025L457.836 290.739L385.776 332.025Z" fill="white"/>
</g>
<g opacity="0.03">
<path d="M547.471 444.466C544.835 444.466 541.319 442.709 539.562 440.073C536.926 435.681 538.683 430.411 543.077 427.775L632.712 375.947C635.348 374.191 639.742 374.191 642.378 375.947C643.257 376.826 644.136 377.704 645.015 378.583C647.651 382.975 645.894 388.245 641.5 390.881L551.865 442.709C550.107 444.465 549.228 444.466 547.471 444.466Z" fill="white"/>
</g>
<g opacity="0.03">
<path d="M188.936 444.465C186.299 444.465 182.784 442.708 181.027 440.073C178.39 435.681 180.148 430.41 184.542 427.775L274.177 375.947C276.813 375.068 279.449 374.19 281.207 375.068C282.964 375.947 284.722 376.825 285.601 378.582C288.237 382.974 286.479 387.366 282.964 390.002C282.964 390.002 282.964 390.002 282.086 390.002L192.451 441.83C191.572 444.465 189.814 444.465 188.936 444.465Z" fill="white"/>
</g>
<g opacity="0.03">
<path d="M368.21 444.466C366.452 444.466 365.574 444.466 363.816 443.588L274.181 391.76C269.787 389.124 268.909 383.854 270.666 379.462C273.303 375.069 278.575 374.191 282.969 375.948L372.604 427.776C376.998 430.411 377.876 435.682 376.119 440.074C374.361 442.709 370.846 444.466 368.21 444.466Z" fill="white"/>
</g>
<g opacity="0.03">
<path d="M726.746 444.467C724.988 444.467 724.109 444.467 722.352 443.588L632.717 391.76C628.323 389.125 627.444 383.854 629.202 379.462C629.202 378.584 630.081 378.584 630.959 377.705C633.596 375.07 637.99 374.192 641.505 375.949L731.14 427.776C735.533 430.412 736.412 435.682 734.655 440.074C732.897 442.71 730.261 444.467 726.746 444.467Z" fill="white"/>
</g>
<g opacity="0.03">
<path d="M368.203 548.121C365.567 548.121 362.052 546.364 360.295 543.729C357.658 539.337 359.416 534.066 363.81 531.431L453.445 479.603C456.081 477.846 459.596 477.846 462.232 479.603C463.99 480.481 464.869 481.36 465.747 483.117C468.384 486.63 466.626 491.901 463.111 494.536C463.111 494.536 462.232 494.536 462.232 495.415L372.597 547.243C370.84 548.121 369.082 548.121 368.203 548.121Z" fill="white"/>
</g>
<g opacity="0.03">
<path d="M547.472 548.122C545.714 548.122 544.836 548.122 543.078 547.243H542.199L452.564 495.415L461.352 480.482L550.987 532.31C552.745 533.188 553.623 534.067 554.502 535.824C555.381 538.459 555.381 541.094 554.502 544.608C553.623 546.365 550.108 548.122 547.472 548.122Z" fill="white"/>
</g>
<g opacity="0.03">
<path d="M457.836 185.325C456.078 185.325 455.199 185.325 453.442 184.446L363.807 132.619C361.171 130.862 359.413 128.227 359.413 124.713C359.413 121.199 361.171 118.564 363.807 116.807L453.442 64.9788C456.078 63.2219 459.593 63.2219 462.23 64.9788L551.864 116.807C554.501 118.564 556.258 121.199 556.258 124.713C556.258 128.227 554.501 130.862 551.864 132.619L462.23 184.446C460.472 185.325 459.593 185.325 457.836 185.325ZM385.776 124.713L457.836 165.999L529.895 124.713L457.836 83.426L385.776 124.713Z" fill="white"/>
</g>
<g opacity="0.03">
<path d="M637.113 288.98C635.355 288.98 634.476 288.98 632.719 288.102L543.084 236.274C540.448 234.517 538.69 231.882 538.69 228.368C538.69 224.854 540.448 222.219 543.084 220.462L632.719 168.634C635.355 166.877 638.87 166.877 641.507 168.634L731.141 220.462C733.778 222.219 735.535 224.854 735.535 228.368C735.535 231.882 733.778 234.517 731.141 236.274L641.507 288.102C639.749 288.98 638.87 288.98 637.113 288.98ZM565.053 228.368L637.113 269.655L709.172 228.368L637.113 187.081L565.053 228.368Z" fill="white"/>
</g>
<g opacity="0.03">
<path d="M278.568 288.98C276.81 288.98 275.931 288.98 274.174 288.102L184.539 236.274C181.903 234.517 180.145 231.882 180.145 228.368C180.145 224.854 181.903 222.219 184.539 220.462L274.174 168.634C276.81 166.877 280.325 166.877 282.962 168.634L372.596 220.462C375.233 222.219 376.99 224.854 376.99 228.368C376.99 231.882 375.233 234.517 372.596 236.274L282.962 288.102C281.204 288.98 279.446 288.98 278.568 288.98ZM206.508 228.368L278.568 269.655L350.627 228.368L278.568 187.081L206.508 228.368Z" fill="white"/>
</g>
<g opacity="0.03">
<path d="M278.568 81.6695C276.81 81.6695 275.931 81.6694 274.174 80.791L184.539 28.9632C181.903 27.2063 180.145 24.5708 180.145 21.057C180.145 17.5433 181.903 14.908 184.539 13.1511L274.174 -38.6767C276.81 -40.4336 280.325 -40.4336 282.962 -38.6767L372.596 13.1511C375.233 14.908 376.99 17.5433 376.99 21.057C376.99 24.5708 375.233 27.2063 372.596 28.9632L282.962 80.791C281.204 81.6694 279.446 81.6695 278.568 81.6695ZM206.508 21.9355L278.568 63.2222L350.627 21.9355L278.568 -19.351L206.508 21.9355Z" fill="white"/>
</g>
<g opacity="0.03">
<path d="M98.4226 185.325C96.665 185.325 95.7863 185.325 94.0287 184.446L4.39387 132.619C1.75755 130.862 0 128.227 0 124.713C0 121.199 1.75755 118.564 4.39387 116.807L94.0287 64.9788C96.665 63.2219 100.18 63.2219 102.816 64.9788L192.451 116.807C195.088 118.564 196.845 121.199 196.845 124.713C196.845 128.227 195.088 130.862 192.451 132.619L102.816 184.446C101.938 185.325 100.18 185.325 98.4226 185.325ZM26.3632 124.713L98.4226 165.999L170.482 124.713L98.4226 83.426L26.3632 124.713Z" fill="white"/>
</g>
<g opacity="0.03">
<path d="M637.113 81.6695C635.355 81.6695 634.476 81.6694 632.719 80.791L543.084 28.9632C540.448 27.2063 538.69 24.5708 538.69 21.057C538.69 17.5433 540.448 14.908 543.084 13.1511L632.719 -38.6767C635.355 -40.4336 638.87 -40.4336 641.507 -38.6767L731.141 13.1511C733.778 14.908 735.535 17.5433 735.535 21.057C735.535 24.5708 733.778 27.2063 731.141 28.9632L641.507 80.791C639.749 81.6694 638.87 81.6695 637.113 81.6695ZM565.053 21.9355L637.113 63.2222L709.172 21.9355L637.113 -19.351L565.053 21.9355Z" fill="white"/>
</g>
<g opacity="0.03">
<path d="M816.381 185.325C814.624 185.325 813.745 185.325 811.987 184.446L722.352 132.619C719.716 130.862 717.958 128.227 717.958 124.713C717.958 121.199 719.716 118.564 722.352 116.807L811.987 64.9788C814.624 63.2219 818.139 63.2219 820.775 64.9788L910.41 116.807C913.046 118.564 914.804 121.199 914.804 124.713C914.804 128.227 913.046 130.862 910.41 132.619L820.775 184.446C819.896 185.325 818.139 185.325 816.381 185.325ZM744.322 124.713L816.381 165.999L888.441 124.713L816.381 83.426L744.322 124.713Z" fill="white"/>
</g>
<g opacity="0.03">
<path d="M637.113 599.948C635.355 599.948 634.476 599.948 632.719 599.07L543.084 547.242C540.448 545.485 538.69 542.849 538.69 539.336V435.68C538.69 432.166 540.448 429.531 543.084 427.774C545.72 426.017 549.235 426.017 551.872 427.774L641.507 479.602C644.143 481.359 645.901 483.994 645.901 487.508V591.164C645.901 594.677 644.143 597.313 641.507 599.07C639.749 599.948 638.87 599.948 637.113 599.948ZM556.266 534.065L628.325 575.352V491.9L556.266 450.613V534.065Z" fill="white"/>
</g>
</g>
<defs>
<clipPath id="clip0">
<rect width="727" height="647" fill="white"/>
</clipPath>
</defs>
</svg>
