<svg width="366" height="345" viewBox="0 0 366 345" fill="none" xmlns="http://www.w3.org/2000/svg">
<path d="M20.9712 284.234C19.6312 283.843 18.0308 283.636 16.9894 284.555C16.5477 285.025 16.2615 285.62 16.1697 286.259C16.0779 286.897 16.185 287.548 16.4764 288.124C17.0867 289.266 17.9292 290.267 18.9497 291.064C16.4644 289.523 13.4894 288.976 10.6186 289.533C9.67679 289.716 8.58947 290.214 8.47461 291.171C8.4804 291.512 8.55609 291.849 8.69701 292.16C8.83793 292.47 9.04109 292.749 9.29393 292.978C11.0665 295.019 13.1124 296.804 15.3738 298.285C14.0538 298.439 12.7891 298.903 11.683 299.64C10.6416 300.452 10.0367 301.983 10.6875 303.132C11.1015 303.732 11.6705 304.208 12.3338 304.51C16.4404 306.73 21.0278 307.91 25.6957 307.948C28.1613 307.948 30.7418 307.627 32.7633 306.21C34.7848 304.793 36.9211 302.542 36.0252 300.245L36.1707 300.919C35.3643 297.031 33.5282 293.431 30.8543 290.496C28.1805 287.561 24.7671 285.398 20.9712 284.234Z" fill="#EBEBEB"/>
<path d="M36.0559 302.289C36.0559 302.343 34.9609 301.769 33.1614 301.003C30.8188 300.015 28.3814 299.268 25.8871 298.775C23.3906 298.291 20.8482 298.086 18.3065 298.162C16.3539 298.231 15.1517 298.407 15.144 298.338C15.4133 298.24 15.6936 298.176 15.9787 298.147C16.7394 298.02 17.5061 297.933 18.2758 297.887C20.8387 297.724 23.4118 297.888 25.933 298.377C28.4567 298.873 30.9118 299.67 33.2457 300.75C34.1339 301.164 34.8384 301.516 35.3131 301.815C35.5823 301.936 35.8325 302.096 36.0559 302.289Z" fill="#E0E0E0"/>
<path d="M26.8442 298.874C26.3408 298.602 25.8771 298.262 25.466 297.864C24.6466 297.19 23.5593 296.217 22.4031 295.092C21.2468 293.966 20.2667 292.879 19.5776 292.075C19.1785 291.664 18.8313 291.207 18.5438 290.712C18.6281 290.635 20.3892 292.557 22.6787 294.808C24.9682 297.06 26.9208 298.767 26.8442 298.874Z" fill="#E0E0E0"/>
<path d="M355.185 237.617C355.553 235.496 355.583 233.022 353.983 231.56C352.505 230.227 350.154 230.388 348.409 231.407C346.663 232.425 345.491 234.087 344.343 235.718C346.259 231.629 346.568 226.968 345.208 222.662C344.748 221.238 343.799 219.653 342.306 219.653C341.249 219.653 340.392 220.457 339.679 221.23C336.862 224.321 334.486 227.787 332.619 231.529C332.007 229.577 331.348 227.555 329.909 226.1C328.469 224.645 326.019 223.987 324.365 225.189C323.513 225.925 322.884 226.885 322.55 227.961C319.853 234.661 318.84 241.92 319.602 249.102C320.008 252.893 320.996 256.76 323.523 259.654C326.05 262.548 329.886 265.389 333.263 263.605L332.244 263.95C338.077 262.02 343.284 258.557 347.32 253.924C351.356 249.292 354.073 243.659 355.185 237.617Z" fill="#EBEBEB"/>
<path d="M330.123 264.003C330.228 263.575 330.366 263.155 330.537 262.748C330.828 261.982 331.218 260.795 331.655 259.348C332.091 257.901 332.543 256.155 332.941 254.194C333.36 252.072 333.659 249.927 333.837 247.77C333.992 245.609 334.023 243.441 333.929 241.277C333.814 239.286 333.63 237.494 333.393 236.001C333.301 235.235 333.148 234.584 333.048 233.987C332.949 233.39 332.834 232.892 332.734 232.456C332.62 232.032 332.54 231.599 332.497 231.162C332.655 231.571 332.786 231.99 332.887 232.417C333.01 232.831 333.14 233.329 333.263 233.949C333.385 234.569 333.554 235.212 333.668 235.963C333.981 237.718 334.188 239.489 334.289 241.269C334.409 243.448 334.388 245.632 334.227 247.808C334.052 249.982 333.743 252.143 333.301 254.279C332.936 256.023 332.476 257.746 331.923 259.44C331.448 260.879 331.019 262.035 330.682 262.809C330.528 263.221 330.341 263.621 330.123 264.003Z" fill="#E0E0E0"/>
<path d="M333.768 249.24C333.845 249.015 333.956 248.803 334.097 248.612C334.335 248.222 334.687 247.663 335.146 246.989C336.05 245.626 337.352 243.788 338.883 241.828C340.414 239.868 341.892 238.153 342.987 236.943C343.539 236.346 343.99 235.863 344.312 235.542C344.634 235.22 344.817 235.044 344.84 235.067C344.343 235.791 343.796 236.48 343.202 237.127C342.16 238.382 340.728 240.113 339.197 242.073C337.666 244.033 336.341 245.833 335.368 247.15C334.88 247.88 334.346 248.578 333.768 249.24Z" fill="#E0E0E0"/>
<path d="M356.357 19.0187C356.441 17.8318 356.311 16.4612 355.354 15.7644C354.88 15.4852 354.333 15.3582 353.785 15.4007C353.237 15.4431 352.715 15.653 352.291 16.0018C351.423 16.7155 350.72 17.609 350.231 18.6205C351.046 16.2608 350.945 13.6808 349.948 11.3921C349.618 10.6264 349.006 9.86069 348.179 9.90663C347.897 9.97628 347.632 10.1025 347.401 10.2775C347.169 10.4526 346.975 10.6729 346.831 10.925C345.463 12.7856 344.352 14.8231 343.531 16.9819C343.165 15.91 342.548 14.9412 341.732 14.1564C341.314 13.7747 340.778 13.5481 340.214 13.5147C339.649 13.4812 339.09 13.6429 338.63 13.9726C338.225 14.4193 337.947 14.9667 337.826 15.5577C336.737 19.3926 336.603 23.4358 337.436 27.3344C337.88 29.3942 338.646 31.4846 340.2 32.9089C341.755 34.3331 344.029 35.6961 345.782 34.5245L345.246 34.7696C348.339 33.3793 351.001 31.1842 352.956 28.4136C354.91 25.6429 356.085 22.3984 356.357 19.0187Z" fill="#EBEBEB"/>
<path d="M344.105 34.961C344.044 34.961 344.32 33.9426 344.618 32.2963C345.002 30.1619 345.172 27.9942 345.124 25.826C345.057 23.656 344.756 21.4996 344.228 19.3939C343.814 17.7783 343.462 16.8135 343.516 16.7828C343.65 16.9882 343.758 17.2094 343.837 17.4414C344.097 18.0546 344.316 18.6838 344.496 19.325C345.115 21.4338 345.46 23.6137 345.522 25.8107C345.577 28.0103 345.366 30.2085 344.894 32.3576C344.71 33.1769 344.526 33.8354 344.381 34.2796C344.323 34.519 344.23 34.7486 344.105 34.961Z" fill="#E0E0E0"/>
<path d="M345.223 26.6376C345.818 25.0822 346.589 23.5999 347.52 22.2194C348.349 20.7735 349.341 19.4273 350.476 18.207C350.576 18.2759 349.312 20.106 347.857 22.4262C346.402 24.7463 345.33 26.6912 345.223 26.6376Z" fill="#E0E0E0"/>
<path d="M344.35 269.471C338.773 267.284 332.649 266.909 326.846 268.399C329.836 273.222 334.205 277.037 339.388 279.348C344.542 281.646 352.321 281.692 357.858 280.65C354.641 275.598 349.915 271.687 344.35 269.471Z" fill="#EBEBEB"/>
<path d="M349.81 277.074C349.503 276.977 349.207 276.846 348.929 276.684C348.309 276.37 347.52 275.987 346.586 275.527C344.603 274.563 341.823 273.315 338.669 272.151C335.514 270.987 332.581 270.144 330.452 269.593L327.918 268.958C327.6 268.901 327.29 268.812 326.991 268.69C327.314 268.691 327.635 268.729 327.949 268.804C328.561 268.904 329.434 269.072 330.514 269.317C336.148 270.601 341.593 272.603 346.716 275.275C347.696 275.788 348.478 276.224 349.014 276.546C349.296 276.695 349.562 276.872 349.81 277.074Z" fill="#E0E0E0"/>
<path d="M111.763 19.4858C109.933 15.4658 106.357 10.5805 102.75 8C91.7314 0.24325 78.2011 0.0365031 66.7613 3.57413C63.0858 4.24031 59.2649 6.0857 55.6736 8.51303C50.5881 12.0128 46.1454 16.3649 42.5415 21.3771C36.8369 29.5397 36.3622 41.2859 42.1204 49.4025C47.8786 57.5191 59.8162 60.8883 68.6143 56.2098C77.4124 51.5312 81.846 40.7499 91.1495 37.5185C97.5739 35.2826 105.759 36.8906 110.384 31.8905C113.378 28.6515 113.623 23.4982 111.763 19.4858Z" fill="#EBEBEB"/>
<path d="M34.7765 86.5244C40.8894 84.0434 43.8336 77.0767 41.3527 70.9638C38.8717 64.8509 31.905 61.9067 25.7921 64.3876C19.6792 66.8686 16.735 73.8352 19.2159 79.9482C21.6969 86.0611 28.6636 89.0053 34.7765 86.5244Z" fill="#EBEBEB"/>
<path d="M337.725 309.978C339.231 303.555 335.244 297.127 328.821 295.622C322.398 294.117 315.97 298.103 314.465 304.526C312.96 310.949 316.946 317.377 323.37 318.882C329.793 320.387 336.22 316.401 337.725 309.978Z" fill="#EBEBEB"/>
<path d="M184.958 332.505C198.148 332.505 208.841 321.812 208.841 308.622C208.841 295.432 198.148 284.739 184.958 284.739C171.768 284.739 161.075 295.432 161.075 308.622C161.075 321.812 171.768 332.505 184.958 332.505Z" fill="#EBEBEB"/>
<path d="M360.308 55.7044C358.797 55.489 357.258 55.5933 355.79 56.0107C358.988 54.7043 361.579 52.2448 363.049 49.1192C363.532 48.0855 363.815 46.7072 362.988 45.9261C362.657 45.6952 362.283 45.5341 361.888 45.4524C361.493 45.3708 361.086 45.3705 360.691 45.4514C357.512 45.7215 354.385 46.4221 351.395 47.5341C352.172 46.1766 352.618 44.6551 352.697 43.093C352.643 41.5615 351.609 39.8846 350.055 39.7008C349.194 39.6706 348.343 39.8829 347.597 40.3134C342.615 42.6817 338.287 46.2333 334.993 50.6583C333.255 52.9554 331.785 55.6967 331.716 58.6065C331.647 61.5162 332.305 65.1304 335.123 65.8808L334.358 65.5439C338.624 67.4876 343.335 68.2495 347.997 67.7497C352.659 67.25 357.101 65.507 360.859 62.7031C362.161 61.7076 363.478 60.3293 363.332 58.6907C363.248 57.1746 361.793 56.0336 360.308 55.7044Z" fill="#0F7CE3"/>
<path d="M356.211 55.9265C355.913 56.0555 355.603 56.1531 355.285 56.2174L352.735 56.9142C350.591 57.5192 347.651 58.4457 344.457 59.6172C341.264 60.7888 338.416 61.9833 336.356 62.8332L333.906 63.8363C333.614 63.9796 333.305 64.0851 332.987 64.1503C333.259 63.9719 333.546 63.8181 333.845 63.6909C334.404 63.4152 335.223 63.0323 336.241 62.5729C338.278 61.654 341.119 60.4289 344.32 59.242C347.052 58.2226 349.838 57.3535 352.666 56.6386C353.753 56.3782 354.634 56.1791 355.246 56.0643C355.562 55.9815 355.885 55.9352 356.211 55.9265Z" fill="#263238"/>
<path d="M351.625 47.0747C351.477 47.3746 351.3 47.6593 351.096 47.9247C350.744 48.4836 350.231 49.2494 349.465 50.1376C347.624 52.5131 345.59 54.7335 343.385 56.7764C341.174 58.8133 338.798 60.6625 336.28 62.3049C335.315 62.9328 334.518 63.4152 333.982 63.7291C333.701 63.9116 333.401 64.0631 333.086 64.1809C333.338 63.9615 333.61 63.7667 333.898 63.599C334.442 63.2467 335.208 62.726 336.157 62.0675C338.613 60.367 340.949 58.4993 343.148 56.4778C345.335 54.4462 347.381 52.2691 349.274 49.9615C350.001 49.0732 350.576 48.3458 350.974 47.8328C351.163 47.5578 351.381 47.3036 351.625 47.0747Z" fill="#263238"/>
<g opacity="0.3">
<path opacity="0.3" d="M334.786 63.262C341.509 60.9649 347.911 56.1026 350.101 49.257C345.246 55.1224 340.277 60.36 334.786 63.262Z" fill="black"/>
</g>
<path d="M318.408 7.13472C316.447 5.60328 313.921 4.14075 311.554 4.96773C309.357 5.73345 308.193 8.26033 308.262 10.5805C308.331 12.9006 309.372 15.0293 310.414 17.0891C307.309 12.8386 302.72 9.91114 297.557 8.88822C295.85 8.55896 293.729 8.64319 292.856 10.167C292.266 11.239 292.603 12.5713 293.001 13.7352C294.572 18.3529 296.77 22.7329 299.533 26.7525C297.197 26.2854 294.755 25.826 292.473 26.4768C290.191 27.1277 288.123 29.2717 288.43 31.6301C288.708 32.9142 289.336 34.0963 290.244 35.0452C295.571 41.5375 302.407 46.627 310.153 49.8696C314.242 51.5465 318.836 52.7564 323.14 51.7686C327.443 50.7808 332.574 48.4836 332.619 44.0424L332.397 45.2676C333.688 38.2412 333.071 30.9973 330.611 24.2904C328.15 17.5836 323.936 11.6593 318.408 7.13472Z" fill="#0F7CE3"/>
<path d="M331.302 47.4805C331.302 47.4805 331.188 47.3886 331.011 47.1972L330.246 46.3473C329.924 45.9797 329.534 45.5203 329.044 45.0149C328.553 44.5095 328.025 43.8893 327.413 43.292C326.187 42.0286 324.656 40.589 322.879 39.0806C320.939 37.465 318.912 35.9568 316.807 34.5628C314.688 33.19 312.489 31.9447 310.222 30.8338C308.367 29.9296 306.465 29.1245 304.525 28.4217C303.706 28.1001 302.94 27.8781 302.282 27.656C301.623 27.434 301.033 27.2578 300.559 27.1277L299.471 26.8061C299.341 26.7723 299.215 26.7235 299.096 26.6606C299.228 26.6665 299.359 26.6871 299.487 26.7218L300.605 26.9745C301.087 27.0894 301.669 27.2349 302.343 27.4416C303.017 27.6484 303.79 27.8474 304.64 28.1537C306.607 28.8267 308.534 29.609 310.414 30.4968C312.703 31.604 314.922 32.8493 317.06 34.2259C319.179 35.6343 321.212 37.1685 323.148 38.8202C324.721 40.1709 326.224 41.6022 327.65 43.1083C328.27 43.7438 328.783 44.3564 329.25 44.8847C329.717 45.4131 330.1 45.8725 330.407 46.263L331.103 47.1666C331.181 47.2636 331.248 47.3689 331.302 47.4805Z" fill="#263238"/>
<path d="M318.255 35.4664C318.078 35.2536 317.929 35.0195 317.81 34.7696C317.55 34.3101 317.183 33.6287 316.746 32.7864C315.873 31.1018 314.732 28.7357 313.584 26.071C312.435 23.4063 311.509 20.9407 310.888 19.1795C310.574 18.2836 310.337 17.5485 310.184 17.0431C310.087 16.7831 310.018 16.5136 309.977 16.2391C310.129 16.4769 310.248 16.7346 310.329 17.0049C310.551 17.5791 310.827 18.276 311.149 19.0953C311.838 20.8641 312.81 23.2991 313.951 25.9868C315.092 28.6744 316.195 31.0252 317.014 32.7404C317.389 33.5061 317.703 34.2183 317.964 34.7772C318.086 34.9956 318.183 35.2267 318.255 35.4664Z" fill="#263238"/>
<path opacity="0.3" d="M299.51 26.7448C299.51 26.7448 311.47 26.1093 317.496 34.7772C317.496 34.7772 308.208 28.4064 299.51 26.7448Z" fill="black"/>
<path d="M78.7831 264.83C77.489 262.196 75.5364 259.409 72.6573 259.095C69.9543 258.796 67.4504 260.887 66.3554 263.375C65.2604 265.864 65.2758 268.674 65.2987 271.385C64.1582 265.331 60.7791 259.929 55.8344 256.254C54.1958 255.044 51.8833 254.057 50.2294 255.243C49.0578 256.078 48.7515 257.655 48.5831 259.072C47.9278 264.734 48.0514 270.458 48.9506 276.086C46.7224 274.417 44.3563 272.702 41.6303 272.258C38.9043 271.814 35.6347 273.024 34.7388 275.673C34.3842 277.168 34.4531 278.732 34.9379 280.191C37.3066 289.74 41.9754 298.565 48.5371 305.896C52.0135 309.763 56.1943 313.293 61.294 314.434C66.3937 315.575 72.9177 315.705 75.2225 311.042L74.3802 312.228C84.3575 298.874 86.111 279.823 78.7831 264.83Z" fill="#0F7CE3"/>
<path d="M72.0983 313.997C72.0308 313.858 71.9794 313.712 71.9452 313.561C71.8533 313.224 71.7308 312.795 71.5776 312.282C71.4245 311.769 71.2407 311.042 70.988 310.261C70.7353 309.479 70.4827 308.584 70.1228 307.611C69.7629 306.639 69.4183 305.574 68.9512 304.449C68.4841 303.323 67.9941 302.152 67.4198 300.88C66.1874 298.193 64.8043 295.578 63.2772 293.047C61.7246 290.531 60.027 288.107 58.1928 285.788C57.3199 284.739 56.5083 283.728 55.6813 282.84C54.8543 281.952 54.0962 281.117 53.3841 280.382C52.672 279.647 51.9829 279.011 51.3932 278.437C50.8036 277.863 50.2753 277.403 49.8618 277.021L48.8664 276.14C48.743 276.042 48.6324 275.929 48.5371 275.803C48.6723 275.881 48.8004 275.971 48.92 276.071L49.9614 276.906C50.4131 277.266 50.9644 277.717 51.5617 278.276C52.159 278.835 52.8864 279.44 53.6062 280.183C54.326 280.926 55.1376 281.714 55.9646 282.618C56.7916 283.522 57.6339 284.509 58.5144 285.558C60.3778 287.878 62.0963 290.31 63.6601 292.84C65.1931 295.385 66.5738 298.019 67.795 300.727C68.331 301.991 68.8593 303.185 69.2728 304.326C69.6863 305.467 70.0768 306.539 70.3984 307.527C70.72 308.515 70.9727 309.411 71.2101 310.199C71.4475 310.988 71.6083 311.677 71.7384 312.244C71.8686 312.81 71.9528 313.201 72.0294 313.538C72.0744 313.687 72.0976 313.842 72.0983 313.997Z" fill="#263238"/>
<path d="M64.3416 294.762C64.2768 294.447 64.2434 294.127 64.242 293.805C64.1961 293.185 64.1578 292.274 64.1195 291.171C64.0583 288.951 64.0353 285.872 64.1655 282.48C64.2956 279.088 64.5483 276.025 64.7857 273.812C64.9082 272.702 65.0154 271.814 65.1073 271.193C65.1284 270.871 65.1875 270.552 65.2834 270.244C65.3137 270.565 65.3137 270.888 65.2834 271.209C65.2298 271.913 65.1686 272.794 65.092 273.835C64.9235 276.048 64.7168 279.111 64.5866 282.495C64.4564 285.88 64.4335 288.943 64.4258 291.163C64.4258 292.212 64.4258 293.093 64.4258 293.798C64.4351 294.121 64.4068 294.445 64.3416 294.762Z" fill="#263238"/>
<path opacity="0.3" d="M48.92 276.102C48.92 276.102 61.8836 281.462 63.8975 293.637C63.8975 293.637 57.2816 282.228 48.92 276.102Z" fill="black"/>
<path d="M353.141 98.6383C347.151 98.0718 341.474 95.7006 336.861 91.8381C332.248 87.9756 328.916 82.8038 327.305 77.0067C333.655 77.1776 339.786 79.3599 344.816 83.2392C349.846 87.1185 353.514 92.4944 355.292 98.5924" fill="#455A64"/>
<path d="M348.141 92.5815C347.864 92.3884 347.607 92.1678 347.375 91.9229C346.9 91.4712 346.203 90.8356 345.33 90.0546C343.6 88.5231 341.134 86.4021 338.263 84.2887C335.391 82.1753 332.65 80.4601 330.606 79.2732C329.602 78.676 328.783 78.2089 328.209 77.8873C327.905 77.7317 327.616 77.5498 327.344 77.3436C327.67 77.4482 327.985 77.5841 328.285 77.7495C328.875 78.0251 329.717 78.4616 330.743 79.0282C333.42 80.5057 335.999 82.1554 338.462 83.9671C340.927 85.7763 343.275 87.7405 345.491 89.8478C346.341 90.6595 347.023 91.3257 347.451 91.8081C347.708 92.0405 347.939 92.2998 348.141 92.5815Z" fill="#263238"/>
<path d="M42.0055 320.751C34.5746 320.876 27.3713 323.335 21.4153 327.78C27.3803 331.425 36.4387 334.764 43.4221 334.388C50.4494 333.992 57.1947 331.49 62.7795 327.206C56.7033 322.929 49.4358 320.67 42.0055 320.751Z" fill="#455A64"/>
<path d="M32.3268 327.206C32.706 327.087 33.0958 327.005 33.4907 326.961C34.2564 326.823 35.3514 326.662 36.7144 326.501C40.2728 326.095 43.853 325.908 47.4345 325.943C51.0203 325.974 54.6007 326.229 58.1546 326.708C59.5099 326.9 60.6049 327.076 61.3629 327.229C61.7561 327.281 62.1433 327.37 62.5192 327.497C62.1209 327.495 61.7236 327.457 61.3323 327.382C60.5666 327.283 59.4793 327.145 58.1163 326.992C55.398 326.685 51.6306 326.379 47.4498 326.333C43.269 326.287 39.5016 326.524 36.7756 326.777C35.4203 326.9 34.3177 327.015 33.552 327.106C33.147 327.173 32.7372 327.206 32.3268 327.206Z" fill="#263238"/>
<path d="M365.461 153.862C363.21 136.396 348.569 122.468 332.106 116.25C314.189 109.458 294.326 110.124 275.298 111.058C272.418 111.238 269.569 110.382 267.265 108.646C261.354 104.052 264.087 97.0992 266.836 91.5784C272.518 80.1844 278.197 68.788 283.874 57.3889C287.036 51.0335 290.306 43.6825 285.329 37.1433C283.306 34.5922 280.504 32.774 277.35 31.967C269.47 29.7771 261.798 32.3116 254.148 33.9349C241.032 36.7145 223.887 34.6394 219.415 22.005C218.236 18.6741 218.152 14.9757 216.506 11.8439C213.626 6.346 206.551 4.14072 200.425 5.05193C194.483 5.94017 189.185 9.12557 184.085 12.3186C135.269 29.7308 90.3932 56.6581 52.0594 91.5401C33.5673 108.386 7.73952 125.063 1.6597 149.337C-3.4936 169.873 3.96452 199.331 15.6111 216.942C27.2577 234.554 51.3396 243.306 72.2745 246.637C77.3895 247.456 82.8797 247.87 87.5046 249.945V249.899C96.9613 253.789 102.888 257.954 102.245 266.109C101.816 271.469 100.667 273.598 98.9598 278.636C98.8679 279.241 98.24 281.186 97.995 281.921C95.3533 289.938 99.358 298.767 107.329 301.539C107.857 301.723 108.401 301.876 108.937 302.006C115.829 303.652 123.088 301.692 129.305 298.361C135.523 295.03 140.929 290.405 146.603 286.217C159.943 276.392 174.891 268.964 190.777 264.264C199.69 261.63 209.92 260.037 217.807 264.892C224.86 269.218 228.29 277.664 229.76 285.811C232.616 298.063 239.952 308.966 252.211 312.06C264.47 315.153 277.48 311.631 288.966 306.424C301.86 300.589 314.816 291.11 317.474 277.227C318.775 270.443 316.769 262.403 310.712 259.08C309.45 258.429 308.129 257.895 306.769 257.487C305.758 257.403 304.755 257.303 303.759 257.15C297.289 256.193 290.053 251.989 292.396 243.957C293.039 241.886 294.174 240.002 295.704 238.467C309.403 224.209 327.336 214.982 342.168 202.003C356.211 189.805 367.843 172.285 365.461 153.862Z" fill="#AA6550"/>
<path d="M243.176 95.4835C243.176 95.629 241.721 95.897 239.079 96.3411C236.437 96.7853 232.616 97.4821 227.93 98.4545C223.244 99.427 217.669 100.69 211.467 102.092C205.265 103.493 198.45 104.978 191.145 106.119C184.287 107.223 177.347 107.735 170.402 107.651C164.713 107.579 159.05 106.873 153.517 105.545C149.788 104.656 146.164 103.372 142.705 101.717C142.159 101.475 141.627 101.201 141.113 100.897L139.972 100.239C139.359 99.8711 139.053 99.6491 139.091 99.5878C139.13 99.5265 139.489 99.5878 140.148 99.8788L141.358 100.361C141.833 100.56 142.384 100.79 143.012 101.004C146.525 102.354 150.144 103.412 153.831 104.167C159.294 105.264 164.853 105.816 170.425 105.813C177.264 105.796 184.092 105.246 190.846 104.167C198.044 103.041 204.867 101.609 211.084 100.338C217.302 99.0671 222.915 97.9032 227.67 97.1145C232.425 96.3258 236.292 95.8281 238.979 95.6214C241.667 95.4146 243.16 95.3534 243.176 95.4835Z" fill="#723F33"/>
<path d="M171.711 252.38C171.359 252.303 172.247 248.551 172.339 242.464C172.339 241.698 172.339 240.932 172.339 240.075C172.339 239.217 172.247 238.382 172.201 237.486C172.201 237.042 172.201 236.583 172.124 236.123L171.964 234.722C171.849 233.773 171.78 232.793 171.627 231.797C170.958 227.472 169.999 223.198 168.755 219.002C166.411 211.366 163.472 203.926 159.965 196.75C157.308 191.206 155.531 187.822 155.792 187.669C156.052 187.516 158.219 190.678 161.221 196.092C165.16 203.196 168.333 210.698 170.685 218.474C171.958 222.767 172.882 227.156 173.449 231.598C173.587 232.624 173.633 233.635 173.725 234.607C173.725 235.097 173.794 235.58 173.832 236.047C173.87 236.514 173.832 236.996 173.832 237.456C173.832 238.375 173.832 239.255 173.832 240.113C173.832 240.97 173.732 241.782 173.694 242.563C173.656 243.344 173.602 244.095 173.51 244.784C173.418 245.473 173.304 246.131 173.204 246.752C173.105 247.372 173.013 247.931 172.928 248.452C172.844 248.972 172.676 249.439 172.561 249.86C172.155 251.507 171.818 252.41 171.711 252.38Z" fill="#723F33"/>
<path d="M218.941 241.843C218.803 241.882 218.473 240.978 217.991 239.317C217.869 238.895 217.738 238.428 217.601 237.923C217.463 237.418 217.363 236.851 217.233 236.246C216.996 235.036 216.674 233.665 216.467 232.119C216.36 231.353 216.253 230.541 216.138 229.707C216.023 228.872 215.985 227.984 215.908 227.073C215.724 225.25 215.717 223.29 215.671 221.23C215.678 212.275 217.195 203.386 220.158 194.935C220.885 193.013 221.544 191.168 222.317 189.506C222.693 188.679 223.029 187.86 223.405 187.102C223.78 186.344 224.17 185.617 224.523 184.927C225.204 183.534 225.962 182.347 226.59 181.283C226.912 180.762 227.195 180.264 227.486 179.82L228.321 178.641C229.331 177.232 229.944 176.489 230.059 176.566C230.174 176.642 229.783 177.523 228.987 179.047C228.78 179.422 228.558 179.812 228.313 180.302C228.068 180.792 227.831 181.283 227.547 181.834C227.019 182.929 226.36 184.131 225.771 185.555L224.791 187.745C224.454 188.511 224.163 189.323 223.826 190.15C223.129 191.804 222.547 193.634 221.889 195.51C220.569 199.674 219.523 203.92 218.757 208.221C218.048 212.527 217.626 216.876 217.493 221.238C217.493 223.252 217.432 225.174 217.547 226.958C217.585 227.854 217.585 228.727 217.654 229.554C217.723 230.381 217.792 231.177 217.853 231.943C217.937 233.474 218.16 234.837 218.297 236.039C218.366 236.644 218.428 237.211 218.489 237.731C218.55 238.252 218.642 238.712 218.711 239.14C218.994 240.856 219.071 241.813 218.941 241.843Z" fill="#723F33"/>
<path d="M125.002 230.725C124.756 230.78 124.529 230.898 124.343 231.068C124.157 231.238 124.018 231.453 123.941 231.693C123.863 231.933 123.85 232.189 123.902 232.435C123.954 232.682 124.069 232.911 124.236 233.099C124.44 233.256 124.678 233.363 124.931 233.409C125.184 233.456 125.444 233.441 125.69 233.366C125.936 233.291 126.161 233.158 126.345 232.978C126.529 232.799 126.667 232.577 126.748 232.333C126.787 232.101 126.767 231.862 126.691 231.639C126.615 231.416 126.484 231.216 126.311 231.056C126.137 230.896 125.927 230.782 125.698 230.725C125.47 230.667 125.23 230.667 125.002 230.725Z" fill="#723F33"/>
<path d="M175.011 165.639C174.764 165.702 174.536 165.827 174.349 166C174.162 166.174 174.022 166.392 173.94 166.634C173.859 166.876 173.839 167.134 173.883 167.386C173.927 167.637 174.033 167.874 174.192 168.074C174.399 168.236 174.642 168.346 174.9 168.395C175.158 168.444 175.424 168.43 175.676 168.355C175.928 168.28 176.158 168.146 176.347 167.964C176.537 167.782 176.68 167.557 176.765 167.308C176.806 167.072 176.788 166.83 176.713 166.602C176.638 166.375 176.508 166.169 176.335 166.004C176.161 165.839 175.95 165.719 175.719 165.656C175.488 165.592 175.245 165.586 175.011 165.639Z" fill="#723F33"/>
<path d="M111.862 223.68C111.616 223.735 111.389 223.854 111.203 224.024C111.017 224.193 110.878 224.409 110.801 224.648C110.724 224.888 110.71 225.144 110.762 225.391C110.814 225.637 110.929 225.866 111.096 226.054C111.299 226.214 111.537 226.322 111.791 226.369C112.044 226.416 112.305 226.402 112.552 226.327C112.799 226.252 113.024 226.118 113.207 225.937C113.391 225.756 113.529 225.534 113.608 225.288C113.647 225.056 113.628 224.818 113.551 224.595C113.475 224.372 113.344 224.171 113.171 224.011C112.997 223.852 112.787 223.738 112.558 223.68C112.33 223.622 112.091 223.622 111.862 223.68Z" fill="#723F33"/>
<path d="M263.651 231.322C263.405 231.377 263.178 231.496 262.992 231.665C262.806 231.835 262.667 232.051 262.59 232.29C262.512 232.53 262.499 232.786 262.551 233.032C262.603 233.279 262.718 233.508 262.885 233.696C263.089 233.854 263.327 233.96 263.58 234.007C263.833 234.053 264.093 234.038 264.339 233.963C264.585 233.888 264.81 233.755 264.994 233.575C265.178 233.396 265.316 233.175 265.397 232.93C265.436 232.698 265.416 232.459 265.34 232.236C265.264 232.013 265.133 231.813 264.96 231.653C264.786 231.494 264.576 231.38 264.347 231.322C264.119 231.264 263.879 231.264 263.651 231.322Z" fill="#723F33"/>
<path d="M269.325 251.032C269.079 251.087 268.852 251.205 268.666 251.375C268.48 251.545 268.341 251.76 268.264 252C268.186 252.24 268.173 252.496 268.225 252.742C268.277 252.989 268.392 253.217 268.559 253.406C268.763 253.563 269.001 253.67 269.254 253.716C269.507 253.763 269.767 253.748 270.013 253.673C270.259 253.598 270.484 253.465 270.668 253.285C270.852 253.106 270.99 252.884 271.071 252.64C271.11 252.408 271.09 252.169 271.014 251.946C270.938 251.723 270.807 251.523 270.634 251.363C270.46 251.203 270.25 251.089 270.021 251.032C269.793 250.974 269.553 250.974 269.325 251.032Z" fill="#723F33"/>
<path d="M293.851 265.098C293.605 265.153 293.378 265.272 293.192 265.441C293.006 265.611 292.867 265.827 292.79 266.066C292.712 266.306 292.699 266.562 292.751 266.808C292.803 267.055 292.918 267.284 293.085 267.472C293.289 267.63 293.527 267.736 293.78 267.783C294.033 267.829 294.293 267.814 294.539 267.739C294.785 267.664 295.01 267.531 295.194 267.351C295.378 267.172 295.516 266.951 295.597 266.706C295.636 266.474 295.616 266.235 295.54 266.012C295.464 265.789 295.333 265.589 295.16 265.429C294.986 265.27 294.776 265.156 294.547 265.098C294.319 265.04 294.079 265.04 293.851 265.098Z" fill="#723F33"/>
<path d="M286.676 232.08C286.43 232.135 286.203 232.254 286.017 232.423C285.831 232.593 285.692 232.809 285.615 233.048C285.538 233.288 285.524 233.544 285.576 233.791C285.628 234.037 285.743 234.266 285.91 234.454C286.113 234.613 286.351 234.721 286.605 234.769C286.858 234.816 287.119 234.802 287.366 234.727C287.613 234.652 287.838 234.518 288.021 234.337C288.205 234.156 288.343 233.934 288.422 233.688C288.461 233.456 288.442 233.218 288.365 232.995C288.289 232.772 288.158 232.571 287.985 232.411C287.811 232.252 287.601 232.138 287.372 232.08C287.144 232.022 286.905 232.022 286.676 232.08Z" fill="#723F33"/>
<path d="M245.212 246.3C244.967 246.355 244.739 246.473 244.553 246.643C244.367 246.813 244.228 247.028 244.151 247.268C244.074 247.508 244.06 247.763 244.112 248.01C244.164 248.257 244.279 248.485 244.447 248.674C244.65 248.831 244.888 248.938 245.141 248.984C245.394 249.031 245.655 249.016 245.901 248.941C246.147 248.866 246.371 248.733 246.555 248.553C246.739 248.373 246.877 248.152 246.958 247.908C246.997 247.675 246.978 247.437 246.902 247.214C246.825 246.991 246.694 246.791 246.521 246.631C246.348 246.471 246.137 246.357 245.909 246.299C245.68 246.242 245.441 246.242 245.212 246.3Z" fill="#723F33"/>
<path d="M255.611 270.543C255.365 270.598 255.138 270.716 254.952 270.886C254.766 271.055 254.627 271.271 254.55 271.511C254.472 271.75 254.459 272.006 254.511 272.253C254.563 272.499 254.678 272.728 254.845 272.916C255.049 273.074 255.287 273.18 255.54 273.227C255.793 273.273 256.053 273.258 256.299 273.183C256.545 273.108 256.77 272.975 256.954 272.796C257.138 272.616 257.276 272.395 257.357 272.151C257.396 271.918 257.376 271.68 257.3 271.457C257.224 271.234 257.093 271.033 256.92 270.874C256.746 270.714 256.536 270.6 256.307 270.542C256.079 270.484 255.839 270.484 255.611 270.543Z" fill="#723F33"/>
<path d="M125.316 246.583C125.07 246.638 124.843 246.756 124.657 246.926C124.471 247.096 124.332 247.311 124.255 247.551C124.177 247.791 124.164 248.047 124.216 248.293C124.268 248.54 124.383 248.769 124.55 248.957C124.754 249.114 124.992 249.221 125.245 249.267C125.498 249.314 125.758 249.299 126.004 249.224C126.25 249.149 126.475 249.016 126.659 248.836C126.843 248.657 126.981 248.435 127.062 248.191C127.101 247.959 127.081 247.72 127.005 247.497C126.929 247.274 126.798 247.074 126.625 246.914C126.451 246.754 126.241 246.641 126.012 246.583C125.784 246.525 125.544 246.525 125.316 246.583Z" fill="#723F33"/>
<path d="M180.54 186.053C180.285 186.105 180.048 186.223 179.853 186.395C179.658 186.568 179.512 186.788 179.429 187.035C179.346 187.281 179.329 187.545 179.381 187.8C179.432 188.055 179.549 188.292 179.72 188.488C179.927 188.65 180.17 188.76 180.428 188.809C180.686 188.858 180.953 188.844 181.204 188.769C181.456 188.694 181.687 188.56 181.876 188.378C182.065 188.196 182.208 187.971 182.293 187.722C182.334 187.486 182.317 187.244 182.242 187.016C182.167 186.789 182.037 186.584 181.863 186.418C181.69 186.253 181.478 186.133 181.247 186.07C181.016 186.006 180.773 186 180.54 186.053Z" fill="#723F33"/>
<path d="M205.954 198.94C205.708 198.995 205.481 199.113 205.295 199.283C205.109 199.453 204.97 199.668 204.893 199.908C204.815 200.148 204.802 200.404 204.854 200.65C204.906 200.897 205.021 201.125 205.188 201.314C205.392 201.471 205.63 201.578 205.883 201.624C206.136 201.671 206.396 201.656 206.642 201.581C206.888 201.506 207.113 201.373 207.297 201.193C207.481 201.014 207.619 200.792 207.7 200.548C207.739 200.316 207.719 200.077 207.643 199.854C207.567 199.631 207.436 199.431 207.263 199.271C207.089 199.111 206.879 198.997 206.65 198.94C206.422 198.882 206.182 198.882 205.954 198.94Z" fill="#723F33"/>
<path d="M193.58 163.204C193.334 163.259 193.107 163.377 192.921 163.547C192.735 163.717 192.596 163.932 192.519 164.172C192.441 164.412 192.428 164.667 192.48 164.914C192.531 165.161 192.647 165.389 192.814 165.578C193.018 165.735 193.256 165.842 193.509 165.888C193.762 165.935 194.022 165.92 194.268 165.845C194.514 165.77 194.739 165.637 194.923 165.457C195.107 165.277 195.245 165.056 195.326 164.812C195.365 164.579 195.345 164.341 195.269 164.118C195.193 163.895 195.062 163.695 194.888 163.535C194.715 163.375 194.505 163.261 194.276 163.204C194.048 163.146 193.808 163.146 193.58 163.204Z" fill="#723F33"/>
<path d="M177.178 145.317C176.932 145.372 176.705 145.49 176.519 145.66C176.333 145.829 176.194 146.045 176.117 146.285C176.039 146.524 176.026 146.78 176.078 147.027C176.13 147.273 176.245 147.502 176.412 147.69C176.616 147.848 176.854 147.954 177.107 148.001C177.36 148.047 177.62 148.032 177.866 147.957C178.112 147.882 178.337 147.75 178.521 147.57C178.705 147.39 178.843 147.169 178.924 146.925C178.963 146.692 178.944 146.454 178.867 146.231C178.791 146.008 178.66 145.807 178.487 145.648C178.313 145.488 178.103 145.374 177.874 145.316C177.646 145.258 177.407 145.259 177.178 145.317Z" fill="#723F33"/>
<path d="M110.407 241.085C110.16 241.138 109.93 241.255 109.741 241.424C109.552 241.592 109.409 241.807 109.328 242.047C109.247 242.288 109.23 242.545 109.278 242.793C109.326 243.042 109.438 243.274 109.603 243.467C109.807 243.624 110.045 243.731 110.298 243.777C110.551 243.824 110.811 243.809 111.057 243.734C111.303 243.659 111.528 243.526 111.712 243.346C111.896 243.166 112.034 242.945 112.115 242.701C112.153 242.472 112.135 242.237 112.061 242.017C111.987 241.797 111.86 241.598 111.691 241.439C111.523 241.279 111.317 241.163 111.093 241.102C110.87 241.04 110.634 241.034 110.407 241.085Z" fill="#723F33"/>
<path d="M64.6172 227.172C64.3714 227.227 64.1441 227.345 63.958 227.515C63.7718 227.685 63.6332 227.9 63.5559 228.14C63.4786 228.38 63.4651 228.636 63.517 228.882C63.5688 229.129 63.6842 229.358 63.8515 229.546C64.0548 229.703 64.293 229.81 64.546 229.856C64.799 229.903 65.0594 229.888 65.3055 229.813C65.5515 229.738 65.776 229.605 65.96 229.425C66.144 229.246 66.2823 229.024 66.3631 228.78C66.4022 228.548 66.3827 228.309 66.3064 228.086C66.23 227.863 66.0992 227.663 65.9258 227.503C65.7525 227.343 65.542 227.23 65.3135 227.172C65.085 227.114 64.8457 227.114 64.6172 227.172Z" fill="#723F33"/>
<path d="M91.2797 232.348C91.0338 232.403 90.8065 232.522 90.6204 232.691C90.4343 232.861 90.2956 233.077 90.2183 233.316C90.1409 233.556 90.1275 233.812 90.1794 234.059C90.2312 234.305 90.3466 234.534 90.5139 234.722C90.7173 234.88 90.9554 234.986 91.2084 235.033C91.4614 235.079 91.7218 235.064 91.9679 234.989C92.2139 234.914 92.4384 234.781 92.6224 234.602C92.8064 234.422 92.9447 234.201 93.0255 233.956C93.0646 233.724 93.0451 233.485 92.9687 233.262C92.8924 233.039 92.7616 232.839 92.5882 232.679C92.4149 232.52 92.2044 232.406 91.9759 232.348C91.7474 232.29 91.5081 232.29 91.2797 232.348Z" fill="#723F33"/>
<path d="M59.2572 174.253C58.8094 174.362 58.342 174.362 57.8942 174.253C56.7959 174.088 55.7484 173.679 54.8288 173.057C53.9093 172.434 53.1409 171.613 52.5801 170.654C52.3253 170.272 52.1579 169.838 52.0901 169.383C52.372 169.737 52.6279 170.111 52.8558 170.501C53.458 171.375 54.2159 172.13 55.0917 172.729C55.9707 173.321 56.9522 173.745 57.9861 173.978C58.4156 174.04 58.8403 174.132 59.2572 174.253Z" fill="#263238"/>
<path d="M65.0078 172.974C65.0078 173.02 64.6172 173.02 64.0353 172.829C63.2835 172.558 62.6018 172.122 62.04 171.554C61.4783 170.986 61.0507 170.299 60.7886 169.544C60.6049 168.954 60.5972 168.572 60.6508 168.564C61.0464 169.557 61.6112 170.474 62.3201 171.275C63.1125 171.99 64.0215 172.565 65.0078 172.974Z" fill="#263238"/>
<path d="M154.827 163.081C138.313 162.954 122.063 158.921 107.406 151.312C95.0776 144.895 84.0053 135.998 71.0034 131.074C62.7435 127.995 53.9535 126.591 45.1454 126.943C36.3374 127.295 27.6876 129.397 19.7001 133.126C28.3987 123.042 40.4358 115.637 53.5832 113.57C66.8685 111.51 80.3222 114.872 93.3394 118.202L138.624 129.803C141.281 130.485 144.045 131.227 146.082 133.073C151.779 138.241 148.502 148.517 153.318 154.513C154.13 150.095 155.792 141.098 157.315 137.131C156.642 143.165 156.603 153.977 155.937 160.018" fill="#263238"/>
<path d="M166.382 139.007C166.818 139.421 162.706 143.801 160.064 150.493C157.423 157.185 157.277 163.181 156.672 163.181C156.419 163.181 156.09 161.649 156.159 159.192C156.211 157.74 156.385 156.295 156.68 154.873C157.046 153.125 157.558 151.412 158.211 149.75C158.884 148.096 159.696 146.503 160.639 144.987C161.414 143.759 162.29 142.596 163.257 141.511C164.927 139.689 166.205 138.839 166.382 139.007Z" fill="#263238"/>
<path d="M125.523 127.843C125.523 127.736 126.135 127.69 127.054 128.18C128.271 128.955 129.22 130.086 129.772 131.419C131.258 134.688 131.863 139.375 132.575 144.436C132.886 146.781 133.338 149.106 133.93 151.396C134.421 153.247 135.099 155.043 135.952 156.756C137.43 159.651 138.953 161.09 138.739 161.351C138.525 161.611 136.664 160.424 134.727 157.484C133.638 155.763 132.781 153.907 132.177 151.963C131.446 149.616 130.921 147.211 130.607 144.773C130.27 142.238 129.949 139.834 129.65 137.629C129.419 135.73 129.024 133.855 128.471 132.024C128.113 130.841 127.471 129.763 126.602 128.884C125.959 128.218 125.477 127.996 125.523 127.843Z" fill="#455A64"/>
<path d="M113.118 123.915C113.118 123.915 113.218 124.007 113.371 124.198C113.604 124.474 113.821 124.763 114.022 125.063C114.772 126.159 115.408 127.329 115.921 128.555C116.669 130.375 117.253 132.259 117.666 134.183C118.164 136.35 118.539 138.777 118.945 141.274C119.3 143.637 119.788 145.979 120.408 148.288C120.916 150.169 121.627 151.989 122.529 153.717C123.14 154.879 123.874 155.973 124.719 156.979C125.324 157.691 125.691 158.051 125.668 158.081C125.645 158.112 125.553 158.005 125.377 157.844C125.201 157.683 124.91 157.438 124.611 157.078C123.72 156.097 122.948 155.012 122.314 153.847C121.365 152.118 120.617 150.286 120.086 148.387C119.433 146.067 118.922 143.709 118.555 141.327C118.149 138.808 117.789 136.411 117.314 134.26C116.919 132.349 116.366 130.474 115.66 128.655C115.177 127.432 114.585 126.256 113.891 125.14C113.401 124.359 113.095 123.938 113.118 123.915Z" fill="#455A64"/>
<path d="M136.748 127.988C136.748 127.988 136.84 128.065 136.986 128.241C137.195 128.498 137.382 128.772 137.544 129.06C138.15 130.119 138.557 131.279 138.747 132.483C139.02 134.259 139.02 136.067 138.747 137.843C138.479 139.857 137.981 142.024 137.644 144.314C137.112 148.241 137.244 152.23 138.035 156.113C138.341 157.599 138.67 158.793 138.923 159.605C139.073 160.022 139.194 160.449 139.283 160.884C139.219 160.786 139.168 160.68 139.13 160.57C139.045 160.363 138.915 160.057 138.77 159.651C138.364 158.513 138.026 157.352 137.759 156.175C136.877 152.266 136.703 148.23 137.246 144.26C137.567 141.963 138.103 139.781 138.379 137.79C138.675 136.041 138.711 134.258 138.486 132.498C138.325 131.316 137.965 130.169 137.422 129.106C137.016 128.387 136.718 128.011 136.748 127.988Z" fill="#455A64"/>
<path d="M71.8993 115.369C72.2848 115.532 72.6561 115.727 73.0096 115.951C73.3618 116.143 73.7753 116.395 74.2653 116.717C74.7554 117.039 75.2991 117.376 75.8657 117.827C76.4323 118.279 77.0755 118.731 77.7187 119.297C78.3619 119.864 79.0205 120.469 79.7173 121.128C81.1761 122.601 82.5176 124.185 83.7296 125.867C84.9168 127.568 85.9666 129.36 86.8691 131.227C87.2596 132.1 87.6348 132.92 87.9334 133.724C88.2321 134.528 88.4924 135.255 88.6992 135.952C88.9059 136.649 89.0667 137.277 89.2122 137.836C89.3391 138.31 89.4414 138.79 89.5185 139.275C89.6136 139.683 89.6725 140.098 89.6946 140.516C89.5584 140.12 89.4484 139.716 89.3654 139.306C89.2811 138.915 89.1663 138.433 88.9978 137.889C88.8293 137.345 88.6839 136.718 88.4312 136.044C88.1785 135.37 87.9488 134.62 87.6195 133.846C87.2902 133.073 86.9304 132.246 86.5398 131.388C85.6277 129.547 84.581 127.776 83.408 126.089C82.2102 124.423 80.8894 122.849 79.4569 121.38C78.7754 120.722 78.1475 120.078 77.4967 119.535C76.8458 118.991 76.2639 118.486 75.6972 118.003C75.1306 117.521 74.6023 117.192 74.1658 116.855C73.7293 116.518 73.2929 116.25 72.9483 116.035C72.5808 115.843 72.23 115.62 71.8993 115.369Z" fill="#455A64"/>
<path d="M79.2578 132.713C79.1812 132.713 78.829 131.327 77.9331 129.168C77.4093 127.909 76.8083 126.684 76.1337 125.5C75.2941 124.055 74.3551 122.671 73.3235 121.357C72.2702 120.058 71.1264 118.835 69.9007 117.697C68.8963 116.774 67.8349 115.915 66.723 115.124C64.8163 113.777 63.5223 113.118 63.5606 113.049C63.881 113.163 64.191 113.303 64.4871 113.47C64.7857 113.616 65.1379 113.807 65.5361 114.052C65.9343 114.297 66.4014 114.55 66.8838 114.895C68.0309 115.66 69.1234 116.504 70.1534 117.421C72.6769 119.684 74.8043 122.352 76.4476 125.316C77.1185 126.522 77.7044 127.773 78.2011 129.06C78.4232 129.604 78.5763 130.117 78.7218 130.592C78.8509 130.971 78.9608 131.357 79.0511 131.748C79.1556 132.061 79.225 132.385 79.2578 132.713Z" fill="#455A64"/>
<path d="M51.3167 111.786C51.5375 112.033 51.7325 112.303 51.8986 112.59C52.2432 113.126 52.7562 113.884 53.4301 114.81C56.8804 119.625 61.1738 123.776 66.1027 127.062C67.0522 127.697 67.8256 128.195 68.3999 128.517C68.6961 128.671 68.9736 128.858 69.2269 129.076C68.9124 128.966 68.6097 128.825 68.3233 128.655C67.7567 128.364 66.9527 127.889 65.9802 127.299C60.9248 124.108 56.5841 119.905 53.231 114.956C52.5954 114.006 52.1054 113.218 51.7991 112.659C51.6093 112.385 51.4477 112.092 51.3167 111.786Z" fill="#455A64"/>
<path d="M316.47 69.3724C315.462 67.8311 314.118 66.5383 312.538 65.5914C310.959 64.6444 309.185 64.0679 307.351 63.9052C306.673 63.8657 305.994 63.8913 305.321 63.9818C299.674 64.316 294.357 66.7559 290.421 70.8197C286.064 75.414 283.958 82.3055 285.765 88.347C287.572 94.3885 293.568 99.1666 299.923 98.7531C304.127 98.4775 307.948 96.1191 311.026 93.2323C314.361 90.2667 316.816 86.4418 318.124 82.1753C319.311 77.8949 318.898 73.0785 316.47 69.3724Z" fill="#AA6550"/>
<path d="M219.492 163.127C236.006 163 252.256 158.967 266.913 151.358C279.249 144.934 290.321 136.044 303.323 131.12C311.582 128.038 320.373 126.632 329.181 126.985C337.99 127.337 346.64 129.44 354.626 133.172C345.951 123.088 333.906 115.683 320.758 113.646C307.481 111.587 294.027 114.941 281.01 118.279L235.702 129.88C233.045 130.561 230.273 131.296 228.244 133.142C222.539 138.318 225.817 148.594 221 154.582C220.196 150.15 218.642 145.888 216.406 141.978C217.08 148.012 217.749 154.046 218.412 160.08" fill="#263238"/>
<path d="M257.655 125.906C257.655 126.059 256.89 126.189 255.695 126.633C253.972 127.262 252.384 128.213 251.017 129.436C248.993 131.257 247.357 133.468 246.208 135.937C244.802 139.045 243.609 142.245 242.64 145.516C241.622 148.904 240.187 152.153 238.367 155.187C237.52 156.521 236.515 157.747 235.373 158.839C234.367 159.789 233.239 160.6 232.019 161.251C230.274 162.236 228.303 162.75 226.299 162.744C224.89 162.691 224.163 162.385 224.186 162.27C224.209 162.155 224.951 162.155 226.253 161.963C228.058 161.685 229.783 161.027 231.315 160.034C232.369 159.358 233.34 158.562 234.209 157.66C235.205 156.616 236.076 155.46 236.805 154.214C238.451 151.256 239.769 148.126 240.733 144.88C241.731 141.516 243.012 138.243 244.562 135.094C245.288 133.706 246.152 132.395 247.142 131.181C248.02 130.124 249.017 129.171 250.113 128.341C251.681 127.111 253.518 126.269 255.473 125.883C256.874 125.653 257.648 125.821 257.655 125.906Z" fill="#455A64"/>
<path d="M271.048 119.788C271.048 119.788 270.474 120.193 269.516 120.997C268.178 122.156 266.996 123.484 266.002 124.948C264.551 127.132 263.369 129.482 262.479 131.947C261.446 134.727 260.611 137.889 259.669 141.189C258.841 144.323 257.713 147.369 256.3 150.286C255.105 152.661 253.518 154.817 251.606 156.665C250.31 157.902 248.81 158.907 247.173 159.636C246.727 159.827 246.269 159.988 245.802 160.118C245.643 160.176 245.479 160.217 245.312 160.241C245.312 160.195 245.978 160.026 247.111 159.475C248.7 158.691 250.153 157.657 251.415 156.412C253.271 154.563 254.811 152.421 255.971 150.072C257.355 147.167 258.465 144.14 259.286 141.029C260.228 137.736 261.071 134.566 262.135 131.771C263.049 129.283 264.271 126.919 265.772 124.734C266.798 123.27 268.025 121.958 269.417 120.837C269.797 120.534 270.193 120.253 270.604 119.994C270.746 119.913 270.894 119.844 271.048 119.788Z" fill="#455A64"/>
<path d="M278.253 118.47C278.253 118.47 277.786 118.907 276.959 119.703C275.8 120.844 274.76 122.102 273.858 123.455C272.532 125.466 271.401 127.6 270.481 129.826C269.409 132.338 268.429 135.186 267.418 138.149C266.47 140.966 265.339 143.718 264.034 146.389C262.959 148.574 261.62 150.619 260.044 152.476C258.981 153.728 257.758 154.835 256.407 155.769C256.04 156.022 255.659 156.255 255.266 156.466C255.139 156.556 255 156.628 254.853 156.68C254.853 156.642 255.389 156.32 256.315 155.639C257.618 154.673 258.798 153.551 259.83 152.3C261.355 150.432 262.656 148.392 263.705 146.22C264.984 143.555 266.099 140.813 267.043 138.012C268.085 135.041 269.08 132.2 270.175 129.688C271.116 127.444 272.283 125.302 273.659 123.295C274.587 121.939 275.669 120.696 276.883 119.588C277.207 119.285 277.55 119.001 277.909 118.738C278.013 118.636 278.128 118.546 278.253 118.47Z" fill="#455A64"/>
<path d="M309.265 113.072C307.42 113.628 305.662 114.44 304.043 115.484C302.307 116.649 300.729 118.033 299.349 119.604C297.658 121.525 296.141 123.593 294.816 125.783C293.392 128.08 292.128 130.377 290.911 132.43C289.854 134.252 288.699 136.016 287.45 137.713C286.606 138.857 285.68 139.937 284.678 140.944C284.333 141.312 284.027 141.557 283.835 141.71C283.644 141.863 283.529 141.97 283.514 141.955C283.498 141.94 283.889 141.542 284.563 140.807C285.516 139.765 286.403 138.665 287.22 137.514C288.269 136.067 289.402 134.26 290.597 132.215C291.791 130.171 293.039 127.881 294.479 125.546C295.815 123.333 297.353 121.249 299.073 119.32C300.486 117.744 302.103 116.364 303.882 115.216C305.073 114.446 306.36 113.836 307.711 113.401C308.08 113.284 308.456 113.187 308.836 113.11C308.976 113.074 309.121 113.061 309.265 113.072Z" fill="#455A64"/>
<path d="M320.437 115.224C318.846 115.142 317.251 115.237 315.682 115.507C311.917 116.331 308.434 118.129 305.582 120.722C302.761 123.349 300.288 126.326 298.223 129.581L296.301 132.521C296.076 132.895 295.82 133.248 295.536 133.578C295.705 133.182 295.907 132.8 296.141 132.437C296.554 131.717 297.159 130.684 297.955 129.428C299.981 126.113 302.457 123.095 305.314 120.461C308.212 117.82 311.78 116.024 315.628 115.27C316.793 115.064 317.978 115 319.158 115.078C319.479 115.097 319.799 115.136 320.115 115.193C320.223 115.184 320.332 115.195 320.437 115.224Z" fill="#455A64"/>
<path d="M227.616 133.302C227.8 133.678 227.949 134.071 228.06 134.474C228.228 134.938 228.369 135.411 228.481 135.891C228.612 136.45 228.795 137.077 228.903 137.797C229.046 138.573 229.151 139.355 229.217 140.14C229.324 140.99 229.324 141.902 229.347 142.859C229.332 144.941 229.109 147.016 228.681 149.053C228.227 151.085 227.575 153.067 226.736 154.972C226.314 155.838 225.97 156.665 225.487 157.392C225.106 158.084 224.687 158.753 224.232 159.398C223.867 159.928 223.476 160.439 223.06 160.93C222.763 161.323 222.441 161.696 222.095 162.048C221.825 162.368 221.527 162.665 221.207 162.936C221.432 162.584 221.688 162.254 221.973 161.948C222.293 161.578 222.595 161.192 222.876 160.792C223.206 160.332 223.642 159.827 223.987 159.214C224.425 158.565 224.828 157.892 225.196 157.201C225.625 156.435 225.962 155.669 226.391 154.796C228.051 151.022 228.931 146.951 228.979 142.828C228.979 141.879 228.979 140.983 228.88 140.14C228.831 139.37 228.741 138.604 228.612 137.843C228.524 137.204 228.404 136.571 228.252 135.944C228.165 135.463 228.05 134.987 227.907 134.52C227.78 134.122 227.683 133.715 227.616 133.302Z" fill="#455A64"/>
<path d="M237.119 189.376C236.636 182.439 239.492 175.593 243.834 170.126C248.176 164.659 253.934 160.562 259.876 156.956C269.83 150.899 280.849 146.052 292.48 145.37C304.112 144.689 316.455 148.739 323.714 157.851C323.877 158.007 324.005 158.195 324.091 158.404C324.177 158.612 324.218 158.836 324.212 159.061C324.059 159.965 322.772 159.965 321.915 159.75C311.891 157.354 301.409 158.319 291.148 159.299C282.335 160.141 273.314 161.037 265.328 164.858C258.39 168.181 252.648 173.518 247.035 178.771C243.586 181.856 240.338 185.158 237.31 188.656" fill="#723F33"/>
<path d="M267.625 177.362C260.504 180.946 260.198 183.105 254.302 188.22C251.453 190.693 248.528 193.274 246.935 196.689C245.343 200.104 244.929 209.032 248.214 207.187C249.424 206.513 256.53 205.847 260.741 207.539C270.152 211.314 280.803 211.475 290.865 210.25C297.471 209.368 303.729 206.763 309.009 202.695C314.289 198.628 318.404 193.242 320.942 187.079C322.022 184.353 322.734 181.099 321.187 178.61C320.062 176.788 318.002 175.815 316.011 175.042C308.148 172.042 299.745 170.721 291.341 171.161C282.937 171.601 274.718 173.795 267.212 177.599" fill="#EBEBEB"/>
<path d="M322.933 181.918C323.002 181.918 322.994 182.27 322.933 182.906C322.837 183.834 322.668 184.753 322.428 185.655C321.585 189.003 320.204 192.191 318.339 195.096C317.787 196.053 317.068 196.942 316.379 197.922C315.689 198.902 314.847 199.836 313.928 200.74C312.041 202.748 309.917 204.519 307.603 206.015C305.046 207.689 302.278 209.018 299.372 209.966C297.832 210.445 296.264 210.831 294.678 211.123C293.874 211.299 293.055 211.345 292.235 211.46C291.411 211.582 290.58 211.659 289.747 211.689C283.047 212.072 276.775 211.115 271.163 210.25C265.55 209.385 260.535 208.527 256.292 208.175C252.946 207.891 249.583 207.856 246.231 208.067C243.865 208.312 242.54 208.45 242.509 208.305C242.479 208.159 243.758 207.784 246.131 207.294C249.523 206.779 252.958 206.604 256.384 206.773C260.718 206.942 265.826 207.646 271.431 208.435C277.036 209.224 283.215 210.066 289.632 209.698C290.426 209.67 291.219 209.598 292.006 209.484C292.771 209.377 293.575 209.331 294.303 209.17C295.805 208.899 297.29 208.544 298.752 208.106C301.507 207.232 304.139 206.009 306.585 204.469C308.806 203.079 310.862 201.44 312.711 199.583C313.614 198.741 314.365 197.807 315.138 196.957C315.911 196.107 316.562 195.211 317.121 194.323C319.023 191.577 320.545 188.586 321.647 185.433C322.075 184.322 322.305 183.427 322.504 182.822C322.703 182.217 322.864 181.91 322.933 181.918Z" fill="#263238"/>
<path d="M276.722 173.296C275.245 173.356 273.804 173.772 272.521 174.507C271.239 175.243 270.153 176.278 269.356 177.523C267.777 180.037 267.022 182.982 267.196 185.946C267.342 189.607 268.515 193.154 270.579 196.181C272.644 199.209 275.518 201.595 278.874 203.067C285.627 205.862 294.058 204.116 298.974 198.718C303.89 193.32 304.808 184.598 300.926 178.411C297.044 172.224 288.598 169.284 281.783 171.91" fill="#FACF38"/>
<path d="M281.776 171.902C281.73 171.826 283.039 170.999 285.75 170.608C287.404 170.417 289.077 170.481 290.712 170.8C294.193 171.464 297.382 173.193 299.839 175.746C300.807 176.788 301.638 177.948 302.312 179.2C303.745 182 304.399 185.134 304.204 188.274C304.029 191.757 302.857 195.116 300.827 197.952C298.592 200.977 295.459 203.22 291.875 204.361C288.327 205.534 284.518 205.67 280.895 204.752C277.537 203.859 274.498 202.039 272.128 199.499C269.979 197.242 268.365 194.531 267.403 191.566C266.573 188.991 266.294 186.27 266.584 183.58C266.806 181.339 267.577 179.188 268.827 177.316C269.792 175.917 271.093 174.782 272.61 174.016C273.562 173.526 274.604 173.237 275.673 173.166C276.393 173.166 276.76 173.235 276.76 173.288C276.76 173.48 275.229 173.365 273.008 174.697C271.696 175.508 270.592 176.614 269.784 177.929C268.744 179.691 268.135 181.675 268.008 183.718C267.832 186.202 268.168 188.696 268.996 191.045C269.946 193.734 271.473 196.183 273.468 198.22C275.64 200.473 278.394 202.079 281.423 202.861C284.688 203.661 288.112 203.523 291.301 202.462C294.488 201.45 297.281 199.473 299.295 196.804C301.133 194.276 302.214 191.278 302.412 188.159C302.633 185.335 302.105 182.504 300.88 179.95C300.301 178.814 299.586 177.752 298.752 176.788C297.952 175.909 297.059 175.12 296.087 174.437C294.405 173.245 292.514 172.38 290.512 171.887C288.991 171.505 287.425 171.335 285.857 171.382C283.223 171.52 281.829 172.071 281.776 171.902Z" fill="#263238"/>
<path d="M329.748 165.761C329.625 165.884 328.592 164.789 326.348 163.372C323.16 161.426 319.609 160.149 315.911 159.62C311.248 158.855 305.567 159.092 299.249 159.697C292.414 160.257 285.624 161.281 278.927 162.76C272.257 164.226 265.803 166.542 259.723 169.651C257.091 171.031 254.558 172.591 252.142 174.322C250.043 175.838 248.05 177.496 246.177 179.284C243.454 181.874 241.03 184.761 238.949 187.891C238.581 188.45 238.26 188.947 237.969 189.376C237.678 189.805 237.479 190.188 237.287 190.494C236.912 191.091 236.682 191.39 236.621 191.367C236.56 191.344 236.667 190.977 236.935 190.31C237.065 189.981 237.234 189.545 237.448 189.093L238.283 187.493C240.154 184.132 242.472 181.041 245.174 178.304C247.036 176.4 249.032 174.631 251.147 173.013C253.588 171.172 256.163 169.516 258.85 168.059C265.035 164.778 271.637 162.354 278.475 160.853C285.262 159.348 292.153 158.36 299.089 157.897C302.274 157.66 305.314 157.484 308.185 157.515C310.858 157.527 313.523 157.784 316.149 158.28C319.988 158.96 323.624 160.499 326.785 162.783C328.975 164.406 329.825 165.692 329.748 165.761Z" fill="#263238"/>
<path d="M337.153 189.055C337.053 189.147 336.685 188.97 336.088 188.542C335.79 188.327 335.43 188.059 335.024 187.722C334.618 187.385 334.143 187.003 333.592 186.604C330.593 184.219 327.41 182.073 324.074 180.188C323.048 179.56 321.892 179.047 320.728 178.434C319.564 177.822 318.285 177.331 316.999 176.765C315.712 176.198 314.334 175.685 312.887 175.233C312.175 175.011 311.455 174.759 310.712 174.544L308.415 173.947C298.313 171.303 287.673 171.534 277.694 174.613C274.542 175.584 271.483 176.831 268.552 178.342L266.492 179.445C265.818 179.82 265.182 180.211 264.547 180.624C263.245 181.39 262.104 182.27 260.94 183.059C260.374 183.473 259.845 183.924 259.309 184.338C258.773 184.751 258.237 185.157 257.778 185.609C256.828 186.505 255.841 187.293 255.037 188.182C254.233 189.07 253.375 189.843 252.694 190.686C252.012 191.528 251.292 192.255 250.741 193.044C250.19 193.833 249.6 194.507 249.125 195.18L247.862 197.049C247.456 197.6 247.142 198.121 246.866 198.58C246.591 199.04 246.338 199.407 246.101 199.706C245.672 200.295 245.381 200.594 245.258 200.533C245.136 200.472 245.174 200.081 245.366 199.369C245.463 199.012 245.6 198.575 245.779 198.059C245.964 197.463 246.194 196.882 246.468 196.321L247.479 194.2C247.869 193.435 248.367 192.669 248.88 191.781C249.437 190.862 250.04 189.973 250.687 189.116C251.402 188.141 252.169 187.206 252.984 186.313C253.75 185.31 254.746 184.407 255.703 183.396C256.178 182.883 256.729 182.439 257.234 181.956C257.74 181.474 258.314 180.976 258.888 180.502C260.083 179.598 261.27 178.587 262.617 177.73C263.283 177.293 263.95 176.826 264.646 176.397L266.806 175.141C269.897 173.431 273.146 172.024 276.507 170.938C280.126 169.778 283.85 168.978 287.626 168.549C291.401 168.17 295.203 168.155 298.981 168.503C302.489 168.831 305.959 169.48 309.349 170.44L311.738 171.16C312.504 171.412 313.27 171.703 314.035 171.971C315.567 172.484 316.937 173.174 318.308 173.748C319.679 174.322 320.942 175.034 322.137 175.723C323.331 176.413 324.495 177.056 325.529 177.799C328.87 179.963 331.929 182.535 334.633 185.456C335.066 185.905 335.47 186.38 335.843 186.88C336.172 187.301 336.448 187.646 336.655 187.983C337.091 188.611 337.26 188.963 337.153 189.055Z" fill="#263238"/>
<path d="M292.802 185.241C292.916 186.923 292.529 188.601 291.69 190.063C290.851 191.524 289.597 192.704 288.087 193.453C286.577 194.203 284.879 194.487 283.207 194.271C281.535 194.055 279.965 193.348 278.695 192.24C277.425 191.132 276.513 189.672 276.072 188.045C275.632 186.418 275.684 184.697 276.222 183.099C276.76 181.502 277.76 180.1 279.094 179.07C280.429 178.041 282.039 177.431 283.721 177.316C284.837 177.24 285.958 177.385 287.019 177.742C288.079 178.099 289.059 178.662 289.903 179.398C290.746 180.134 291.436 181.029 291.934 182.031C292.431 183.034 292.726 184.125 292.802 185.241Z" fill="#263238"/>
<path d="M294.073 179.1C293.399 178.22 290.321 177.086 289.195 176.803C288.087 176.438 286.902 176.367 285.757 176.596C285.19 176.725 284.679 177.032 284.3 177.473C283.92 177.915 283.693 178.466 283.652 179.047C283.652 180.425 285.045 181.344 286.309 181.903C287.754 182.493 289.247 182.957 290.773 183.289C291.533 183.51 292.325 183.601 293.116 183.557C293.51 183.53 293.892 183.415 294.235 183.218C294.577 183.022 294.87 182.75 295.091 182.423C295.735 181.321 295.099 179.835 294.073 179.1Z" fill="white"/>
<path d="M277.488 199.859C277.54 198.588 277.855 197.342 278.414 196.199C278.845 195.002 279.512 193.903 280.374 192.967C280.474 193.036 279.57 194.453 278.782 196.352C277.993 198.251 277.572 199.882 277.488 199.859Z" fill="#263238"/>
<path d="M283.238 197.937C283.069 196.108 283.167 194.263 283.529 192.462C283.698 194.291 283.6 196.136 283.238 197.937Z" fill="#263238"/>
<path d="M288.659 198.618C288.545 198.618 288.391 197.233 287.894 195.556C287.396 193.879 286.806 192.638 286.914 192.585C287.585 193.441 288.054 194.438 288.284 195.502C288.642 196.499 288.771 197.565 288.659 198.618Z" fill="#263238"/>
<path d="M293.974 197.684C293.397 196.235 292.735 194.821 291.99 193.45C291.13 192.148 290.194 190.898 289.188 189.705C291.731 191.667 293.44 194.517 293.974 197.684Z" fill="#263238"/>
<path d="M294.923 187.937C294.42 188.06 293.895 188.06 293.392 187.937C292.534 187.837 291.86 187.669 291.86 187.561C292.376 187.434 292.914 187.434 293.43 187.561C294.257 187.661 294.938 187.845 294.923 187.937Z" fill="#263238"/>
<path d="M271.729 187.24C272.53 186.894 273.392 186.709 274.264 186.696C275.127 186.553 276.01 186.587 276.86 186.796C276.019 186.979 275.162 187.079 274.302 187.094C273.453 187.238 272.59 187.286 271.729 187.24Z" fill="#263238"/>
<path d="M279.938 181.42C279.877 181.528 278.024 180.494 275.566 179.682C273.108 178.871 271.017 178.557 271.04 178.442C274.226 178.584 277.308 179.616 279.938 181.42Z" fill="#263238"/>
<path d="M294.494 198.833C296.039 197.854 297.318 196.508 298.217 194.916C299.116 193.324 299.607 191.534 299.648 189.705C299.764 187.129 299.506 184.55 298.882 182.048L298.353 179.751C298.271 179.472 298.22 179.184 298.2 178.893C298.337 179.152 298.44 179.428 298.507 179.713C298.675 180.249 298.905 181.022 299.157 182.01C299.879 184.534 300.187 187.159 300.069 189.782C299.91 192.438 298.885 194.969 297.151 196.987C296.616 197.587 295.994 198.103 295.306 198.519C295.055 198.668 294.78 198.774 294.494 198.833Z" fill="white"/>
<path d="M333.492 170.999C333.228 171.614 332.875 172.187 332.443 172.699C330.449 175.282 327.73 177.212 324.633 178.243C324.002 178.48 323.338 178.62 322.665 178.656C324.802 177.951 326.834 176.962 328.707 175.716C330.503 174.362 332.113 172.776 333.492 170.999Z" fill="#263238"/>
<path d="M341.18 172.255C341.082 172.466 340.95 172.66 340.79 172.829C340.396 173.32 339.974 173.788 339.526 174.23C336.524 177.167 332.685 179.101 328.538 179.766C327.914 179.865 327.285 179.926 326.654 179.95C326.426 179.98 326.194 179.98 325.965 179.95C325.965 179.874 326.938 179.812 328.485 179.506C332.527 178.711 336.276 176.829 339.327 174.062C340.499 172.959 341.127 172.209 341.18 172.255Z" fill="#263238"/>
<path d="M325.269 167.982C325.267 168.566 325.166 169.146 324.97 169.697C324.568 171.059 323.958 172.35 323.163 173.526C322.365 174.69 321.391 175.723 320.276 176.589C319.834 176.975 319.329 177.283 318.783 177.5C321.957 175.157 324.244 171.807 325.269 167.997V167.982Z" fill="#263238"/>
<path d="M321.693 167.369C321.703 167.938 321.609 168.504 321.417 169.039C321.03 170.352 320.421 171.59 319.617 172.699C318.822 173.813 317.84 174.782 316.715 175.563C316.255 175.907 315.736 176.167 315.184 176.328C316.727 175.241 318.1 173.93 319.258 172.438C320.321 170.882 321.142 169.172 321.693 167.369Z" fill="#263238"/>
<path d="M315.919 163.617C315.914 164.245 315.781 164.865 315.529 165.44C314.998 166.859 314.22 168.174 313.231 169.322C312.256 170.465 311.179 171.518 310.015 172.469C309.549 172.897 309.036 173.27 308.484 173.579C308.872 173.093 309.311 172.649 309.793 172.255C310.877 171.255 311.899 170.191 312.856 169.069C313.813 167.946 314.602 166.69 315.199 165.34C315.712 164.299 315.858 163.602 315.919 163.617Z" fill="#263238"/>
<path d="M307.672 165.111C307.516 166.317 307.085 167.471 306.413 168.485C305.742 169.499 304.847 170.346 303.798 170.961C304.617 170.109 305.384 169.209 306.095 168.265C306.682 167.246 307.209 166.192 307.672 165.111Z" fill="#263238"/>
<path d="M300.605 166.405C300.747 167.374 300.603 168.364 300.191 169.253C299.905 170.188 299.348 171.016 298.591 171.634C298.499 171.566 299.272 170.547 299.824 169.108C300.375 167.668 300.459 166.405 300.605 166.405Z" fill="#263238"/>
<path d="M319.503 202.761C319.406 202.394 319.337 202.02 319.296 201.643C319.107 200.77 318.753 199.941 318.254 199.2C317.75 198.462 317.108 197.828 316.363 197.332C315.789 196.957 315.383 196.788 315.406 196.727C315.8 196.75 316.18 196.876 316.509 197.095C317.34 197.549 318.051 198.194 318.583 198.976C319.116 199.759 319.454 200.658 319.572 201.597C319.653 201.984 319.63 202.386 319.503 202.761Z" fill="#263238"/>
<path d="M324.005 198.144C323.944 198.144 323.852 197.707 323.546 197.064C323.16 196.225 322.573 195.493 321.837 194.935C321.101 194.376 320.239 194.008 319.327 193.863C318.622 193.741 318.17 193.771 318.163 193.71C318.542 193.559 318.955 193.516 319.357 193.588C320.344 193.661 321.29 194.018 322.079 194.616C322.868 195.213 323.468 196.026 323.806 196.957C323.982 197.326 324.051 197.737 324.005 198.144Z" fill="#263238"/>
<path d="M326.409 193.519C325.635 192.583 324.689 191.803 323.622 191.222C322.504 190.747 321.307 190.487 320.092 190.456C320.43 190.293 320.806 190.227 321.18 190.264C322.087 190.266 322.982 190.474 323.798 190.872C324.614 191.27 325.328 191.848 325.889 192.562C326.31 193.09 326.494 193.496 326.409 193.519Z" fill="#263238"/>
<path d="M314.732 206.436C314.633 205.495 314.323 204.588 313.826 203.782C313.329 202.976 312.657 202.292 311.861 201.781C311.861 201.735 312.213 201.781 312.68 202.087C313.286 202.457 313.795 202.967 314.166 203.573C314.539 204.178 314.767 204.862 314.832 205.571C314.862 206.115 314.778 206.444 314.732 206.436Z" fill="#263238"/>
<path d="M309.793 209.737C309.631 208.783 309.404 207.841 309.112 206.919C308.703 206.042 308.232 205.195 307.703 204.384C308.503 205.005 309.12 205.832 309.488 206.776C309.856 207.72 309.962 208.745 309.793 209.744V209.737Z" fill="#263238"/>
<path d="M305.153 211.276C305.264 210.491 305.33 209.702 305.352 208.91C305.247 208.135 305.093 207.368 304.893 206.613C305.464 207.239 305.771 208.062 305.75 208.91C305.855 209.745 305.641 210.59 305.153 211.276Z" fill="#263238"/>
<path d="M326.494 187.753C326.555 187.753 326.494 188.097 326.409 188.702C326.356 189.009 326.272 189.384 326.172 189.828C326.073 190.272 325.889 190.755 325.713 191.359C324.639 194.531 323.09 197.52 321.118 200.227C318.21 204.291 314.499 207.715 310.214 210.288C304.909 213.373 298.958 215.179 292.833 215.564C286.804 215.938 280.752 215.681 274.777 214.798C269.302 214.094 264.424 213.305 260.305 212.83C256.185 212.356 252.854 212.118 250.542 212.026C248.229 211.934 246.935 211.934 246.928 211.781C246.92 211.628 248.191 211.406 250.534 211.253C253.837 211.086 257.148 211.145 260.443 211.429C264.616 211.728 269.547 212.371 274.991 212.96C280.848 213.716 286.763 213.908 292.657 213.535C298.493 213.171 304.173 211.504 309.28 208.657C313.419 206.265 317.059 203.099 320 199.331C321.997 196.781 323.669 193.993 324.978 191.03C325.217 190.52 325.424 190.053 325.598 189.629C325.759 189.215 325.896 188.863 326.019 188.58C326.249 188.021 326.409 187.738 326.494 187.753Z" fill="#723F33"/>
<path d="M35.8032 170.348C37.8783 165.616 41.8217 161.864 46.3242 159.329C50.8266 156.795 55.8727 155.394 60.9494 154.429C74.6558 151.833 89.1892 152.423 102.092 157.729C114.994 163.035 126.089 173.373 130.806 186.497C131.073 187.029 131.122 187.644 130.944 188.212C130.431 189.315 128.769 188.978 127.697 188.381C121.158 184.782 116.211 178.886 110.185 174.491C99.8634 166.964 86.7006 164.161 73.9284 164.291C61.1562 164.421 48.5754 167.255 36.1171 170.08" fill="#723F33"/>
<path d="M37.7098 186.091C37.0972 190.517 39.2413 191.382 42.419 194.514C45.5967 197.646 49.6857 199.69 53.7057 201.651C61.876 205.655 70.3142 209.591 79.365 210.556C90.3072 211.72 101.18 208.458 111.694 205.196C114.386 204.2 116.747 202.47 118.509 200.204C120.806 197.355 120.346 194.284 118.363 191.237C116.38 188.189 113.225 186.122 110.124 184.231C99.4881 177.722 87.7879 171.88 75.322 171.933C68.7445 171.933 62.3048 173.633 55.9187 175.302C49.2263 177.048 43.5982 182.431 37.7098 186.022" fill="#EBEBEB"/>
<path d="M64.8546 173.22C59.8238 180.341 60.4747 192.026 66.6234 198.213C72.7722 204.4 83.4693 205.364 90.6211 200.38C97.773 195.395 100.575 185.065 96.9153 177.125C96.9153 177.125 88.8753 172.469 79.3038 172.27C74.4688 172.159 69.6335 172.477 64.8546 173.22Z" fill="#FACF38"/>
<path d="M64.8546 173.22C64.8546 173.028 68.1242 172.201 73.9514 171.78C75.4139 171.68 77.0143 171.611 78.7754 171.604C80.685 171.586 82.5929 171.725 84.48 172.017C88.9823 172.758 93.3346 174.224 97.3671 176.359L97.6121 176.489L97.7347 176.765C99.349 180.315 99.8585 184.269 99.1972 188.113C98.5201 192.292 96.5677 196.159 93.6074 199.185C90.7488 201.989 87.0618 203.797 83.0941 204.338C81.2343 204.591 79.3488 204.591 77.489 204.338C76.5899 204.217 75.6979 204.049 74.8166 203.833C73.9619 203.593 73.1209 203.307 72.2974 202.975C70.706 202.34 69.2131 201.482 67.8639 200.426C67.2157 199.92 66.5994 199.376 66.0185 198.795C65.4676 198.214 64.956 197.598 64.4871 196.949C63.6173 195.725 62.8975 194.401 62.3431 193.006C61.8527 191.723 61.4835 190.398 61.2404 189.047C60.827 186.736 60.7753 184.375 61.0873 182.048C61.3096 180.299 61.7707 178.588 62.4579 176.964C63.5988 174.322 64.8393 173.082 64.847 173.212C64.8546 173.342 64.0812 174.582 63.1853 177.24C62.6533 178.836 62.3215 180.492 62.1976 182.171C62.0148 184.38 62.1567 186.603 62.6187 188.771C62.8926 190.025 63.2769 191.253 63.7673 192.439C64.3143 193.697 65.0055 194.886 65.8271 195.984C66.26 196.556 66.728 197.101 67.2284 197.615C67.7655 198.124 68.3332 198.6 68.9282 199.04C70.1671 199.977 71.5337 200.733 72.9866 201.283C73.7362 201.584 74.5034 201.84 75.2837 202.049C76.0897 202.235 76.9051 202.378 77.7264 202.478C79.4167 202.68 81.1265 202.657 82.8108 202.409C86.3509 201.889 89.6336 200.256 92.1832 197.746C94.8493 195.022 96.6204 191.549 97.2599 187.791C97.8879 184.329 97.4749 180.758 96.073 177.531L96.4406 177.929C92.6064 175.844 88.4742 174.361 84.1891 173.533C82.3844 173.197 80.5566 173 78.7218 172.944C76.9989 172.883 75.4062 172.875 73.959 172.898C68.2314 172.974 64.8852 173.426 64.8546 173.22Z" fill="#263238"/>
<path d="M31.2931 171.765C31.2931 171.634 32.7633 171.106 35.5275 170.271C38.2918 169.437 42.2965 168.304 47.3196 167.101C53.2089 165.662 59.1869 164.613 65.2145 163.962C72.6456 163.143 80.1543 163.354 87.5276 164.59C91.3552 165.254 95.1113 166.28 98.7454 167.653C102.124 168.97 105.359 170.627 108.401 172.599C111.117 174.382 113.737 176.307 116.25 178.365C118.616 180.272 120.775 182.087 122.758 183.725C124.742 185.364 126.587 186.788 128.18 188.013C129.772 189.238 131.243 190.218 132.445 190.999L134.045 192.033L135.232 192.761C135.875 193.159 136.197 193.404 136.174 193.465C136.151 193.526 135.76 193.404 135.048 193.113C134.696 192.967 134.283 192.791 133.754 192.554L132.047 191.673C130.768 190.977 129.252 190.058 127.529 188.924C125.806 187.791 123.93 186.405 121.878 184.828C117.766 181.765 113.095 177.737 107.413 174.154C104.454 172.287 101.317 170.717 98.0486 169.467C94.5247 168.152 90.8876 167.163 87.183 166.512C79.9806 165.309 72.652 165.052 65.383 165.746C59.4153 166.305 53.4842 167.202 47.6182 168.434C42.5951 169.467 38.5368 170.394 35.7189 170.999C32.9011 171.604 31.3314 171.856 31.2931 171.765Z" fill="#263238"/>
<path d="M115.714 203.159C115.76 203.274 114.711 203.925 112.697 204.867C109.836 206.179 106.876 207.264 103.845 208.113C99.3446 209.398 94.7276 210.231 90.0621 210.602C78.5634 211.566 67.0024 209.726 56.3704 205.242C52.0436 203.433 47.9085 201.197 44.027 198.565C41.4113 196.812 38.938 194.856 36.6302 192.715C35.0145 191.183 34.2105 190.249 34.333 190.157C34.5627 189.897 38.1616 193.266 44.8234 197.378C48.7218 199.771 52.8211 201.821 57.0749 203.504C67.5018 207.691 78.7344 209.488 89.9473 208.764C94.5175 208.484 99.0548 207.807 103.508 206.743C111.112 204.905 115.576 202.822 115.714 203.159Z" fill="#263238"/>
<path d="M88.0895 187.711C89.3098 183.17 86.6175 178.499 82.0759 177.279C77.5344 176.058 72.8635 178.751 71.6433 183.292C70.423 187.834 73.1154 192.505 77.6569 193.725C82.1984 194.945 86.8692 192.253 88.0895 187.711Z" fill="#263238"/>
<path d="M90.5446 180.371C90.0162 179.399 87.1448 177.806 86.0804 177.347C85.0422 176.805 83.8816 176.541 82.7112 176.581C82.1306 176.621 81.5781 176.846 81.1354 177.224C80.6927 177.602 80.3835 178.112 80.2533 178.679C80.0695 180.05 81.2717 181.183 82.4432 181.91C83.7817 182.716 85.1884 183.403 86.647 183.963C87.3709 184.302 88.1481 184.515 88.9442 184.59C89.338 184.625 89.7345 184.569 90.1034 184.427C90.4723 184.285 90.8039 184.061 91.0729 183.771C91.8463 182.814 91.4558 181.252 90.5446 180.371Z" fill="white"/>
<path d="M128.685 200.563C128.494 200.77 127.223 199.92 125.063 198.228C122.904 196.536 119.872 194.016 116.066 191.022C111.666 187.504 107.01 184.317 102.138 181.489C99.2982 179.858 96.3301 178.462 93.2629 177.316C90.0098 176.076 86.6307 175.195 83.186 174.69C76.4466 173.824 69.6103 174.083 62.9556 175.455C61.4242 175.762 59.9234 176.093 58.4532 176.451C57.6875 176.627 57.0596 176.834 56.3781 177.017C55.6966 177.201 55.0534 177.454 54.4179 177.714C52.0391 178.68 49.7355 179.821 47.5264 181.129L41.8524 184.46C40.1525 185.433 38.6593 186.237 37.3959 186.803C34.8613 187.967 33.3452 188.335 33.2457 188.082C33.1461 187.829 34.4019 186.995 36.6225 185.456C37.7405 184.69 39.0805 183.725 40.6425 182.592C42.2046 181.459 43.9734 180.134 46.0026 178.763C48.2669 177.199 50.6623 175.833 53.1621 174.682C53.8436 174.368 54.571 174.108 55.2908 173.817C56.0106 173.526 56.8222 173.296 57.5879 173.089C59.0811 172.653 60.6508 172.255 62.2512 171.887C69.2922 170.204 76.5807 169.818 83.7603 170.746C87.4957 171.293 91.1549 172.272 94.6641 173.664C97.9101 174.935 101.036 176.493 104.006 178.319C108.952 181.389 113.596 184.922 117.873 188.871C121.51 192.194 124.275 195.058 126.105 197.095C127.935 199.131 128.877 200.372 128.685 200.563Z" fill="#263238"/>
<path d="M70.9344 198.327C71.5685 195.863 72.9324 193.648 74.8473 191.972C74.9392 192.049 73.8212 193.312 72.7492 195.035C71.6772 196.758 71.0493 198.373 70.9344 198.327Z" fill="#263238"/>
<path d="M76.9453 197.317C76.935 196.395 77.0588 195.477 77.3129 194.591C77.4441 193.679 77.7018 192.79 78.0786 191.949C78.0893 192.871 77.9655 193.789 77.7111 194.675C77.5814 195.587 77.3236 196.477 76.9453 197.317Z" fill="#263238"/>
<path d="M82.2288 198.825C82.114 198.825 82.1752 197.416 81.9455 195.709C81.7158 194.001 81.3176 192.646 81.4325 192.646C82.3643 194.57 82.6335 196.748 82.1982 198.84L82.2288 198.825Z" fill="#263238"/>
<path d="M87.5889 198.718C87.2397 197.196 86.8025 195.695 86.2795 194.223C85.625 192.81 84.8913 191.434 84.0819 190.104C85.2304 191.214 86.1081 192.574 86.647 194.078C87.3064 195.534 87.6284 197.12 87.5889 198.718Z" fill="#263238"/>
<path d="M90.0315 189.231C90.0315 189.338 89.3041 189.231 88.5001 189.009C87.6961 188.787 87.0299 188.511 87.0605 188.404C87.0912 188.297 87.7803 188.404 88.592 188.626C89.4036 188.848 90.0545 189.123 90.0315 189.231Z" fill="#263238"/>
<path d="M67.213 184.989C68.0565 184.763 68.937 184.711 69.8012 184.835C70.6751 184.829 71.5416 184.996 72.351 185.326C71.4926 185.389 70.6299 185.358 69.7782 185.234C68.9172 185.237 68.0579 185.155 67.213 184.989Z" fill="#263238"/>
<path d="M74.7018 180.356C74.6252 180.456 72.9559 179.154 70.6511 177.975C68.3463 176.795 66.3325 176.168 66.3631 176.053C67.9347 176.286 69.4502 176.805 70.8349 177.584C72.2808 178.267 73.5909 179.206 74.7018 180.356Z" fill="#263238"/>
<path d="M43.7897 182.393C43.5677 182.513 43.3308 182.603 43.0852 182.661C42.431 182.868 41.7632 183.029 41.0867 183.143C36.5976 183.95 31.9685 183.314 27.8627 181.328C27.241 181.032 26.6398 180.694 26.0632 180.318C25.8405 180.201 25.6366 180.051 25.4583 179.874C25.4583 179.812 26.4078 180.379 27.9775 181.068C32.089 182.886 36.6295 183.51 41.079 182.868C42.7406 182.623 43.7667 182.324 43.7897 182.393Z" fill="#263238"/>
<path d="M46.4543 180.188C45.8628 180.358 45.243 180.407 44.6319 180.333C43.1439 180.228 41.6992 179.786 40.4072 179.041C39.1151 178.295 38.0094 177.265 37.1738 176.03C36.8155 175.535 36.5556 174.976 36.4081 174.383C36.477 174.383 36.768 174.981 37.4265 175.869C38.2964 176.994 39.3754 177.94 40.6042 178.656C41.8517 179.371 43.2284 179.832 44.6549 180.011C45.7575 180.142 46.4467 180.08 46.4543 180.188Z" fill="#263238"/>
<path d="M53.8972 176.543C53.4366 176.773 52.9264 176.886 52.4117 176.872C51.1584 176.94 49.9122 176.643 48.8248 176.016C47.7373 175.39 46.8552 174.461 46.2859 173.342C46.0152 172.903 45.8598 172.402 45.8341 171.887C45.8954 171.887 46.0638 172.423 46.5309 173.204C47.131 174.223 47.9828 175.069 49.0046 175.663C50.0265 176.257 51.1839 176.579 52.3657 176.596C53.2846 176.612 53.8512 176.481 53.8972 176.543Z" fill="#263238"/>
<path d="M88.5919 197.86C89.5635 197.417 90.4745 196.85 91.3026 196.176C93.2314 194.447 94.5703 192.158 95.1312 189.629C95.6314 187.091 95.7655 184.494 95.5294 181.918C95.4605 180.992 95.4069 180.203 95.3609 179.56C95.3226 179.273 95.3226 178.982 95.3609 178.694C95.4481 178.971 95.5046 179.256 95.5294 179.544C95.6136 180.096 95.7208 180.9 95.828 181.895C96.1495 184.503 96.0486 187.145 95.5294 189.721C94.967 192.323 93.5654 194.669 91.54 196.398C90.9201 196.903 90.2285 197.314 89.4878 197.615C89.2041 197.744 88.9017 197.827 88.5919 197.86Z" fill="white"/>
<path d="M122.337 207.263C122.337 207.409 121.135 207.708 118.93 208.274C116.725 208.841 113.57 209.691 109.626 210.801C105.683 211.911 101.02 213.259 95.6672 214.293C79.0636 217.437 61.8855 214.17 47.5953 205.15C45.8418 204.07 44.3563 202.937 43.0009 201.965C41.6456 200.992 40.6578 200.027 39.7926 199.277C38.1386 197.677 37.281 196.75 37.3729 196.651C37.6179 196.36 41.2704 199.92 48.2921 203.94C52.3828 206.302 56.6969 208.254 61.1715 209.767C72.1393 213.522 83.8757 214.457 95.2997 212.486C100.56 211.574 105.254 210.349 109.236 209.423C113.218 208.496 116.472 207.83 118.738 207.501C121.005 207.172 122.322 207.141 122.337 207.263Z" fill="#723F33"/>
<path d="M251.522 32.6179C257.923 32.281 249.661 45.6351 244.692 49.7394C242.18 51.7495 239.207 53.1023 236.041 53.6758C232.876 54.2493 229.617 54.0254 226.559 53.0243C227.752 57.078 227.651 61.4023 226.272 65.3961C224.892 69.3899 222.303 72.8547 218.863 75.3089C215.424 77.763 211.305 79.0845 207.08 79.0896C202.855 79.0947 198.733 77.7832 195.287 75.3374C198.266 77.3436 201.306 79.4034 203.45 82.2825C205.594 85.1616 206.727 89.0591 205.433 92.4053C204.139 95.7515 199.897 97.9492 196.719 96.2799C201.551 95.1849 204.323 88.8524 201.842 84.5567C200.456 82.1523 197.937 80.6592 195.532 79.2579C193.128 77.8567 190.632 76.3099 189.315 73.8979C187.998 71.4859 188.442 67.8334 190.946 66.6235C193.231 68.0921 195.981 68.6593 198.661 68.2152C201.341 67.771 203.76 66.347 205.45 64.2197C207.139 62.0923 207.978 59.4132 207.804 56.7021C207.63 53.9911 206.455 51.4415 204.507 49.548C194.192 53.5374 181.16 47.2508 177.852 36.6992C174.544 26.1475 177.53 6.346 208.236 4.45467C208.236 4.45467 219.446 3.09934 222.685 15.1748C225.924 27.2502 231.33 33.6669 251.522 32.6179Z" fill="#263238"/>
<path d="M192.761 68.3924C192.761 68.3924 192.906 68.7676 193.235 69.4567C193.73 70.4513 194.393 71.3529 195.196 72.1214C196.467 73.3367 197.999 74.2455 199.675 74.7785C201.891 75.507 204.278 75.5391 206.513 74.8704C209.199 74.0236 211.59 72.4302 213.404 70.276C215.498 67.8007 216.891 64.8107 217.44 61.6157C218.056 58.0882 217.991 54.4754 217.248 50.9722C216.91 49.1204 216.199 47.3567 215.158 45.7883C214.615 45.0269 213.941 44.3683 213.167 43.8434C212.346 43.3255 211.461 42.9186 210.533 42.6335C208.672 42.0133 206.704 41.73 204.89 40.9489C203.101 40.2137 201.451 39.1778 200.012 37.8861C198.623 36.6501 197.428 35.2123 196.467 33.621C195.519 32.1125 194.801 30.4711 194.338 28.751C193.403 25.5744 193.437 22.1908 194.438 19.034C195.346 16.3029 196.926 13.8437 199.032 11.8822C200.741 10.2526 202.737 8.95445 204.92 8.05358C206.566 7.37951 208.303 6.95123 210.074 6.78249C210.717 6.71482 211.364 6.69434 212.011 6.72123C212.485 6.72273 212.958 6.75856 213.427 6.82843L214.293 6.9586C214.392 6.9681 214.489 6.98865 214.584 7.01986C214.484 7.03016 214.384 7.03016 214.285 7.01986L213.42 6.92797C212.952 6.87665 212.481 6.85619 212.011 6.86672C211.369 6.85515 210.727 6.88584 210.089 6.9586C208.34 7.15551 206.627 7.60159 205.004 8.2833C202.858 9.1917 200.897 10.4898 199.223 12.1119C197.177 14.0547 195.646 16.4754 194.767 19.1565C193.803 22.2555 193.782 25.571 194.706 28.6821C195.169 30.3636 195.875 31.9682 196.804 33.4449C197.754 34.9974 198.925 36.4032 200.28 37.6181C201.694 38.865 203.309 39.8619 205.058 40.5661C206.812 41.3318 208.772 41.6075 210.671 42.2353C211.632 42.5336 212.548 42.9584 213.397 43.4988C214.229 44.0527 214.95 44.7563 215.525 45.5739C216.607 47.192 217.339 49.0173 217.677 50.9339C218.42 54.4893 218.477 58.1538 217.846 61.7306C217.277 64.9873 215.844 68.0314 213.695 70.544C211.826 72.7385 209.364 74.3492 206.605 75.1843C204.604 75.7569 202.488 75.79 200.471 75.2803C198.454 74.7706 196.607 73.7363 195.119 72.2822C194.316 71.4906 193.665 70.559 193.197 69.5333C193.018 69.1665 192.872 68.7848 192.761 68.3924Z" fill="#455A64"/>
<path d="M206.965 76.2793H207.225L207.991 76.3635C208.391 76.4249 208.796 76.4505 209.201 76.4401C209.753 76.4574 210.306 76.4318 210.855 76.3635L211.827 76.2486L212.891 76.0113C213.277 75.9287 213.656 75.8161 214.025 75.6743C214.431 75.5487 214.83 75.4004 215.219 75.2302C217.064 74.4436 218.759 73.3425 220.227 71.9759C222.022 70.3377 223.474 68.3597 224.5 66.1564C225.677 63.6293 226.229 60.8558 226.108 58.0704C225.97 52.1897 223.045 45.8955 218.213 41.1633C216.999 40.0071 215.698 38.9448 214.323 37.9856C212.96 37.0361 211.574 36.1555 210.242 35.2443C207.585 33.4448 205.066 31.4157 203.496 28.8429C202.019 26.3956 201.322 23.5565 201.497 20.7033C201.618 18.2224 202.412 15.8213 203.795 13.7582C204.96 12.0817 206.479 10.6808 208.243 9.65391C209.566 8.87371 211.007 8.31259 212.509 7.99229C213.456 7.79828 214.421 7.70333 215.388 7.70898L216.153 7.75492H216.406C216.319 7.76314 216.232 7.76314 216.146 7.75492H215.38C214.421 7.78287 213.467 7.90339 212.531 8.11481C211.058 8.46052 209.647 9.03405 208.351 9.81471C206.632 10.8422 205.156 12.2292 204.024 13.8807C202.684 15.9078 201.92 18.2605 201.811 20.6879C201.655 23.472 202.346 26.238 203.795 28.6208C205.326 31.1324 207.792 33.1003 210.449 34.8921C211.781 35.7956 213.167 36.6762 214.53 37.6333C215.928 38.5982 217.247 39.6736 218.473 40.8494C223.405 45.6428 226.337 52.0365 226.46 58.0321C226.573 60.8711 225.998 63.6952 224.783 66.2636C223.732 68.5 222.243 70.5024 220.403 72.152C218.903 73.5279 217.171 74.6271 215.288 75.3987C214.892 75.5724 214.485 75.7207 214.071 75.8428C213.697 75.9797 213.313 76.0872 212.922 76.1644L211.842 76.3941L210.855 76.4937C210.296 76.5385 209.736 76.5385 209.178 76.4937C208.769 76.4971 208.361 76.4586 207.96 76.3788L207.194 76.2639C207.119 76.2779 207.042 76.2831 206.965 76.2793Z" fill="#455A64"/>
<path d="M228.076 25.6881C227.978 26.0963 227.848 26.4958 227.685 26.8826C227.417 27.6484 227.05 28.7433 226.682 30.1293C225.659 33.7261 225.488 37.5121 226.184 41.1863C226.626 43.1828 227.428 45.0821 228.55 46.7914C229.467 48.1909 230.611 49.4278 231.935 50.4515C233.183 51.3629 234.558 52.0853 236.016 52.5955C235.907 52.5955 235.798 52.5774 235.695 52.5419C235.391 52.4711 235.091 52.3816 234.799 52.2739C233.704 51.8959 232.671 51.3565 231.736 50.6736C230.356 49.6633 229.164 48.4194 228.213 46.9981C227.046 45.2589 226.215 43.3161 225.763 41.2705C225.042 37.5382 225.25 33.6859 226.368 30.0527C226.681 28.9548 227.056 27.8759 227.494 26.8214C227.647 26.4462 227.785 26.1705 227.869 25.9714C227.925 25.868 227.994 25.7727 228.076 25.6881Z" fill="#455A64"/>
<path d="M148.226 27.8091C150.24 41.5921 144.191 58.9051 134.443 68.7829C129.504 73.701 123.506 77.4256 116.908 79.6723C110.31 81.9191 103.286 82.6285 96.3717 81.7465C93.3597 86.1491 89.3231 89.754 84.6092 92.251C79.8954 94.748 74.6454 96.0623 69.3111 96.0808C64.8776 96.0808 60.4977 95.116 56.0641 95.0624C51.6306 95.0088 46.8755 96.0272 43.8126 99.2049C73.0402 66.769 108.049 44.8005 148.226 27.8091Z" fill="#263238"/>
<path d="M48.1925 91.5707L48.4835 91.6626C48.6749 91.7238 48.9506 91.8387 49.3258 91.9535C50.4212 92.2773 51.5534 92.46 52.695 92.4972C54.5114 92.5345 56.3217 92.2759 58.055 91.7315C60.3426 91.0318 62.5149 89.9998 64.5024 88.6686C66.8848 87.0085 69.1585 85.1977 71.3096 83.2473C73.7814 80.9806 76.4317 78.9167 79.2348 77.0756C82.4039 75.1476 85.792 73.6052 89.327 72.4813C92.9872 71.2714 96.8617 70.3372 100.813 69.4184C108.753 67.6802 116.388 65.9344 122.651 62.6647C124.169 61.8774 125.632 60.9897 127.031 60.0077C128.346 59.0735 129.583 58.0338 130.73 56.8988C132.757 54.8259 134.412 52.4196 135.623 49.7853C136.628 47.6078 137.267 45.2794 137.514 42.8938C137.689 41.1024 137.588 39.2947 137.215 37.5338C136.849 36.0364 136.314 34.5851 135.623 33.2075L135.776 33.4678L136.197 34.2335C136.43 34.662 136.625 35.1104 136.779 35.5735C136.902 35.8575 137.007 36.149 137.093 36.4465C137.177 36.7681 137.269 37.1126 137.368 37.4725C137.77 39.255 137.894 41.0888 137.736 42.9091C137.509 45.3194 136.88 47.6747 135.875 49.8772C134.67 52.5529 133.01 54.9988 130.967 57.1056C129.813 58.2607 128.566 59.3185 127.238 60.268C125.827 61.2893 124.349 62.2129 122.812 63.0323C116.502 66.3478 108.83 68.109 100.897 69.8472C96.923 70.7354 93.0561 71.6619 89.4113 72.8565C85.9026 73.969 82.5381 75.4932 79.388 77.3972C76.5971 79.225 73.9571 81.2734 71.4934 83.523C69.3155 85.472 67.0135 87.2778 64.6019 88.929C62.587 90.2701 60.3829 91.3025 58.0627 91.9918C56.3265 92.5174 54.5155 92.7528 52.7026 92.6886C51.5513 92.6383 50.4125 92.4295 49.3181 92.0684C48.9429 91.9382 48.6673 91.8157 48.4835 91.7391C48.3791 91.6969 48.2812 91.6402 48.1925 91.5707Z" fill="#455A64"/>
</svg>
