<svg width="444" height="331" viewBox="0 0 444 331" fill="none" xmlns="http://www.w3.org/2000/svg">
<path d="M443.042 290.104H0V290.326H443.042V290.104Z" fill="#EBEBEB"/>
<path d="M308.65 299.993H299.364V300.214H308.65V299.993Z" fill="#EBEBEB"/>
<path d="M93.1984 295.562H57.5335V295.784H93.1984V295.562Z" fill="#EBEBEB"/>
<path d="M163.332 296.218H110.92V296.44H163.332V296.218Z" fill="#EBEBEB"/>
<path d="M238.357 296.218H223.267V296.44H238.357V296.218Z" fill="#EBEBEB"/>
<path d="M395.229 297.618H346.849V297.84H395.229V297.618Z" fill="#EBEBEB"/>
<path d="M202.718 301.269H182.728V301.49H202.718V301.269Z" fill="#EBEBEB"/>
<path d="M413.084 297.733H400.404V297.955H413.084V297.733Z" fill="#EBEBEB"/>
<path d="M210.002 250.585H38.908C37.5676 250.582 36.283 250.048 35.3361 249.1C34.3891 248.151 33.8573 246.866 33.8573 245.525V5.01524C33.869 3.68259 34.4059 2.40836 35.3516 1.46932C36.2973 0.530285 37.5753 0.0022829 38.908 0H210.002C211.344 0 212.631 0.533058 213.58 1.48191C214.529 2.43075 215.062 3.71767 215.062 5.05954V245.525C215.062 246.867 214.529 248.154 213.58 249.103C212.631 250.052 211.344 250.585 210.002 250.585ZM38.908 0.177218C37.6264 0.179565 36.3981 0.690318 35.4927 1.59737C34.5873 2.50442 34.0788 3.73365 34.0788 5.01524V245.525C34.0788 246.807 34.5873 248.036 35.4927 248.943C36.3981 249.85 37.6264 250.361 38.908 250.363H210.002C211.284 250.361 212.514 249.85 213.42 248.944C214.327 248.037 214.838 246.808 214.84 245.525V5.01524C214.838 3.73283 214.327 2.50363 213.42 1.59683C212.514 0.69003 211.284 0.17956 210.002 0.177218H38.908Z" fill="#EBEBEB"/>
<path d="M401.671 250.585H230.568C229.227 250.582 227.941 250.049 226.993 249.1C226.045 248.152 225.511 246.866 225.508 245.525V5.01524C225.522 3.68178 226.061 2.40756 227.009 1.46877C227.956 0.529975 229.234 0.002258 230.568 0H401.671C403.002 0.00461162 404.278 0.533644 405.222 1.47243C406.165 2.41122 406.701 3.68412 406.713 5.01524V245.525C406.713 246.864 406.182 248.148 405.237 249.097C404.292 250.045 403.01 250.58 401.671 250.585ZM230.568 0.177218C229.286 0.17956 228.056 0.69003 227.15 1.59683C226.243 2.50363 225.732 3.73283 225.73 5.01524V245.525C225.732 246.808 226.243 248.037 227.15 248.944C228.056 249.85 229.286 250.361 230.568 250.363H401.671C402.953 250.361 404.183 249.85 405.089 248.944C405.996 248.037 406.507 246.808 406.509 245.525V5.01524C406.507 3.73283 405.996 2.50363 405.089 1.59683C404.183 0.69003 402.953 0.17956 401.671 0.177218H230.568Z" fill="#EBEBEB"/>
<path d="M64.5247 157.218L185.28 157.218L185.28 16.5078L64.5247 16.5078L64.5247 157.218Z" fill="#F5F5F5"/>
<path d="M61.2373 157.218L183.739 157.218L183.739 16.5078L61.2373 16.5078L61.2373 157.218Z" fill="#F5F5F5"/>
<path d="M64.5247 165.095L185.28 165.095V157.209L64.5247 157.209V165.095Z" fill="#E6E6E6"/>
<path d="M46.227 165.095H161.551V157.209H46.227V165.095Z" fill="#F5F5F5"/>
<path d="M179.149 151.246V22.4711L65.8361 22.4711L65.8361 151.246H179.149Z" fill="#FAFAFA"/>
<path d="M162.845 151.246L135.872 22.48H100.526L127.49 151.246H162.845Z" fill="white"/>
<path d="M121.766 151.246L94.8022 22.48H78.8349L105.807 151.246H121.766Z" fill="white"/>
<path d="M66.412 137.777L66.412 21.6736H65.8272V137.777H66.412Z" fill="white"/>
<path d="M188.736 16.304V66.4032H175.445C175.445 66.4032 151.627 50.8701 146.204 18.909C146.075 18.1479 146.114 17.3678 146.317 16.6231C146.52 15.8784 146.883 15.1869 147.381 14.5966C147.878 14.0063 148.499 13.5315 149.198 13.2051C149.898 12.8787 150.66 12.7085 151.432 12.7065H185.103C185.578 12.703 186.049 12.7934 186.489 12.9725C186.929 13.1516 187.33 13.4159 187.667 13.7502C188.005 14.0845 188.273 14.4822 188.456 14.9204C188.64 15.3587 188.735 15.8289 188.736 16.304Z" fill="#E6E6E6"/>
<path d="M188.736 146.709V70.4437H175.445C175.445 70.4437 167.824 85.8439 160.222 103.548C158.215 108.262 157.407 113.401 157.871 118.504C158.335 123.607 160.056 128.516 162.88 132.791C165.705 137.066 169.545 140.575 174.057 143.004C178.569 145.433 183.612 146.706 188.736 146.709Z" fill="#E6E6E6"/>
<path d="M175.852 70.4437H188.231C188.965 70.4437 189.56 69.8487 189.56 69.1146V67.7323C189.56 66.9983 188.965 66.4032 188.231 66.4032H175.852C175.118 66.4032 174.523 66.9983 174.523 67.7323V69.1146C174.523 69.8487 175.118 70.4437 175.852 70.4437Z" fill="#F5F5F5"/>
<path d="M57.4803 16.304V66.4032H70.7716C70.7716 66.4032 94.5895 50.8701 100.012 18.909C100.141 18.1479 100.102 17.3678 99.8991 16.6231C99.6959 15.8784 99.3329 15.1869 98.8354 14.5966C98.3379 14.0063 97.7178 13.5315 97.0182 13.2051C96.3187 12.8787 95.5564 12.7085 94.7845 12.7065H61.1132C60.6382 12.703 60.1671 12.7934 59.727 12.9725C59.287 13.1516 58.8867 13.4159 58.5491 13.7502C58.2115 14.0845 57.9433 14.4822 57.7599 14.9204C57.5765 15.3587 57.4815 15.8289 57.4803 16.304Z" fill="#E6E6E6"/>
<path d="M57.4803 146.709V70.4437H70.7716C70.7716 70.4437 78.3919 85.8439 85.9945 103.548C88.0005 108.26 88.8085 113.395 88.3463 118.495C87.8841 123.595 86.1661 128.502 83.3457 132.776C80.5253 137.051 76.6903 140.56 72.1831 142.991C67.6759 145.423 62.6368 146.7 57.5157 146.709H57.4803Z" fill="#E6E6E6"/>
<path d="M70.3551 66.4032H57.9765C57.2425 66.4032 56.6474 66.9983 56.6474 67.7323V69.1146C56.6474 69.8487 57.2425 70.4437 57.9765 70.4437H70.3551C71.0892 70.4437 71.6842 69.8487 71.6842 69.1146V67.7323C71.6842 66.9983 71.0892 66.4032 70.3551 66.4032Z" fill="#F5F5F5"/>
<path d="M327.284 129.687H380.476V33.7864H327.284V129.687Z" fill="#E0E0E0"/>
<path d="M321.33 129.687H379.12V33.7864H321.33V129.687Z" fill="#F5F5F5"/>
<path d="M373.157 123.724V39.7408H327.284V123.724H373.157Z" fill="white"/>
<path d="M357.128 69.0969V56.6828H343.313V69.0969H357.128Z" fill="#F5F5F5"/>
<path d="M357.128 87.935V75.521H343.313V87.935H357.128Z" fill="#F5F5F5"/>
<path d="M357.128 106.773V94.3591H343.313V106.773H357.128Z" fill="#F5F5F5"/>
<path d="M270.398 107.216C278.026 107.083 285.297 103.959 290.645 98.5174C295.992 93.0756 298.989 85.7512 298.989 78.1216C298.989 70.492 295.992 63.1676 290.645 57.7258C285.297 52.284 278.026 49.1602 270.398 49.027H268.625V107.216H270.398Z" fill="#E6E6E6"/>
<path d="M275.397 106.416C291.021 102.671 300.65 86.9696 296.905 71.3461C293.16 55.7227 277.459 46.0934 261.835 49.8385C246.212 53.5836 236.582 69.2849 240.327 84.9083C244.073 100.532 259.774 110.161 275.397 106.416Z" fill="#F5F5F5"/>
<path d="M272.15 99.8003C284.108 97.8443 292.216 86.5648 290.26 74.6069C288.304 62.649 277.025 54.5409 265.067 56.4969C253.109 58.453 245.001 69.7324 246.957 81.6903C248.913 93.6482 260.192 101.756 272.15 99.8003Z" fill="white"/>
<path d="M259.534 86.3135L257.824 83.8591L266.951 77.497L263.938 62.8411L266.862 62.2386L270.274 78.8172L259.534 86.3135Z" fill="#E6E6E6"/>
<path d="M127.153 293.25H165.175V190.517H127.153L127.153 293.25Z" fill="#E6E6E6"/>
<path d="M137.308 293.241H127.153V276.228H147.95L137.308 293.241Z" fill="#F0F0F0"/>
<path d="M355.098 293.25H393.12V190.517H355.098V293.25Z" fill="#F0F0F0"/>
<path d="M127.153 287.393L363.968 287.393V190.517L127.153 190.517V287.393Z" fill="#FAFAFA"/>
<path d="M353.814 293.241H363.968V276.228H343.163L353.814 293.241Z" fill="#F0F0F0"/>
<path d="M135.03 234.502L356.091 234.502V198.846L135.03 198.846V234.502Z" fill="#F0F0F0"/>
<path d="M135.03 278.771H356.091V243.115L135.03 243.115V278.771Z" fill="#F0F0F0"/>
<path d="M297.636 180.478C302.021 180.478 305.575 176.923 305.575 172.538C305.575 168.154 302.021 164.599 297.636 164.599C293.251 164.599 289.696 168.154 289.696 172.538C289.696 176.923 293.251 180.478 297.636 180.478Z" fill="#F5F5F5"/>
<path d="M303.236 176.331C303.236 177.558 303.6 178.757 304.281 179.777C304.963 180.797 305.931 181.592 307.065 182.061C308.198 182.531 309.445 182.654 310.649 182.414C311.852 182.175 312.957 181.584 313.824 180.717C314.692 179.849 315.283 178.744 315.522 177.541C315.761 176.338 315.638 175.091 315.169 173.957C314.699 172.824 313.904 171.855 312.884 171.174C311.864 170.492 310.665 170.128 309.438 170.128C307.793 170.128 306.216 170.782 305.053 171.945C303.889 173.108 303.236 174.686 303.236 176.331Z" fill="#F5F5F5"/>
<path d="M284.052 184.261C288.437 184.261 291.991 180.707 291.991 176.322C291.991 171.937 288.437 168.383 284.052 168.383C279.667 168.383 276.113 171.937 276.113 176.322C276.113 180.707 279.667 184.261 284.052 184.261Z" fill="#F5F5F5"/>
<path d="M271.036 181.931C275.42 181.931 278.975 178.376 278.975 173.992C278.975 169.607 275.42 166.052 271.036 166.052C266.651 166.052 263.096 169.607 263.096 173.992C263.096 178.376 266.651 181.931 271.036 181.931Z" fill="#F5F5F5"/>
<path d="M331.298 175.028C331.298 175.028 330.208 190.508 288.429 190.508C246.65 190.508 245.561 175.028 245.561 175.028H331.298Z" fill="#E6E6E6"/>
<path d="M221.521 330.12C316.405 330.12 393.324 325.629 393.324 320.089C393.324 314.549 316.405 310.059 221.521 310.059C126.637 310.059 49.7182 314.549 49.7182 320.089C49.7182 325.629 126.637 330.12 221.521 330.12Z" fill="#F5F5F5"/>
<path d="M182.799 93.606C182.914 93.9958 183.118 94.5895 183.295 95.0857L183.863 96.6718C184.252 97.7263 184.678 98.7718 185.13 99.8085C186.013 101.86 187.007 103.863 188.107 105.807C190.287 109.618 192.936 113.064 196.082 115.271L196.631 115.652C196.631 115.652 196.631 115.714 196.764 115.731C197.364 115.716 197.951 115.555 198.474 115.262C200.29 114.3 201.961 113.086 203.436 111.655C205.141 110.095 206.765 108.447 208.301 106.72C209.878 104.948 211.429 103.114 212.891 101.315L217.117 103.867C214.922 108.522 212.163 112.891 208.903 116.875C207.112 119.089 204.99 121.014 202.612 122.581C201.049 123.587 199.281 124.232 197.437 124.468C196.264 124.588 195.079 124.479 193.946 124.149C193.362 123.978 192.798 123.747 192.263 123.458L191.244 122.891C188.767 121.398 186.525 119.546 184.589 117.397C182.739 115.376 181.089 113.18 179.663 110.84C178.263 108.569 177.028 106.2 175.968 103.752C175.445 102.547 174.949 101.324 174.497 100.092C174.266 99.4718 174.045 98.8516 173.841 98.2136C173.637 97.5756 173.451 96.9908 173.238 96.2022L182.799 93.606Z" fill="#B97964"/>
<path d="M191.952 109.263L180.619 115.537C180.619 115.537 180.283 115.049 179.733 114.207C179.335 113.587 178.847 112.772 178.227 111.815C174.895 106.401 169.366 96.5123 170.811 92.3212C173.017 85.8705 181.151 85.9768 185.147 93.4553C187.08 97.1815 188.81 101.009 190.331 104.921C190.747 105.967 191.093 106.88 191.359 107.58C191.74 108.652 191.952 109.263 191.952 109.263Z" fill="#0F7CE3"/>
<path opacity="0.2" d="M191.952 109.263L180.619 115.537C180.619 115.537 180.283 115.049 179.733 114.207C179.335 113.587 178.847 112.772 178.227 111.815C174.895 106.401 169.366 96.5123 170.811 92.3212C173.017 85.8705 181.151 85.9768 185.147 93.4553C187.08 97.1815 188.81 101.009 190.331 104.921C190.747 105.967 191.093 106.88 191.359 107.58C191.74 108.652 191.952 109.263 191.952 109.263Z" fill="black"/>
<path opacity="0.2" d="M191.394 107.624L179.769 114.207C179.37 113.587 178.883 112.772 178.262 111.815L190.366 104.957C190.747 106.002 191.093 106.915 191.394 107.624Z" fill="black"/>
<path opacity="0.2" d="M170.642 93.1009C173.176 91.8781 176.1 92.8971 179.166 97.7529C182.232 102.609 184.864 110.761 185.192 113.038L180.664 115.537C180.664 115.537 169.712 99.5605 170.642 93.1009Z" fill="black"/>
<path d="M181.151 144.972H146.018C145.77 141.836 146.496 131.628 145.956 118.629C145.622 108.994 144.454 99.4063 142.465 89.973C142.305 89.2642 142.146 88.5642 141.977 87.8553C141.977 87.8553 143.749 87.492 146.31 87.1199C148.428 86.8097 151.086 86.4907 153.691 86.3667C158.664 86.0829 163.649 86.0829 168.622 86.3667C170.917 86.5793 173.159 86.9604 174.949 87.3059C177.235 87.7667 178.794 88.192 178.794 88.192C178.794 88.192 187.238 108.031 181.151 144.972Z" fill="#0F7CE3"/>
<path opacity="0.2" d="M181.151 144.972H146.018C145.77 141.836 146.496 131.628 145.956 118.629C145.622 108.994 144.454 99.4063 142.465 89.973C142.305 89.2642 142.146 88.5642 141.977 87.8553C141.977 87.8553 143.749 87.492 146.31 87.1199C148.428 86.8097 151.086 86.4907 153.691 86.3667C158.664 86.0829 163.649 86.0829 168.622 86.3667C170.917 86.5793 173.159 86.9604 174.949 87.3059C177.235 87.7667 178.794 88.192 178.794 88.192C178.794 88.192 187.238 108.031 181.151 144.972Z" fill="black"/>
<path d="M133.241 302.031L138.451 306.692L148.357 296.369L143.156 291.708L133.241 302.031Z" fill="#B97964"/>
<path d="M151.077 311.733H157.643L158.503 296.519H151.928L151.077 311.733Z" fill="#B97964"/>
<path d="M148.357 296.378L143.244 301.694L138.034 297.033L143.147 291.708L148.357 296.378Z" fill="#A76755"/>
<path d="M151.928 296.528H158.503L158.06 304.37H151.485L151.928 296.528Z" fill="#A76755"/>
<path d="M180.814 144.636C180.814 144.636 187.735 192.537 190.101 218.615C191.997 239.526 146.762 301.907 146.762 301.907L138.008 293.675C138.008 293.675 171.05 237.754 168.507 214.468C166.043 191.908 157.696 144.609 157.696 144.609L180.814 144.636Z" fill="#0F7CE3"/>
<path opacity="0.7" d="M180.814 144.636C180.814 144.636 187.735 192.537 190.101 218.615C191.997 239.526 146.762 301.907 146.762 301.907L138.008 293.675C138.008 293.675 171.05 237.754 168.507 214.468C166.043 191.908 157.696 144.609 157.696 144.609L180.814 144.636Z" fill="black"/>
<path d="M157.989 311.016H150.634C150.573 311.013 150.511 311.023 150.453 311.045C150.395 311.066 150.342 311.099 150.297 311.141C150.252 311.183 150.215 311.233 150.189 311.289C150.164 311.345 150.149 311.406 150.147 311.468L149.793 317.307C149.793 317.614 149.913 317.909 150.129 318.128C150.344 318.347 150.637 318.472 150.944 318.477C153.514 318.432 154.737 318.273 158.033 318.273C160.027 318.273 168.516 318.485 171.271 318.485C174.027 318.485 173.93 315.756 172.786 315.508C167.541 314.401 161.046 312.85 159.194 311.423C158.854 311.148 158.426 311.003 157.989 311.016Z" fill="#263238"/>
<path d="M139.886 304.813L133.551 300.551C133.448 300.471 133.322 300.428 133.192 300.428C133.062 300.428 132.936 300.471 132.833 300.551L127.995 305.433C127.899 305.541 127.828 305.668 127.787 305.806C127.746 305.944 127.736 306.09 127.758 306.232C127.78 306.374 127.834 306.51 127.914 306.629C127.995 306.749 128.101 306.849 128.225 306.922C132.266 310.032 135.181 312.371 137.476 314.959C140.134 317.989 141.579 318.415 147.781 318.415C150.652 318.415 152.274 315.996 151.104 315.623C140.763 312.354 143.528 310.927 141.02 306.133C140.754 305.609 140.365 305.156 139.886 304.813Z" fill="#263238"/>
<path d="M212.111 102.431L214.37 95.2009L220.236 99.4984C220.236 99.4984 217.029 105.94 214.858 105.355L212.111 102.431Z" fill="#B97964"/>
<path d="M220.546 92.4363L223.852 96.4857L220.236 99.4984L214.37 95.2009L220.546 92.4363Z" fill="#B97964"/>
<path opacity="0.2" d="M145.956 118.629C145.622 108.994 144.454 99.4062 142.465 89.973C144.813 89.7692 148.827 89.973 149.491 93.792C150.209 97.868 149.305 107.455 145.956 118.629Z" fill="black"/>
<path opacity="0.5" d="M168.507 214.486C167.24 202.869 164.404 184.669 161.967 169.765C163.243 167.266 166.814 162.216 166.814 162.216C170.022 173.3 176.995 215.079 167.054 271.514C156.686 288.226 146.762 301.924 146.762 301.924L145.406 280.375C154.985 262.352 170.27 230.604 168.507 214.486Z" fill="black"/>
<path d="M148.348 97.3984L146.798 100.057C146.266 100.978 145.752 101.909 145.256 102.848C144.246 104.726 143.274 106.617 142.341 108.519C141.455 110.424 140.568 112.338 139.78 114.252C139.018 116.14 138.353 118.065 137.786 120.02L137.68 120.375L137.627 120.561C137.627 120.614 137.627 120.561 137.627 120.561C137.598 120.609 137.579 120.664 137.573 120.72C137.546 120.994 137.546 121.27 137.573 121.544C137.665 122.381 137.84 123.206 138.096 124.008C138.71 125.931 139.459 127.808 140.338 129.625C142.11 133.436 144.263 137.308 146.417 141.047L142.527 144.086C139.295 140.8 136.374 137.223 133.799 133.4C132.433 131.378 131.247 129.24 130.254 127.011C129.694 125.74 129.261 124.416 128.961 123.059C128.788 122.241 128.699 121.406 128.695 120.57C128.688 120.065 128.724 119.561 128.801 119.063L128.863 118.7V118.47L128.961 118.018C129.915 113.338 131.386 108.78 133.347 104.425C134.277 102.281 135.296 100.19 136.386 98.1428C136.935 97.1149 137.494 96.1048 138.079 95.0946C138.663 94.0845 139.239 93.1275 139.93 92.0554L148.348 97.3984Z" fill="#B97964"/>
<path d="M150.696 99.8174C149.058 104.355 147.156 108.793 144.999 113.109C144.529 114.083 144.113 114.952 143.741 115.652C143.12 116.883 142.73 117.628 142.73 117.628L129.439 110.255C129.439 110.255 129.608 109.697 129.909 108.758C130.139 108.049 130.44 107.119 130.795 106.047C133.01 99.7288 137.538 88.4578 141.977 87.811C148.614 86.8894 153.39 91.8515 150.696 99.8174Z" fill="#0F7CE3"/>
<path opacity="0.2" d="M144.999 113.153C144.529 114.128 144.113 114.996 143.741 115.696L129.891 108.802C130.121 108.093 130.423 107.163 130.777 106.091L144.999 113.153Z" fill="black"/>
<path d="M160.319 312.114C159.722 312.101 159.128 312.024 158.547 311.884C158.517 311.876 158.49 311.86 158.469 311.838C158.447 311.817 158.431 311.79 158.423 311.76C158.42 311.731 158.425 311.701 158.437 311.675C158.45 311.648 158.469 311.626 158.494 311.609C158.698 311.459 160.567 310.192 161.365 310.502C161.456 310.538 161.536 310.597 161.598 310.673C161.66 310.749 161.702 310.839 161.719 310.936C161.76 311.08 161.763 311.232 161.729 311.378C161.695 311.523 161.624 311.658 161.524 311.769C161.178 312.027 160.75 312.15 160.319 312.114ZM158.99 311.663C160.169 311.893 161.028 311.857 161.338 311.556C161.402 311.482 161.445 311.392 161.464 311.296C161.483 311.199 161.476 311.1 161.445 311.007C161.438 310.96 161.419 310.915 161.39 310.877C161.36 310.84 161.321 310.811 161.276 310.794C160.842 310.626 159.752 311.175 158.99 311.663Z" fill="#0F7CE3"/>
<path d="M158.609 311.902C158.586 311.909 158.561 311.909 158.538 311.902C158.516 311.889 158.497 311.871 158.483 311.85C158.469 311.828 158.461 311.803 158.459 311.778C158.459 311.698 158.308 309.811 158.972 309.173C159.056 309.089 159.158 309.026 159.27 308.989C159.383 308.952 159.502 308.942 159.619 308.96C159.75 308.966 159.875 309.014 159.975 309.097C160.076 309.18 160.147 309.294 160.178 309.421C160.328 310.139 159.345 311.512 158.689 311.902H158.609ZM159.495 309.244C159.434 309.242 159.374 309.253 159.317 309.276C159.261 309.299 159.21 309.333 159.167 309.376C158.803 310.006 158.65 310.736 158.733 311.459C159.3 310.98 159.956 309.935 159.859 309.465C159.859 309.376 159.788 309.27 159.566 309.244H159.495Z" fill="#0F7CE3"/>
<path d="M144.139 308.357C142.968 308.178 141.849 307.745 140.861 307.09C140.834 307.074 140.813 307.05 140.8 307.022C140.787 306.993 140.784 306.962 140.79 306.931C140.797 306.899 140.813 306.87 140.837 306.848C140.861 306.826 140.891 306.811 140.923 306.807C141.277 306.807 144.387 306.576 144.99 307.285C145.039 307.347 145.072 307.419 145.088 307.496C145.103 307.573 145.1 307.653 145.079 307.728C145.053 307.851 144.997 307.965 144.917 308.061C144.837 308.156 144.734 308.231 144.618 308.278C144.464 308.333 144.302 308.36 144.139 308.357ZM141.481 307.081C142.899 307.861 144.015 308.198 144.512 307.968C144.585 307.938 144.649 307.891 144.7 307.831C144.751 307.771 144.787 307.699 144.804 307.622C144.819 307.596 144.826 307.567 144.826 307.538C144.826 307.508 144.819 307.479 144.804 307.454C144.432 307.117 142.73 307.055 141.463 307.108L141.481 307.081Z" fill="#0F7CE3"/>
<path d="M140.941 307.144C140.914 307.144 140.888 307.137 140.865 307.125C140.842 307.112 140.822 307.095 140.808 307.073C140.797 307.049 140.791 307.023 140.791 306.997C140.791 306.971 140.797 306.946 140.808 306.922C140.861 306.816 142.048 304.406 143.563 305.15C143.98 305.354 144.024 305.602 143.989 305.77C143.829 306.479 141.853 307.135 140.949 307.161L140.941 307.144ZM142.987 305.309C142.181 305.309 141.49 306.337 141.215 306.816C142.163 306.692 143.599 306.107 143.687 305.69C143.687 305.593 143.617 305.504 143.43 305.407C143.292 305.341 143.141 305.307 142.987 305.309Z" fill="#0F7CE3"/>
<path d="M144.653 139.656L151.193 138.522L147.834 146.089C147.834 146.089 141.862 146.089 142.137 142.979L144.653 139.656Z" fill="#B97964"/>
<path d="M156.066 142.323L153 148.437L147.834 146.089L151.193 138.522L156.066 142.323Z" fill="#B97964"/>
<path d="M137.476 293.197L147.294 302.43L150.448 299.036L139.23 288.81L137.476 293.197Z" fill="#0F7CE3"/>
<path opacity="0.7" d="M137.476 293.197L147.294 302.43L150.448 299.036L139.23 288.81L137.476 293.197Z" fill="white"/>
<path d="M168.356 144.636C168.356 144.636 168.985 194.841 167.922 213.644C166.752 234.245 160.913 302.474 160.913 302.474H148.862C148.862 302.474 149.217 235.902 148.499 215.513C147.71 193.361 145.672 144.627 145.672 144.627L168.356 144.636Z" fill="#0F7CE3"/>
<path opacity="0.7" d="M168.356 144.636C168.356 144.636 168.985 194.841 167.922 213.644C166.752 234.245 160.913 302.474 160.913 302.474H148.862C148.862 302.474 149.217 235.902 148.499 215.513C147.71 193.361 145.672 144.627 145.672 144.627L168.356 144.636Z" fill="black"/>
<path d="M148.357 302.474H161.356L162.083 297.911L147.728 298.619L148.357 302.474Z" fill="#0F7CE3"/>
<path opacity="0.7" d="M148.357 302.474H161.356L162.083 297.911L147.728 298.619L148.357 302.474Z" fill="white"/>
<path opacity="0.2" d="M150.696 99.8174C149.058 104.355 147.156 108.793 144.999 113.109C144.529 114.083 144.113 114.952 143.741 115.652C143.12 116.883 142.73 117.628 142.73 117.628L129.439 110.255C129.439 110.255 129.608 109.697 129.909 108.758C130.139 108.049 130.44 107.119 130.795 106.047C133.01 99.7288 137.538 88.4578 141.977 87.811C148.614 86.8894 153.39 91.8515 150.696 99.8174Z" fill="black"/>
<path d="M174.231 91.4794C173.522 93.8275 171.573 96.9643 166.123 98.5681L164.705 98.9934L163.261 98.7364C152.141 96.7427 148.047 90.7617 147.312 89.6009L145.823 87.1199C147.941 86.8097 150.599 86.4907 153.204 86.3667C158.177 86.0829 163.162 86.0829 168.135 86.3667C170.429 86.5793 172.671 86.9604 174.461 87.3059C174.708 88.6962 174.629 90.1248 174.231 91.4794Z" fill="#0F7CE3"/>
<path opacity="0.4" d="M174.231 91.4794C173.522 93.8275 171.573 96.9643 166.123 98.5681L164.705 98.9934L163.261 98.7364C152.141 96.7427 148.047 90.7617 147.312 89.6009L145.823 87.1199C147.941 86.8097 150.599 86.4907 153.204 86.3667C158.177 86.0829 163.162 86.0829 168.135 86.3667C170.429 86.5793 172.671 86.9604 174.461 87.3059C174.708 88.6962 174.629 90.1248 174.231 91.4794Z" fill="black"/>
<path d="M164.812 92.6313C155.898 91.0274 153.107 86.4287 153.107 86.4287C156.358 83.221 155.109 74.4577 153.993 69.6462L157.989 72.9602L163.429 77.4792C163.268 78.2037 163.153 78.9377 163.084 79.6767C162.791 82.6274 163.553 85.3122 167.895 86.3401C167.913 86.3135 171.511 90.6376 164.812 92.6313Z" fill="#B97964"/>
<path d="M163.447 77.4527C163.286 78.1772 163.17 78.9111 163.102 79.6502C161.072 79.2426 158.361 77.0805 158.077 75.0071C157.978 74.3206 157.954 73.6253 158.007 72.9337L163.447 77.4527Z" fill="#A76755"/>
<path d="M167.142 52.8372C170.385 54.2993 172.184 63.4171 168.028 65.3842C163.872 67.3513 161.01 50.0638 167.142 52.8372Z" fill="#263238"/>
<path d="M152.407 62.6994C153.798 69.088 154.285 72.8893 158.06 75.8046C159.277 76.7634 160.733 77.3715 162.27 77.5635C163.808 77.7554 165.368 77.5237 166.784 76.8935C168.199 76.2633 169.416 75.2585 170.302 73.9876C171.188 72.7166 171.71 71.2277 171.812 69.6817C172.308 63.7361 169.951 54.2904 163.226 52.4828C161.781 52.0522 160.248 52.0091 158.781 52.358C157.315 52.7069 155.966 53.4355 154.869 54.4706C153.773 55.5057 152.969 56.8109 152.536 58.2553C152.104 59.6996 152.059 61.2323 152.407 62.6994Z" fill="#B97964"/>
<path d="M144.955 56.3638C141.844 57.7373 143.608 61.9905 145.725 64.693C148.658 68.45 151.76 70.2045 153.869 68.4766C155.765 67.5285 157.014 61.9373 155.366 58.4905C158.281 56.5677 164.333 58.9424 166.221 55.8322C168.108 52.722 169.455 52.979 172.778 55.0347C176.1 57.0904 178.759 48.965 170.119 47.4498C174.904 49.603 173.805 53.7942 170.305 49.4967C167.833 46.4663 161.905 43.1169 157.785 47.6359C154.746 50.9322 144.068 45.8372 144.955 56.3638Z" fill="#263238"/>
<path d="M150.891 69.3627C151.928 70.6094 153.36 71.4632 154.95 71.7817C156.961 72.1184 157.413 70.2576 156.394 68.45C155.508 66.8285 153.31 64.693 151.512 65.1715C149.713 65.65 149.589 67.7943 150.891 69.3627Z" fill="#B97964"/>
<path d="M162.446 63.3374C162.526 63.8601 162.871 64.2234 163.217 64.2234C163.562 64.2234 163.775 63.7272 163.686 63.2044C163.598 62.6817 163.27 62.3184 162.924 62.3184C162.579 62.3184 162.366 62.8057 162.446 63.3374Z" fill="#263238"/>
<path d="M168.356 62.6284C168.436 63.1512 168.781 63.5145 169.127 63.5145C169.473 63.5145 169.685 63.0095 169.605 62.4867C169.526 61.9639 169.18 61.6006 168.835 61.6006C168.489 61.6006 168.356 62.1057 168.356 62.6284Z" fill="#263238"/>
<path d="M166.584 63.1158C167.463 64.646 168.542 66.0524 169.791 67.2982C169.465 67.5971 169.076 67.8203 168.654 67.952C168.231 68.0838 167.784 68.1207 167.346 68.0602L166.584 63.1158Z" fill="#A24E3F"/>
<path d="M165.37 69.726C164.756 69.7335 164.147 69.6172 163.579 69.3843C163.012 69.1514 162.497 68.8066 162.065 68.3703C162.036 68.3406 162.02 68.3009 162.02 68.2596C162.02 68.2182 162.036 68.1785 162.065 68.1488C162.095 68.1201 162.134 68.1041 162.176 68.1041C162.217 68.1041 162.257 68.1201 162.286 68.1488C162.764 68.6126 163.341 68.9625 163.973 69.1727C164.605 69.3829 165.276 69.4478 165.937 69.3627C165.958 69.3603 165.978 69.3621 165.998 69.368C166.018 69.3739 166.036 69.3838 166.052 69.3971C166.068 69.4104 166.081 69.4268 166.09 69.4453C166.099 69.4637 166.104 69.4839 166.105 69.5045C166.109 69.5245 166.109 69.5451 166.104 69.5648C166.099 69.5846 166.09 69.6031 166.077 69.6191C166.065 69.6351 166.049 69.6481 166.031 69.6574C166.013 69.6667 165.993 69.672 165.972 69.6729C165.773 69.7029 165.572 69.7206 165.37 69.726Z" fill="#263238"/>
<path d="M160.31 61.636C160.261 61.6492 160.209 61.6492 160.16 61.636C160.088 61.595 160.035 61.5278 160.012 61.4484C159.989 61.3691 159.997 61.2839 160.036 61.2107C160.269 60.7799 160.602 60.4116 161.008 60.1371C161.414 59.8625 161.88 59.6898 162.366 59.6335C162.441 59.646 162.508 59.6845 162.557 59.7421C162.605 59.7996 162.632 59.8726 162.632 59.948C162.632 60.0235 162.605 60.0964 162.557 60.154C162.508 60.2116 162.441 60.2501 162.366 60.2626C161.984 60.3063 161.619 60.443 161.302 60.6609C160.985 60.8787 160.727 61.171 160.55 61.512C160.521 61.5489 160.485 61.5791 160.444 61.6005C160.402 61.6219 160.357 61.6341 160.31 61.636Z" fill="#263238"/>
<path d="M170.633 60.2538C170.582 60.2524 170.532 60.2389 170.488 60.2142C170.443 60.1895 170.405 60.1545 170.376 60.112C170.162 59.7759 169.873 59.4939 169.532 59.288C169.191 59.082 168.806 58.9577 168.409 58.9246C168.327 58.9246 168.248 58.892 168.19 58.8338C168.132 58.7756 168.099 58.6968 168.099 58.6145C168.099 58.5323 168.132 58.4534 168.19 58.3952C168.248 58.3371 168.327 58.3044 168.409 58.3044C168.909 58.3329 169.395 58.4805 169.827 58.7348C170.258 58.9891 170.623 59.3428 170.89 59.7664C170.914 59.8001 170.93 59.8381 170.939 59.8782C170.948 59.9183 170.949 59.9598 170.941 60.0002C170.934 60.0406 170.918 60.0791 170.896 60.1135C170.873 60.1479 170.844 60.1775 170.81 60.2006C170.758 60.2354 170.696 60.2539 170.633 60.2538Z" fill="#263238"/>
<g opacity="0.9">
<path opacity="0.9" d="M263.114 162.8C263.867 160.913 265.154 159.286 266.818 158.118C268.481 156.95 270.449 156.293 272.48 156.226H350.597C355.276 156.226 358.439 160.018 357.686 164.705L332.973 312.247C332.537 314.581 331.319 316.696 329.52 318.244C327.72 319.792 325.447 320.68 323.075 320.763H127.197C126.131 320.804 125.069 320.6 124.094 320.167C123.118 319.734 122.255 319.083 121.57 318.264C120.886 317.445 120.398 316.48 120.145 315.443C119.891 314.406 119.879 313.325 120.109 312.283L141.118 186.68C141.562 184.354 142.784 182.248 144.582 180.708C146.38 179.167 148.649 178.283 151.015 178.2H241.236C250.469 178.165 259.534 171.794 263.114 162.8Z" fill="#0F7CE3"/>
</g>
<path opacity="0.5" d="M263.114 162.8C263.867 160.913 265.154 159.286 266.818 158.118C268.481 156.95 270.449 156.293 272.48 156.226H350.597C355.276 156.226 358.439 160.018 357.686 164.705L332.973 312.247C332.537 314.581 331.319 316.696 329.52 318.244C327.72 319.792 325.447 320.68 323.075 320.763H127.197C126.131 320.804 125.069 320.6 124.094 320.167C123.118 319.734 122.255 319.083 121.57 318.264C120.886 317.445 120.398 316.48 120.145 315.443C119.891 314.406 119.879 313.325 120.109 312.283L141.118 186.68C141.562 184.354 142.784 182.248 144.582 180.708C146.38 179.167 148.649 178.283 151.015 178.2H241.236C250.469 178.165 259.534 171.794 263.114 162.8Z" fill="white"/>
<path opacity="0.9" d="M232.021 31.8016L172.91 237.196L308.127 276.104L367.229 70.7095L232.021 31.8016Z" fill="#0F7CE3"/>
<path opacity="0.7" d="M232.021 31.8016L172.91 237.196L308.127 276.104L367.229 70.7095L232.021 31.8016Z" fill="white"/>
<g style="mix-blend-mode:multiply" opacity="0.9">
<path d="M229.398 40.9017L172.91 237.196L303.528 274.784L356.472 71.6222L229.398 40.9017Z" fill="#0F7CE3"/>
</g>
<path opacity="0.6" d="M229.398 40.9017L172.91 237.196L303.528 274.784L356.472 71.6222L229.398 40.9017Z" fill="#0F7CE3"/>
<g opacity="0.9">
<g style="mix-blend-mode:multiply" opacity="0.9">
<path d="M229.398 40.9017L172.91 237.196L303.528 274.784L356.472 71.6222L229.398 40.9017Z" fill="white"/>
</g>
<path opacity="0.6" d="M229.398 40.9017L172.91 237.196L303.528 274.784L356.472 71.6222L229.398 40.9017Z" fill="white"/>
</g>
<path d="M277.277 96.5112C286.139 86.3771 285.108 70.9774 274.974 62.115C264.84 53.2526 249.44 54.2836 240.578 64.4177C231.716 74.5518 232.747 89.9515 242.881 98.8138C253.015 107.676 268.414 106.645 277.277 96.5112Z" fill="#0F7CE3"/>
<path d="M253.58 99.0022C249.91 97.9419 246.637 95.8174 244.175 92.8973C241.712 89.9772 240.171 86.3925 239.745 82.5966C239.32 78.8006 240.029 74.9637 241.784 71.5708C243.539 68.178 246.26 65.3816 249.604 63.5351C252.948 61.6885 256.764 60.8748 260.57 61.1968C264.376 61.5188 268.001 62.962 270.987 65.344C273.974 67.7259 276.186 70.9398 277.346 74.5791C278.506 78.2185 278.561 82.1201 277.504 85.7907C276.802 88.2303 275.627 90.5077 274.044 92.4924C272.462 94.4772 270.504 96.1305 268.281 97.3576C266.059 98.5847 263.617 99.3616 261.094 99.6438C258.572 99.926 256.018 99.708 253.58 99.0022Z" fill="white"/>
<path d="M268.329 119.343L225.292 106.962L222.509 116.635L265.546 129.017L268.329 119.343Z" fill="#0F7CE3"/>
<path d="M225.601 195.188L201.877 188.362L191.059 225.967L214.783 232.792L225.601 195.188Z" fill="#0F7CE3"/>
<path d="M309.549 219.343L285.825 212.518L275.007 250.122L298.731 256.947L309.549 219.343Z" fill="#0F7CE3"/>
<path d="M267.571 207.27L243.847 200.445L233.028 238.049L256.752 244.874L267.571 207.27Z" fill="#0F7CE3"/>
<path d="M303.105 129.34L273.99 120.964L271.207 130.638L300.322 139.014L303.105 129.34Z" fill="#0F7CE3"/>
<path d="M325.781 158.624L219.244 127.974L218.098 131.96L324.635 162.609L325.781 158.624Z" fill="white"/>
<path d="M269.783 151.682L216.809 136.442L215.662 140.427L268.637 155.668L269.783 151.682Z" fill="white"/>
<path d="M314.279 164.484L278.846 154.29L277.699 158.275L313.132 168.469L314.279 164.484Z" fill="white"/>
<path d="M299.535 169.404L214.372 144.903L213.225 148.889L298.388 173.389L299.535 169.404Z" fill="white"/>
<path d="M308.752 182.419L210.962 153.897L209.801 157.878L307.591 186.4L308.752 182.419Z" fill="white"/>
<path d="M220.804 165.097L209.496 161.844L208.349 165.829L219.658 169.083L220.804 165.097Z" fill="white"/>
<path d="M279.848 182.086L229.88 167.71L228.733 171.696L278.702 186.071L279.848 182.086Z" fill="white"/>
<path d="M313.6 200.966L207.063 170.317L205.917 174.302L312.454 204.951L313.6 200.966Z" fill="white"/>
<path d="M216.284 38.9877L164.315 246.332L300.772 280.543L352.732 73.1995L216.284 38.9877Z" fill="#0F7CE3"/>
<path opacity="0.8" d="M216.284 38.9877L164.315 246.332L300.772 280.543L352.732 73.1995L216.284 38.9877Z" fill="white"/>
<path d="M255.456 108.568C267.579 102.713 272.66 88.1388 266.805 76.0161C260.95 63.8934 246.376 58.8126 234.253 64.6677C222.131 70.5228 217.05 85.0967 222.905 97.2193C228.76 109.342 243.334 114.423 255.456 108.568Z" fill="#FACF38"/>
<path d="M263.84 90.1137C265.76 79.6197 258.81 69.5558 248.316 67.6355C237.821 65.7151 227.758 72.6655 225.837 83.1595C223.917 93.6536 230.867 103.717 241.361 105.638C251.855 107.558 261.919 100.608 263.84 90.1137Z" fill="white"/>
<path d="M255.599 125.198L212.16 114.311L209.713 124.075L253.152 134.962L255.599 125.198Z" fill="#FACF38"/>
<path d="M215.516 202.478L191.571 196.477L182.058 234.432L206.004 240.434L215.516 202.478Z" fill="#0F7CE3"/>
<path d="M300.239 223.715L276.293 217.713L266.78 255.669L290.726 261.67L300.239 223.715Z" fill="#0F7CE3"/>
<path d="M257.881 213.096L233.935 207.095L224.422 245.05L248.368 251.052L257.881 213.096Z" fill="#0F7CE3"/>
<path d="M290.69 133.989L261.303 126.624L258.856 136.388L288.242 143.753L290.69 133.989Z" fill="#FACF38"/>
<path d="M314.369 162.468L206.837 135.518L205.829 139.541L313.361 166.491L314.369 162.468Z" fill="white"/>
<path d="M258.169 157.463L204.7 144.062L203.692 148.085L257.161 161.486L258.169 157.463Z" fill="white"/>
<path d="M303.077 168.716L267.313 159.752L266.305 163.775L302.069 172.738L303.077 168.716Z" fill="white"/>
<path d="M288.512 174.153L202.553 152.609L201.545 156.632L287.504 178.175L288.512 174.153Z" fill="white"/>
<path d="M299.227 185.928L200.419 161.164L199.411 165.186L298.219 189.95L299.227 185.928Z" fill="white"/>
<path d="M209.685 172.58L198.27 169.719L197.262 173.741L208.676 176.602L209.685 172.58Z" fill="white"/>
<path d="M269.281 187.505L218.845 174.865L217.837 178.887L268.272 191.527L269.281 187.505Z" fill="white"/>
<path d="M303.661 205.208L196.129 178.257L195.121 182.28L302.653 209.23L303.661 205.208Z" fill="white"/>
<path opacity="0.5" d="M210.941 193.601C211.11 190.278 214.016 187.93 217.968 187.93H296.094C300.772 187.93 305.283 191.199 306.169 195.24L329.623 313.408C330.509 317.449 327.426 320.727 322.747 320.727H126.843C122.156 320.727 117.645 317.449 116.759 313.408L97.4692 214.176C96.5832 210.135 99.6667 206.856 104.354 206.856H194.54C203.799 206.856 210.569 201.363 210.941 193.601Z" fill="#0F7CE3"/>
</svg>
