<?xml version="1.0" standalone="no"?>
<!DOCTYPE svg PUBLIC "-//W3C//DTD SVG 20010904//EN"
 "http://www.w3.org/TR/2001/REC-SVG-20010904/DTD/svg10.dtd">
<svg version="1.0" xmlns="http://www.w3.org/2000/svg"
 width="810.000000pt" height="456.000000pt" viewBox="0 0 810.000000 456.000000"
 preserveAspectRatio="xMidYMid meet">
<metadata>
Created by potrace 1.15, written by Peter Selinger 2001-2017
</metadata>
<g transform="translate(0.000000,456.000000) scale(0.100000,-0.100000)"
fill="#000000" stroke="none">
<path d="M7644 4521 c-113 -4 -166 -10 -177 -20 -24 -19 -31 -74 -18 -139 6
-31 13 -75 16 -97 7 -57 44 -300 56 -365 6 -30 12 -71 15 -90 23 -165 35 -195
74 -185 8 2 41 6 72 10 32 3 67 14 78 23 l20 17 -20 130 c-11 72 -29 184 -40
249 -23 133 -22 136 40 136 19 0 65 3 101 6 65 7 66 6 77 -22 10 -26 17 -64
36 -179 2 -16 7 -43 10 -60 9 -53 29 -169 32 -185 5 -34 17 -59 24 -55 5 3 11
1 15 -5 3 -5 15 -10 26 -10 18 0 19 10 19 355 0 288 -3 361 -14 383 -23 43
-78 89 -121 101 -41 11 -54 11 -321 2z"/>
<path d="M6680 4487 c-62 -23 -111 -62 -166 -132 -171 -217 -165 -682 12
-1065 39 -83 91 -158 158 -225 52 -51 72 -63 135 -83 74 -24 132 -24 185 -1
19 8 18 9 -6 6 -30 -4 -30 -3 -30 68 0 26 0 27 -5 5 -7 -35 -16 -42 -61 -46
-33 -3 -48 2 -90 33 -28 21 -48 42 -45 47 3 5 12 1 20 -9 7 -11 13 -14 13 -9
0 17 -22 33 -38 27 -11 -5 -13 -3 -7 7 5 8 4 11 -3 6 -14 -8 -75 51 -67 64 3
6 2 10 -3 10 -15 0 -63 80 -56 92 4 6 3 8 -4 4 -6 -3 -13 6 -17 24 -4 16 -11
30 -16 30 -5 0 -9 9 -9 20 0 11 -4 20 -8 20 -7 0 -37 84 -37 106 0 6 -6 18
-12 25 -6 8 -14 35 -17 60 -3 25 -9 57 -14 70 -29 74 -40 402 -16 464 8 21 30
-14 89 -144 62 -137 157 -330 150 -305 -15 55 -23 187 -15 240 13 96 42 148
94 176 11 6 98 16 193 23 96 7 176 15 179 18 8 8 -53 125 -101 192 -70 98
-161 169 -228 177 -30 3 -38 0 -43 -15 -4 -14 -12 -17 -27 -13 -12 3 -25 6
-29 6 -20 0 -5 20 15 21 21 0 21 1 2 9 -27 12 -34 11 -75 -3z"/>
<path d="M2800 4309 c-278 -95 -285 -96 -580 -109 -241 -10 -267 -13 -300 -32
-44 -27 -46 -31 -65 -98 -9 -30 -21 -71 -27 -92 -12 -40 -10 -54 22 -178 12
-47 23 -96 25 -110 3 -14 16 -81 30 -150 48 -232 73 -403 115 -775 23 -203 45
-380 50 -391 9 -23 129 -94 159 -94 10 0 23 -12 30 -26 10 -23 16 -26 49 -21
20 2 75 23 122 45 47 22 146 66 220 99 l135 60 245 37 c250 38 329 61 331 94
0 10 2 26 5 37 2 11 6 36 9 55 4 19 14 50 23 68 16 31 15 37 -41 265 -85 344
-80 313 -156 944 -16 139 -35 261 -41 272 -6 12 -21 23 -34 27 -15 3 -27 16
-30 30 -5 17 -16 26 -36 31 -19 3 -35 15 -43 32 -19 39 -54 36 -217 -20z m204
-380 c15 -11 36 -39 47 -61 28 -55 21 -136 -24 -303 -46 -169 -154 -582 -174
-665 -29 -121 -61 -160 -131 -160 -55 0 -54 -2 -280 415 -36 66 -97 176 -135
245 -132 233 -161 299 -161 360 0 92 48 150 123 150 41 0 94 -48 115 -105 10
-25 22 -45 27 -45 5 0 9 -5 9 -10 0 -6 18 -42 39 -80 22 -39 38 -70 36 -70 -3
0 16 -34 40 -76 25 -42 45 -79 45 -83 0 -15 68 -94 92 -107 12 -7 45 -13 72
-14 44 0 52 4 91 43 34 34 44 53 55 105 16 76 9 155 -20 219 -33 73 -37 150
-11 200 11 23 29 47 38 52 29 17 79 12 107 -10z"/>
<path d="M5538 4316 c-104 -37 -179 -106 -231 -211 -58 -117 -71 -187 -71
-380 -1 -193 17 -288 81 -445 51 -122 102 -202 177 -273 77 -72 123 -91 231
-91 84 -1 94 1 153 33 87 47 121 89 176 214 11 27 12 36 4 31 -9 -6 -9 -3 1 9
44 54 64 330 36 497 -28 173 -103 352 -194 466 -104 131 -249 191 -363 150z
m101 -210 c31 -17 99 -101 128 -161 28 -56 61 -156 69 -207 4 -24 11 -48 16
-55 6 -7 12 -81 15 -166 6 -167 -5 -265 -37 -321 -10 -19 -17 -36 -14 -38 7
-8 -30 -36 -51 -39 -32 -5 -60 16 -108 80 -104 139 -162 355 -161 596 1 112 5
140 27 204 24 68 58 121 79 121 5 0 22 -6 37 -14z"/>
<path d="M235 4270 c-22 -4 -49 -10 -60 -14 -16 -6 -17 -6 -5 3 25 18 2 12
-31 -8 -17 -11 -38 -17 -45 -14 -8 3 -14 1 -14 -5 0 -5 -14 -12 -31 -16 -20
-4 -28 -10 -23 -18 5 -8 2 -9 -9 -5 -15 6 -17 -3 -17 -67 l0 -74 42 40 c47 44
105 76 188 103 30 10 68 26 85 37 38 23 61 23 68 0 3 -15 17 -20 67 -25 63 -5
210 -67 210 -87 0 -5 17 -12 38 -15 76 -13 182 -46 226 -71 56 -31 127 -110
162 -181 33 -65 48 -60 28 8 -36 119 20 26 66 -110 23 -71 60 -223 60 -251 0
-11 11 -43 25 -70 24 -46 25 -58 24 -202 0 -219 -40 -461 -99 -603 -46 -111
-95 -190 -111 -179 -5 3 -6 -3 -2 -12 5 -13 3 -16 -10 -11 -12 4 -14 2 -10
-10 5 -12 3 -14 -7 -8 -9 5 -11 4 -6 -3 14 -23 -119 -146 -217 -201 -54 -30
-45 -16 12 19 27 17 52 38 56 47 3 10 3 14 -1 10 -9 -8 -49 49 -75 108 l-19
43 -42 -10 c-24 -5 -79 -8 -123 -5 -73 3 -108 11 -242 53 -26 8 -43 9 -43 3 0
-13 111 -65 192 -90 l63 -19 -62 5 c-84 8 -192 39 -279 81 -85 42 -115 67
-108 92 4 10 3 13 -3 6 -4 -7 -17 -14 -28 -17 -18 -4 -18 -5 3 -6 12 0 22 -5
22 -11 0 -5 -13 -7 -30 -3 -16 3 -30 2 -29 -3 1 -5 34 -39 74 -77 41 -37 69
-67 62 -67 -19 0 -160 79 -188 106 -14 13 -28 24 -32 24 -4 0 -6 -79 -5 -177
l3 -176 75 -38 c41 -20 117 -47 169 -59 79 -19 111 -22 210 -17 113 5 205 23
266 52 17 7 43 19 59 24 100 39 257 174 336 291 79 117 145 291 174 460 24
139 38 407 27 520 -9 91 -14 110 -49 190 -9 19 -17 42 -19 50 -5 34 -55 195
-62 205 -5 5 -11 22 -15 38 -3 15 -11 27 -16 27 -6 0 -10 6 -10 13 -1 16 -50
76 -50 60 0 -7 -5 -13 -11 -13 -6 0 -9 7 -5 15 3 9 0 15 -9 15 -24 0 -29 2
-43 19 -10 12 -12 12 -6 1 4 -8 -7 0 -25 18 -18 17 -37 32 -42 32 -6 0 -7 5
-3 12 4 6 3 8 -2 5 -11 -6 -53 17 -151 85 -162 112 -383 162 -568 128z"/>
<path d="M4042 4210 c-92 -43 -179 -135 -214 -226 -39 -100 -60 -188 -62 -263
-1 -48 2 -65 12 -63 8 1 12 -12 12 -43 0 -54 18 -60 42 -12 8 17 32 66 52 107
70 141 137 209 232 230 70 16 142 -28 179 -108 9 -20 23 -50 31 -66 18 -37 18
-82 0 -89 -7 -3 -65 -9 -128 -12 l-115 -8 13 99 c8 55 16 105 19 112 21 56
-129 -87 -165 -157 -88 -174 -69 -484 42 -693 80 -149 198 -232 328 -232 71 0
158 18 205 42 51 25 143 101 150 122 4 11 -1 80 -11 154 -19 150 -24 155 -84
102 -113 -101 -231 -119 -330 -51 -63 44 -141 225 -97 225 23 0 409 39 452 46
22 3 49 12 61 19 21 13 21 15 7 117 -35 270 -101 432 -227 560 -83 85 -156
118 -261 118 -68 0 -89 -4 -143 -30z"/>
<path d="M640 4072 c0 -6 9 -14 20 -17 11 -3 20 -11 20 -16 0 -5 6 -9 14 -9
32 0 25 -21 -11 -36 -21 -9 -41 -21 -45 -28 -4 -6 -8 -8 -8 -3 0 4 -13 1 -28
-7 -16 -8 -52 -18 -80 -22 -31 -4 -52 -12 -52 -19 0 -16 33 -45 51 -45 23 0
79 39 79 55 0 21 10 19 63 -11 42 -23 46 -28 40 -55 -4 -24 0 -35 23 -59 16
-16 34 -30 39 -30 6 0 19 -12 30 -26 18 -24 20 -25 32 -8 7 10 13 27 13 37 0
16 3 17 15 7 8 -7 28 -10 45 -8 16 3 30 2 30 -1 0 -3 16 -24 36 -46 23 -27 34
-47 31 -62 -2 -12 0 -20 4 -17 5 3 9 -1 9 -9 0 -8 9 -22 20 -32 11 -10 20 -24
20 -32 0 -7 5 -13 10 -13 16 0 12 15 -26 94 -37 78 -68 121 -143 194 -50 49
-100 77 -180 102 l-55 17 56 17 c31 9 68 16 82 16 41 0 31 16 -27 45 -61 29
-127 43 -127 27z"/>
<path d="M7825 4051 c-72 -9 -87 -46 -66 -158 6 -26 13 -69 16 -95 4 -31 11
-48 20 -48 7 0 15 -5 17 -11 3 -9 9 -9 25 0 12 6 48 11 80 11 78 0 83 5 73 60
-5 25 -14 81 -20 125 -18 128 -17 125 -59 123 -20 0 -58 -4 -86 -7z"/>
<path d="M221 3943 c-11 -10 -33 -40 -47 -68 -25 -45 -27 -61 -29 -165 -2 -82
2 -121 11 -135 8 -12 12 -31 9 -44 -7 -38 4 -43 33 -15 23 22 34 25 75 21 40
-3 51 0 72 21 14 14 24 31 21 39 -7 18 9 17 24 -2 10 -12 -2 -29 -69 -99 -79
-83 -80 -84 -69 -117 6 -19 13 -54 15 -78 5 -40 4 -43 -13 -36 -11 4 -47 10
-81 13 -51 3 -71 0 -117 -21 l-56 -26 0 -184 0 -183 28 -26 c15 -14 50 -38 77
-54 28 -15 52 -32 53 -36 5 -11 40 -10 62 2 14 7 19 5 23 -10 3 -11 11 -20 19
-20 10 0 10 2 -2 10 -8 5 -11 12 -8 15 4 4 17 0 30 -9 12 -9 27 -16 32 -16 5
0 -10 14 -33 31 -66 47 -41 45 35 -3 194 -123 318 -138 436 -52 58 43 129 145
149 214 26 91 38 64 19 -45 -4 -27 -6 -52 -4 -54 10 -11 33 25 48 77 15 48 17
82 13 198 -3 76 -9 154 -12 172 -10 43 7 41 31 -5 11 -21 24 -37 29 -35 6 1 9
49 8 110 -2 165 -4 180 -24 235 -11 29 -19 53 -19 54 0 2 -4 3 -10 3 -11 0 -2
-59 13 -77 7 -9 5 -13 -7 -13 -9 0 -16 -4 -16 -10 0 -5 -10 -10 -22 -11 -22
-1 -22 -1 2 -9 23 -7 23 -8 4 -9 -12 -1 -29 -13 -39 -27 -16 -25 -16 -26 4
-19 15 5 21 2 21 -9 0 -9 8 -16 18 -17 13 0 14 -2 2 -6 -8 -4 -28 -19 -45 -35
-30 -28 -45 -35 -45 -20 0 4 16 18 36 31 35 24 32 41 -6 41 -13 0 -13 -1 0
-10 13 -9 13 -11 0 -19 -8 -5 -18 -7 -22 -5 -5 3 -7 0 -6 -7 2 -6 -3 -14 -10
-16 -6 -3 -12 3 -12 11 0 9 -7 19 -15 22 -17 7 -21 34 -5 34 6 0 10 9 10 20 0
15 -7 20 -26 20 -22 0 -24 3 -15 14 17 20 5 57 -33 97 -27 30 -38 36 -72 34
-43 -1 -43 -2 -28 -87 l6 -38 -60 32 c-51 27 -62 30 -76 19 -17 -14 -22 -66
-8 -75 5 -3 9 -20 10 -37 1 -36 64 -109 94 -109 22 0 22 -9 3 -34 -18 -23 -19
-59 -4 -88 6 -11 8 -23 4 -26 -8 -8 -28 23 -36 58 -6 21 -7 19 -8 -12 0 -21
-5 -38 -11 -38 -5 0 -10 6 -10 13 0 8 -3 8 -9 -2 -7 -10 -39 -16 -114 -19
-110 -5 -157 1 -157 19 0 6 6 9 14 6 16 -7 15 63 -3 131 -12 47 -5 72 33 107
29 27 81 96 89 119 4 10 2 36 -4 58 -10 37 -12 40 -39 34 -17 -3 -32 -1 -36 5
-4 7 -21 9 -42 6 -78 -13 -132 54 -111 138 6 25 15 45 20 45 5 0 9 7 9 15 0
18 20 20 21 3 1 -19 21 33 25 65 4 32 -13 36 -45 10z m-38 -864 c18 -17 56
-42 85 -56 63 -30 97 -26 164 16 73 47 110 57 157 43 42 -13 81 -53 81 -83 0
-24 -11 -30 -62 -33 -29 -2 -58 -13 -88 -34 -57 -40 -150 -64 -210 -56 -45 6
-137 51 -126 61 3 3 -1 21 -9 40 -8 20 -15 50 -15 69 0 18 -4 36 -10 39 -11 7
-14 25 -4 25 3 0 19 -14 37 -31z"/>
<path d="M6968 3888 c5 -7 10 -33 10 -58 0 -33 -2 -40 -8 -25 -5 11 -9 14 -9
8 -1 -7 -7 -13 -15 -13 -8 0 -21 -9 -30 -21 -19 -27 -80 -29 -104 -2 -9 10
-23 19 -31 21 -7 2 -22 13 -33 25 -19 22 -19 22 -13 -56 17 -217 164 -371 245
-257 30 42 53 145 46 206 -8 69 -44 184 -58 184 -7 0 -7 -4 0 -12z"/>
<path d="M7395 2855 c-71 -12 -179 -30 -240 -39 -60 -9 -135 -21 -165 -27 -30
-5 -165 -28 -300 -49 -135 -22 -267 -44 -295 -49 -27 -6 -111 -20 -185 -32
-74 -11 -184 -30 -245 -40 -254 -44 -411 -70 -590 -99 -104 -16 -210 -35 -235
-40 -25 -6 -88 -17 -140 -26 -52 -8 -104 -17 -115 -19 -11 -2 -99 -15 -195
-29 -96 -14 -186 -28 -200 -32 -14 -3 -52 -9 -85 -14 -33 -5 -127 -21 -210
-35 -82 -15 -193 -33 -245 -41 -157 -22 -291 -43 -360 -55 -36 -6 -84 -11
-107 -10 -26 1 -43 -3 -43 -10 0 -7 -10 -9 -25 -5 -14 4 -25 2 -25 -2 0 -5
-39 -12 -87 -15 -54 -4 -89 -11 -95 -19 -5 -9 -8 -9 -8 -1 0 13 -53 2 -74 -16
-8 -7 -16 -7 -22 -1 -10 10 -144 -9 -144 -20 0 -4 -14 -5 -30 -2 -19 3 -30 0
-30 -8 0 -6 -8 -9 -18 -6 -10 4 -43 1 -73 -5 -30 -6 -67 -13 -84 -15 -60 -6
-120 -16 -135 -22 -8 -3 -28 -7 -45 -9 -37 -4 -322 -49 -390 -62 -138 -26
-165 -31 -230 -42 -38 -6 -83 -13 -100 -15 -30 -5 -168 -28 -260 -44 -146 -26
-174 -30 -215 -35 -44 -6 -119 -18 -290 -50 -47 -8 -141 -24 -210 -35 -216
-34 -263 -42 -335 -55 -38 -8 -117 -21 -175 -30 -58 -9 -123 -20 -145 -25 -22
-5 -75 -14 -118 -21 l-77 -12 0 -98 0 -99 26 0 c14 0 195 31 402 70 208 38
415 77 462 86 47 8 108 19 135 24 28 5 111 21 185 34 74 14 218 41 320 60 102
19 226 42 275 51 50 9 149 27 220 41 444 83 1125 209 1265 234 263 46 1532
278 1581 289 24 5 130 26 234 45 182 34 368 70 815 157 113 21 219 42 235 45
17 3 75 15 130 26 55 11 111 22 125 24 14 2 54 11 90 19 36 8 112 24 170 35
58 11 123 25 145 30 22 5 69 14 105 20 36 6 92 18 125 27 33 8 65 14 70 12 6
-1 17 1 25 4 8 3 40 11 70 17 30 6 84 17 120 25 36 8 97 21 135 29 39 9 86 20
105 25 l35 9 -40 0 c-22 0 -98 -11 -170 -23z"/>
<path d="M991 2678 c-1 -13 -10 -18 -34 -18 -30 0 -36 -5 -57 -50 -13 -27 -27
-50 -31 -50 -4 0 -14 -19 -24 -42 -9 -23 -24 -47 -33 -54 -35 -25 -1 -26 35 0
94 66 183 169 183 211 -1 19 -1 19 -14 2 -14 -18 -14 -18 -19 0 -4 16 -5 16
-6 1z"/>
<path d="M6325 2066 c-16 -11 -19 -25 -17 -77 2 -59 52 -730 87 -1174 9 -104
20 -245 25 -313 5 -68 12 -128 15 -133 9 -14 81 -11 94 5 9 10 7 77 -9 272
-11 143 -25 320 -30 394 -6 74 -15 182 -20 240 -5 58 -12 137 -15 175 -19 257
-47 584 -51 603 -5 26 -48 31 -79 8z"/>
<path d="M4310 1979 c-19 -4 -71 -15 -115 -23 -44 -8 -127 -24 -185 -36 -58
-11 -143 -27 -190 -36 -47 -9 -128 -25 -180 -36 -52 -12 -124 -22 -160 -24
-36 -1 -76 -3 -90 -4 l-25 -2 25 -8 c14 -4 20 -8 13 -9 -6 -1 -64 -10 -130
-22 -65 -11 -129 -22 -142 -24 -13 -2 -36 -9 -51 -15 -20 -8 -34 -9 -48 -1
-12 6 -30 7 -48 1 l-29 -8 30 -2 c17 -1 24 -4 17 -7 -7 -3 -25 -2 -40 2 l-27
8 30 14 30 14 -30 -5 c-16 -2 -58 -8 -92 -12 -35 -3 -60 -10 -57 -15 3 -5 -5
-9 -18 -9 -18 0 -20 -2 -8 -10 22 -14 8 -20 -33 -13 -40 6 -51 23 -15 23 12 0
19 3 15 6 -7 7 -104 -14 -127 -27 -9 -6 6 -7 40 -4 42 4 50 3 35 -5 -18 -9
-17 -10 5 -6 14 3 31 1 39 -3 9 -6 1 -9 -24 -9 -20 0 -42 -5 -48 -11 -6 -6
-22 -10 -36 -10 -25 1 -24 2 4 9 28 7 27 8 -13 9 -30 1 -41 5 -36 13 5 8 -3 9
-32 3 -21 -4 -57 -9 -78 -11 -22 -2 -43 -7 -47 -11 -5 -5 11 -7 34 -5 31 2 38
1 27 -7 -8 -6 -34 -11 -57 -11 -24 0 -43 -4 -43 -9 0 -5 -18 -11 -40 -15 -26
-4 -40 -11 -40 -21 0 -17 -46 -20 -70 -5 -10 6 -3 8 23 3 37 -6 54 11 20 20
-14 4 -13 5 4 6 20 1 45 21 26 21 -27 0 -153 -29 -169 -39 -16 -10 -11 -11 31
-7 35 3 42 2 25 -4 -14 -4 -45 -8 -69 -9 -42 -1 -43 -2 -25 -16 17 -13 16 -13
-16 -4 -61 19 -85 21 -120 10 l-35 -11 35 4 c19 2 49 -2 65 -10 33 -14 38 -14
-120 0 -22 3 -32 2 -22 -1 43 -12 9 -20 -85 -20 -75 0 -113 -4 -140 -16 -21
-10 -53 -17 -71 -17 -19 0 -67 -8 -108 -19 -41 -10 -105 -22 -144 -26 -38 -4
-73 -11 -76 -17 -3 -5 -41 -14 -84 -19 -43 -6 -86 -14 -96 -19 -10 -6 -27 -10
-38 -10 -12 0 -21 -4 -21 -10 0 -5 8 -10 17 -10 13 0 14 -3 5 -12 -9 -9 -19
-9 -45 0 -40 14 -97 16 -97 3 0 -5 8 -12 18 -14 9 -2 0 -2 -20 0 -34 4 -38 2
-38 -17 0 -13 -5 -20 -12 -17 -7 2 -12 10 -11 16 2 7 -15 11 -47 11 -47 0 -66
-12 -37 -23 6 -3 -3 -6 -20 -6 -33 -1 -44 -15 -20 -25 6 -3 -1 -3 -18 1 -16 3
-35 10 -42 15 -12 10 -113 0 -113 -12 0 -4 10 -12 22 -18 l23 -11 -22 0 c-13
-1 -23 4 -23 9 0 16 -59 12 -102 -7 -21 -9 -38 -20 -38 -24 0 -12 91 -41 108
-34 9 4 31 9 47 12 59 9 2787 557 3335 669 437 90 493 102 460 102 -14 0 -41
-4 -60 -9z"/>
<path d="M5920 1977 c-34 -17 -35 -40 -16 -292 9 -115 30 -403 46 -640 52
-736 58 -819 65 -837 9 -22 63 -24 89 -5 16 12 17 23 7 148 -6 73 -15 202 -21
284 -6 83 -15 209 -20 280 -5 72 -23 315 -40 540 -41 568 -37 535 -63 535 -12
0 -33 -6 -47 -13z"/>
<path d="M7815 1965 c-3 -8 -7 -21 -9 -27 -2 -7 3 -76 10 -153 8 -77 16 -193
19 -258 4 -108 8 -124 39 -193 33 -71 60 -99 75 -76 10 17 -8 370 -24 467 -8
50 -19 121 -24 158 -6 38 -15 75 -22 83 -15 19 -58 18 -64 -1z"/>
<path d="M7507 1874 c-4 -4 -7 -34 -7 -68 0 -55 7 -73 83 -225 45 -91 90 -184
100 -206 10 -22 35 -78 56 -125 102 -226 132 -280 156 -280 38 0 55 11 55 34
0 12 -27 82 -61 156 -63 141 -68 153 -144 315 -25 55 -56 122 -68 149 -70 156
-123 251 -142 254 -12 2 -24 0 -28 -4z"/>
<path d="M7347 1853 c-10 -9 -8 -111 3 -238 5 -60 12 -168 14 -240 4 -137 15
-182 62 -263 17 -28 31 -42 42 -40 26 5 26 92 2 360 -12 128 -24 267 -27 308
-6 89 -22 120 -62 120 -15 0 -31 -3 -34 -7z"/>
<path d="M6960 1745 c-11 -13 -9 -65 9 -283 12 -147 21 -287 21 -312 0 -28 13
-76 35 -129 36 -86 59 -121 81 -121 25 0 25 -10 -24 522 -18 201 -33 312 -41
322 -17 20 -65 21 -81 1z"/>
<path d="M7974 1706 c-3 -9 -4 -49 -2 -89 3 -53 11 -85 31 -122 14 -27 42 -81
61 -120 l35 -70 0 125 -1 125 -46 79 c-48 82 -67 99 -78 72z"/>
<path d="M6573 1649 c-22 -7 -33 -16 -33 -29 0 -10 34 -86 75 -169 41 -83 75
-153 75 -155 0 -2 53 -113 119 -247 65 -134 137 -284 160 -332 23 -48 48 -90
55 -93 23 -9 81 11 84 29 2 9 -18 60 -44 114 -26 54 -76 159 -112 233 -35 74
-91 191 -124 260 -139 290 -180 370 -194 385 -17 17 -17 17 -61 4z"/>
<path d="M7134 1499 c-9 -15 4 -143 20 -199 8 -25 33 -84 56 -130 24 -47 57
-119 75 -160 60 -140 108 -230 125 -235 10 -3 30 -1 45 5 24 9 27 15 22 43 -3
17 -30 86 -59 152 -30 66 -88 197 -128 290 -41 94 -84 187 -97 208 -23 37 -46
47 -59 26z"/>
<path d="M3833 1434 c-7 -3 -48 -48 -92 -99 -96 -114 -102 -135 -72 -262 50
-211 50 -197 -3 -207 -19 -4 -39 -13 -46 -21 -7 -8 -23 -15 -37 -15 -13 0 -62
-10 -109 -21 -49 -13 -89 -18 -93 -13 -7 8 -40 125 -114 399 -24 88 -25 90
-53 88 -30 -3 -49 -20 -148 -137 -56 -67 -58 -71 -51 -110 4 -23 9 -51 10 -64
1 -12 6 -27 12 -33 7 -7 9 -17 7 -24 -3 -7 -1 -16 5 -20 6 -3 10 -21 10 -38
l-1 -32 -9 30 c-8 29 -8 29 -4 -5 3 -19 9 -55 14 -79 12 -59 7 -69 -43 -83
-64 -18 -68 -24 -60 -82 4 -28 7 -57 7 -63 0 -7 4 -13 9 -13 4 0 8 -9 8 -20 0
-31 32 -42 86 -30 29 7 51 7 57 1 10 -10 67 -175 67 -196 0 -8 5 -15 10 -15 6
0 10 -13 10 -30 0 -20 5 -30 15 -30 18 0 20 -17 3 -22 -10 -4 -10 -10 0 -32 6
-15 12 -36 12 -47 0 -11 4 -18 8 -15 5 3 9 -13 10 -35 1 -23 4 -45 8 -50 3 -5
77 -9 165 -9 l160 0 -7 23 c-10 30 -88 319 -120 444 -14 56 -24 108 -21 116 3
7 48 26 101 41 65 20 96 34 96 44 0 12 3 12 15 2 12 -10 24 -10 54 -1 38 11
75 6 66 -9 -2 -4 4 -25 13 -46 10 -22 31 -93 48 -159 16 -66 32 -122 37 -123
4 -2 5 -7 3 -11 -5 -7 16 -88 44 -176 9 -29 17 -63 27 -117 l5 -26 154 -1
c115 -1 154 1 154 10 0 7 -18 76 -39 153 -21 78 -56 204 -76 281 -20 77 -48
179 -61 227 -28 100 -28 108 -11 108 6 0 48 11 93 26 l81 25 -13 42 c-7 23
-18 61 -24 85 -12 47 -3 46 -128 15 -37 -10 -66 -13 -71 -7 -5 5 -32 97 -61
204 -29 107 -57 212 -63 233 -10 36 -23 43 -54 31z"/>
<path d="M5417 1338 c-15 -5 -30 -20 -33 -33 -8 -31 33 -175 54 -192 17 -12
68 -9 84 6 8 7 -10 102 -34 181 -15 48 -27 55 -71 38z"/>
<path d="M4520 1079 c12 -8 9 -9 -13 -5 -38 9 -105 -10 -110 -32 -4 -16 -5
-16 -6 1 -1 24 -49 13 -73 -17 -24 -29 -23 -44 12 -176 75 -282 101 -382 130
-485 16 -60 44 -167 62 -237 l32 -128 123 1 123 0 0 40 c0 29 -4 39 -16 39
-12 0 -15 9 -13 43 1 23 -1 52 -5 64 -4 13 -3 30 2 40 7 11 5 27 -4 47 -7 17
-25 70 -39 119 -15 48 -28 87 -31 87 -3 0 -3 -8 0 -17 15 -56 14 -64 -3 -28
-17 36 -20 37 -20 14 -1 -14 4 -30 11 -37 7 -7 8 -12 4 -12 -5 0 -15 8 -22 18
-12 16 -13 16 -14 0 0 -9 -4 -19 -9 -22 -5 -4 -7 3 -4 14 3 11 9 23 14 26 5 3
10 26 10 52 1 42 2 44 9 17 7 -28 8 -29 10 -5 5 67 4 327 -1 312 -5 -12 -10
-6 -18 23 -14 52 -26 71 -35 56 -4 -6 -3 -11 2 -11 5 0 17 -23 26 -50 15 -46
15 -52 0 -75 -9 -14 -14 -29 -10 -33 4 -3 11 0 16 8 7 11 10 0 10 -33 0 -30
-4 -46 -10 -42 -5 3 -11 0 -11 -7 -5 -53 -3 -88 5 -88 5 0 6 18 3 40 -3 22 -1
40 4 40 14 0 10 -76 -5 -89 -9 -8 -12 -26 -8 -62 5 -50 4 -51 -17 -40 -19 11
-21 20 -21 101 0 53 -4 90 -10 90 -6 0 -10 33 -10 80 0 61 -3 80 -14 80 -10 0
-16 -21 -21 -74 -5 -61 -9 -74 -22 -69 -8 3 -10 9 -5 12 12 7 3 211 -9 211 -5
0 -9 18 -9 40 0 29 -4 40 -15 40 -10 0 -15 10 -15 30 0 17 -3 30 -8 30 -10 0
-42 -38 -42 -50 0 -16 17 -11 25 8 7 15 9 14 15 -8 11 -36 10 -59 -1 -31 -14
36 -23 17 -10 -22 7 -20 9 -52 5 -78 l-7 -44 -19 65 c-23 82 -22 100 2 35 11
-30 19 -41 19 -29 1 31 -28 96 -39 89 -5 -3 -7 0 -4 8 3 8 1 18 -5 22 -6 3
-11 11 -11 17 0 7 6 6 15 -2 12 -10 15 -10 15 2 0 8 -5 19 -11 25 -9 9 -5 14
15 19 14 3 33 4 41 0 8 -3 15 -1 15 4 0 5 -6 11 -12 13 -7 2 -2 3 12 1 14 -1
33 -6 42 -9 13 -5 15 -2 11 14 -3 12 -13 21 -22 21 -14 0 -14 -2 -1 -11z"/>
<path d="M4842 1031 c-9 -5 0 -10 27 -15 23 -3 41 -11 41 -16 0 -6 5 -10 10
-10 27 0 117 -120 159 -214 137 -298 145 -674 16 -756 l-30 -20 35 0 c46 0 91
29 127 82 67 97 86 225 59 387 -47 281 -157 492 -286 550 -46 21 -134 28 -158
12z"/>
<path d="M1543 955 c-120 -28 -143 -39 -143 -65 0 -21 53 -232 105 -415 19
-66 50 -183 70 -260 20 -77 41 -157 46 -177 l10 -38 208 0 207 0 23 54 c60
145 228 251 343 216 44 -13 117 -60 118 -75 0 -6 10 -22 23 -36 26 -30 47 -65
47 -80 0 -6 7 -17 15 -25 8 -9 15 -24 15 -35 0 -18 9 -19 161 -19 l161 0 -6
33 c-11 60 -57 191 -93 266 -109 228 -333 302 -621 205 -100 -33 -173 -79
-247 -153 -33 -34 -63 -61 -66 -61 -14 0 -49 110 -124 384 -41 150 -77 281
-81 290 -8 22 -46 20 -171 -9z"/>
<path d="M5715 342 c-63 -21 -75 -48 -56 -124 7 -29 20 -68 28 -85 14 -30 19
-33 59 -33 31 0 46 5 50 15 4 9 -6 61 -22 116 -27 99 -28 102 -9 115 24 18 12
17 -50 -4z"/>
</g>
</svg>
