<svg width="538" height="416" viewBox="0 0 538 416" fill="none" xmlns="http://www.w3.org/2000/svg">
<g clip-path="url(#clip0)">
<path d="M270.5 416.046C392.555 416.046 491.5 358.918 491.5 288.447C491.5 217.975 392.555 160.847 270.5 160.847C148.445 160.847 49.5 217.975 49.5 288.447C49.5 358.918 148.445 416.046 270.5 416.046Z" fill="#F5F5F5"/>
<path d="M363.835 221.64L177.165 329.392C175.63 330.278 173.889 330.744 172.116 330.744C170.344 330.744 168.603 330.278 167.067 329.392L157.214 323.746C156.661 323.427 156.202 322.969 155.882 322.416C155.563 321.863 155.395 321.236 155.395 320.598C155.395 319.96 155.563 319.333 155.882 318.78C156.202 318.227 156.661 317.769 157.214 317.45L343.903 209.651C345.437 208.768 347.177 208.302 348.947 208.302C350.718 208.302 352.457 208.768 353.991 209.651L363.844 215.345C364.395 215.666 364.851 216.126 365.168 216.679C365.485 217.232 365.651 217.858 365.65 218.495C365.649 219.132 365.481 219.758 365.162 220.31C364.844 220.862 364.386 221.321 363.835 221.64Z" fill="#E0E0E0"/>
<path d="M335.227 342.511C357.393 342.511 375.363 332.138 375.363 319.342C375.363 306.546 357.393 296.173 335.227 296.173C313.06 296.173 295.09 306.546 295.09 319.342C295.09 332.138 313.06 342.511 335.227 342.511Z" fill="#E0E0E0"/>
<path d="M412.94 254.841C430.294 254.841 444.362 246.718 444.362 236.697C444.362 226.677 430.294 218.554 412.94 218.554C395.586 218.554 381.518 226.677 381.518 236.697C381.518 246.718 395.586 254.841 412.94 254.841Z" fill="#E0E0E0"/>
<path d="M128.324 368.136C145.678 368.136 159.746 360.013 159.746 349.992C159.746 339.972 145.678 331.849 128.324 331.849C110.97 331.849 96.9016 339.972 96.9016 349.992C96.9016 360.013 110.97 368.136 128.324 368.136Z" fill="#E0E0E0"/>
<path d="M164.875 110.227L354.255 0.903768C356.429 -0.34785 358.377 -0.253743 359.76 0.903768L366.347 5.43971L361.783 10.9544V163.642C361.783 169.242 358.386 175.735 354.189 178.163L166.728 286.386L166.38 292.343L159.473 287.637C158.099 286.602 157.252 284.56 157.252 281.765V124.739C157.28 119.139 160.677 112.646 164.875 110.227Z" fill="#07427A"/>
<path opacity="0.4" d="M164.875 110.227L354.255 0.903768C356.429 -0.34785 358.377 -0.253743 359.76 0.903768L366.347 5.43971L361.783 10.9544V163.642C361.783 169.242 358.386 175.735 354.189 178.163L166.728 286.386L166.38 292.343L159.473 287.637C158.099 286.602 157.252 284.56 157.252 281.765V124.739C157.28 119.139 160.677 112.646 164.875 110.227Z" fill="white"/>
<path d="M163.727 286.169V129.171C163.808 125.997 164.685 122.894 166.277 120.146L159.511 116.269C158.114 118.879 157.35 121.78 157.28 124.739V281.737C157.28 284.56 158.127 286.574 159.501 287.609L165.863 291.966C164.545 290.912 163.727 288.908 163.727 286.169Z" fill="#FACF38"/>
<path opacity="0.2" d="M163.727 286.169V129.171C163.808 125.997 164.685 122.894 166.277 120.146L159.511 116.269C158.114 118.879 157.35 121.78 157.28 124.739V281.737C157.28 284.56 158.127 286.574 159.501 287.609L165.863 291.966C164.545 290.912 163.727 288.908 163.727 286.169Z" fill="white"/>
<path opacity="0.3" d="M166.305 292.277L166.409 292.343L166.305 292.277Z" fill="#FACF38"/>
<path d="M171.321 291.919L360.663 182.595C364.861 180.177 368.258 173.674 368.258 168.084V11.0861C368.258 5.49619 364.861 2.92708 360.663 5.34562L171.321 114.66C167.124 117.088 163.727 123.581 163.727 129.171V286.169C163.727 291.768 167.124 294.347 171.321 291.919Z" fill="#07427A"/>
<path d="M171.321 291.919L360.663 182.595C364.861 180.177 368.258 173.674 368.258 168.084V11.0861C368.258 5.49619 364.861 2.92708 360.663 5.34562L171.321 114.66C167.124 117.088 163.727 123.581 163.727 129.171V286.169C163.727 291.768 167.124 294.347 171.321 291.919Z" fill="#07427A"/>
<path opacity="0.7" d="M171.321 291.919L360.663 182.595C364.861 180.177 368.258 173.674 368.258 168.084V11.0861C368.258 5.49619 364.861 2.92708 360.663 5.34562L171.321 114.66C167.124 117.088 163.727 123.581 163.727 129.171V286.169C163.727 291.768 167.124 294.347 171.321 291.919Z" fill="white"/>
<path d="M171.321 114.66L360.663 5.34562C364.861 2.92708 368.258 5.49619 368.258 11.0861V18.7652L163.727 136.85V129.171C163.727 123.581 167.124 117.088 171.321 114.66Z" fill="#FACF38"/>
<path opacity="0.5" d="M171.321 114.66L360.663 5.34562C364.861 2.92708 368.258 5.49619 368.258 11.0861V18.7652L163.727 136.85V129.171C163.727 123.581 167.124 117.088 171.321 114.66Z" fill="white"/>
<path d="M363.666 5.17618C365.99 5.17618 367.505 7.50062 367.505 11.0861V168.084C367.505 173.429 364.258 179.659 360.278 181.955L170.954 291.27C170.161 291.772 169.248 292.055 168.31 292.088C165.976 292.088 164.47 289.764 164.47 286.169V129.171C164.47 123.826 167.707 117.605 171.697 115.3L361.04 5.9855C361.835 5.48843 362.747 5.20931 363.684 5.17618H363.666ZM363.684 4.43274C362.612 4.47386 361.57 4.79858 360.663 5.37381L171.321 114.66C167.124 117.088 163.727 123.581 163.727 129.171V286.169C163.727 290.338 165.609 292.823 168.31 292.823C169.378 292.777 170.416 292.452 171.321 291.881L360.663 182.558C364.861 180.139 368.258 173.636 368.258 168.047V11.0861C368.258 6.92656 366.376 4.43274 363.684 4.43274Z" fill="#07427A"/>
<path d="M180.769 249.656C180.334 249.656 179.91 249.513 179.565 249.248C179.219 248.983 178.971 248.611 178.858 248.191C178.746 247.77 178.775 247.324 178.942 246.922C179.109 246.52 179.404 246.184 179.781 245.967L236.622 213.152C236.846 213.005 237.099 212.905 237.364 212.859C237.628 212.813 237.899 212.821 238.161 212.883C238.422 212.945 238.668 213.06 238.884 213.22C239.099 213.381 239.28 213.583 239.414 213.816C239.549 214.049 239.634 214.306 239.666 214.573C239.698 214.84 239.675 215.11 239.598 215.368C239.522 215.625 239.394 215.864 239.222 216.071C239.05 216.277 238.837 216.446 238.598 216.568L181.757 249.383C181.46 249.564 181.118 249.658 180.769 249.656Z" fill="#FAFAFA"/>
<path d="M180.769 262.04C180.333 262.045 179.907 261.904 179.56 261.641C179.212 261.377 178.962 261.005 178.848 260.584C178.735 260.162 178.765 259.715 178.934 259.312C179.103 258.91 179.401 258.575 179.781 258.361L260.713 211.608C260.938 211.479 261.186 211.395 261.444 211.361C261.701 211.327 261.963 211.344 262.213 211.411C262.464 211.479 262.699 211.595 262.905 211.753C263.111 211.911 263.284 212.108 263.414 212.333C263.544 212.558 263.628 212.806 263.662 213.064C263.695 213.321 263.678 213.583 263.611 213.834C263.544 214.084 263.428 214.32 263.269 214.525C263.111 214.731 262.914 214.904 262.689 215.034L181.757 261.777C181.457 261.95 181.116 262.041 180.769 262.04Z" fill="#FAFAFA"/>
<path d="M270.679 222.525C270.242 222.53 269.817 222.389 269.469 222.125C269.121 221.862 268.871 221.49 268.758 221.068C268.645 220.647 268.675 220.2 268.844 219.797C269.013 219.395 269.311 219.06 269.691 218.845L325.694 186.51C325.918 186.363 326.171 186.263 326.436 186.217C326.7 186.171 326.971 186.179 327.233 186.241C327.494 186.304 327.74 186.418 327.956 186.579C328.171 186.739 328.352 186.942 328.486 187.174C328.621 187.407 328.706 187.664 328.738 187.931C328.77 188.198 328.747 188.468 328.67 188.726C328.594 188.984 328.466 189.223 328.294 189.429C328.122 189.636 327.909 189.805 327.67 189.926L271.658 222.261C271.36 222.434 271.023 222.524 270.679 222.525Z" fill="#FAFAFA"/>
<path d="M180.769 274.434C180.334 274.435 179.91 274.291 179.565 274.026C179.219 273.761 178.971 273.39 178.858 272.969C178.746 272.549 178.775 272.102 178.942 271.7C179.109 271.298 179.404 270.962 179.781 270.745L252.027 229.037C252.481 228.775 253.021 228.704 253.527 228.84C254.034 228.976 254.466 229.307 254.728 229.762C254.99 230.216 255.061 230.756 254.925 231.262C254.789 231.769 254.457 232.2 254.003 232.462L181.757 274.171C181.457 274.344 181.116 274.435 180.769 274.434Z" fill="#FAFAFA"/>
<path d="M180.769 146.778C180.334 146.779 179.91 146.636 179.565 146.371C179.219 146.106 178.971 145.734 178.858 145.313C178.746 144.893 178.775 144.447 178.942 144.045C179.109 143.642 179.404 143.307 179.781 143.089L236.622 110.274C236.846 110.127 237.099 110.028 237.364 109.981C237.628 109.935 237.899 109.943 238.161 110.006C238.422 110.068 238.668 110.182 238.884 110.343C239.099 110.503 239.28 110.706 239.414 110.939C239.549 111.171 239.634 111.429 239.666 111.695C239.698 111.962 239.675 112.233 239.598 112.49C239.522 112.748 239.394 112.987 239.222 113.193C239.05 113.4 238.837 113.569 238.598 113.69L181.757 146.515C181.457 146.688 181.116 146.779 180.769 146.778Z" fill="#FAFAFA"/>
<path d="M180.769 159.172C180.334 159.173 179.91 159.029 179.565 158.765C179.219 158.5 178.971 158.128 178.858 157.707C178.746 157.287 178.775 156.841 178.942 156.439C179.109 156.036 179.404 155.701 179.781 155.483L260.713 108.741C260.938 108.594 261.19 108.494 261.455 108.448C261.719 108.401 261.991 108.41 262.252 108.472C262.513 108.534 262.759 108.649 262.975 108.809C263.19 108.97 263.371 109.172 263.506 109.405C263.64 109.637 263.726 109.895 263.757 110.162C263.789 110.428 263.766 110.699 263.69 110.956C263.613 111.214 263.485 111.453 263.313 111.66C263.141 111.866 262.929 112.035 262.689 112.157L181.757 158.899C181.46 159.08 181.118 159.175 180.769 159.172Z" fill="#FAFAFA"/>
<path d="M270.679 119.657C270.243 119.657 269.82 119.514 269.474 119.249C269.129 118.984 268.88 118.613 268.768 118.192C268.655 117.771 268.684 117.325 268.851 116.923C269.018 116.521 269.313 116.185 269.691 115.968L325.694 83.6329C325.918 83.4858 326.171 83.3861 326.436 83.3398C326.7 83.2936 326.971 83.3018 327.233 83.364C327.494 83.4261 327.74 83.5409 327.956 83.7014C328.171 83.8618 328.352 84.0644 328.486 84.297C328.621 84.5295 328.706 84.7871 328.738 85.0539C328.77 85.3206 328.747 85.5911 328.67 85.8486C328.594 86.1062 328.466 86.3455 328.294 86.5519C328.122 86.7582 327.909 86.9274 327.67 87.0489L271.658 119.384C271.363 119.563 271.024 119.657 270.679 119.657Z" fill="#FAFAFA"/>
<path d="M180.769 171.557C180.333 171.562 179.907 171.421 179.56 171.157C179.212 170.894 178.962 170.522 178.848 170.1C178.735 169.679 178.765 169.231 178.934 168.829C179.103 168.427 179.401 168.092 179.781 167.877L252.027 126.169C252.478 125.94 252.999 125.893 253.483 126.037C253.968 126.181 254.379 126.504 254.632 126.942C254.885 127.379 254.961 127.897 254.844 128.389C254.727 128.88 254.426 129.309 254.003 129.585L181.757 171.293C181.457 171.467 181.116 171.558 180.769 171.557Z" fill="#FAFAFA"/>
<path d="M179.847 119.44C179.797 120.425 179.515 121.384 179.024 122.239C178.534 123.094 177.849 123.822 177.024 124.362C175.452 125.303 174.201 124.532 174.201 122.725C174.251 121.74 174.533 120.781 175.024 119.926C175.514 119.071 176.199 118.344 177.024 117.803C178.577 116.89 179.847 117.624 179.847 119.44Z" fill="white"/>
<path d="M189.87 113.662C189.819 114.647 189.537 115.606 189.047 116.461C188.556 117.316 187.871 118.044 187.046 118.584C185.475 119.525 184.223 118.754 184.223 116.947C184.273 115.962 184.555 115.003 185.046 114.148C185.536 113.293 186.222 112.565 187.046 112.025C188.627 111.103 189.87 111.837 189.87 113.662Z" fill="white"/>
<path d="M199.92 107.865C199.87 108.85 199.588 109.809 199.097 110.664C198.607 111.519 197.921 112.247 197.097 112.787C195.525 113.728 194.274 112.957 194.274 111.15C194.324 110.165 194.606 109.206 195.096 108.351C195.587 107.496 196.272 106.768 197.097 106.228C198.621 105.315 199.92 106.049 199.92 107.865Z" fill="white"/>
<path d="M219.824 158.128L215.787 156.377V114.528L219.824 116.278V158.128Z" fill="#0F7CE3"/>
<path opacity="0.6" d="M219.824 158.128L215.787 156.377V114.528L219.824 116.278V158.128Z" fill="black"/>
<path d="M384.03 21.2684L219.824 116.278L215.786 114.528L379.984 19.5275L384.03 21.2684Z" fill="#0F7CE3"/>
<path opacity="0.4" d="M384.03 21.2684L219.824 116.278L215.786 114.528L379.984 19.5275L384.03 21.2684Z" fill="black"/>
<path d="M384.03 63.1178L219.824 158.128V116.279L384.03 21.2686V63.1178Z" fill="#0F7CE3"/>
<path opacity="0.3" d="M384.03 63.1178L219.824 158.128V116.279L384.03 21.2686V63.1178Z" fill="black"/>
<path d="M291.468 91.5083L281.476 101.792L291.468 100.59V102.532L279.657 103.871V101.804L291.468 89.5354V91.5083ZM301.655 74.7864L303.42 73.7721L294.46 108.422L292.695 109.437L301.655 74.7864ZM316.181 80.813V82.88L304.369 95.1172V93.1756L314.362 82.892L304.369 84.0936V82.1206L316.181 80.813Z" fill="white"/>
<path d="M427.498 128.418L430.754 132.305C431.158 135.884 431.927 139.413 433.05 142.835C434.932 148.905 434.613 151.474 434.613 151.474L441.52 150.938L438.763 129.293C438.573 127.846 438.076 126.457 437.304 125.219L435.629 122.518L427.498 128.418Z" fill="#945959"/>
<path d="M431.281 238.043C431.281 238.043 426.943 241.421 427.357 243.417C427.771 245.412 434.538 246.362 437.822 242.475C439.281 240.753 440.316 237.243 440.447 232.961C440.513 230.825 443.205 227.663 440.447 225.433C437.69 223.202 436.589 222.675 435.902 222.958C435.215 223.24 431.281 238.043 431.281 238.043Z" fill="#37474F"/>
<path d="M428.044 221.716L430.594 227.155C430.594 227.155 431.422 235.013 431.281 238.043C431.281 238.043 435.215 240.452 436.382 235.888C436.83 233.722 437.038 231.513 437.003 229.301C436.573 227.771 436.391 226.182 436.466 224.595C436.533 224.105 436.504 223.607 436.382 223.127L435.215 218.328L428.044 221.716Z" fill="#945959"/>
<path d="M392.688 230.693C392.688 230.693 391.117 231.747 390.016 232.528C388.915 233.309 384.303 237.14 390.75 238.316C392.357 238.545 393.996 238.404 395.54 237.904C397.085 237.403 398.494 236.556 399.662 235.427C402.833 232.303 405.129 233.272 406.249 232.03C407.369 230.787 406.55 223.852 404.979 224.172L392.688 230.693Z" fill="#37474F"/>
<path d="M398.052 218.478L398.551 222.967C398.591 223.35 398.529 223.736 398.372 224.087C397.911 225.075 396.575 227.23 392.726 230.675C392.726 230.675 392.66 234.147 397.535 232.472C398.865 231.849 400.127 231.089 401.299 230.204C401.868 229.8 402.338 229.273 402.673 228.661C403.253 227.552 404.017 226.55 404.932 225.696L405.44 218.459L398.052 218.478Z" fill="#945959"/>
<path d="M393.78 142.478C393.78 142.478 392.425 149.206 392.707 161.977C392.886 170.559 393.065 176.977 393.149 180.271C393.194 181.905 393.33 183.536 393.554 185.155L398.033 218.478C399.166 219.077 400.427 219.391 401.708 219.391C402.989 219.391 404.251 219.077 405.383 218.478C405.383 218.478 406.023 211.129 406.757 207.27C407.416 203.854 408.282 193.869 406.55 188.637C406.064 187.118 405.942 185.507 406.192 183.932L411.284 150.364L393.78 142.478Z" fill="#455A64"/>
<path d="M397.262 150.195C397.835 151.71 398.717 153.091 399.85 154.249C400.984 155.407 402.346 156.318 403.849 156.923L407.566 175.048L411.331 150.402L397.262 150.195Z" fill="#37474F"/>
<path d="M395.295 142.13C395.295 142.13 394.354 150.307 401.177 153.498C402.526 154.206 403.962 154.735 405.449 155.069C405.449 155.069 411.03 188.345 412.037 190.83C413.043 193.314 428.035 221.697 428.035 221.697C428.035 221.697 433.963 222.939 435.206 218.318C435.206 218.318 433.898 212.258 432.241 205.642C430.848 200.071 429.211 193.766 426.341 190.679C425.241 189.531 424.636 187.997 424.656 186.407C424.779 180.996 425.023 169.637 425.07 166.579C425.146 162.513 426.661 149.555 424.045 144.322L415.97 136.944L395.295 142.13Z" fill="#455A64"/>
<path d="M389.696 96.4785L383.616 92.8648C383.616 92.8648 379.748 87.9807 376.615 83.633C373.481 79.2852 372.163 77.0455 372.163 77.0455C373.149 75.5456 373.72 73.812 373.82 72.0202C373.82 69.4041 373.679 68.1618 374.168 67.1926C374.657 66.2233 374.168 65.1975 372.86 65.6116C371.552 66.0256 370.582 68.8394 370.978 70.6745L363.675 74.9093C363.675 74.9093 364.889 78.156 366.564 79.6711C366.564 79.6711 373.255 95.7915 375.871 98.4077C378.487 101.024 383.061 104.572 383.061 104.572L389.696 96.4785Z" fill="#945959"/>
<path d="M402.184 103.894L389.696 96.4785C389.696 96.4785 383.917 96.8831 383.108 104.543L394.034 112.731L402.184 103.894Z" fill="#0F7CE3"/>
<path opacity="0.2" d="M402.184 103.894L389.696 96.4785C389.696 96.4785 383.917 96.8831 383.108 104.543L394.034 112.731L402.184 103.894Z" fill="black"/>
<path d="M404.602 103.894L412.94 104.308L418.389 104.581L419.33 117.464C419.33 117.464 417.89 124.908 416.789 127.524C415.688 130.14 422.915 140.897 424.091 144.341C424.091 144.341 419.471 144.962 417.128 139.636C416.066 142.188 414.256 144.359 411.936 145.862C409.616 147.366 406.895 148.131 404.131 148.058C397.488 148.058 393.78 142.478 393.78 142.478L395.295 133.067C394.372 130.189 393.862 127.195 393.78 124.174C393.78 124.174 390.015 122.791 390.872 117.219C391.728 111.648 402.165 103.922 402.165 103.922L404.602 103.894Z" fill="#0F7CE3"/>
<path d="M421.635 83.0871C421.635 83.0871 426.406 79.1441 430.528 83.633C436.457 90.0981 423.64 102.793 435.008 103.066C435.008 103.066 433.7 104.581 429.286 104.581C424.873 104.581 421.089 100.017 421.842 91.6226L421.635 83.0871Z" fill="#263238"/>
<path d="M420.13 82.8801C420.13 82.8801 421.654 81.939 422.238 82.6166C422.821 83.2941 423.593 88.5547 421.852 91.6226C421.024 93.0718 419.377 91.0768 419.377 91.0768L420.13 82.8801Z" fill="#0F7CE3"/>
<path d="M394.561 83.6329C394.561 83.6329 394.627 89.0817 391.117 87.5666C391.406 88.2892 391.915 88.9026 392.572 89.3198C393.229 89.737 394 89.9368 394.777 89.891C396.707 89.891 397.817 88.0089 397.817 86.5314L394.561 83.6329Z" fill="#263238"/>
<path d="M412.993 90.7213C418.046 87.7291 419.717 81.2066 416.725 76.153C413.733 71.0994 407.21 69.4284 402.157 72.4207C397.103 75.4129 395.432 81.9354 398.424 86.989C401.417 92.0426 407.939 93.7136 412.993 90.7213Z" fill="#263238"/>
<path d="M421.221 86.5314C421.221 92.4037 415.98 99.8663 410.107 99.8663C408.711 99.8676 407.329 99.5937 406.039 99.0603C404.749 98.5269 403.576 97.7445 402.589 96.7578C401.601 95.7711 400.818 94.5994 400.283 93.3097C399.749 92.0201 399.473 90.6377 399.473 89.2417C399.473 83.3695 404.235 76.6785 410.107 76.6785C415.98 76.6785 421.221 78.6735 421.221 86.5314Z" fill="#263238"/>
<path d="M404.969 80.292C404.971 81.5265 404.607 82.7337 403.922 83.761C403.238 84.7882 402.264 85.5894 401.124 86.0631C399.984 86.5368 398.729 86.6617 397.519 86.422C396.308 86.1823 395.195 85.5888 394.321 84.7166C393.448 83.8444 392.853 82.7327 392.611 81.5222C392.37 80.3116 392.493 79.0566 392.965 77.916C393.437 76.7754 394.236 75.8004 395.263 75.1144C396.289 74.4284 397.496 74.0622 398.73 74.0622C400.383 74.0622 401.969 74.7183 403.138 75.8863C404.308 77.0544 404.967 78.6389 404.969 80.292Z" fill="#263238"/>
<path d="M404.602 98.1724V103.894C404.602 103.894 399.257 109.268 404.461 109.738C409.665 110.209 412.931 104.308 412.931 104.308V93.4012L404.602 98.1724Z" fill="#945959"/>
<path d="M412.846 91.679V92.0178C410.964 99.3487 406.155 100.949 404.602 101.316L404.546 89.9663H412.611L412.846 91.679Z" fill="#703838"/>
<path d="M406.108 75.3515C403.441 75.5237 400.947 76.7309 399.157 78.7156C397.368 80.7004 396.424 83.3057 396.528 85.9761C396.434 94.0975 397.676 100.29 401.882 100.544C406.089 100.798 415.49 97.0054 415.933 86.4278C416.375 75.8503 409.11 75.0786 406.108 75.3515Z" fill="#945959"/>
<path d="M402.212 89.2416L402.287 94.0034L399.483 93.1941L402.212 89.2416Z" fill="#703838"/>
<path d="M406.399 89.1099C406.399 89.294 406.345 89.4739 406.244 89.6275C406.142 89.7811 405.998 89.9015 405.829 89.9739C405.659 90.0463 405.473 90.0675 405.291 90.0349C405.11 90.0022 404.943 89.9171 404.809 89.7902C404.676 89.6632 404.583 89.5 404.542 89.3206C404.5 89.1413 404.512 88.9538 404.576 88.7812C404.64 88.6086 404.753 88.4586 404.902 88.3498C405.05 88.241 405.227 88.178 405.411 88.1688C405.539 88.1625 405.666 88.1821 405.786 88.2265C405.906 88.2709 406.015 88.3392 406.107 88.4273C406.2 88.5153 406.273 88.6212 406.324 88.7386C406.374 88.8559 406.4 88.9823 406.399 89.1099Z" fill="#263238"/>
<path d="M400 88.5265C400 88.7126 399.945 88.8946 399.842 89.0493C399.738 89.2041 399.591 89.3247 399.419 89.396C399.247 89.4672 399.058 89.4858 398.876 89.4495C398.693 89.4132 398.525 89.3236 398.394 89.192C398.262 89.0603 398.173 88.8927 398.136 88.7101C398.1 88.5276 398.119 88.3384 398.19 88.1664C398.261 87.9944 398.382 87.8475 398.536 87.7441C398.691 87.6406 398.873 87.5854 399.059 87.5854C399.309 87.5854 399.548 87.6846 399.725 87.8611C399.901 88.0376 400 88.2769 400 88.5265Z" fill="#263238"/>
<path d="M397.817 86.5314L399.699 85.3739C399.699 85.3739 398.965 84.6304 398.24 85.0915C398.034 85.2616 397.883 85.4897 397.807 85.7464C397.732 86.0031 397.735 86.2766 397.817 86.5314Z" fill="#0F7CE3"/>
<path d="M401.656 95.6691C402.641 95.1943 403.599 94.6665 404.527 94.0881C404.527 94.0881 405.129 95.6503 403.859 96.2902C403.476 96.4567 403.048 96.4859 402.647 96.3727C402.245 96.2594 401.895 96.0109 401.656 95.6691Z" fill="#703838"/>
<path d="M397.817 86.5314L399.699 85.3739C399.699 85.3739 398.965 84.6304 398.24 85.0915C398.034 85.2616 397.883 85.4897 397.807 85.7464C397.732 86.0031 397.735 86.2766 397.817 86.5314Z" fill="#263238"/>
<path d="M411.18 88.6676C411.18 88.6676 410.992 92.0837 412.959 92.0837H416.817V85.5715C416.817 78.2688 411.274 70.6367 399.483 76.669C399.483 76.669 398.909 86.4184 411.18 88.6676Z" fill="#263238"/>
<path d="M412.667 92.2342C412.642 91.4899 412.786 90.7496 413.09 90.0698C413.238 89.6462 413.507 89.2753 413.863 89.0027C414.219 88.7301 414.647 88.5678 415.095 88.5358C417.391 88.5358 417.673 90.7097 417.636 91.5002C417.539 92.7184 416.973 93.8513 416.056 94.6592C415.139 95.4671 413.944 95.8867 412.723 95.8291L412.667 92.2342Z" fill="#945959"/>
<path d="M417.636 104.543C417.636 104.543 412.215 109.945 419.132 118.283C426.049 126.621 427.498 128.418 427.498 128.418C427.498 128.418 434.594 129.115 435.629 122.565C435.629 122.565 427.291 110.849 425.014 107.894C422.736 104.939 420.666 104.694 417.636 104.543Z" fill="#0F7CE3"/>
<path opacity="0.2" d="M417.636 104.543C417.636 104.543 412.215 109.945 419.132 118.283C426.049 126.621 427.498 128.418 427.498 128.418C427.498 128.418 434.594 129.115 435.629 122.565C435.629 122.565 427.291 110.849 425.014 107.894C422.736 104.939 420.666 104.694 417.636 104.543Z" fill="black"/>
<path opacity="0.3" d="M401.864 124.842C401.864 124.842 410.164 127.157 412.94 119.262C412.94 119.309 411.509 129.115 401.864 124.842Z" fill="black"/>
<path d="M434.613 151.503C434.613 151.503 433.295 152.274 432.985 155.032C432.891 155.822 431.441 157.582 431.658 158.024C431.874 158.466 433.323 159.069 434.886 156.481C435.169 157.794 435.188 159.15 434.942 160.471C434.519 162.513 433.785 165.129 436.448 164.555C439.111 163.981 443.035 161.873 442.414 157.902C441.84 154.072 441.52 150.966 441.52 150.966L434.613 151.503Z" fill="#945959"/>
<path d="M277.85 202.894L273.803 201.153V159.304L277.85 161.045V202.894Z" fill="#FACF38"/>
<path opacity="0.6" d="M277.85 202.894L273.803 201.153V159.304L277.85 161.045V202.894Z" fill="black"/>
<path d="M372.257 106.426L277.85 161.045L273.803 159.304L368.211 104.685L372.257 106.426Z" fill="#FACF38"/>
<path opacity="0.4" d="M372.257 106.426L277.85 161.045L273.803 159.304L368.211 104.685L372.257 106.426Z" fill="black"/>
<path d="M372.257 148.275L277.85 202.894V161.045L372.257 106.425V148.275Z" fill="#FACF38"/>
<path opacity="0.3" d="M372.257 148.275L277.85 202.894V161.045L372.257 106.425V148.275Z" fill="black"/>
<path d="M312.835 171.08C311.078 172.089 309.49 172.554 308.071 172.473C306.668 172.383 305.562 171.781 304.751 170.669C303.957 169.528 303.56 167.973 303.56 166.005C303.56 164.037 303.957 162.035 304.751 160.001C305.562 157.937 306.677 156.049 308.096 154.337C309.515 152.625 311.103 151.264 312.86 150.255C314.178 149.497 315.394 149.052 316.509 148.917C317.624 148.783 318.57 148.98 319.347 149.508L318.156 151.566C316.771 150.745 315.023 150.941 312.911 152.155C311.509 152.96 310.233 154.064 309.084 155.464C307.935 156.865 307.032 158.398 306.373 160.062C305.731 161.717 305.41 163.344 305.41 164.942C305.41 166.539 305.731 167.797 306.373 168.714C307.032 169.621 307.935 170.115 309.084 170.195C310.233 170.276 311.509 169.913 312.911 169.107C315.039 167.884 316.788 166.06 318.156 163.637L319.347 164.326C318.57 165.747 317.616 167.046 316.484 168.222C315.369 169.37 314.153 170.322 312.835 171.08Z" fill="white"/>
<path d="M330.74 146.504L328.021 148.08V151.155L327.101 151.689V148.614L324.383 150.191V149.194L327.101 147.618V144.526L328.021 143.992V147.084L330.74 145.507V146.504ZM330.74 167.504L328.021 169.08V172.155L327.101 172.689V169.614L324.383 171.191V170.194L327.101 168.618V165.526L328.021 164.992V168.084L330.74 166.507V167.504Z" fill="white"/>
<path d="M360.024 317.968C360.024 317.968 363.863 315.822 364.343 313.432C364.823 311.042 360.579 305.536 360.579 305.536C360.579 305.536 357.464 307.315 360.024 317.968Z" fill="#FACF38"/>
<path opacity="0.2" d="M360.024 317.968C360.024 317.968 363.863 315.822 364.343 313.432C364.823 311.042 360.579 305.536 360.579 305.536C360.579 305.536 357.464 307.315 360.024 317.968Z" fill="black"/>
<path d="M313.017 325.374L318.617 322.071L319.351 316.462L317.422 316.01L313.017 325.374Z" fill="#FACF38"/>
<path opacity="0.3" d="M313.017 325.374L318.617 322.071L319.351 316.462L317.422 316.01L313.017 325.374Z" fill="black"/>
<path d="M346.18 293.133L351.413 301.49L354.904 313.065C354.904 313.065 361.35 312.265 357.294 297.405L354.255 288.447L346.18 293.133Z" fill="#FFA8A7"/>
<path d="M311.907 296.229L313.008 309.545L309.159 319.756C309.159 319.756 311.088 324.527 317.149 314.429C320.367 309.065 320.471 308.002 320.471 308.002L321.741 296.239L311.907 296.229Z" fill="#FFA8A7"/>
<path d="M316.904 166.513L314.937 170.409C314.908 170.465 314.892 170.528 314.889 170.591C314.886 170.655 314.897 170.719 314.922 170.778C314.946 170.837 314.982 170.89 315.029 170.933C315.075 170.977 315.131 171.01 315.191 171.03L317.525 171.801L316.904 166.513Z" fill="#F28F8F"/>
<path d="M319.633 159.982C319.633 159.982 316.612 161.591 316.612 170.813C316.612 175.886 316.961 179.123 319.595 178.925C322.23 178.728 329.815 177.73 329.815 177.73V159.982H319.633Z" fill="#FFA8A7"/>
<path d="M319.633 178.925C320.574 178.85 322.099 178.681 323.698 178.492V177.551C322.253 178.176 320.74 178.634 319.191 178.916C319.337 178.933 319.486 178.936 319.633 178.925Z" fill="#F28F8F"/>
<path d="M323.247 177.156V182.953H331.17V174.813L323.247 177.156Z" fill="#FFA8A7"/>
<path d="M336.808 197.492L341.955 208.061L338.097 213.114L340.76 222.139L349.032 212.38C349.751 211.534 350.228 210.509 350.412 209.414C350.596 208.319 350.48 207.194 350.077 206.16C347.799 200.306 343.273 188.788 342.049 186.746C340.393 183.988 338.417 182.52 335.462 182.614C332.507 182.708 336.808 197.492 336.808 197.492Z" fill="#FFA8A7"/>
<path d="M339.292 214.855C340.487 218.441 343.056 223.485 342.981 240.433C342.906 252.281 342.981 258.954 343.094 261.89C343.114 262.94 343.523 263.946 344.242 264.713C345.503 266.012 347.649 268.807 349.672 274.124C351.472 278.806 353.003 283.588 354.255 288.447C354.255 288.447 352.787 293.227 346.171 293.152L329.627 266.567C328.966 265.498 328.54 264.302 328.376 263.057L324.028 230.035V216.511L339.292 214.855Z" fill="#FACF38"/>
<path opacity="0.6" d="M339.292 214.855C340.487 218.441 343.056 223.485 342.981 240.433C342.906 252.281 342.981 258.954 343.094 261.89C343.114 262.94 343.523 263.946 344.242 264.713C345.503 266.012 347.649 268.807 349.672 274.124C351.472 278.806 353.003 283.588 354.255 288.447C354.255 288.447 352.787 293.227 346.171 293.152L329.627 266.567C328.966 265.498 328.54 264.302 328.376 263.057L324.028 230.035V216.511L339.292 214.855Z" fill="black"/>
<path d="M327.528 256.497L332.121 240.029C332.121 240.029 338.577 233.441 336.28 222.148L326.521 234.439L327.011 253.185L327.528 256.497Z" fill="#FACF38"/>
<path opacity="0.7" d="M327.528 256.497L332.121 240.029C332.121 240.029 338.577 233.441 336.28 222.148L326.521 234.439L327.011 253.185L327.528 256.497Z" fill="black"/>
<path d="M312.368 215.777C312.095 221.104 309.206 254.267 309.62 263.913C310.034 273.559 311.907 296.229 311.907 296.229C311.907 296.229 318.146 298.808 321.732 296.229C321.732 296.229 323.247 287.289 324.235 280.231C324.838 276.579 324.714 272.843 323.868 269.239C323.524 267.916 323.524 266.526 323.868 265.202L330.907 238.184C330.907 238.184 336.986 233.921 336.986 222.13V213.284L312.368 215.777Z" fill="#FACF38"/>
<path opacity="0.6" d="M312.368 215.777C312.095 221.104 309.206 254.267 309.62 263.913C310.034 273.559 311.907 296.229 311.907 296.229C311.907 296.229 318.146 298.808 321.732 296.229C321.732 296.229 323.247 287.289 324.235 280.231C324.838 276.579 324.714 272.843 323.868 269.239C323.524 267.916 323.524 266.526 323.868 265.202L330.907 238.184C330.907 238.184 336.986 233.921 336.986 222.13V213.284L312.368 215.777Z" fill="black"/>
<path d="M329.279 178.878L316.612 183.527C316.612 183.527 310.684 188.675 310.684 198.509C310.684 201.266 313.347 203.741 313.347 203.741C313.347 203.741 312.406 212.38 312.33 215.777C312.33 215.777 318.805 220.323 330.879 218.535C333.902 217.922 336.758 216.667 339.254 214.855C339.254 214.855 337.372 207.233 337.137 206.499C336.902 205.764 339.715 196.853 339.715 189.776L329.279 178.878Z" fill="#455A64"/>
<path d="M318.09 162.043C318.09 162.043 318.598 166.494 321.449 167.689C321.449 167.689 319.191 170.785 322.541 172.14V169.75L323.943 172.488C323.943 172.488 320 188.487 326.842 188.487C328.032 188.506 329.191 188.099 330.107 187.338C330.107 187.338 331.161 191.517 337.495 191.517C343.828 191.517 345.023 185.315 345.023 185.315C345.023 185.315 340.798 186.595 340.798 182.191C340.798 177.787 340.478 163.633 340.242 161.487C339.817 159.229 338.669 157.17 336.971 155.62C335.274 154.071 333.119 153.115 330.832 152.895C325.891 152.303 319.483 152.34 315.775 157.441C312.067 162.541 317.356 163.972 317.356 163.972C317.356 163.972 317.478 163.793 318.09 162.043Z" fill="#263238"/>
<path d="M322.541 169.769C322.541 169.769 322.334 165.873 325.364 166.174C328.827 166.513 327.726 172.761 323.482 172.761L322.541 169.769Z" fill="#FFA8A7"/>
<path d="M341.842 157.892C341.042 156.641 339.955 155.599 338.671 154.853C338.256 154.659 337.806 154.551 337.348 154.533C336.891 154.515 336.434 154.588 336.005 154.748C335.576 154.909 335.183 155.153 334.849 155.466C334.515 155.78 334.247 156.157 334.06 156.575C333.703 157.312 333.513 158.119 333.501 158.937C333.49 159.756 333.659 160.567 333.996 161.314C334.332 162.061 334.828 162.724 335.449 163.258C336.07 163.792 336.8 164.184 337.589 164.405C337.897 164.489 338.212 164.549 338.53 164.583C339.412 164.663 340.293 164.421 341.011 163.903C341.729 163.384 342.234 162.623 342.435 161.76C342.559 161.316 342.625 160.857 342.633 160.396C342.642 159.498 342.365 158.622 341.842 157.892Z" fill="#FACF38"/>
<path d="M344.43 158.834C344.428 159.816 344.135 160.776 343.588 161.591C343.041 162.407 342.264 163.043 341.356 163.417C340.448 163.792 339.449 163.889 338.486 163.696C337.523 163.504 336.638 163.03 335.944 162.334C335.25 161.639 334.778 160.754 334.587 159.79C334.396 158.826 334.495 157.828 334.872 156.92C335.248 156.013 335.885 155.238 336.702 154.692C337.519 154.146 338.479 153.855 339.461 153.855C340.115 153.855 340.761 153.984 341.365 154.234C341.968 154.485 342.517 154.852 342.978 155.314C343.44 155.776 343.805 156.325 344.055 156.929C344.304 157.533 344.431 158.18 344.43 158.834Z" fill="#263238"/>
<path d="M316.612 183.527C316.612 183.527 320.875 184.176 320.875 189.87C320.875 195.563 310.401 198.142 305.442 199.977C302.618 201.04 298.788 202.527 296.106 203.6C295.074 204.01 293.949 204.127 292.854 203.938C291.76 203.749 290.739 203.26 289.905 202.527C284.68 197.959 279.949 192.856 275.789 187.301C275.789 187.301 269.803 185.183 269.982 179.302C270.161 173.42 273.746 171.773 273.746 171.773V173.731C273.746 174.371 273.893 175.002 274.175 175.576C274.457 176.151 274.868 176.653 275.375 177.043L276.57 177.984C276.702 178.086 276.856 178.156 277.019 178.187C277.183 178.218 277.352 178.211 277.512 178.165C277.672 178.119 277.82 178.037 277.942 177.923C278.064 177.81 278.158 177.67 278.217 177.514C278.631 176.384 279.355 174.916 280.437 174.427C282.273 173.599 281.633 177.165 281.171 178.869C280.897 179.845 280.773 180.857 280.804 181.871L294.215 193.719C294.215 193.719 308.933 185.974 316.612 183.527Z" fill="#FFA8A7"/>
<path d="M320.471 308.021C319.512 308.181 318.605 308.563 317.82 309.137C317.036 309.71 316.397 310.459 315.953 311.324C314.485 314.26 311.728 322.532 309.159 319.793L310.034 317.488C310.034 317.488 299.748 319.737 302.204 322.428C304.661 325.12 312.368 326.315 313.017 325.393C313.667 324.471 317.149 317.864 317.149 317.864L319.078 326.682C319.358 326.926 319.718 327.06 320.089 327.06C320.461 327.06 320.82 326.926 321.101 326.682C321.101 326.682 323.614 309.762 320.471 308.021Z" fill="#FACF38"/>
<path d="M354.904 313.065C355.644 312.689 356.242 312.083 356.607 311.338C356.972 310.592 357.085 309.749 356.927 308.934C356.56 305.809 354.18 299.589 357.294 297.406C358.678 296.464 361.746 300.662 364.343 305.715C366.94 310.769 367.674 312.237 367.674 312.237C367.674 312.237 367.392 313.592 366.206 313.526L360.513 307.644C360.146 309.44 360.207 311.297 360.692 313.065C361.52 315.822 361.633 317.422 358.631 318.758C355.629 320.095 347.413 321.92 351.808 316.377C352.677 315.131 353.719 314.016 354.904 313.065Z" fill="#FACF38"/>
<path d="M134.299 328.291L135.033 335.886C135.033 335.886 135.852 337.448 139.626 337.448C143.4 337.448 142.562 334.229 142.562 334.229L142.929 328.291H134.299Z" fill="#FFA8A7"/>
<path d="M145.62 251.416C145.62 255.359 145.253 293.848 145.225 296.427C145.23 296.518 145.23 296.609 145.225 296.7C145.075 298.845 143.211 325.233 142.938 328.291C142.938 328.291 138.44 331.717 134.309 328.291C134.309 328.291 133.198 318.984 132.831 316.227C132.464 313.469 131.081 301.17 132.831 297.114L128.333 273.785V255.048L145.62 251.416Z" fill="#37474F"/>
<path d="M140.52 257.326C140.52 257.326 139.579 263.217 132.822 266.435L129.858 281.727L128.324 274.585V257.89L140.52 257.326Z" fill="#263238"/>
<path d="M105.446 334.229L104.712 339.876C104.712 339.876 106.679 345.005 112.683 342.53L113.784 336.657L105.446 334.229Z" fill="#FFA8A7"/>
<path d="M113.784 252.103C113.37 256.507 112.156 267.715 111.695 282.217C111.234 296.719 111.234 296.634 111.234 296.634C109.582 300.188 108.457 303.964 107.893 307.842C107.319 313.281 105.446 334.192 105.446 334.192C106.492 335.305 107.818 336.115 109.286 336.535C110.754 336.956 112.308 336.972 113.784 336.582L124.87 301.763C125.169 300.814 125.398 299.846 125.557 298.864L130.987 264.638C130.987 264.638 140.454 263.358 142.562 251.133L113.784 252.103Z" fill="#37474F"/>
<path d="M148.651 225.019L159.322 233.564V221.16L155.539 217.302L148.651 225.019Z" fill="#F28F8F"/>
<path d="M138.243 205.661C140.773 205.473 143.283 206.234 145.282 207.797C148.585 210.413 155.539 217.302 155.539 217.302C155.284 219.126 154.494 220.833 153.267 222.207C152.041 223.581 150.434 224.559 148.651 225.019L141.828 220.135L138.243 205.661Z" fill="#FACF38"/>
<path opacity="0.2" d="M138.243 205.661C140.773 205.473 143.283 206.234 145.282 207.797C148.585 210.413 155.539 217.302 155.539 217.302C155.284 219.126 154.494 220.833 153.267 222.207C152.041 223.581 150.434 224.559 148.651 225.019L141.828 220.135L138.243 205.661Z" fill="white"/>
<path d="M124.39 205.727C124.39 205.727 117.37 206.433 114.198 207.12L113.031 219.786C113.031 219.786 115.497 233.902 115.497 235.888C115.497 237.874 113.784 252.103 113.784 252.103C113.784 252.103 118.631 255.274 132.737 255.274C137.294 255.13 141.735 253.8 145.621 251.416V223.268C145.621 217.791 143.484 209.152 138.243 205.661H133.933L124.39 205.727Z" fill="#FACF38"/>
<path opacity="0.2" d="M124.39 205.727C124.39 205.727 117.37 206.433 114.198 207.12L113.031 219.786C113.031 219.786 115.497 233.902 115.497 235.888C115.497 237.874 113.784 252.103 113.784 252.103C113.784 252.103 118.631 255.274 132.737 255.274C137.294 255.13 141.735 253.8 145.621 251.416V223.268C145.621 217.791 143.484 209.152 138.243 205.661H133.933L124.39 205.727Z" fill="black"/>
<path d="M163.36 244.386L159.322 242.645V200.796L163.36 202.537V244.386Z" fill="#FACF38"/>
<path opacity="0.6" d="M163.36 244.386L159.322 242.645V200.796L163.36 202.537V244.386Z" fill="black"/>
<path d="M257.767 147.917L163.36 202.537L159.322 200.796L253.721 146.176L257.767 147.917Z" fill="#FACF38"/>
<path opacity="0.4" d="M257.767 147.917L163.36 202.537L159.322 200.796L253.721 146.176L257.767 147.917Z" fill="black"/>
<path d="M257.767 189.766L163.36 244.386V202.537L257.767 147.917V189.766Z" fill="#FACF38"/>
<path opacity="0.3" d="M257.767 189.766L163.36 244.386V202.537L257.767 147.917V189.766Z" fill="black"/>
<path d="M189.706 217.898C187.949 218.907 186.361 219.372 184.941 219.291C183.539 219.201 182.433 218.599 181.622 217.487C180.828 216.346 180.431 214.791 180.431 212.823C180.431 210.855 180.828 208.854 181.622 206.819C182.433 204.755 183.548 202.867 184.967 201.155C186.386 199.443 187.974 198.082 189.731 197.073C191.049 196.315 192.265 195.87 193.38 195.735C194.495 195.601 195.441 195.798 196.218 196.326L195.027 198.384C193.642 197.563 191.893 197.759 189.782 198.973C188.379 199.779 187.104 200.882 185.955 202.282C184.806 203.683 183.903 205.216 183.244 206.881C182.602 208.536 182.281 210.162 182.281 211.76C182.281 213.357 182.602 214.615 183.244 215.532C183.903 216.439 184.806 216.933 185.955 217.013C187.104 217.094 188.379 216.731 189.782 215.925C191.91 214.702 193.659 212.878 195.027 210.455L196.218 211.144C195.441 212.565 194.487 213.864 193.355 215.041C192.24 216.188 191.023 217.14 189.706 217.898ZM205.008 209.103C203.69 209.861 202.423 210.345 201.207 210.557C200.007 210.759 199.078 210.65 198.419 210.23L199.154 208.142C199.796 208.513 200.649 208.627 201.713 208.483C202.778 208.32 203.876 207.913 205.008 207.262C206.596 206.349 207.787 205.334 208.581 204.215C209.375 203.076 209.772 201.971 209.772 200.9C209.772 200.081 209.552 199.555 209.113 199.32C208.691 199.076 208.167 199.006 207.542 199.112C206.917 199.199 206.047 199.407 204.932 199.736C203.597 200.113 202.533 200.354 201.739 200.46C200.945 200.546 200.26 200.384 199.686 199.974C199.129 199.554 198.85 198.71 198.85 197.444C198.85 196.411 199.086 195.34 199.559 194.23C200.032 193.101 200.759 192.001 201.739 190.932C202.719 189.862 203.935 188.91 205.388 188.075C206.401 187.492 207.39 187.09 208.353 186.867C209.333 186.616 210.177 186.569 210.887 186.726L210.253 188.815C209.51 188.677 208.716 188.714 207.871 188.927C207.027 189.12 206.199 189.45 205.388 189.916C203.834 190.809 202.659 191.835 201.865 192.992C201.088 194.121 200.7 195.231 200.7 196.322C200.7 197.141 200.911 197.682 201.333 197.946C201.772 198.18 202.313 198.25 202.955 198.153C203.614 198.028 204.492 197.806 205.591 197.486C206.891 197.109 207.939 196.877 208.733 196.791C209.544 196.676 210.228 196.828 210.785 197.248C211.343 197.649 211.622 198.473 211.622 199.72C211.622 200.752 211.377 201.838 210.887 202.977C210.414 204.087 209.679 205.181 208.682 206.261C207.685 207.321 206.461 208.268 205.008 209.103ZM186.893 255.514C185.575 256.272 184.308 256.756 183.092 256.968C181.892 257.17 180.963 257.061 180.304 256.641L181.039 254.553C181.681 254.924 182.534 255.038 183.598 254.894C184.663 254.73 185.761 254.323 186.893 253.673C188.481 252.76 189.672 251.744 190.466 250.626C191.26 249.487 191.657 248.382 191.657 247.311C191.657 246.492 191.437 245.966 190.998 245.731C190.576 245.487 190.052 245.417 189.427 245.523C188.802 245.61 187.932 245.817 186.817 246.147C185.482 246.524 184.418 246.765 183.624 246.871C182.83 246.957 182.146 246.795 181.571 246.385C181.014 245.965 180.735 245.121 180.735 243.855C180.735 242.822 180.971 241.751 181.444 240.641C181.917 239.512 182.644 238.412 183.624 237.343C184.604 236.273 185.82 235.32 187.273 234.485C188.287 233.903 189.275 233.501 190.238 233.278C191.218 233.027 192.062 232.98 192.772 233.137L192.138 235.226C191.395 235.088 190.601 235.125 189.756 235.338C188.912 235.531 188.084 235.861 187.273 236.327C185.719 237.22 184.544 238.246 183.75 239.403C182.973 240.532 182.585 241.642 182.585 242.733C182.585 243.551 182.796 244.093 183.218 244.356C183.658 244.591 184.198 244.66 184.84 244.564C185.499 244.439 186.377 244.217 187.476 243.897C188.776 243.52 189.824 243.288 190.618 243.202C191.429 243.087 192.113 243.239 192.671 243.659C193.228 244.06 193.507 244.883 193.507 246.131C193.507 247.163 193.262 248.249 192.772 249.388C192.299 250.498 191.564 251.592 190.567 252.672C189.57 253.732 188.346 254.679 186.893 255.514Z" fill="white"/>
<path d="M142.515 179.029C142.515 179.029 148.001 183.847 143.23 194.585L137.65 180.073L142.515 179.029Z" fill="#263238"/>
<path d="M124.39 205.727C124.39 205.727 126.272 210.762 131.514 210.762C136.756 210.762 133.932 205.661 133.932 205.661L124.39 205.727Z" fill="#FFA8A7"/>
<path d="M124.39 205.727L133.932 205.661V191.065H124.39V205.727Z" fill="#FFA8A7"/>
<path d="M133.932 205.077C130.413 203.713 125.943 201.454 125.943 199.299L124.785 192.044H133.932V205.077Z" fill="#F28F8F"/>
<path d="M131.74 176.055C135.109 176.055 142.261 177.937 143.089 186.745C143.917 195.554 142.628 203.045 138.572 203.045C130.611 203.045 122.969 202.028 122.903 189.004C122.847 177.514 128.456 176.055 131.74 176.055Z" fill="#FFA8A7"/>
<path d="M124.4 196.721L125.689 192.712C125.786 192.794 125.905 192.848 126.031 192.865C126.157 192.882 126.286 192.863 126.402 192.81C126.517 192.756 126.616 192.671 126.684 192.563C126.753 192.456 126.79 192.331 126.79 192.204V185.099C126.79 185.099 130.102 184.158 129.754 181.381C129.754 181.381 131.448 182.897 137.942 182.897C144.435 182.897 146.016 177.391 145.367 174.323C145.367 174.323 144.162 175.566 140.727 175.566C137.292 175.566 122.997 171.256 122.63 179.895C122.63 179.895 121.416 178.125 119.468 179.895L121.981 181.419C121.981 181.419 119.007 181.325 119.468 185.682C119.835 189.126 121.266 195.648 121.859 198.255C122.027 198.976 122.46 199.608 123.073 200.024L124.4 200.918V196.721Z" fill="#263238"/>
<path d="M136.803 189.39V194.585L139.842 193.644L136.803 189.39Z" fill="#F28F8F"/>
<path d="M131.401 190.284C131.399 190.495 131.46 190.702 131.576 190.878C131.692 191.055 131.858 191.192 132.053 191.274C132.248 191.356 132.462 191.377 132.669 191.337C132.877 191.296 133.067 191.194 133.216 191.045C133.366 190.896 133.467 190.706 133.508 190.498C133.548 190.291 133.527 190.077 133.445 189.882C133.363 189.687 133.226 189.521 133.049 189.405C132.873 189.289 132.666 189.228 132.455 189.23C132.316 189.23 132.179 189.257 132.052 189.31C131.924 189.363 131.808 189.441 131.71 189.539C131.612 189.636 131.534 189.753 131.481 189.881C131.428 190.008 131.401 190.145 131.401 190.284Z" fill="#263238"/>
<path d="M139.315 189.55C139.315 189.76 139.378 189.966 139.495 190.141C139.611 190.316 139.777 190.452 139.972 190.532C140.166 190.613 140.38 190.634 140.586 190.593C140.792 190.552 140.982 190.451 141.131 190.302C141.279 190.153 141.381 189.964 141.422 189.757C141.463 189.551 141.442 189.337 141.361 189.143C141.281 188.949 141.144 188.783 140.97 188.666C140.795 188.549 140.589 188.487 140.379 188.487C140.097 188.487 139.826 188.599 139.627 188.798C139.427 188.997 139.315 189.268 139.315 189.55Z" fill="#263238"/>
<path d="M141.668 187.338L139.598 186.115C139.598 186.115 140.388 185.287 141.179 185.786C141.407 185.965 141.577 186.209 141.664 186.486C141.751 186.763 141.753 187.06 141.668 187.338Z" fill="#263238"/>
<path d="M130.281 188.11L132.342 186.877C132.342 186.877 131.552 186.049 130.761 186.548C130.533 186.73 130.365 186.976 130.28 187.255C130.194 187.533 130.195 187.832 130.281 188.11Z" fill="#263238"/>
<path d="M138.233 196.683C137.233 196.753 136.239 196.484 135.41 195.921C135.41 195.921 135.212 197.427 136.473 197.709C136.84 197.764 137.214 197.692 137.533 197.505C137.853 197.319 138.1 197.029 138.233 196.683Z" fill="#F28F8F"/>
<path d="M125.181 191.253C126.376 193.333 126.065 195.855 124.4 196.721C123.317 197.276 120.146 196.081 118.951 194.001C117.756 191.921 118.424 190.143 120.052 189.202C121.68 188.261 123.976 189.173 125.181 191.253Z" fill="#FFA8A7"/>
<path d="M125.783 192.797L122.122 188.825L124.757 187.244L125.783 192.797Z" fill="#253239"/>
<path d="M131.222 222.271L136.257 227.851C136.257 227.851 140.369 227.268 145.141 227.023C148.927 226.627 152.681 225.97 156.377 225.056C156.377 225.056 157.318 221.029 159.332 219.41V222.562C159.332 222.562 162.033 223.504 163.369 222.167C165.675 219.899 167.736 217.81 167.736 222.562C167.736 229.197 164.912 231.888 157.29 231.747C157.29 231.747 138.045 239.812 133.434 238.909C130.61 238.372 122.856 231.06 122.856 231.06L131.222 222.271Z" fill="#FFA8A7"/>
<path d="M110.519 208.955C113.756 205.661 117.454 207.195 120.701 210.442C123.948 213.688 131.222 222.271 131.222 222.271C131.222 222.271 130.488 228.962 122.856 231.089C122.856 231.089 112.561 220.37 111.243 218.911C108.853 216.239 107.451 212.098 110.519 208.955Z" fill="#FACF38"/>
<path opacity="0.2" d="M110.519 208.955C113.756 205.661 117.454 207.195 120.701 210.442C123.948 213.688 131.222 222.271 131.222 222.271C131.222 222.271 130.488 228.962 122.856 231.089C122.856 231.089 112.561 220.37 111.243 218.911C108.853 216.239 107.451 212.098 110.519 208.955Z" fill="white"/>
<path d="M178.802 235.474C178.885 234.407 179.184 233.369 179.683 232.422C180.181 231.475 180.868 230.64 181.701 229.969C186.039 226.656 185.86 229.969 185.964 231.333C186.067 232.698 181.946 237.544 177.428 236.264L178.802 235.474Z" fill="#FFA8A7"/>
<path d="M104.712 339.838C104.944 340.353 105.262 340.824 105.653 341.231C105.747 341.31 105.861 341.362 105.982 341.382C106.103 341.402 106.227 341.388 106.341 341.343C106.455 341.297 106.555 341.222 106.629 341.124C106.704 341.027 106.75 340.911 106.764 340.789C106.775 340.477 106.868 340.174 107.033 339.91C107.198 339.646 107.43 339.43 107.705 339.283C108.354 339.01 113.539 338.916 113.587 339.97C113.589 340.767 113.507 341.562 113.342 342.341C113.342 342.341 114.179 349.475 115.77 352.298C117.36 355.121 119.958 359.685 114.49 361.022C109.022 362.358 104.891 359.459 104.703 355.601C104.515 351.743 104.609 349.014 104.242 348.345C103.875 347.677 101.946 347.329 102.68 343.8C103.414 340.271 103.527 338.154 104.938 338.041L104.712 339.838Z" fill="#455A64"/>
<path d="M108.439 346.388C108.36 346.39 108.281 346.373 108.21 346.336C108.139 346.3 108.079 346.247 108.034 346.181C107.96 346.074 107.93 345.943 107.951 345.814C107.972 345.686 108.043 345.571 108.147 345.494C109.012 344.951 109.999 344.632 111.018 344.568C112.037 344.504 113.056 344.696 113.982 345.127C114.044 345.153 114.1 345.191 114.147 345.238C114.194 345.286 114.231 345.342 114.257 345.404C114.282 345.466 114.295 345.533 114.295 345.6C114.294 345.667 114.281 345.733 114.255 345.795C114.229 345.857 114.191 345.913 114.143 345.96C114.096 346.007 114.039 346.045 113.977 346.07C113.915 346.095 113.849 346.108 113.782 346.108C113.715 346.107 113.648 346.094 113.587 346.068C112.814 345.71 111.965 345.547 111.115 345.595C110.265 345.642 109.44 345.899 108.712 346.341C108.627 346.382 108.533 346.399 108.439 346.388Z" fill="#EBEBEB"/>
<path d="M109.248 349.87C109.169 349.869 109.092 349.85 109.022 349.814C108.951 349.778 108.89 349.727 108.844 349.663C108.77 349.555 108.742 349.423 108.765 349.295C108.788 349.166 108.86 349.052 108.966 348.976C109.829 348.43 110.816 348.11 111.835 348.044C112.855 347.978 113.874 348.169 114.801 348.6C114.92 348.655 115.013 348.755 115.061 348.878C115.108 349 115.106 349.137 115.055 349.258C114.999 349.378 114.899 349.471 114.776 349.516C114.652 349.562 114.516 349.557 114.396 349.503C113.626 349.143 112.778 348.98 111.929 349.027C111.08 349.075 110.256 349.332 109.531 349.776C109.45 349.839 109.35 349.872 109.248 349.87Z" fill="#EBEBEB"/>
<path d="M110.519 353.305C110.44 353.306 110.361 353.288 110.29 353.252C110.22 353.216 110.159 353.163 110.114 353.098C110.041 352.99 110.012 352.858 110.035 352.729C110.058 352.601 110.13 352.487 110.236 352.411C111.101 351.868 112.088 351.549 113.107 351.485C114.126 351.421 115.145 351.613 116.071 352.044C116.131 352.069 116.185 352.107 116.23 352.153C116.275 352.2 116.31 352.255 116.334 352.315C116.358 352.376 116.369 352.44 116.368 352.505C116.366 352.57 116.352 352.634 116.325 352.693C116.27 352.81 116.172 352.902 116.051 352.949C115.93 352.996 115.796 352.996 115.676 352.947C114.903 352.59 114.054 352.428 113.204 352.475C112.354 352.523 111.529 352.779 110.801 353.22C110.718 353.276 110.619 353.306 110.519 353.305Z" fill="#EBEBEB"/>
<path d="M135.034 335.886C136.008 336.54 137.164 336.869 138.337 336.827C138.337 336.827 137.781 334.653 139.391 333.919C141 333.185 143.569 332.216 144.096 333.091C144.468 334.092 144.671 335.148 144.698 336.215C144.698 336.215 148.528 339.688 151.37 340.666C154.212 341.645 157.958 342.643 157.6 345.268C157.243 347.894 153.008 351.696 147.249 349.079C141.489 346.463 140.454 346.369 138.61 346.087C136.765 345.805 133.33 345.955 133.471 342.878C133.613 339.801 133.349 334.709 134.883 334.295L135.034 335.886Z" fill="#455A64"/>
<path d="M141.63 340.591C141.574 340.6 141.517 340.6 141.461 340.591C141.338 340.546 141.238 340.455 141.182 340.337C141.125 340.219 141.118 340.084 141.16 339.961C141.538 339.077 142.146 338.312 142.921 337.744C143.695 337.176 144.608 336.827 145.564 336.733C145.672 336.747 145.771 336.797 145.848 336.874C145.924 336.951 145.972 337.052 145.985 337.159C145.998 337.267 145.975 337.376 145.919 337.469C145.863 337.562 145.778 337.634 145.677 337.674C144.904 337.749 144.164 338.028 143.534 338.483C142.904 338.937 142.406 339.551 142.092 340.262C142.056 340.356 141.993 340.438 141.911 340.497C141.829 340.555 141.731 340.588 141.63 340.591Z" fill="#EBEBEB"/>
<path d="M144.566 342.53H144.406C144.345 342.51 144.289 342.477 144.24 342.435C144.192 342.393 144.152 342.341 144.124 342.283C144.096 342.225 144.08 342.162 144.077 342.098C144.073 342.033 144.083 341.969 144.105 341.908C144.45 341.027 145.031 340.257 145.785 339.684C146.539 339.112 147.436 338.758 148.378 338.662C148.486 338.675 148.587 338.723 148.664 338.8C148.742 338.876 148.791 338.977 148.805 339.085C148.819 339.193 148.797 339.302 148.742 339.396C148.686 339.49 148.601 339.563 148.5 339.603C147.745 339.684 147.025 339.965 146.416 340.419C145.807 340.872 145.331 341.481 145.037 342.181C145.005 342.282 144.943 342.369 144.858 342.432C144.774 342.494 144.671 342.529 144.566 342.53Z" fill="#EBEBEB"/>
<path d="M148.274 344.063H148.161C148.034 344.038 147.921 343.964 147.847 343.857C147.773 343.75 147.744 343.618 147.766 343.489C147.945 342.566 148.453 341.74 149.195 341.163C149.938 340.587 150.865 340.3 151.803 340.356C151.934 340.361 152.057 340.417 152.147 340.512C152.237 340.607 152.286 340.733 152.283 340.864C152.283 340.929 152.27 340.994 152.244 341.054C152.218 341.114 152.18 341.169 152.133 341.214C152.085 341.259 152.029 341.293 151.967 341.316C151.906 341.338 151.84 341.348 151.775 341.344C151.074 341.302 150.381 341.514 149.823 341.94C149.265 342.367 148.879 342.98 148.735 343.668C148.713 343.776 148.655 343.873 148.572 343.944C148.489 344.016 148.384 344.058 148.274 344.063Z" fill="#EBEBEB"/>
<path d="M213.575 35.7796L205.566 40.3344V37.5112C205.566 37.3042 205.566 37.1065 205.566 36.9089C205.566 36.7113 205.566 36.5231 205.566 36.3349V36.269C205.275 32.5047 202.433 31.0743 198.979 33.0788C197.408 34.0342 196.063 35.3183 195.036 36.843C194.274 31.7895 190.095 29.9074 185.07 32.8153C179.48 36.0431 174.954 43.8822 174.954 50.3285V56.3984C174.954 56.8786 174.828 57.3505 174.589 57.7668C174.349 58.183 174.004 58.5289 173.589 58.7699L168.884 61.5366C167.862 62.1341 167.015 62.9891 166.427 64.0162C165.839 65.0433 165.531 66.2066 165.533 67.39C165.543 67.8765 165.677 68.3524 165.924 68.7715C166.172 69.1906 166.523 69.5388 166.944 69.7821C167.366 70.0254 167.843 70.1558 168.329 70.1604C168.816 70.165 169.295 70.0438 169.721 69.8086L213.453 44.5504C214.609 43.8815 215.57 42.9215 216.241 41.7658C216.911 40.6101 217.267 39.2989 217.273 37.9629C217.279 37.5271 217.169 37.0976 216.956 36.7178C216.742 36.3379 216.432 36.0212 216.057 35.7997C215.681 35.5781 215.254 35.4596 214.818 35.4561C214.383 35.4526 213.954 35.5642 213.575 35.7796Z" fill="#E6E6E6"/>
<path d="M140.943 45.1904L134.987 48.5594V46.4608C134.987 46.3102 134.987 46.1597 134.987 46.0185C134.987 45.8773 134.987 45.7268 134.987 45.595C134.77 42.7718 132.671 41.7555 130.102 43.2329C128.94 43.9516 127.947 44.915 127.194 46.0561C126.611 42.2919 123.534 40.9273 119.817 43.073C117.63 44.488 115.809 46.3991 114.501 48.6508C113.193 50.9026 112.434 53.4314 112.288 56.0314V60.5203C112.288 60.8747 112.195 61.2229 112.019 61.5301C111.842 61.8373 111.587 62.0927 111.281 62.2707L107.799 64.3128C107.043 64.757 106.416 65.3909 105.98 66.1518C105.545 66.9128 105.315 67.7743 105.315 68.6511C105.316 69.0141 105.412 69.3705 105.594 69.6846C105.776 69.9986 106.037 70.2593 106.352 70.4404C106.667 70.6215 107.023 70.7168 107.386 70.7165C107.749 70.7163 108.106 70.6207 108.42 70.4392L140.774 51.7496C141.633 51.2537 142.346 50.5404 142.842 49.6813C143.337 48.8222 143.598 47.8478 143.597 46.856C143.589 46.5461 143.504 46.2431 143.35 45.9738C143.197 45.7045 142.979 45.4774 142.716 45.3126C142.454 45.1478 142.155 45.0504 141.845 45.029C141.536 45.0077 141.226 45.0631 140.943 45.1904Z" fill="#E6E6E6"/>
</g>
<defs>
<clipPath id="clip0">
<rect width="538" height="416" fill="white"/>
</clipPath>
</defs>
</svg>
