<svg width="540" height="464" viewBox="0 0 540 464" fill="none" xmlns="http://www.w3.org/2000/svg">
<path d="M270.118 457C405.493 457 515.237 393.651 515.237 315.506C515.237 237.362 405.493 174.013 270.118 174.013C134.743 174.013 25 237.362 25 315.506C25 393.651 134.743 457 270.118 457Z" fill="#F5F5F5"/>
<path d="M53.1678 287.474L320.555 441.846C322.165 442.66 323.944 443.085 325.748 443.085C327.552 443.085 329.331 442.66 330.941 441.846L476.496 357.81C479.362 356.148 479.362 353.469 476.496 351.807L209.109 197.434C207.499 196.62 205.72 196.196 203.916 196.196C202.111 196.196 200.332 196.62 198.722 197.434L53.1678 281.47C50.2908 283.132 50.2908 285.812 53.1678 287.474Z" fill="#E0E0E0"/>
<path d="M73.2551 270.783L84.0154 265.932C84.0154 265.932 88.7101 244.401 88.762 227.368C88.8243 203.479 76.4022 173.359 57.4575 178.209C38.5127 183.059 62.713 209.887 66.6079 230.598C70.5027 251.308 73.2551 270.783 73.2551 270.783Z" fill="#0F7CE3"/>
<path opacity="0.15" d="M73.2551 270.783L84.0154 265.932C84.0154 265.932 88.7101 244.401 88.762 227.368C88.8243 203.479 76.4022 173.359 57.4575 178.209C38.5127 183.059 62.713 209.887 66.6079 230.598C70.5027 251.308 73.2551 270.783 73.2551 270.783Z" fill="black"/>
<path d="M78.8533 268.851C78.7725 268.841 78.6945 268.814 78.624 268.774C78.5535 268.733 78.4917 268.679 78.4424 268.614C78.3931 268.549 78.3572 268.475 78.3368 268.396C78.3164 268.318 78.3119 268.236 78.3236 268.155C85.4382 215.662 61.8923 186.518 61.7054 186.227C61.6527 186.165 61.6129 186.093 61.5885 186.015C61.5641 185.937 61.5556 185.855 61.5633 185.774C61.571 185.692 61.595 185.613 61.6336 185.541C61.6723 185.47 61.7249 185.406 61.7884 185.355C61.9155 185.251 62.0784 185.201 62.2418 185.217C62.4051 185.233 62.5557 185.312 62.6609 185.438C62.8998 185.729 86.7884 215.299 79.6011 268.321C79.5901 268.407 79.5614 268.489 79.5171 268.562C79.4727 268.636 79.4135 268.7 79.3432 268.75C79.273 268.8 79.1932 268.834 79.1088 268.852C79.0245 268.869 78.9375 268.869 78.8533 268.851Z" fill="white"/>
<path d="M66.5455 273.795L74.1483 270.336C74.1483 270.336 76.8903 255.515 71.3959 236.611C66.6182 220.159 52.1084 205.452 43.872 207.395C35.6356 209.337 35.2513 215.018 38.5438 221.333C41.8363 227.648 64.0112 244.152 66.5455 273.795Z" fill="#0F7CE3"/>
<path opacity="0.2" d="M66.5455 273.795L74.1483 270.336C74.1483 270.336 76.8903 255.515 71.3959 236.611C66.6182 220.159 52.1084 205.452 43.872 207.395C35.6356 209.337 35.2513 215.018 38.5438 221.333C41.8363 227.648 64.0112 244.152 66.5455 273.795Z" fill="white"/>
<path d="M70.4716 272.59C70.3098 272.572 70.1617 272.491 70.0588 272.365C69.9559 272.238 69.9065 272.077 69.9211 271.915C73.4317 238.616 44.4329 212.951 44.1421 212.712C44.0195 212.605 43.9447 212.453 43.9339 212.291C43.9232 212.128 43.9776 211.968 44.085 211.845C44.1924 211.723 44.3442 211.648 44.5068 211.637C44.6694 211.626 44.8297 211.681 44.9523 211.788C45.2535 212.048 74.73 238.138 71.1571 272.029C71.1493 272.111 71.1253 272.191 71.0866 272.263C71.0478 272.336 70.9951 272.4 70.9313 272.452C70.8676 272.505 70.7941 272.544 70.7152 272.567C70.6363 272.591 70.5535 272.599 70.4716 272.59Z" fill="white"/>
<path d="M425.031 88.3149C425.04 87.7492 424.963 87.1853 424.803 86.6427L430.879 79.6839L423.089 75.3112C422.352 74.8023 421.303 74.7399 419.88 75.5709L406.378 83.4126L404.56 84.4512C404.879 82.8849 405.094 81.2992 405.204 79.7046C405.256 79.0399 405.266 78.4063 405.266 77.7728L405.515 77.8974L410.075 72.5692L402.285 68.1861C399.668 66.5866 395.243 69.7441 395.243 71.0216C395.243 72.5588 395.908 80.6082 395.243 82.914C394.579 85.2198 387.62 101.121 387.62 101.121V102.16V134.254L413.014 119.568C416.348 117.636 418.665 113.523 418.665 110.739C418.702 109.493 418.472 108.253 417.989 107.104C420.15 105.858 422.3 101.35 422.3 99.4387C422.3 96.5513 421.313 95.8035 421.313 95.8035C423.493 93.8962 424.829 91.2041 425.031 88.3149Z" fill="#0F7CE3"/>
<path opacity="0.1" d="M425.031 88.3149C425.04 87.7492 424.963 87.1853 424.803 86.6427L430.879 79.6839L423.089 75.3112C422.352 74.8023 421.303 74.7399 419.88 75.5709L406.378 83.4126L404.56 84.4512C404.879 82.8849 405.094 81.2992 405.204 79.7046C405.256 79.0399 405.266 78.4063 405.266 77.7728L405.515 77.8974L410.075 72.5692L402.285 68.1861C399.668 66.5866 395.243 69.7441 395.243 71.0216C395.243 72.5588 395.908 80.6082 395.243 82.914C394.579 85.2198 387.62 101.121 387.62 101.121V102.16V134.254L413.014 119.568C416.348 117.636 418.665 113.523 418.665 110.739C418.702 109.493 418.472 108.253 417.989 107.104C420.15 105.858 422.3 101.35 422.3 99.4387C422.3 96.5513 421.313 95.8035 421.313 95.8035C423.493 93.8962 424.829 91.2041 425.031 88.3149Z" fill="black"/>
<path d="M395.648 138.813L387.609 134.171L387.589 101.017L395.617 105.66L395.648 138.813Z" fill="#E0E0E0"/>
<path d="M395.648 138.813L387.609 134.171L387.589 101.017L395.617 105.66L395.648 138.813Z" fill="#0F7CE3"/>
<path opacity="0.3" d="M395.648 138.813L387.609 134.171L387.589 101.017L395.617 105.66L395.648 138.813Z" fill="black"/>
<path d="M430.619 104.622C430.619 108.901 428.178 110.407 426.018 111.653C426.488 112.813 426.711 114.058 426.672 115.309C426.672 118.072 424.367 122.206 421.043 124.117L395.648 138.803V107.062V105.66C395.648 105.66 402.628 89.7586 403.282 87.4425C403.937 85.1263 403.282 77.0561 403.282 75.5708C403.282 74.0856 409.587 69.8168 411.591 74.2206C413.596 78.6244 413.762 83.1114 412.63 88.9693L427.981 80.0889C431.222 78.2194 432.551 80.8991 432.551 82.9971C432.551 85.978 431.159 88.9173 429.31 90.0391C429.31 90.0391 432.842 90.2156 432.842 94.3286C432.811 95.629 432.489 96.906 431.9 98.0654C431.31 99.2248 430.468 100.237 429.435 101.028C429.435 101.028 430.619 101.755 430.619 104.622Z" fill="#0F7CE3"/>
<path d="M380.9 151.796L391.992 145.398L391.961 106.813L380.9 113.211V151.796Z" fill="#37474F"/>
<path d="M380.9 151.796L372.861 147.164V108.579L380.9 113.211V151.796Z" fill="#263238"/>
<path d="M383.932 102.181L391.961 106.813L380.9 113.211L372.861 108.579L383.932 102.181Z" fill="#455A64"/>
<path d="M403.241 87.4425C402.586 89.7586 395.607 105.66 395.607 105.66L387.589 101.142C387.589 101.142 394.547 85.2302 395.212 82.9348C395.877 80.6394 395.212 72.5484 395.212 71.0424L403.251 75.5708C403.241 77.1496 403.916 85.1471 403.241 87.4425Z" fill="#0F7CE3"/>
<path opacity="0.2" d="M403.241 87.4425C402.586 89.7586 395.607 105.66 395.607 105.66L387.589 101.142C387.589 101.142 394.547 85.2302 395.212 82.9348C395.877 80.6394 395.212 72.5484 395.212 71.0424L403.251 75.5708C403.241 77.1496 403.916 85.1471 403.241 87.4425Z" fill="black"/>
<path d="M497.487 121.137L489.843 116.369C487.018 114.562 482.718 114.749 477.836 117.408C471.085 121.012 465.123 130.11 462.548 137.827L457.074 134.421C454.301 132.416 450.406 131.99 446.012 134.338C445.472 134.628 444.974 134.95 444.392 135.283L443.551 135.854C443.312 136.02 443.063 136.176 442.824 136.353C442.585 136.529 442.076 136.924 441.712 137.215L441.297 137.537C440.871 137.89 440.445 138.264 440.03 138.648L439.843 138.825C439.376 139.25 438.929 139.697 438.482 140.154C437.112 141.568 435.861 143.093 434.743 144.714C431.627 149.18 429.654 154.165 429.55 158.59C429.28 166.826 434.193 172.248 440.331 175.81L446.366 179.56C449.945 181.853 453.844 183.603 457.936 184.753L467.98 187.775L478.543 173.743C488.649 160.345 500.78 141.774 501.185 129.352C501.32 125.395 499.907 122.58 497.487 121.137Z" fill="#0F7CE3"/>
<path d="M446.24 179.538L440.289 175.82C434.161 172.258 429.238 166.836 429.508 158.599C429.653 154.185 431.658 149.179 434.753 144.723L442.595 149.595C439.479 154.05 437.495 159.056 437.35 163.471C437.111 170.866 441.016 175.986 446.24 179.538Z" fill="#0F7CE3"/>
<g opacity="0.3">
<path opacity="0.3" d="M446.24 179.538L440.289 175.82C434.161 172.258 429.238 166.836 429.508 158.599C429.653 154.185 431.658 149.179 434.753 144.723L442.595 149.595C439.479 154.05 437.495 159.056 437.35 163.471C437.111 170.866 441.016 175.986 446.24 179.538Z" fill="black"/>
</g>
<path d="M497.456 121.084C494.62 119.443 490.414 119.703 485.678 122.237C477.535 126.578 470.513 138.917 469.246 147.164C468.478 139.987 462.038 134.835 453.895 139.198C449.375 141.738 445.507 145.294 442.595 149.584L434.753 144.713L435.148 144.152C435.262 143.996 435.366 143.851 435.491 143.695L436.363 142.553C437.208 141.51 438.109 140.515 439.064 139.572C439.292 139.322 439.541 139.094 439.78 138.865L440.299 138.388C442.051 136.803 443.982 135.43 446.054 134.295C447.922 133.238 450.035 132.69 452.182 132.706C453.957 132.754 455.676 133.337 457.115 134.378L462.547 137.723C465.113 130.016 471.085 120.928 477.846 117.324C482.728 114.707 487.017 114.52 489.842 116.285L497.456 121.084Z" fill="#0F7CE3"/>
<path opacity="0.1" d="M497.456 121.084C494.62 119.443 490.414 119.703 485.678 122.237C477.535 126.578 470.513 138.917 469.246 147.164C468.478 139.987 462.038 134.835 453.895 139.198C449.375 141.738 445.507 145.294 442.595 149.584L434.753 144.713L435.148 144.152C435.262 143.996 435.366 143.851 435.491 143.695L436.363 142.553C437.208 141.51 438.109 140.515 439.064 139.572C439.292 139.322 439.541 139.094 439.78 138.865L440.299 138.388C442.051 136.803 443.982 135.43 446.054 134.295C447.922 133.238 450.035 132.69 452.182 132.706C453.957 132.754 455.676 133.337 457.115 134.378L462.547 137.723C465.113 130.016 471.085 120.928 477.846 117.324C482.728 114.707 487.017 114.52 489.842 116.285L497.456 121.084Z" fill="black"/>
<path d="M373.411 41.1192L365.725 36.3415L362.776 42.2825L366.93 46.8213C366.93 46.8213 367.179 47.7146 369.205 46.1462C370.832 44.6726 372.248 42.9809 373.411 41.1192Z" fill="#0F7CE3"/>
<path opacity="0.3" d="M373.411 41.1192L365.725 36.3415L362.776 42.2825L366.93 46.8213C366.93 46.8213 367.179 47.7146 369.205 46.1462C370.832 44.6726 372.248 42.9809 373.411 41.1192Z" fill="black"/>
<path d="M367.605 51.6198C367.605 60.9676 364.915 72.3926 359.929 82.9036C354.238 94.931 345.575 105.909 334.587 111.788C328.293 115.153 322.528 115.86 317.75 114.364L310.064 109.586C315.05 107.685 320.108 103.572 324.47 97.9119L319.755 94.9726C318.13 93.855 317.01 92.1423 316.639 90.2052C317.78 89.8645 318.859 89.3457 319.838 88.668L316.722 86.7154C314.364 85.2509 313.035 81.9273 313.253 77.5858C314.961 77.854 316.71 77.551 318.228 76.7237C317.745 76.5514 317.287 76.3138 316.868 76.0174C313.232 73.4312 312.62 66.3997 315.424 59.1292L323.089 63.8965C327.327 65.039 332.437 64.6236 337.838 62.0893C336.519 53.8529 342.075 42.2721 349.263 38.4292C352.462 36.7258 355.297 36.9439 357.229 38.6992C359.9 36.5681 362.31 34.1275 364.406 31.4287L372.092 36.2065C371.107 40.0762 369.34 43.7029 366.899 46.8629C369.262 45.2178 371.426 43.3043 373.349 41.1608C371.796 44.834 369.871 48.3387 367.605 51.6198Z" fill="#0F7CE3"/>
<path d="M367.605 51.6198C367.605 60.9676 364.915 72.3926 359.929 82.9036C354.238 94.931 345.575 105.909 334.587 111.788C328.293 115.153 322.528 115.86 317.75 114.364C323.619 112.12 329.58 106.834 334.369 99.5425C329.508 102.015 325.54 100.02 324.315 94.9829C326.185 94.3882 327.902 93.3881 329.342 92.054C324.045 93.4977 320.555 89.1666 320.897 82.3635C322.609 82.6317 324.361 82.3287 325.883 81.5014C325.494 81.3615 325.122 81.1804 324.772 80.9613C320.918 78.5309 320.202 71.3332 323.079 63.9069C323.899 67.781 331.086 70.7723 337.298 70.6788C343.301 70.5853 345.368 67.0955 345.482 66.8774C344.163 58.641 349.73 47.0602 356.907 43.2173C360.096 41.5139 362.931 41.732 364.873 43.4769C367.548 41.349 369.957 38.9081 372.05 36.2065C371.066 40.0761 369.298 43.7029 366.857 46.8629C369.22 45.2178 371.385 43.3043 373.307 41.1607C371.768 44.8323 369.857 48.3369 367.605 51.6198Z" fill="#0F7CE3"/>
<path opacity="0.1" d="M372.102 36.1649C370.008 38.8623 367.603 41.3028 364.936 43.4354C364.438 42.9799 363.856 42.627 363.222 42.3968L357.239 38.72C359.911 36.5888 362.32 34.1483 364.416 31.4495L372.102 36.1649Z" fill="black"/>
<path opacity="0.3" d="M329.383 92.054C327.943 93.3881 326.227 94.3882 324.356 94.9829L316.681 90.2052C317.821 89.8645 318.901 89.3457 319.88 88.668L324.232 91.3685L324.367 91.462L324.564 91.5866C325.294 91.9872 326.097 92.2352 326.926 92.3156C327.754 92.3959 328.59 92.3069 329.383 92.054Z" fill="black"/>
<path opacity="0.1" d="M345.534 66.8671C345.305 67.2721 343.187 70.5438 337.37 70.6373C331.138 70.7308 323.972 67.7395 323.151 63.8654C324.468 64.217 325.82 64.419 327.181 64.4678C330.894 64.5226 334.568 63.6968 337.9 62.0582L345.534 66.8671Z" fill="black"/>
<path opacity="0.2" d="M323.089 63.9069L315.414 59.1396C312.609 66.41 313.222 73.4416 316.857 76.0278L317.377 76.3498L318.083 76.7964L324.792 80.951C321.012 78.5413 320.243 71.3436 323.089 63.9069Z" fill="black"/>
<path opacity="0.3" d="M325.924 81.5015C324.402 82.3288 322.65 82.6317 320.939 82.3635L313.263 77.5858C314.921 77.8467 316.618 77.5662 318.103 76.786L324.813 80.9406C325.165 81.163 325.537 81.3508 325.924 81.5015Z" fill="black"/>
<path opacity="0.3" d="M334.41 99.5426C329.581 106.813 323.619 112.12 317.792 114.364L310.106 109.586C315.092 107.675 320.15 103.572 324.512 97.9119L327.503 99.7711C329.321 100.914 331.71 100.914 334.41 99.5426Z" fill="black"/>
<path opacity="0.2" d="M363.274 42.4487C361.529 41.732 359.338 41.9398 356.959 43.2069C349.782 47.0498 344.215 58.6307 345.534 66.867L337.859 62.0893C336.539 53.8529 342.096 42.2721 349.284 38.4292C352.483 36.7258 355.318 36.9439 357.25 38.6992L363.274 42.4487Z" fill="black"/>
<path opacity="0.2" d="M324.231 91.3685L319.88 88.668L316.764 86.7154C314.406 85.2509 313.076 81.9273 313.295 77.5858L320.97 82.3635C320.731 86.5804 321.988 89.8417 324.231 91.3685Z" fill="black"/>
<path opacity="0.2" d="M327.244 99.6257L324.47 97.9223L319.755 94.9933C318.126 93.875 317.006 92.1573 316.639 90.2156L324.315 94.9933C324.681 96.8479 325.725 98.4994 327.244 99.6257Z" fill="black"/>
<path d="M469.983 234.503L471.126 232.654L465.32 228.843C460.345 225.311 453.136 225.467 445.129 230.12C430.193 238.803 418.124 259.856 418.176 277.129C418.176 285.313 420.939 291.182 425.394 294.173L431.128 297.953L432.083 296.385C435.999 296.655 440.507 295.492 445.305 292.698C460.251 284.015 472.31 262.972 472.31 245.689C472.385 241.833 471.59 238.009 469.983 234.503Z" fill="#FACF38"/>
<path opacity="0.2" d="M469.983 234.503L471.126 232.654L465.32 228.843C460.345 225.311 453.136 225.467 445.129 230.12C430.193 238.803 418.124 259.856 418.176 277.129C418.176 285.313 420.939 291.182 425.394 294.173L431.128 297.953L432.083 296.385C435.999 296.655 440.507 295.492 445.305 292.698C460.251 284.015 472.31 262.972 472.31 245.689C472.385 241.833 471.59 238.009 469.983 234.503Z" fill="black"/>
<path d="M478.178 249.563C478.23 266.836 466.161 287.889 451.173 296.572C436.186 305.255 424.086 298.286 424.044 280.993C424.003 263.699 436.061 242.667 450.997 233.984C465.932 225.301 478.126 232.301 478.178 249.563Z" fill="#FACF38"/>
<path d="M473.691 252.201C473.691 266.597 463.679 284.14 451.236 291.379C438.793 298.618 428.656 292.802 428.614 278.406C428.573 264.011 438.627 246.468 451.08 239.229C463.533 231.99 473.629 237.796 473.691 252.201Z" fill="white"/>
<path d="M469.142 254.808C469.142 266.327 461.124 280.359 451.173 286.155C441.223 291.95 433.132 287.307 433.101 275.768C433.07 264.229 441.109 250.218 451.07 244.422C461.03 238.626 469.121 243.332 469.142 254.808Z" fill="#FACF38"/>
<path d="M464.655 257.436C464.655 266.078 458.641 276.599 451.153 280.951C443.664 285.303 437.65 281.803 437.588 273.172C437.526 264.54 443.591 253.998 451.09 249.657C458.589 245.315 464.624 248.805 464.655 257.436Z" fill="white"/>
<path d="M451.101 254.871C446.115 257.769 442.096 264.79 442.116 270.544C442.137 276.298 446.177 278.635 451.163 275.737C456.148 272.839 460.168 265.818 460.147 260.064C460.126 254.31 456.086 251.973 451.101 254.871Z" fill="#FACF38"/>
<path d="M451.111 260.085C449.801 260.949 448.712 262.109 447.933 263.471C447.154 264.833 446.705 266.359 446.624 267.926C446.624 270.803 448.65 271.967 451.142 270.523C452.455 269.661 453.546 268.502 454.328 267.139C455.109 265.777 455.558 264.25 455.64 262.681C455.629 259.804 453.604 258.641 451.111 260.085Z" fill="white"/>
<path d="M496.261 288.564L490.236 286.061L486.497 285.884V286.56L492.21 289.862L496.261 289.239V288.564Z" fill="#FACF38"/>
<path d="M486.497 285.884L490.236 286.061L496.261 288.564L492.21 289.187L486.497 285.884Z" fill="#FACF38"/>
<path opacity="0.2" d="M492.21 289.862V289.187L496.261 288.564V289.239L492.21 289.862Z" fill="black"/>
<path opacity="0.1" d="M492.21 289.187L486.497 285.884V286.56L492.21 289.862V289.187Z" fill="black"/>
<path d="M460.833 267.833L451.578 265.299V266.587L455.65 272.112L457.883 269.973L460.833 269.121V267.833Z" fill="#37474F"/>
<path d="M451.578 265.299L455.65 270.824L457.883 268.695L460.833 267.833L451.578 265.299Z" fill="#455A64"/>
<path d="M455.65 270.824V272.112L457.883 269.973V268.695L455.65 270.824Z" fill="#263238"/>
<path d="M457.883 268.695L460.833 267.833V269.121L457.883 269.973V268.695Z" fill="#263238"/>
<path d="M458.278 268.685C458.212 268.644 458.137 268.623 458.06 268.623C457.983 268.623 457.907 268.644 457.841 268.685C457.666 268.799 457.518 268.952 457.41 269.132C457.302 269.312 457.236 269.514 457.218 269.723C457.209 269.801 457.222 269.881 457.255 269.952C457.288 270.024 457.34 270.085 457.405 270.128L495.087 291.94L495.939 290.403L458.278 268.685Z" fill="#455A64"/>
<path d="M457.353 269.297C457.271 269.462 457.225 269.643 457.218 269.827C457.209 269.905 457.222 269.985 457.255 270.056C457.288 270.128 457.34 270.189 457.405 270.232L495.087 292.044L495.471 291.348L457.353 269.297Z" fill="#37474F"/>
<path d="M495.502 290.496C495.328 290.611 495.182 290.764 495.076 290.944C494.969 291.124 494.906 291.326 494.89 291.535C494.89 291.929 495.16 292.096 495.502 291.898C495.678 291.784 495.825 291.631 495.931 291.451C496.038 291.271 496.101 291.068 496.115 290.86C496.126 290.465 495.856 290.299 495.502 290.496Z" fill="#263238"/>
<path d="M491.805 290.091V289.416L486.103 286.113V286.798L486.404 288.948L490.725 292.438L491.805 290.101V290.091Z" fill="#FACF38"/>
<path opacity="0.2" d="M486.103 286.113L486.414 288.273L486.404 288.948L486.103 286.798V286.113Z" fill="black"/>
<path opacity="0.2" d="M491.805 289.416L490.725 291.753V292.428L491.805 290.091V289.416Z" fill="black"/>
<path opacity="0.1" d="M486.415 288.273L490.725 291.753V292.428L486.404 288.948L486.415 288.273Z" fill="black"/>
<path d="M496.011 240.683L489.987 243.186L486.258 243.363V242.688L491.961 239.385L496.011 240.008V240.683Z" fill="#FACF38"/>
<path d="M486.258 243.363L489.987 243.186L496.011 240.683L491.961 240.06L486.258 243.363Z" fill="#FACF38"/>
<path opacity="0.2" d="M491.961 239.385V240.06L496.011 240.683V240.008L491.961 239.385Z" fill="black"/>
<path opacity="0.1" d="M491.961 240.06L486.258 243.363V242.688L491.961 239.385V240.06Z" fill="black"/>
<path d="M460.583 261.414L451.34 263.948V262.661L455.401 257.145L457.634 259.275L460.583 260.126V261.414Z" fill="#37474F"/>
<path d="M451.34 263.948L455.401 258.423L457.634 260.562L460.583 261.414L451.34 263.948Z" fill="#455A64"/>
<path d="M455.401 258.423V257.145L457.634 259.275V260.563L455.401 258.423Z" fill="#263238"/>
<path d="M457.634 260.562L460.584 261.414V260.126L457.634 259.275V260.562Z" fill="#263238"/>
<path d="M458.028 260.563C457.964 260.605 457.888 260.628 457.81 260.628C457.733 260.628 457.657 260.605 457.592 260.563C457.416 260.448 457.269 260.295 457.161 260.115C457.053 259.935 456.987 259.733 456.969 259.524C456.961 259.446 456.974 259.367 457.007 259.296C457.04 259.224 457.091 259.163 457.156 259.119L494.838 237.307L495.689 238.834L458.028 260.563Z" fill="#455A64"/>
<path d="M457.073 259.95C456.982 259.788 456.932 259.606 456.927 259.42C456.919 259.342 456.932 259.263 456.965 259.192C456.998 259.12 457.05 259.059 457.114 259.015L494.796 237.204L495.18 237.889L457.073 259.95Z" fill="#37474F"/>
<path d="M495.264 238.751C495.089 238.637 494.942 238.484 494.836 238.303C494.73 238.123 494.666 237.921 494.651 237.712C494.651 237.318 494.921 237.152 495.264 237.349C495.439 237.463 495.585 237.617 495.691 237.797C495.798 237.977 495.861 238.179 495.876 238.388C495.876 238.782 495.606 238.948 495.264 238.751Z" fill="#263238"/>
<path d="M491.556 239.156V239.831L485.853 243.134V242.449L486.155 240.299L490.475 236.809L491.556 239.156Z" fill="#FACF38"/>
<path opacity="0.2" d="M485.853 243.134L486.165 240.974L486.155 240.299L485.853 242.449V243.134Z" fill="black"/>
<path opacity="0.2" d="M491.556 239.831L490.476 237.494V236.819L491.556 239.156V239.831Z" fill="black"/>
<path opacity="0.1" d="M486.165 240.974L490.476 237.494V236.819L486.155 240.299L486.165 240.974Z" fill="black"/>
<path d="M388.243 259.15L383.766 247.673L387.37 237.287V230.868L376.34 237.235V243.602L381.086 254.871C381.162 254.996 381.274 255.094 381.408 255.151L388.243 259.15Z" fill="#FACF38"/>
<path opacity="0.2" d="M388.243 259.15L383.766 247.673L387.37 237.287V230.868L376.34 237.235V243.602L381.086 254.871C381.162 254.996 381.274 255.094 381.408 255.151L388.243 259.15Z" fill="black"/>
<path d="M414.863 210.407C414.804 209.26 414.473 208.143 413.899 207.148C413.325 206.154 412.524 205.309 411.56 204.684L410.335 203.863C409.31 203.346 408.179 203.076 407.032 203.076C405.884 203.076 404.753 203.346 403.729 203.863L358.787 229.829C357.824 230.454 357.022 231.299 356.448 232.294C355.874 233.289 355.544 234.405 355.484 235.552V250.737C355.544 251.884 355.874 253.001 356.448 253.995C357.022 254.99 357.824 255.835 358.787 256.46L360.054 257.239C361.077 257.76 362.209 258.032 363.357 258.032C364.505 258.032 365.637 257.76 366.66 257.239L383.278 247.631L387.993 258.911C388.061 259.028 388.16 259.123 388.28 259.186C388.399 259.248 388.534 259.275 388.669 259.263C388.803 259.251 388.931 259.2 389.038 259.118C389.145 259.035 389.226 258.924 389.271 258.797L394.277 241.254L411.56 231.273C412.524 230.648 413.325 229.803 413.899 228.808C414.473 227.814 414.804 226.697 414.863 225.55V210.407Z" fill="#FACF38"/>
<path opacity="0.2" d="M355.442 250.758C355.502 251.905 355.832 253.021 356.406 254.016C356.98 255.011 357.782 255.855 358.745 256.481L360.012 257.26C360.944 257.73 361.964 257.997 363.006 258.043C364.048 258.09 365.088 257.915 366.057 257.53C364.499 258.111 363.315 257.239 363.315 255.349V240.216C363.352 239.064 363.684 237.94 364.281 236.954L356.408 232.363C355.813 233.347 355.481 234.466 355.442 235.614V250.758Z" fill="black"/>
<path opacity="0.5" d="M414.759 209.472C414.375 208.07 413.087 207.623 411.56 208.496L366.618 234.462C365.636 235.059 364.833 235.909 364.292 236.923L356.419 232.343C356.969 231.333 357.77 230.481 358.745 229.871L403.677 203.905C404.703 203.387 405.836 203.117 406.985 203.117C408.134 203.117 409.267 203.387 410.293 203.905L411.56 204.684C412.387 205.227 413.097 205.93 413.646 206.753C414.196 207.575 414.574 208.5 414.759 209.472Z" fill="white"/>
<path d="M369.454 250.28C369.06 250.435 368.622 250.435 368.228 250.28C368.154 250.225 368.094 250.153 368.054 250.07C368.014 249.986 367.995 249.894 368 249.802C368.014 249.405 368.102 249.014 368.259 248.649C368.359 248.314 368.562 248.019 368.841 247.808C368.981 247.744 369.134 247.716 369.288 247.725H369.734C370.158 247.704 370.571 247.583 370.939 247.372C371.302 247.163 371.622 246.888 371.884 246.562C372.151 246.249 372.295 245.851 372.289 245.44C372.303 245.194 372.23 244.951 372.081 244.754C371.941 244.618 371.757 244.534 371.562 244.516C371.268 244.492 370.973 244.492 370.679 244.516C369.999 244.586 369.316 244.417 368.747 244.038C368.519 243.778 368.347 243.472 368.245 243.141C368.143 242.809 368.113 242.46 368.155 242.116C368.179 241.016 368.541 239.949 369.194 239.063C369.888 238.061 370.801 237.23 371.863 236.632C372.261 236.396 372.687 236.211 373.13 236.082C373.462 235.958 373.816 235.908 374.169 235.936C374.387 235.936 374.491 236.103 374.491 236.362C374.473 236.717 374.403 237.067 374.283 237.401C374.215 237.717 374.039 238 373.785 238.201C373.623 238.275 373.452 238.328 373.276 238.356C372.876 238.423 372.489 238.556 372.133 238.751C371.747 238.948 371.418 239.241 371.178 239.603C371.017 239.851 370.924 240.138 370.908 240.434C370.908 240.87 371.022 241.13 371.251 241.233C371.586 241.337 371.938 241.38 372.289 241.358H372.694C373.318 241.302 373.939 241.48 374.439 241.857C374.644 242.109 374.796 242.4 374.887 242.712C374.978 243.024 375.006 243.351 374.969 243.674C374.963 244.387 374.822 245.092 374.553 245.751C374.248 246.511 373.816 247.213 373.276 247.829C372.666 248.52 371.947 249.106 371.147 249.563C370.615 249.874 370.046 250.115 369.454 250.28Z" fill="white"/>
<path d="M376.194 245.97V234.752C376.194 234.378 376.537 233.994 377.233 233.61L377.97 233.184C378.635 232.8 379.009 232.789 379.009 233.184V237.515L382.011 235.781V231.449C382.011 231.076 382.353 230.702 383.049 230.307L383.766 229.892C384.441 229.497 384.805 229.497 384.805 229.892V241.119C384.805 241.493 384.462 241.867 383.766 242.262L383.049 242.677C382.374 243.072 382.011 243.072 382.011 242.677V238.107L379.009 239.842V244.37C379.009 244.744 378.677 245.128 377.97 245.513L377.233 245.938C376.537 246.333 376.194 246.344 376.194 245.97Z" fill="white"/>
<path d="M385.75 240.631C385.755 240.515 385.772 240.4 385.802 240.288L388.502 227.575C388.585 227.201 388.938 226.838 389.541 226.474L390.683 225.81C391.327 225.446 391.722 225.394 391.722 225.675L394.422 235.261C394.422 235.417 394.422 235.511 394.422 235.562C394.422 235.822 394.163 236.092 393.664 236.383L392.74 236.923C392.179 237.245 391.867 237.297 391.805 237.089L391.348 235.209L388.689 236.747L388.211 239.156C388.211 239.437 387.889 239.717 387.391 240.008L386.477 240.527C386.03 240.859 385.75 240.891 385.75 240.631ZM391.171 233.246L390.382 229.985C390.299 229.611 390.226 229.206 390.164 228.77L390.081 228.822C390.019 229.32 389.956 229.808 389.873 230.276L389.094 234.43L391.171 233.246Z" fill="white"/>
<path d="M395.513 234.815V223.774C395.506 223.554 395.564 223.338 395.679 223.151C395.819 222.951 396.004 222.787 396.219 222.673L399.138 220.98C399.888 220.437 400.813 220.189 401.734 220.284C402.389 220.43 402.721 221.136 402.721 222.361C402.675 223.83 402.078 225.228 401.049 226.277V226.35C401.181 226.349 401.312 226.375 401.433 226.427C401.555 226.479 401.664 226.555 401.755 226.651C401.97 226.87 402.13 227.137 402.222 227.43L403.261 230.193L403.313 230.38C403.313 230.691 402.95 231.055 402.222 231.47L401.61 231.834C400.997 232.187 400.644 232.228 400.571 231.969L399.647 229.175C399.614 229.095 399.565 229.023 399.502 228.964C399.439 228.905 399.365 228.86 399.283 228.832C399.051 228.836 398.826 228.912 398.639 229.05L398.224 229.289V233.246C398.224 233.62 397.871 234.015 397.185 234.42L396.583 234.763C395.866 235.178 395.513 235.189 395.513 234.815ZM399.19 226.173C399.482 225.988 399.713 225.72 399.854 225.405C400.043 225.006 400.135 224.568 400.124 224.127C400.124 223.639 400.031 223.338 399.854 223.213C399.742 223.152 399.614 223.126 399.487 223.137C399.359 223.148 399.238 223.196 399.138 223.275L398.213 223.815V226.713L399.19 226.173Z" fill="white"/>
<path d="M404.715 229.829C404.611 229.829 404.559 229.621 404.559 229.383V218.56C404.553 218.339 404.606 218.119 404.715 217.926C404.839 217.74 405.007 217.587 405.203 217.48L410.397 214.499C410.573 214.395 410.698 214.385 410.781 214.499C410.886 214.681 410.93 214.892 410.905 215.101V215.641C410.915 215.893 410.872 216.144 410.781 216.379C410.703 216.562 410.568 216.715 410.397 216.815L407.281 218.591V221.136L410.012 219.557C410.189 219.453 410.324 219.453 410.397 219.557C410.501 219.736 410.545 219.943 410.521 220.149V220.689C410.531 220.941 410.489 221.192 410.397 221.427C410.322 221.612 410.186 221.766 410.012 221.863L407.281 223.442V226.277L410.397 224.491C410.573 224.387 410.698 224.387 410.77 224.491C410.865 224.677 410.904 224.885 410.885 225.093V225.633C410.891 225.884 410.853 226.134 410.77 226.371C410.697 226.55 410.565 226.7 410.397 226.796L405.203 229.788C405.13 229.829 405.048 229.854 404.964 229.861C404.88 229.868 404.795 229.858 404.715 229.829Z" fill="white"/>
<path d="M341.784 228.271L337.308 216.794L340.912 206.408V200.041L329.892 206.408V212.764L334.628 224.034C334.703 224.161 334.815 224.263 334.95 224.324L341.784 228.271Z" fill="#FACF38"/>
<path opacity="0.2" d="M341.784 228.271L337.308 216.794L340.912 206.408V200.041L329.892 206.408V212.764L334.628 224.034C334.703 224.161 334.815 224.263 334.95 224.324L341.784 228.271Z" fill="black"/>
<path d="M371.822 177.503C371.762 176.356 371.432 175.239 370.858 174.244C370.284 173.25 369.482 172.405 368.519 171.78L367.252 171.001C366.228 170.483 365.096 170.214 363.949 170.214C362.801 170.214 361.67 170.483 360.646 171.001L308.787 200.945C307.823 201.57 307.022 202.415 306.448 203.409C305.874 204.404 305.543 205.521 305.484 206.668V221.842C305.547 222.99 305.879 224.106 306.453 225.102C307.027 226.098 307.826 226.945 308.787 227.575L310.054 228.344C311.077 228.866 312.209 229.137 313.357 229.137C314.505 229.137 315.637 228.866 316.66 228.344L336.757 216.763L341.493 228.022C341.562 228.139 341.662 228.233 341.782 228.295C341.902 228.357 342.038 228.382 342.172 228.369C342.307 228.356 342.435 228.305 342.541 228.221C342.647 228.137 342.727 228.025 342.771 227.897L347.767 210.407L368.54 198.41C369.503 197.785 370.305 196.941 370.879 195.946C371.453 194.951 371.783 193.835 371.842 192.688L371.822 177.503Z" fill="#FACF38"/>
<path opacity="0.2" d="M305.484 221.842C305.547 222.99 305.879 224.106 306.453 225.102C307.027 226.098 307.826 226.945 308.787 227.575L310.054 228.344C310.985 228.814 312.005 229.081 313.047 229.128C314.089 229.174 315.129 228.999 316.099 228.614C314.541 229.206 313.357 228.323 313.357 226.443V211.258C313.398 210.107 313.731 208.985 314.323 207.997L306.471 203.406C305.879 204.394 305.546 205.516 305.505 206.668L305.484 221.842Z" fill="black"/>
<path opacity="0.5" d="M371.718 176.568C371.334 175.166 370.046 174.719 368.519 175.592L316.66 205.535C315.68 206.14 314.877 206.993 314.333 208.007L306.471 203.417C307.025 202.406 307.83 201.555 308.808 200.945L360.646 171.001C361.672 170.483 362.805 170.213 363.954 170.213C365.103 170.213 366.236 170.483 367.262 171.001L368.529 171.78C369.356 172.322 370.065 173.025 370.613 173.848C371.161 174.671 371.537 175.596 371.718 176.568Z" fill="white"/>
<path d="M318.737 220.409V210.469C318.729 210.269 318.78 210.07 318.883 209.898C318.994 209.73 319.143 209.591 319.319 209.493L323.66 206.99C323.816 206.896 323.93 206.896 324.003 206.99C324.098 207.153 324.138 207.342 324.117 207.53V208.018C324.123 208.245 324.084 208.471 324.003 208.683C323.933 208.844 323.813 208.979 323.66 209.067L321.199 210.49V212.796L323.515 211.456C323.671 211.362 323.785 211.362 323.868 211.456C323.958 211.617 323.994 211.802 323.972 211.985V212.474C323.982 212.7 323.947 212.926 323.868 213.138C323.794 213.303 323.671 213.441 323.515 213.533L321.199 214.873V219.027C321.199 219.36 320.887 219.703 320.285 220.066L319.651 220.43C319.038 220.731 318.737 220.741 318.737 220.409Z" fill="white"/>
<path d="M325.166 211.674C325.166 207.914 326.537 205.234 329.321 203.635C330.661 202.866 331.689 202.731 332.385 203.24C333.081 203.749 333.423 204.975 333.423 206.906C333.479 208.594 333.123 210.269 332.385 211.788C331.68 213.096 330.617 214.177 329.321 214.904C326.485 216.524 325.166 215.444 325.166 211.674ZM330.224 212.017C330.486 211.591 330.662 211.118 330.744 210.625C330.873 209.874 330.932 209.112 330.92 208.35C330.941 207.653 330.882 206.956 330.744 206.273C330.629 205.826 330.453 205.556 330.224 205.484C330.066 205.452 329.903 205.454 329.745 205.489C329.587 205.525 329.439 205.594 329.31 205.691C328.941 205.901 328.625 206.193 328.386 206.543C328.115 206.969 327.934 207.446 327.856 207.945C327.718 208.692 327.655 209.45 327.669 210.209C327.645 210.907 327.708 211.605 327.856 212.287C327.97 212.744 328.147 213.003 328.386 213.076C328.547 213.104 328.711 213.098 328.87 213.061C329.029 213.023 329.179 212.954 329.31 212.858C329.658 212.647 329.953 212.36 330.172 212.017H330.224Z" fill="white"/>
<path d="M335.002 211.331C334.909 211.331 334.857 211.155 334.857 210.936V200.997C334.857 200.664 335.168 200.311 335.781 199.958L336.404 199.584C337.017 199.231 337.318 199.231 337.318 199.584V208.091L339.676 206.73C339.842 206.636 339.967 206.626 340.039 206.73C340.129 206.895 340.165 207.084 340.143 207.27V207.758C340.153 207.984 340.118 208.21 340.039 208.423C339.965 208.591 339.837 208.73 339.676 208.818L335.449 211.258C335.241 211.352 335.095 211.383 335.002 211.331Z" fill="white"/>
<path d="M341.442 207.623C341.348 207.571 341.296 207.447 341.296 207.218V197.278C341.296 196.946 341.608 196.603 342.21 196.24L342.844 195.876C343.457 195.523 343.758 195.513 343.758 195.876V204.383L346.116 203.032C346.282 202.928 346.396 202.918 346.479 203.032C346.569 203.194 346.605 203.379 346.583 203.562V204.05C346.593 204.277 346.558 204.503 346.479 204.715C346.399 204.882 346.273 205.022 346.116 205.12L341.888 207.55C341.681 207.634 341.535 207.665 341.442 207.623Z" fill="white"/>
<path d="M347.123 198.971C347.123 195.204 348.508 192.525 351.278 190.932C352.628 190.153 353.646 190.018 354.342 190.538C355.037 191.057 355.38 192.272 355.38 194.204C355.441 195.892 355.085 197.569 354.342 199.086C353.64 200.396 352.576 201.478 351.278 202.201C348.515 203.815 347.13 202.738 347.123 198.971ZM352.192 199.304C352.455 198.879 352.631 198.406 352.711 197.912C352.836 197.164 352.892 196.406 352.877 195.648C352.902 194.951 352.846 194.254 352.711 193.57C352.597 193.113 352.42 192.854 352.192 192.771C352.031 192.744 351.866 192.749 351.707 192.786C351.549 192.824 351.399 192.893 351.267 192.989C350.902 193.196 350.589 193.483 350.353 193.83C350.084 194.262 349.901 194.742 349.813 195.243C349.675 195.986 349.612 196.741 349.626 197.496C349.602 198.194 349.665 198.892 349.813 199.574C349.938 200.031 350.114 200.301 350.353 200.373C350.512 200.401 350.675 200.396 350.833 200.358C350.99 200.321 351.138 200.252 351.267 200.155C351.63 199.945 351.94 199.654 352.171 199.304H352.192Z" fill="white"/>
<path d="M358.091 198.109C358.068 198.117 358.044 198.12 358.02 198.117C357.997 198.114 357.974 198.106 357.954 198.093C357.934 198.08 357.917 198.063 357.904 198.042C357.892 198.021 357.885 197.998 357.883 197.974L355.806 189.042C355.8 188.997 355.8 188.952 355.806 188.907C355.81 188.872 355.81 188.838 355.806 188.803C355.806 188.533 356.117 188.211 356.741 187.858L357.198 187.588C357.821 187.224 358.164 187.193 358.236 187.494L358.974 192.895L359.119 193.934L359.265 195.087L359.545 193.01C359.581 192.845 359.605 192.679 359.618 192.511L360.584 185.968C360.604 185.827 360.674 185.698 360.781 185.604C360.946 185.448 361.131 185.316 361.331 185.209L362.121 184.752C362.287 184.645 362.469 184.564 362.661 184.513C362.775 184.513 362.837 184.513 362.858 184.659L363.803 190.091L364.157 192.314L364.375 190.496L364.468 189.717L365.226 183.485C365.226 183.132 365.6 182.779 366.265 182.447L366.629 182.228C367.252 181.875 367.563 181.834 367.563 182.104C367.569 182.187 367.569 182.27 367.563 182.353L365.486 193.695C365.486 193.934 365.195 194.194 364.749 194.453L363.71 195.056C363.294 195.295 363.056 195.326 363.004 195.128L361.965 190.184L361.788 188.595L361.518 190.361L360.428 196.593C360.428 196.832 360.147 197.081 359.722 197.33L358.683 197.933C358.499 198.028 358.298 198.088 358.091 198.109Z" fill="white"/>
<path d="M248.651 149.034L292.273 123.847C292.43 123.726 292.621 123.661 292.819 123.661C293.016 123.661 293.208 123.726 293.364 123.847C293.624 124.054 296.085 125.353 296.355 125.55C296.518 125.696 296.645 125.878 296.724 126.082C296.804 126.286 296.834 126.506 296.812 126.724V165.984C296.804 166.548 296.663 167.102 296.402 167.602C296.14 168.102 295.765 168.533 295.306 168.861L287.652 173.286L247.612 150.176C247.85 149.709 248.209 149.315 248.651 149.034Z" fill="#FACF38"/>
<path opacity="0.5" d="M248.651 149.034L292.273 123.847C292.43 123.726 292.621 123.661 292.819 123.661C293.016 123.661 293.208 123.726 293.364 123.847C293.624 124.054 296.085 125.353 296.355 125.55C296.518 125.696 296.645 125.878 296.724 126.082C296.804 126.286 296.834 126.506 296.812 126.724V165.984C296.804 166.548 296.663 167.102 296.402 167.602C296.14 168.102 295.765 168.533 295.306 168.861L287.652 173.286L247.612 150.176C247.85 149.709 248.209 149.315 248.651 149.034Z" fill="white"/>
<path d="M250.675 194.111C250.374 193.913 247.891 192.542 247.621 192.355C247.452 192.211 247.321 192.028 247.238 191.822C247.154 191.616 247.122 191.392 247.144 191.171V151.931C247.159 151.323 247.323 150.727 247.621 150.197L287.661 173.307L251.693 194.079C251.544 194.182 251.369 194.24 251.189 194.246C251.008 194.251 250.83 194.204 250.675 194.111Z" fill="#FACF38"/>
<path opacity="0.2" d="M250.675 194.111C250.374 193.913 247.891 192.542 247.621 192.355C247.452 192.211 247.321 192.028 247.238 191.822C247.154 191.616 247.122 191.392 247.144 191.171V151.931C247.159 151.323 247.323 150.727 247.621 150.197L287.661 173.307L251.693 194.079C251.544 194.182 251.369 194.24 251.189 194.246C251.008 194.251 250.83 194.204 250.675 194.111Z" fill="black"/>
<path d="M251.693 194.048L295.316 168.861C295.774 168.533 296.15 168.102 296.411 167.602C296.673 167.102 296.813 166.548 296.822 165.984V126.724C296.822 125.623 296.147 125.114 295.316 125.592L251.693 150.779C251.234 151.107 250.859 151.538 250.598 152.038C250.336 152.538 250.195 153.092 250.187 153.656V192.916C250.187 194.017 250.862 194.516 251.693 194.048Z" fill="#FACF38"/>
<path opacity="0.2" d="M250.187 192.916V192.137L268.228 162.245L250.384 152.378L250.519 152.056L272.736 161.279C273.203 161.466 273.774 161.123 274.283 160.386L296.437 125.571C296.488 125.618 296.533 125.67 296.572 125.727L278.791 156.117L296.822 165.184V165.953C296.812 166.572 296.659 167.179 296.375 167.729L277.877 157.685L275.249 162.162C274.211 163.938 272.798 164.759 271.759 164.177L269.142 162.723L250.675 194.079C250.509 193.937 250.378 193.758 250.293 193.556C250.208 193.354 250.172 193.135 250.187 192.916Z" fill="black"/>
<path d="M259.482 155.4L303.105 130.214C303.264 130.095 303.457 130.032 303.656 130.032C303.854 130.032 304.047 130.095 304.206 130.214C304.455 130.432 306.927 131.73 307.197 131.917C307.361 132.065 307.487 132.249 307.566 132.455C307.646 132.66 307.676 132.882 307.654 133.101V172.361C307.644 172.925 307.502 173.478 307.24 173.977C306.979 174.477 306.605 174.908 306.148 175.238L298.483 179.653L258.454 156.543C258.691 156.079 259.046 155.685 259.482 155.4Z" fill="#FACF38"/>
<path opacity="0.5" d="M259.482 155.4L303.105 130.214C303.264 130.095 303.457 130.032 303.656 130.032C303.854 130.032 304.047 130.095 304.206 130.214C304.455 130.432 306.927 131.73 307.197 131.917C307.361 132.065 307.487 132.249 307.566 132.455C307.646 132.66 307.676 132.882 307.654 133.101V172.361C307.644 172.925 307.502 173.478 307.24 173.977C306.979 174.477 306.605 174.908 306.148 175.238L298.483 179.653L258.454 156.543C258.691 156.079 259.046 155.685 259.482 155.4Z" fill="white"/>
<path d="M261.497 200.477C261.207 200.29 258.724 198.909 258.454 198.732C258.284 198.586 258.152 198.402 258.069 198.194C257.986 197.986 257.954 197.761 257.976 197.538V158.277C257.994 157.669 258.158 157.074 258.454 156.543L298.483 179.653L262.526 200.425C262.377 200.531 262.201 200.592 262.019 200.602C261.837 200.611 261.656 200.568 261.497 200.477Z" fill="#FACF38"/>
<path opacity="0.2" d="M261.497 200.477C261.207 200.29 258.724 198.909 258.454 198.732C258.284 198.586 258.152 198.402 258.069 198.194C257.986 197.986 257.954 197.761 257.976 197.538V158.277C257.994 157.669 258.158 157.074 258.454 156.543L298.483 179.653L262.526 200.425C262.377 200.531 262.201 200.592 262.019 200.602C261.837 200.611 261.656 200.568 261.497 200.477Z" fill="black"/>
<path d="M262.526 200.425L306.148 175.238C306.605 174.908 306.979 174.477 307.241 173.977C307.502 173.478 307.644 172.925 307.654 172.361V133.101C307.654 131.99 306.979 131.481 306.148 131.958L262.526 157.145C262.069 157.475 261.695 157.907 261.434 158.406C261.172 158.906 261.03 159.459 261.02 160.022V199.283C261.02 200.394 261.695 200.903 262.526 200.425Z" fill="#FACF38"/>
<path opacity="0.2" d="M261.02 199.283V198.514L279.05 168.622L261.248 158.755C261.287 158.645 261.332 158.538 261.383 158.433L283.558 167.677C284.036 167.875 284.597 167.521 285.106 166.784L307.26 131.979C307.312 132.02 307.358 132.069 307.395 132.125L289.624 162.526L307.654 171.582V172.361C307.646 172.978 307.489 173.584 307.197 174.127L288.699 164.083L286.082 168.55C285.043 170.326 283.631 171.146 282.592 170.627L279.964 169.173L261.497 200.477C261.33 200.329 261.2 200.144 261.117 199.937C261.034 199.729 261.001 199.505 261.02 199.283Z" fill="black"/>
<path d="M270.305 161.778L313.928 136.591C314.087 136.471 314.28 136.406 314.479 136.406C314.677 136.406 314.871 136.471 315.029 136.591C315.278 136.798 317.74 138.097 318.01 138.294C318.175 138.438 318.303 138.621 318.383 138.825C318.462 139.029 318.491 139.25 318.467 139.468V178.728C318.461 179.293 318.322 179.848 318.06 180.348C317.798 180.848 317.422 181.279 316.961 181.605L309.306 186.03L269.267 162.92C269.505 162.453 269.863 162.059 270.305 161.778Z" fill="#FACF38"/>
<path opacity="0.5" d="M270.305 161.778L313.928 136.591C314.087 136.471 314.28 136.406 314.479 136.406C314.677 136.406 314.871 136.471 315.029 136.591C315.278 136.798 317.74 138.097 318.01 138.294C318.175 138.438 318.303 138.621 318.383 138.825C318.462 139.029 318.491 139.25 318.467 139.468V178.728C318.461 179.293 318.322 179.848 318.06 180.348C317.798 180.848 317.422 181.279 316.961 181.605L309.306 186.03L269.267 162.92C269.505 162.453 269.863 162.059 270.305 161.778Z" fill="white"/>
<path d="M272.331 206.855C272.03 206.657 269.547 205.286 269.277 205.099C269.108 204.955 268.977 204.772 268.893 204.566C268.81 204.36 268.778 204.136 268.799 203.915V164.655C268.814 164.046 268.978 163.451 269.277 162.92L309.317 186.03L273.349 206.803C273.202 206.909 273.028 206.97 272.847 206.98C272.667 206.989 272.487 206.945 272.331 206.855Z" fill="#FACF38"/>
<path opacity="0.2" d="M272.331 206.855C272.03 206.657 269.547 205.286 269.277 205.099C269.108 204.955 268.977 204.772 268.893 204.566C268.81 204.36 268.778 204.136 268.799 203.915V164.655C268.814 164.046 268.978 163.451 269.277 162.92L309.317 186.03L273.349 206.803C273.202 206.909 273.028 206.97 272.847 206.98C272.667 206.989 272.487 206.945 272.331 206.855Z" fill="black"/>
<path d="M273.349 206.792L316.971 181.605C317.432 181.279 317.808 180.848 318.07 180.348C318.332 179.848 318.472 179.293 318.477 178.728V139.468C318.477 138.367 317.813 137.858 316.971 138.336L273.349 163.523C272.89 163.851 272.515 164.282 272.253 164.782C271.992 165.282 271.851 165.836 271.843 166.4V205.66C271.843 206.761 272.518 207.27 273.349 206.792Z" fill="#FACF38"/>
<path opacity="0.2" d="M271.843 205.66V204.902L289.853 174.989L272.04 165.122L272.175 164.8L294.36 174.054C294.828 174.241 295.399 173.899 295.908 173.161L318.062 138.346C318.11 138.392 318.155 138.441 318.197 138.491L300.447 168.892L318.477 177.96V178.728C318.466 179.347 318.313 179.954 318.031 180.504L299.533 170.461L296.915 174.937C295.877 176.713 294.454 177.534 293.415 176.952L290.798 175.498L272.331 206.855C272.16 206.709 272.026 206.525 271.941 206.317C271.856 206.109 271.822 205.884 271.843 205.66Z" fill="black"/>
<path d="M460.511 356.378L336.207 428.137C334.242 429.272 332.021 429.89 329.753 429.934C327.484 429.977 325.241 429.445 323.234 428.386L72.9746 283.839C69.0277 281.565 65.8287 276.475 65.8287 272.414C65.8287 268.353 69.0277 263.326 72.9642 261.041L196.822 189.635C199.034 188.518 201.479 187.937 203.957 187.937C206.436 187.937 208.88 188.518 211.093 189.635L460.511 333.694C464.458 335.968 467.657 341.058 467.657 345.067C467.657 349.076 464.458 354.103 460.511 356.378Z" fill="#FACF38"/>
<path opacity="0.5" d="M196.822 189.634L72.9642 261.134C69.0277 263.419 65.8287 268.508 65.8287 272.507C65.8287 276.506 69.0277 281.605 72.9746 283.932L323.286 428.437C325.216 429.426 327.35 429.952 329.518 429.975V257.966L211.113 189.634C208.898 188.514 206.45 187.93 203.967 187.93C201.485 187.93 199.037 188.514 196.822 189.634Z" fill="black"/>
<path opacity="0.4" d="M336.207 428.136L460.511 356.377C464.458 354.102 467.657 349.013 467.657 345.014C467.657 341.015 464.458 335.916 460.511 333.641L329.445 257.966V429.923C331.819 429.946 334.155 429.329 336.207 428.136Z" fill="black"/>
<path d="M333.247 415.351C331.296 416.339 329.14 416.854 326.953 416.854C324.766 416.854 322.609 416.339 320.659 415.351L72.9435 272.33C67.6153 269.214 67.6153 264.229 72.9435 261.155L196.811 189.634C199.024 188.517 201.468 187.936 203.947 187.936C206.425 187.936 208.869 188.517 211.082 189.634L460.501 333.693C464.427 335.957 464.427 339.665 460.501 341.929L333.247 415.351Z" fill="#FACF38"/>
<path opacity="0.3" d="M333.247 415.351C331.296 416.339 329.14 416.854 326.953 416.854C324.766 416.854 322.609 416.339 320.659 415.351L72.9435 272.33C67.6153 269.214 67.6153 264.229 72.9435 261.155L196.811 189.634C199.024 188.517 201.468 187.936 203.947 187.936C206.425 187.936 208.869 188.517 211.082 189.634L460.501 333.693C464.427 335.957 464.427 339.665 460.501 341.929L333.247 415.351Z" fill="black"/>
<path d="M321.219 400.955C319.117 402.02 316.794 402.575 314.437 402.575C312.08 402.575 309.757 402.02 307.655 400.955L94.4952 277.887C90.7457 275.727 90.7457 272.216 94.4952 270.056L211.02 202.825C213.124 201.765 215.447 201.212 217.802 201.212C220.158 201.212 222.481 201.765 224.585 202.825L437.744 325.851C441.473 328.001 441.473 331.533 437.744 333.683L321.219 400.955Z" fill="#37474F"/>
<path d="M217.387 201.194C215.163 201.209 212.977 201.769 211.02 202.825L94.4952 270.056C90.7457 272.216 90.7457 275.727 94.4952 277.887L117.595 291.223L217.387 227.492V201.194Z" fill="#263238"/>
<path d="M224.668 207.872C222.564 206.812 220.241 206.26 217.885 206.26C215.53 206.26 213.207 206.812 211.103 207.872L94.5887 275.145C93.9155 275.512 93.311 275.994 92.8022 276.568C93.2992 277.088 93.8696 277.532 94.4952 277.887L307.655 400.955C309.757 402.02 312.08 402.575 314.437 402.575C316.794 402.575 319.117 402.02 321.219 400.955L437.744 333.693C438.402 333.325 438.995 332.852 439.499 332.291C439.016 331.759 438.452 331.306 437.827 330.951L224.668 207.872Z" fill="#455A64"/>
<path d="M137.09 238.585L157.738 226.713C158.974 226.007 159.036 224.885 157.873 224.221C157.197 223.893 156.453 223.73 155.703 223.744C154.952 223.759 154.215 223.95 153.552 224.304L132.904 236.227C131.668 236.934 131.606 238.055 132.769 238.72C133.449 239.039 134.195 239.194 134.946 239.17C135.696 239.147 136.431 238.946 137.09 238.585Z" fill="#37474F"/>
<path d="M172.549 218.145C172.802 218.059 173.021 217.896 173.177 217.679C173.333 217.462 173.416 217.202 173.416 216.935C173.416 216.667 173.333 216.407 173.177 216.19C173.021 215.973 172.802 215.81 172.549 215.725C171.904 215.402 171.193 215.234 170.471 215.234C169.75 215.234 169.039 215.402 168.394 215.725C168.141 215.81 167.921 215.973 167.766 216.19C167.61 216.407 167.526 216.667 167.526 216.935C167.526 217.202 167.61 217.462 167.766 217.679C167.921 217.896 168.141 218.059 168.394 218.145C169.039 218.467 169.75 218.635 170.471 218.635C171.193 218.635 171.904 218.467 172.549 218.145Z" fill="#37474F"/>
<path d="M180.92 213.305C181.173 213.219 181.393 213.056 181.549 212.839C181.704 212.622 181.788 212.362 181.788 212.095C181.788 211.827 181.704 211.567 181.549 211.35C181.393 211.133 181.173 210.97 180.92 210.884C180.275 210.562 179.564 210.394 178.843 210.394C178.122 210.394 177.411 210.562 176.766 210.884C176.513 210.97 176.293 211.133 176.137 211.35C175.982 211.567 175.898 211.827 175.898 212.095C175.898 212.362 175.982 212.622 176.137 212.839C176.293 213.056 176.513 213.219 176.766 213.305C177.411 213.627 178.122 213.795 178.843 213.795C179.564 213.795 180.275 213.627 180.92 213.305Z" fill="#37474F"/>
<path d="M113.949 251.973C114.202 251.887 114.422 251.725 114.577 251.507C114.733 251.29 114.817 251.03 114.817 250.763C114.817 250.496 114.733 250.236 114.577 250.018C114.422 249.801 114.202 249.639 113.949 249.553C113.304 249.23 112.593 249.062 111.872 249.062C111.15 249.062 110.439 249.23 109.794 249.553C109.541 249.639 109.322 249.801 109.166 250.018C109.01 250.236 108.927 250.496 108.927 250.763C108.927 251.03 109.01 251.29 109.166 251.507C109.322 251.725 109.541 251.887 109.794 251.973C110.439 252.296 111.15 252.464 111.872 252.464C112.593 252.464 113.304 252.296 113.949 251.973Z" fill="#37474F"/>
<path d="M122.32 247.133C122.573 247.047 122.793 246.884 122.949 246.667C123.104 246.45 123.188 246.19 123.188 245.923C123.188 245.656 123.104 245.395 122.949 245.178C122.793 244.961 122.573 244.799 122.32 244.713C121.675 244.39 120.964 244.222 120.243 244.222C119.522 244.222 118.811 244.39 118.166 244.713C117.913 244.799 117.693 244.961 117.537 245.178C117.382 245.395 117.298 245.656 117.298 245.923C117.298 246.19 117.382 246.45 117.537 246.667C117.693 246.884 117.913 247.047 118.166 247.133C118.811 247.456 119.522 247.624 120.243 247.624C120.964 247.624 121.675 247.456 122.32 247.133Z" fill="#37474F"/>
<path d="M151.475 321.022C152.112 321.419 152.646 321.96 153.034 322.603C153.422 323.245 153.653 323.971 153.708 324.719C153.732 324.972 153.688 325.227 153.58 325.457C153.472 325.687 153.305 325.884 153.095 326.028L151.527 326.931C151.266 327.045 150.981 327.088 150.698 327.057C150.416 327.026 150.147 326.922 149.917 326.755L120.897 309.991C120.26 309.594 119.726 309.052 119.338 308.41C118.95 307.767 118.719 307.042 118.664 306.294C118.641 306.051 118.681 305.806 118.779 305.582C118.877 305.358 119.031 305.164 119.225 305.016C119.506 304.84 120.565 304.237 120.835 304.081C121.097 303.968 121.384 303.925 121.668 303.956C121.952 303.987 122.224 304.091 122.455 304.258L151.475 321.022Z" fill="#FACF38"/>
<path opacity="0.4" d="M151.475 321.022C152.112 321.419 152.646 321.96 153.034 322.603C153.422 323.245 153.653 323.971 153.708 324.719C153.732 324.972 153.688 325.227 153.58 325.457C153.472 325.687 153.305 325.884 153.095 326.028L151.527 326.931C151.266 327.045 150.981 327.088 150.698 327.057C150.416 327.026 150.147 326.922 149.917 326.755L120.897 309.991C120.26 309.594 119.726 309.052 119.338 308.41C118.95 307.767 118.719 307.042 118.664 306.294C118.641 306.051 118.681 305.806 118.779 305.582C118.877 305.358 119.031 305.164 119.225 305.016C119.506 304.84 120.565 304.237 120.835 304.081C121.097 303.968 121.384 303.925 121.668 303.956C121.952 303.987 122.224 304.091 122.455 304.258L151.475 321.022Z" fill="black"/>
<path d="M149.917 321.915L120.897 305.162C119.661 304.445 118.664 304.954 118.664 306.294C118.719 307.042 118.95 307.767 119.338 308.41C119.726 309.052 120.26 309.594 120.897 309.991L149.917 326.755C151.153 327.461 152.15 326.952 152.15 325.623C152.096 324.873 151.865 324.146 151.477 323.501C151.089 322.857 150.555 322.313 149.917 321.915Z" fill="#FACF38"/>
<path opacity="0.3" d="M149.917 321.915L120.897 305.162C119.661 304.445 118.664 304.954 118.664 306.294C118.719 307.042 118.95 307.767 119.338 308.41C119.726 309.052 120.26 309.594 120.897 309.991L149.917 326.755C151.153 327.461 152.15 326.952 152.15 325.623C152.096 324.873 151.865 324.146 151.477 323.501C151.089 322.857 150.555 322.313 149.917 321.915Z" fill="black"/>
<path d="M112.63 298.587C113.264 298.988 113.796 299.533 114.182 300.177C114.568 300.82 114.798 301.546 114.852 302.295C114.88 302.547 114.838 302.802 114.73 303.031C114.621 303.26 114.452 303.455 114.24 303.593C113.97 303.739 112.962 304.351 112.682 304.507C112.42 304.616 112.134 304.656 111.852 304.623C111.571 304.591 111.302 304.486 111.072 304.32L97.3929 296.416C96.7559 296.019 96.2216 295.477 95.8336 294.835C95.4455 294.192 95.2147 293.467 95.1599 292.719C95.1368 292.476 95.1762 292.231 95.2744 292.007C95.3725 291.784 95.5261 291.589 95.7207 291.441L97.3306 290.506C97.5915 290.392 97.878 290.35 98.1608 290.383C98.4436 290.415 98.7127 290.523 98.9405 290.693L112.63 298.587Z" fill="#FACF38"/>
<path opacity="0.4" d="M112.63 298.587C113.264 298.988 113.796 299.533 114.182 300.177C114.568 300.82 114.798 301.546 114.852 302.295C114.88 302.547 114.838 302.802 114.73 303.031C114.621 303.26 114.452 303.455 114.24 303.593C113.97 303.739 112.962 304.351 112.682 304.507C112.42 304.616 112.134 304.656 111.852 304.623C111.571 304.591 111.302 304.486 111.072 304.32L97.3929 296.416C96.7559 296.019 96.2216 295.477 95.8336 294.835C95.4455 294.192 95.2147 293.467 95.1599 292.719C95.1368 292.476 95.1762 292.231 95.2744 292.007C95.3725 291.784 95.5261 291.589 95.7207 291.441L97.3306 290.506C97.5915 290.392 97.878 290.35 98.1608 290.383C98.4436 290.415 98.7127 290.523 98.9405 290.693L112.63 298.587Z" fill="black"/>
<path d="M111.072 299.491L97.393 291.587C96.157 290.88 95.1599 291.379 95.1599 292.719C95.2148 293.467 95.4456 294.192 95.8336 294.835C96.2217 295.477 96.756 296.019 97.393 296.416L111.072 304.32C112.308 305.037 113.305 304.528 113.305 303.188C113.25 302.44 113.019 301.715 112.631 301.072C112.243 300.429 111.709 299.888 111.072 299.491Z" fill="#FACF38"/>
<path opacity="0.3" d="M111.072 299.491L97.393 291.587C96.157 290.88 95.1599 291.379 95.1599 292.719C95.2148 293.467 95.4456 294.192 95.8336 294.835C96.2217 295.477 96.756 296.019 97.393 296.416L111.072 304.32C112.308 305.037 113.305 304.528 113.305 303.188C113.25 302.44 113.019 301.715 112.631 301.072C112.243 300.429 111.709 299.888 111.072 299.491Z" fill="black"/>
<path d="M266.141 345.928V346.769C266.178 347.497 266.385 348.206 266.746 348.839C267.107 349.472 267.611 350.012 268.218 350.415L313.409 376.506C314.062 376.838 314.784 377.012 315.517 377.012C316.25 377.012 316.973 376.838 317.626 376.506L392.46 333.298C393.068 332.896 393.573 332.357 393.934 331.724C394.294 331.09 394.501 330.381 394.537 329.653V328.811C394.499 328.084 394.292 327.375 393.931 326.742C393.571 326.109 393.067 325.569 392.46 325.166L347.268 299.075C346.615 298.742 345.893 298.569 345.16 298.569C344.427 298.569 343.705 298.742 343.052 299.075L268.218 342.282C267.61 342.684 267.105 343.224 266.744 343.857C266.383 344.491 266.176 345.2 266.141 345.928Z" fill="#FACF38"/>
<path d="M266.141 345.928V346.769C266.178 347.497 266.385 348.206 266.746 348.839C267.107 349.472 267.611 350.012 268.218 350.415L313.409 376.506C314.062 376.838 314.784 377.012 315.517 377.012C316.25 377.012 316.973 376.838 317.626 376.506L392.46 333.298C393.068 332.896 393.573 332.357 393.934 331.724C394.294 331.09 394.501 330.381 394.537 329.653V328.811C394.499 328.084 394.292 327.375 393.931 326.742C393.571 326.109 393.067 325.569 392.46 325.166L347.268 299.075C346.615 298.742 345.893 298.569 345.16 298.569C344.427 298.569 343.705 298.742 343.052 299.075L268.218 342.282C267.61 342.684 267.105 343.224 266.744 343.857C266.383 344.491 266.176 345.2 266.141 345.928Z" fill="#FACF38"/>
<path opacity="0.3" d="M392.491 325.166L347.299 299.075C346.646 298.742 345.924 298.569 345.191 298.569C344.458 298.569 343.736 298.742 343.083 299.075L315.548 314.997V377.046C316.273 377.056 316.988 376.881 317.626 376.537L392.459 333.329C393.068 332.928 393.573 332.388 393.933 331.755C394.294 331.121 394.501 330.412 394.537 329.684V328.843C394.508 328.112 394.307 327.399 393.952 326.76C393.597 326.122 393.096 325.575 392.491 325.166Z" fill="white"/>
<path opacity="0.15" d="M392.491 325.166L347.299 299.075C346.646 298.742 345.924 298.569 345.191 298.569C344.458 298.569 343.736 298.742 343.083 299.075L315.548 314.997V377.046C316.273 377.056 316.988 376.881 317.626 376.537L392.459 333.329C393.068 332.928 393.573 332.388 393.933 331.755C394.294 331.121 394.501 330.412 394.537 329.684V328.843C394.508 328.112 394.307 327.399 393.952 326.76C393.597 326.122 393.096 325.575 392.491 325.166Z" fill="black"/>
<path opacity="0.3" d="M315.549 314.997L268.249 342.314C267.641 342.716 267.136 343.255 266.775 343.888C266.414 344.522 266.207 345.231 266.172 345.959V346.801C266.209 347.528 266.416 348.237 266.777 348.87C267.138 349.503 267.642 350.043 268.249 350.446L313.44 376.537C314.077 376.882 314.793 377.057 315.517 377.046L315.549 314.997Z" fill="white"/>
<path opacity="0.2" d="M315.549 314.997L268.249 342.314C267.641 342.716 267.136 343.255 266.775 343.888C266.414 344.522 266.207 345.231 266.172 345.959V346.801C266.209 347.528 266.416 348.237 266.777 348.87C267.138 349.503 267.642 350.043 268.249 350.446L313.44 376.537C314.077 376.882 314.793 377.057 315.517 377.046L315.549 314.997Z" fill="black"/>
<path d="M306.201 366.628L268.249 344.713C267.992 344.63 267.769 344.467 267.61 344.249C267.451 344.031 267.366 343.768 267.366 343.498C267.366 343.228 267.451 342.965 267.61 342.747C267.769 342.528 267.992 342.366 268.249 342.282L343.083 299.075C343.736 298.742 344.458 298.569 345.191 298.569C345.924 298.569 346.647 298.742 347.3 299.075L392.491 325.166C392.748 325.249 392.971 325.411 393.13 325.63C393.289 325.848 393.374 326.111 393.374 326.381C393.374 326.651 393.289 326.914 393.13 327.132C392.971 327.35 392.748 327.513 392.491 327.596L380.079 334.732L375.727 337.245L317.657 370.772C317.004 371.105 316.282 371.279 315.549 371.279C314.816 371.279 314.093 371.105 313.44 370.772L309.763 368.643L306.201 366.628Z" fill="#FACF38"/>
<path opacity="0.3" d="M306.201 366.628L268.249 344.713C267.992 344.63 267.769 344.467 267.61 344.249C267.451 344.031 267.366 343.768 267.366 343.498C267.366 343.228 267.451 342.965 267.61 342.747C267.769 342.528 267.992 342.366 268.249 342.282L343.083 299.075C343.736 298.742 344.458 298.569 345.191 298.569C345.924 298.569 346.647 298.742 347.3 299.075L392.491 325.166C392.748 325.249 392.971 325.411 393.13 325.63C393.289 325.848 393.374 326.111 393.374 326.381C393.374 326.651 393.289 326.914 393.13 327.132C392.971 327.35 392.748 327.513 392.491 327.596L380.079 334.732L375.727 337.245L317.657 370.772C317.004 371.105 316.282 371.279 315.549 371.279C314.816 371.279 314.093 371.105 313.44 370.772L309.763 368.643L306.201 366.628Z" fill="white"/>
<path opacity="0.15" d="M340.663 330.224L392.491 325.166L341.12 328.074L347.3 299.075C346.593 298.707 345.799 298.539 345.004 298.587L335.314 337.848L267.397 343.446C267.391 343.726 267.469 344.001 267.621 344.236C267.773 344.471 267.992 344.655 268.249 344.765L323.089 341.524L315.538 371.312L325.166 341.41L334.514 340.86C335.67 340.803 336.771 340.348 337.63 339.572C338.434 338.857 338.988 337.903 339.209 336.85L340.663 330.224Z" fill="black"/>
<path opacity="0.3" d="M283.621 342.054L335.334 337.796L337.183 330.38L338.222 326.225L345.056 298.556C344.383 298.565 343.721 298.732 343.124 299.044L305.733 320.648L268.342 342.251C268.121 342.354 267.928 342.508 267.779 342.702C267.631 342.896 267.532 343.122 267.491 343.363L277.877 342.511L283.621 342.054Z" fill="white"/>
<path d="M336.591 292.885C341.317 290.153 348.982 290.153 353.708 292.885C358.434 295.616 358.434 300.041 353.708 302.762C348.982 305.484 341.317 305.494 336.591 302.762C331.865 300.031 331.907 295.616 336.591 292.885Z" fill="#F28F8F"/>
<path d="M339.209 299.418C339.081 299.414 338.958 299.37 338.856 299.293C338.817 299.268 338.787 299.232 338.77 299.189C338.753 299.146 338.751 299.099 338.762 299.054L339.468 295.938C339.468 295.866 339.468 295.772 339.552 295.658C339.598 295.534 339.692 295.434 339.811 295.378L341.535 294.339C341.653 294.274 341.786 294.242 341.92 294.245C342.054 294.241 342.187 294.273 342.304 294.339L351.475 299.636C351.52 299.653 351.559 299.682 351.587 299.721C351.614 299.76 351.63 299.806 351.631 299.854C351.627 299.901 351.611 299.946 351.583 299.985C351.556 300.023 351.518 300.053 351.475 300.072L349.616 301.111C349.499 301.176 349.366 301.208 349.232 301.204C349.097 301.209 348.964 301.177 348.847 301.111L342.616 297.538L342.2 299.252C342.2 299.335 342.117 299.408 342.003 299.459C341.875 299.512 341.736 299.533 341.598 299.522L339.209 299.418Z" fill="#FAFAFA"/>
<path d="M223.006 328.843L256.481 309.524L279.331 315.184C279.822 315.305 280.339 315.271 280.81 315.087C281.282 314.903 281.685 314.579 281.965 314.158C282.246 313.737 282.39 313.239 282.377 312.733C282.365 312.228 282.197 311.738 281.896 311.331L273.317 299.781L306.782 280.452C309.254 279.019 309.254 276.682 306.782 275.259L239.842 236.58C238.447 235.879 236.907 235.513 235.345 235.513C233.783 235.513 232.243 235.879 230.847 236.58L147.061 285.002C144.589 286.425 144.589 288.762 147.061 290.195L214.032 328.843C215.423 329.546 216.96 329.913 218.519 329.913C220.078 329.913 221.615 329.546 223.006 328.843Z" fill="#FAFAFA"/>
<path d="M181.678 277.887C183.651 276.73 185.762 275.83 187.962 275.207C189.918 274.653 191.927 274.304 193.955 274.169C195.745 274.05 197.542 274.158 199.304 274.491C200.802 274.772 202.26 275.236 203.646 275.872C205.03 276.564 206.457 277.323 207.925 278.147C209.393 278.971 210.701 279.791 211.851 280.608C212.815 281.269 213.629 282.125 214.24 283.122C214.811 284.053 215.015 285.164 214.811 286.238C214.521 287.518 213.893 288.698 212.993 289.655C211.639 291.108 210.052 292.326 208.299 293.259C206.339 294.412 204.246 295.322 202.067 295.97C200.124 296.535 198.125 296.883 196.105 297.008C194.315 297.123 192.518 297.012 190.756 296.676C189.254 296.4 187.793 295.94 186.404 295.305C185.019 294.613 183.596 293.854 182.135 293.03C180.674 292.206 179.362 291.382 178.199 290.558C177.235 289.905 176.424 289.051 175.82 288.055C175.251 287.123 175.048 286.013 175.249 284.939C175.538 283.654 176.149 282.464 177.025 281.481C178.36 280.026 179.934 278.811 181.678 277.887ZM202.919 284.929C202.503 284.606 202.062 284.318 201.599 284.067L199.605 282.914L197.601 281.761C197.126 281.47 196.63 281.216 196.115 281.003C194.976 280.485 193.742 280.209 192.491 280.193C190.91 280.227 189.371 280.702 188.045 281.564C186.394 282.519 185.594 283.371 185.656 284.129C185.728 284.557 185.891 284.964 186.135 285.323C186.379 285.681 186.697 285.983 187.069 286.206C187.477 286.526 187.904 286.82 188.346 287.089C188.949 287.474 189.603 287.868 190.299 288.263C190.995 288.658 191.67 289.042 192.376 289.395C192.875 289.669 193.388 289.916 193.914 290.133C195.053 290.65 196.287 290.926 197.538 290.943C199.118 290.905 200.657 290.431 201.984 289.572C203.635 288.616 204.435 287.764 204.362 286.996C204.289 286.566 204.122 286.158 203.872 285.8C203.623 285.443 203.297 285.145 202.919 284.929ZM217.698 259.15C217.644 258.701 217.712 258.245 217.896 257.831C218.261 257.281 218.772 256.842 219.371 256.564L224.491 253.604C225.071 253.256 225.72 253.04 226.392 252.97C226.953 252.904 227.521 253.009 228.022 253.271C228.128 253.343 228.223 253.431 228.303 253.531C228.394 253.651 228.458 253.789 228.49 253.936L234.379 306.044C234.425 306.491 234.354 306.943 234.171 307.353C233.817 307.912 233.308 308.356 232.707 308.631L227.586 311.591C227.007 311.937 226.357 312.15 225.685 312.214C225.125 312.288 224.555 312.187 224.055 311.923C223.941 311.853 223.843 311.761 223.764 311.653C223.677 311.531 223.614 311.393 223.577 311.248L217.698 259.15ZM244.609 271.531C246.584 270.375 248.695 269.471 250.893 268.84C252.848 268.281 254.857 267.932 256.886 267.802C258.676 267.683 260.473 267.792 262.235 268.124C263.733 268.406 265.191 268.869 266.577 269.505C267.961 270.198 269.388 270.952 270.856 271.769C272.324 272.586 273.632 273.41 274.782 274.241C275.745 274.899 276.559 275.752 277.171 276.745C277.74 277.677 277.944 278.787 277.742 279.86C277.453 281.148 276.825 282.334 275.924 283.298C274.567 284.748 272.981 285.966 271.23 286.902C269.273 288.058 267.179 288.965 264.998 289.603C263.06 290.174 261.063 290.523 259.046 290.641C257.257 290.76 255.46 290.652 253.697 290.319C252.197 290.036 250.735 289.572 249.346 288.938C247.954 288.263 246.531 287.515 245.077 286.674C243.623 285.833 242.314 285.012 241.14 284.202C240.18 283.54 239.37 282.684 238.762 281.688C238.189 280.758 237.985 279.646 238.191 278.572C238.48 277.288 239.091 276.097 239.967 275.114C241.296 273.661 242.867 272.449 244.609 271.531ZM265.85 278.562C265.433 278.244 264.992 277.959 264.53 277.71L262.536 276.568L260.532 275.415C260.055 275.125 259.558 274.869 259.046 274.646C257.904 274.138 256.672 273.863 255.422 273.836C253.84 273.882 252.3 274.356 250.966 275.207C249.325 276.163 248.525 277.025 248.587 277.783C248.659 278.211 248.822 278.618 249.066 278.977C249.31 279.335 249.628 279.637 250 279.86C250.405 280.182 250.828 280.48 251.267 280.754C251.88 281.138 252.534 281.533 253.23 281.927C253.926 282.322 254.601 282.706 255.307 283.059C256.014 283.413 256.491 283.651 256.845 283.797C257.986 284.307 259.219 284.582 260.469 284.607C262.049 284.56 263.587 284.083 264.915 283.226C266.566 282.28 267.356 281.418 267.293 280.66C267.222 280.226 267.055 279.812 266.806 279.45C266.556 279.087 266.23 278.784 265.85 278.562Z" fill="#FACF38"/>
<path d="M97.4451 74.6361L111.072 66.7632V129.455C111.072 131.813 113.804 134.171 113.804 134.171L100.177 142.044C100.177 142.044 97.4451 139.676 97.4451 137.318V74.6361Z" fill="#37474F"/>
<path d="M80.8788 74.501L86.6224 81.7715V109.015C86.6117 116.642 84.4519 124.111 80.3906 130.567L100.125 141.992C98.635 140.831 97.6553 139.136 97.3931 137.266V84.0669L80.8788 74.501Z" fill="#455A64"/>
<path d="M80.3906 130.619V133.766L100.177 145.191V142.044L80.3906 130.619Z" fill="#FACF38"/>
<path d="M100.177 145.191L113.804 137.318V134.171L100.177 142.044V145.191Z" fill="#FACF38"/>
<path opacity="0.1" d="M100.177 145.191L113.804 137.318V134.171L100.177 142.044V145.191Z" fill="black"/>
<path d="M96.8218 41.5347C94.5056 40.1429 91.2859 40.3195 87.7233 42.376L87.5883 42.4487C80.5463 46.5305 74.8546 56.3768 74.8546 64.5509V64.6859C74.8546 68.8404 76.3918 71.8109 78.843 73.0781L89.1566 79.1437L106.356 47.1641L96.8218 41.5347Z" fill="#FACF38"/>
<path opacity="0.8" d="M96.8218 41.5347C94.5056 40.1429 91.2859 40.3195 87.7233 42.376L87.5883 42.4487C80.5463 46.5305 74.8546 56.3768 74.8546 64.5509V64.6859C74.8546 68.8404 76.3918 71.8109 78.843 73.0781L89.1566 79.1437L106.356 47.1641L96.8218 41.5347Z" fill="#FAFAFA"/>
<path opacity="0.2" d="M78.8222 73.0989L89.1359 79.1645L94.8484 68.5601L76.0179 57.6855C75.278 59.9002 74.8856 62.2161 74.8546 64.5509V64.6859C74.8546 68.9132 76.371 71.8318 78.8222 73.0989Z" fill="#FACF38"/>
<path d="M119.09 49.3764C116.473 47.8808 112.942 47.9327 109.036 49.8438C108.621 50.0411 108.205 50.2593 107.79 50.5085C107.374 50.7578 106.803 51.1005 106.325 51.4329C105.511 51.9955 104.731 52.6059 103.989 53.2609C102.564 54.4867 101.251 55.8352 100.062 57.2908C96.7529 61.3273 94.3003 65.9957 92.8543 71.0112C92.1795 73.3763 91.8301 75.8223 91.8157 78.2817C91.8157 83.2568 93.5191 86.7881 96.2922 88.5123L86.4356 82.8309C84.6071 81.6522 83.112 80.0237 82.0936 78.1013C81.0751 76.179 80.5675 74.0273 80.6192 71.8525C80.6397 69.5139 80.968 67.1881 81.5955 64.9352C83.0111 59.7978 85.4878 55.0141 88.866 50.8928C90.0514 49.4347 91.3654 48.086 92.792 46.8629C93.5384 46.1786 94.3257 45.5404 95.1497 44.9518C95.6379 44.6195 96.126 44.3079 96.6142 44.0274C97.1024 43.747 97.4555 43.5704 97.8813 43.3731C99.6308 42.5479 101.547 42.1357 103.481 42.1681C105.415 42.2005 107.315 42.6767 109.036 43.56L109.317 43.7158L109.67 43.9236L119.09 49.3764Z" fill="#FACF38"/>
<path opacity="0.1" d="M86.4146 82.7686C84.5861 81.5899 83.091 79.9613 82.0726 78.039C81.0542 76.1167 80.5465 73.965 80.5982 71.7902C80.6187 69.4516 80.947 67.1258 81.5745 64.8729L92.8333 71.0008C92.1585 73.3659 91.8091 75.8119 91.7947 78.2713C91.7947 83.2464 93.4981 86.7777 96.2712 88.5019L86.4146 82.7686Z" fill="black"/>
<path d="M123.785 59.742C123.785 69.9518 116.628 82.3532 107.79 87.4529C103.355 90.0287 99.3248 90.2468 96.427 88.4915L96.2712 88.398C93.498 86.6739 91.7947 83.1425 91.7947 78.1675C91.7947 67.968 98.9509 55.5563 107.79 50.4566C112.194 47.912 116.192 47.6627 119.09 49.3245C121.988 50.9863 123.785 54.6319 123.785 59.742Z" fill="#FACF38"/>
<path opacity="0.2" d="M123.785 59.742C123.785 69.9518 116.628 82.3532 107.79 87.4529C103.355 90.0287 99.3248 90.2468 96.427 88.4915L96.2712 88.398C93.498 86.6739 91.7947 83.1425 91.7947 78.1675C91.7947 67.968 98.9509 55.5563 107.79 50.4566C112.194 47.912 116.192 47.6627 119.09 49.3245C121.988 50.9863 123.785 54.6319 123.785 59.742Z" fill="black"/>
<path d="M172.84 57.1039C172.84 57.1039 156.699 65.413 142.916 89.3016C140.436 93.5867 138.25 98.0354 136.373 102.617C129.456 119.599 130.027 131.304 130.027 131.304C125.218 119.516 119.236 107.322 109.254 97.9846C105.35 94.3488 101.256 90.9234 96.9879 87.7229C94.3498 86.1857 92.8334 82.8621 92.8334 78.2713C92.8672 75.0497 93.4612 71.8585 94.5887 68.8405C95.3279 66.8107 96.2455 64.8504 97.3307 62.9826C99.9391 58.25 103.715 54.2634 108.299 51.4018C112.277 49.1064 115.933 48.774 118.571 50.2904C123.476 52.3866 128.489 54.2206 133.59 55.7848C146.676 59.7524 160.231 58.828 172.84 57.1039Z" fill="#FACF38"/>
<path opacity="0.8" d="M172.84 57.1039C172.84 57.1039 156.699 65.413 142.916 89.3016C140.436 93.5867 138.25 98.0354 136.373 102.617C129.456 119.599 130.027 131.304 130.027 131.304C125.218 119.516 119.236 107.322 109.254 97.9846C105.35 94.3488 101.256 90.9234 96.9879 87.7229C94.3498 86.1857 92.8334 82.8621 92.8334 78.2713C92.8672 75.0497 93.4612 71.8585 94.5887 68.8405C95.3279 66.8107 96.2455 64.8504 97.3307 62.9826C99.9391 58.25 103.715 54.2634 108.299 51.4018C112.277 49.1064 115.933 48.774 118.571 50.2904C123.476 52.3866 128.489 54.2206 133.59 55.7848C146.676 59.7524 160.231 58.828 172.84 57.1039Z" fill="#FAFAFA"/>
<path opacity="0.2" d="M136.373 102.575C129.456 119.557 130.027 131.263 130.027 131.263C125.218 119.474 119.236 107.28 109.254 97.9431C105.35 94.3073 101.256 90.8819 96.9879 87.6813C94.3498 86.1441 92.8334 82.8205 92.8334 78.2297C92.872 75.0221 93.4659 71.8454 94.5887 68.8405C106.855 74.9476 126.641 86.2376 136.373 102.575Z" fill="#FACF38"/>
<path d="M203.251 80.1305C203.251 90.7765 199.969 102.42 194.516 113.18C187.526 127.004 176.984 139.26 165.216 146.074C144.184 158.215 127.14 148.369 127.14 124.096C127.198 118.271 128.047 112.482 129.664 106.886C133.899 92.115 141.823 78.665 152.69 67.8018C154.179 66.3408 155.706 64.956 157.271 63.6473C157.925 63.1072 158.59 62.6087 159.254 62.079C160.199 61.3623 161.145 60.6768 162.111 60.0017C163.076 59.3266 164.177 58.7449 165.216 58.1529C186.197 45.9905 203.251 55.8575 203.251 80.1305Z" fill="#FACF38"/>
<path opacity="0.1" d="M194.516 113.18C187.526 127.004 176.984 139.26 165.216 146.074C144.184 158.215 127.14 148.369 127.14 124.096C127.198 118.271 128.047 112.482 129.664 106.886C131.086 110.002 136.197 114.509 138.492 111.362C137.08 116.331 136.336 121.465 136.28 126.63C136.28 133.61 137.838 139.239 140.777 142.916C141.991 144.455 143.551 145.686 145.331 146.509C147.11 147.332 149.059 147.724 151.018 147.652C155.172 147.652 160.033 146.125 165.029 143.238C175.073 137.442 184.306 127.025 190.86 115.195C190.819 115.226 192.127 116.327 194.516 113.18Z" fill="black"/>
<path d="M200.644 81.4911C200.644 92.2098 196.884 104.341 190.819 115.226C184.265 127.025 175.031 137.442 164.988 143.269C159.992 146.157 155.152 147.683 150.976 147.683C149.017 147.755 147.069 147.364 145.289 146.541C143.51 145.718 141.95 144.487 140.735 142.947C137.796 139.27 136.238 133.6 136.238 126.661C136.294 121.496 137.038 116.362 138.45 111.393C138.98 109.42 139.614 107.447 140.33 105.473C141.603 101.983 143.102 98.5795 144.817 95.2842L145.856 93.2069C146.469 92.0852 147.102 90.9738 147.767 89.8833C150.001 86.1785 152.511 82.6475 155.276 79.3203L155.37 79.2165C157.151 77.0785 159.047 75.0397 161.051 73.1093C162.478 71.7244 163.925 70.4573 165.393 69.3079C166.016 68.8093 166.639 68.3315 167.262 67.8745C168.02 67.3241 168.789 66.8359 169.558 66.2854C170.326 65.7349 171.074 65.3299 171.832 64.8833C176.838 61.9855 181.689 60.4691 185.854 60.4691C195.139 60.5314 200.644 68.3419 200.644 81.4911Z" fill="#FACF38"/>
<path opacity="0.3" d="M200.644 81.4911C200.644 92.2098 196.884 104.341 190.819 115.226C184.265 127.025 175.031 137.442 164.988 143.269C159.992 146.157 155.152 147.683 150.976 147.683C149.017 147.755 147.069 147.364 145.289 146.541C143.51 145.718 141.95 144.487 140.735 142.947C137.796 139.27 136.238 133.6 136.238 126.661C136.294 121.496 137.038 116.362 138.45 111.393C138.98 109.42 139.614 107.447 140.33 105.473C141.603 101.983 143.102 98.5795 144.817 95.2842L145.856 93.2069C146.469 92.0852 147.102 90.9738 147.767 89.8833C150.001 86.1785 152.511 82.6475 155.276 79.3203L155.37 79.2165C157.151 77.0785 159.047 75.0397 161.051 73.1093C162.478 71.7244 163.925 70.4573 165.393 69.3079C166.016 68.8093 166.639 68.3315 167.262 67.8745C168.02 67.3241 168.789 66.8359 169.558 66.2854C170.326 65.7349 171.074 65.3299 171.832 64.8833C176.838 61.9855 181.689 60.4691 185.854 60.4691C195.139 60.5314 200.644 68.3419 200.644 81.4911Z" fill="black"/>
<path d="M168.332 87.4528L154.975 112.38C151.215 110.968 144.869 108.714 139.697 107.395C139.904 106.73 140.133 106.086 140.382 105.421C141.653 101.93 143.151 98.5264 144.869 95.2322C145.222 94.5467 145.586 93.8716 145.908 93.1549C146.521 92.0332 147.154 90.9219 147.819 89.8417C150.05 86.1352 152.561 82.6041 155.328 79.2788C155.365 79.2455 155.396 79.207 155.422 79.1645C155.827 78.6867 156.232 78.209 156.637 77.752C160.244 81.3217 164.157 84.5678 168.332 87.4528Z" fill="#FACF38"/>
<g opacity="0.6">
<path opacity="0.6" d="M168.332 87.4528L154.975 112.38C151.215 110.968 144.869 108.714 139.697 107.395C139.904 106.73 140.133 106.086 140.382 105.421C141.653 101.93 143.151 98.5264 144.869 95.2322C145.222 94.5467 145.586 93.8716 145.908 93.1549C146.521 92.0332 147.154 90.9219 147.819 89.8417C150.05 86.1352 152.561 82.6041 155.328 79.2788C155.365 79.2455 155.396 79.207 155.422 79.1645C155.827 78.6867 156.232 78.209 156.637 77.752C160.244 81.3217 164.157 84.5678 168.332 87.4528Z" fill="#FAFAFA"/>
</g>
<path d="M156.045 112.328C153.022 112.328 151.226 109.887 151.226 105.806V105.681C151.226 99.2621 155.744 91.4204 161.311 88.211L161.415 88.1487C162.685 87.3586 164.137 86.9079 165.631 86.84C168.644 86.84 170.451 89.2808 170.451 93.3731V93.4977C170.451 99.9165 165.922 107.748 160.366 110.957L160.262 111.02C158.994 111.814 157.54 112.265 156.045 112.328Z" fill="#FACF38"/>
<g opacity="0.8">
<path opacity="0.8" d="M156.045 112.328C153.022 112.328 151.226 109.887 151.226 105.806V105.681C151.226 99.2621 155.744 91.4204 161.311 88.211L161.415 88.1487C162.685 87.3586 164.137 86.9079 165.631 86.84C168.644 86.84 170.451 89.2808 170.451 93.3731V93.4977C170.451 99.9165 165.922 107.748 160.366 110.957L160.262 111.02C158.994 111.814 157.54 112.265 156.045 112.328Z" fill="#FAFAFA"/>
</g>
<path d="M170.409 42.0852C169.613 42.0852 168.85 41.7689 168.287 41.206C167.724 40.6431 167.408 39.8796 167.408 39.0835V10.0017C167.408 9.20557 167.724 8.44209 168.287 7.87917C168.85 7.31625 169.613 7 170.409 7C171.205 7 171.969 7.31625 172.532 7.87917C173.095 8.44209 173.411 9.20557 173.411 10.0017V39.0835C173.411 39.8796 173.095 40.6431 172.532 41.206C171.969 41.7689 171.205 42.0852 170.409 42.0852Z" fill="#E0E0E0"/>
<path d="M144.017 49.1687C143.491 49.1697 142.974 49.032 142.518 48.7694C142.062 48.5068 141.684 48.1286 141.421 47.673L126.88 22.5172C126.48 21.8286 126.371 21.0094 126.575 20.2401C126.78 19.4707 127.282 18.814 127.97 18.4146C128.659 18.0152 129.478 17.9057 130.248 18.1102C131.017 18.3147 131.674 18.8165 132.073 19.5052L146.614 44.661C146.879 45.118 147.019 45.6368 147.019 46.1651C147.019 46.6934 146.88 47.2124 146.616 47.6698C146.351 48.1271 145.971 48.5065 145.513 48.7697C145.055 49.0329 144.535 49.1705 144.007 49.1687H144.017Z" fill="#E0E0E0"/>
<path d="M116.525 189.156C115.999 189.153 115.482 189.012 115.028 188.747C114.573 188.483 114.195 188.104 113.933 187.648C113.67 187.192 113.531 186.675 113.531 186.149C113.53 185.622 113.667 185.105 113.928 184.648L128.469 159.493C128.657 159.134 128.915 158.818 129.229 158.562C129.542 158.306 129.904 158.116 130.293 158.004C130.681 157.891 131.089 157.858 131.49 157.907C131.892 157.956 132.279 158.086 132.63 158.288C132.98 158.491 133.285 158.762 133.528 159.085C133.771 159.409 133.946 159.778 134.042 160.171C134.139 160.564 134.155 160.972 134.09 161.372C134.024 161.771 133.879 162.153 133.662 162.494L119.121 187.65C118.858 188.106 118.48 188.485 118.024 188.75C117.568 189.014 117.052 189.154 116.525 189.156Z" fill="#E0E0E0"/>
<path d="M170.409 193.041C169.613 193.041 168.85 192.724 168.287 192.161C167.724 191.599 167.408 190.835 167.408 190.039V160.957C167.408 160.161 167.724 159.398 168.287 158.835C168.85 158.272 169.613 157.956 170.409 157.956C171.205 157.956 171.969 158.272 172.532 158.835C173.095 159.398 173.411 160.161 173.411 160.957V190.039C173.411 190.835 173.095 191.599 172.532 192.161C171.969 192.724 171.205 193.041 170.409 193.041Z" fill="#E0E0E0"/>
<path d="M211.415 165.891C210.892 165.887 210.38 165.747 209.928 165.485C209.476 165.223 209.101 164.847 208.839 164.395L194.298 139.239C193.938 138.553 193.857 137.754 194.073 137.01C194.288 136.266 194.783 135.634 195.454 135.246C196.125 134.859 196.92 134.745 197.672 134.93C198.424 135.115 199.076 135.583 199.491 136.238L214.032 161.393C214.293 161.85 214.43 162.367 214.43 162.894C214.429 163.42 214.29 163.937 214.028 164.393C213.765 164.849 213.387 165.228 212.933 165.492C212.478 165.757 211.962 165.898 211.435 165.901L211.415 165.891Z" fill="#E0E0E0"/>
<path d="M241.379 135.905C240.855 135.906 240.339 135.77 239.884 135.511L214.728 120.97C214.387 120.772 214.088 120.509 213.849 120.196C213.61 119.882 213.434 119.525 213.333 119.144C213.232 118.763 213.206 118.366 213.259 117.975C213.311 117.585 213.44 117.208 213.637 116.867C213.835 116.526 214.098 116.227 214.411 115.988C214.725 115.749 215.082 115.573 215.463 115.472C215.844 115.371 216.241 115.346 216.632 115.398C217.022 115.45 217.399 115.579 217.74 115.776L242.885 130.317C243.457 130.649 243.903 131.159 244.154 131.769C244.406 132.38 244.45 133.056 244.278 133.694C244.107 134.331 243.73 134.895 243.206 135.296C242.681 135.698 242.04 135.916 241.379 135.916V135.905Z" fill="#E0E0E0"/>
<path d="M252.358 94.9518H223.276C222.48 94.9518 221.716 94.6356 221.153 94.0726C220.591 93.5097 220.274 92.7462 220.274 91.9501C220.274 91.1541 220.591 90.3906 221.153 89.8276C221.716 89.2647 222.48 88.9485 223.276 88.9485H252.358C253.154 88.9485 253.917 89.2647 254.48 89.8276C255.043 90.3906 255.359 91.1541 255.359 91.9501C255.359 92.7462 255.043 93.5097 254.48 94.0726C253.917 94.6356 253.154 94.9518 252.358 94.9518Z" fill="#E0E0E0"/>
<path d="M216.234 68.5185C215.57 68.5225 214.924 68.3065 214.396 67.9043C213.868 67.5021 213.489 66.9362 213.317 66.2953C213.145 65.6544 213.19 64.9745 213.445 64.362C213.7 63.7494 214.152 63.2388 214.728 62.9098L239.884 48.3689C240.225 48.1523 240.607 48.0069 241.007 47.9416C241.406 47.8763 241.814 47.8923 242.207 47.9888C242.6 48.0853 242.969 48.2601 243.293 48.503C243.616 48.7458 243.888 49.0515 244.09 49.4018C244.292 49.752 244.422 50.1396 244.471 50.5412C244.52 50.9428 244.487 51.3501 244.374 51.7387C244.262 52.1273 244.072 52.4891 243.816 52.8025C243.56 53.1158 243.244 53.3742 242.885 53.5621L217.74 68.103C217.284 68.3739 216.764 68.5174 216.234 68.5185Z" fill="#E0E0E0"/>
<path d="M196.884 49.1687C196.358 49.1668 195.841 49.0266 195.386 48.7619C194.93 48.4972 194.553 48.1175 194.291 47.6608C194.029 47.2041 193.892 46.6865 193.893 46.1599C193.894 45.6334 194.034 45.1164 194.298 44.661L208.839 19.5052C209.238 18.8165 209.895 18.3147 210.664 18.1102C211.434 17.9057 212.253 18.0152 212.942 18.4146C213.63 18.814 214.132 19.4707 214.336 20.2401C214.541 21.0094 214.432 21.8286 214.032 22.5172L199.491 47.673C199.227 48.1302 198.847 48.5093 198.389 48.772C197.931 49.0347 197.412 49.1716 196.884 49.1687Z" fill="#E0E0E0"/>
</svg>
