<svg width="130" height="130" viewBox="0 0 130 130" fill="none" xmlns="http://www.w3.org/2000/svg">
<path d="M8.38708 115.323C8.38708 118.79 11.2097 121.613 14.6774 121.613C18.1451 121.613 20.9677 118.79 20.9677 115.323C20.9677 111.855 18.1451 109.032 14.6774 109.032C11.2097 109.032 8.38708 111.855 8.38708 115.323ZM16.7742 115.323C16.7742 116.477 15.8323 117.419 14.6774 117.419C13.5225 117.419 12.5806 116.477 12.5806 115.323C12.5806 114.168 13.5225 113.226 14.6774 113.226C15.8323 113.226 16.7742 114.168 16.7742 115.323Z" fill="#FACF38"/>
<path d="M73.3871 79.6775H77.5806V83.871H73.3871V79.6775Z" fill="#0F7CE3"/>
<path d="M65 79.6775H69.1936V83.871H65V79.6775Z" fill="#0F7CE3"/>
<path d="M56.6129 79.6775H60.8065V83.871H56.6129V79.6775Z" fill="#0F7CE3"/>
<path d="M12.5806 90.1614V100.813C5.47844 101.836 0 107.944 0 115.323C0 123.416 6.58416 130 14.6774 130C22.7707 130 29.3548 123.416 29.3548 115.323C29.3548 107.944 23.8764 101.836 16.7742 100.813V90.1614C16.7742 86.6937 19.5969 83.871 23.0645 83.871H52.4194V79.6775H23.0645C17.2841 79.6775 12.5806 84.3809 12.5806 90.1614ZM25.1613 115.323C25.1613 121.103 20.4579 125.807 14.6774 125.807C8.89696 125.807 4.19355 121.103 4.19355 115.323C4.19355 109.542 8.89696 104.839 14.6774 104.839C20.4579 104.839 25.1613 109.542 25.1613 115.323Z" fill="#0F7CE3"/>
<path d="M119.516 65V56.6129H123.71V52.4194H119.516V48.2258H123.71V44.0323H119.516V42.3737C126.012 38.132 130 30.8414 130 23.0645C130 10.3477 119.652 0 106.935 0C94.2186 0 83.8709 10.3477 83.8709 23.0645C83.8709 30.8435 87.8587 38.1341 94.3548 42.3737V44.0323H90.1613V48.2258H94.3548V52.4194H90.1613V56.6129H94.3548V65H104.839V73.3871C104.839 76.8548 102.016 79.6774 98.5484 79.6774H81.7742V83.871H98.5484C104.329 83.871 109.032 79.1676 109.032 73.3871V65H119.516ZM97.502 39.3903C91.6816 36.0189 88.0645 29.7613 88.0645 23.0645C88.0645 12.6605 96.5314 4.19355 106.935 4.19355C117.339 4.19355 125.806 12.6605 125.806 23.0645C125.806 29.7613 122.189 36.0189 116.369 39.3903L115.323 39.9964V44.0323H109.032V28.9689C111.467 28.1007 113.226 25.794 113.226 23.0645C113.226 19.5969 110.403 16.7742 106.935 16.7742C103.468 16.7742 100.645 19.5969 100.645 23.0645C100.645 25.794 102.404 28.1007 104.839 28.9689V44.0323H98.5484V39.9964L97.502 39.3903ZM104.839 23.0645C104.839 21.9097 105.781 20.9677 106.935 20.9677C108.09 20.9677 109.032 21.9097 109.032 23.0645C109.032 24.2194 108.09 25.1613 106.935 25.1613C105.781 25.1613 104.839 24.2194 104.839 23.0645ZM98.5484 48.2258H115.323V52.4194H98.5484V48.2258ZM98.5484 56.6129H115.323V60.8064H98.5484V56.6129Z" fill="#FACF38"/>
<path d="M126.421 84.4854L121.613 89.2932L116.805 84.4854L113.84 87.4503L118.648 92.2582L113.84 97.066L116.805 100.031L121.613 95.2231L126.421 100.031L129.386 97.066L124.578 92.2582L129.386 87.4503L126.421 84.4854Z" fill="#0F7CE3"/>
<path d="M46.7434 99.1626L41.9355 103.97L37.1277 99.1626L34.1627 102.128L38.9706 106.935L34.1627 111.743L37.1277 114.708L41.9355 109.9L46.7434 114.708L49.7083 111.743L44.9005 106.935L49.7083 102.128L46.7434 99.1626Z" fill="#0F7CE3"/>
<path d="M3.57923 16.1599L8.38707 11.352L13.1949 16.1599L16.1599 13.1949L11.352 8.38707L16.1599 3.57923L13.1949 0.614258L8.38707 5.4221L3.57923 0.614258L0.614258 3.57923L5.4221 8.38707L0.614258 13.1949L3.57923 16.1599Z" fill="#0F7CE3"/>
<path d="M69.8078 23.6787L65 28.4865L60.1921 23.6787L57.2272 26.6437L62.035 31.4515L57.2272 36.2594L60.1921 39.2243L65 34.4165L69.8078 39.2243L72.7728 36.2594L67.965 31.4515L72.7728 26.6437L69.8078 23.6787Z" fill="#0F7CE3"/>
<path d="M3.57923 72.7729L8.38707 67.9651L13.1949 72.7729L16.1599 69.8079L11.352 65.0001L16.1599 60.1923L13.1949 57.2273L8.38707 62.0351L3.57923 57.2273L0.614258 60.1923L5.4221 65.0001L0.614258 69.8079L3.57923 72.7729Z" fill="#0F7CE3"/>
<path d="M31.4517 44.0323C36.0773 44.0323 39.8388 40.2708 39.8388 35.6452C39.8388 31.0196 36.0773 27.2581 31.4517 27.2581C26.8261 27.2581 23.0646 31.0196 23.0646 35.6452C23.0646 40.2708 26.8261 44.0323 31.4517 44.0323ZM31.4517 31.4516C33.7645 31.4516 35.6452 33.3324 35.6452 35.6452C35.6452 37.958 33.7645 39.8387 31.4517 39.8387C29.1389 39.8387 27.2581 37.958 27.2581 35.6452C27.2581 33.3324 29.1389 31.4516 31.4517 31.4516Z" fill="#0F7CE3"/>
<path d="M85.9678 104.839C81.3422 104.839 77.5807 108.6 77.5807 113.226C77.5807 117.852 81.3422 121.613 85.9678 121.613C90.5934 121.613 94.3549 117.852 94.3549 113.226C94.3549 108.6 90.5934 104.839 85.9678 104.839ZM85.9678 117.42C83.655 117.42 81.7742 115.539 81.7742 113.226C81.7742 110.913 83.655 109.032 85.9678 109.032C88.2806 109.032 90.1613 110.913 90.1613 113.226C90.1613 115.539 88.2806 117.42 85.9678 117.42Z" fill="#0F7CE3"/>
</svg>
