<svg width="140" height="140" viewBox="0 0 140 140" fill="none" xmlns="http://www.w3.org/2000/svg">
<path d="M133.284 91.0439L124.534 69.1689C124.119 68.6658 123.987 67.922 122.5 67.7908H87.5C87.2127 67.7908 86.9282 67.8474 86.6628 67.9573C86.3974 68.0672 86.1563 68.2283 85.9532 68.4315C85.75 68.6346 85.5889 68.8758 85.479 69.1412C85.369 69.4066 85.3125 69.691 85.3125 69.9783C85.3125 70.2655 85.369 70.55 85.479 70.8154C85.5889 71.0808 85.75 71.3219 85.9532 71.5251C86.1563 71.7282 86.3974 71.8893 86.6628 71.9993C86.9282 72.1092 87.2127 72.1658 87.5 72.1658H88.0031L77.5031 89.6658H12.6218L23.1218 72.1658H52.5C53.0801 72.1658 53.6365 71.9353 54.0468 71.5251C54.457 71.1148 54.6875 70.5584 54.6875 69.9783C54.6875 69.3981 54.457 68.8417 54.0468 68.4315C53.6365 68.0212 53.0801 67.7908 52.5 67.7908H21.875C21.501 67.8166 21.1376 67.9263 20.8119 68.1119C20.4862 68.2975 20.2066 68.5541 19.9937 68.8626L6.86872 90.7376C6.66623 91.0702 6.55619 91.4509 6.54996 91.8402C6.54374 92.2295 6.64155 92.6135 6.83329 92.9524C7.02504 93.2913 7.30378 93.5729 7.64072 93.768C7.97766 93.9632 8.36059 94.0649 8.74997 94.0626H19.6875V131.25C19.6875 131.83 19.9179 132.387 20.3282 132.797C20.7384 133.207 21.2948 133.438 21.875 133.438H122.5C123.08 133.438 123.637 133.207 124.047 132.797C124.457 132.387 124.687 131.83 124.687 131.25V94.0626H131.25C131.608 94.0632 131.961 93.9757 132.278 93.8079C132.594 93.64 132.865 93.397 133.066 93.1001C133.269 92.802 133.395 92.4583 133.433 92.0995C133.471 91.7407 133.42 91.3781 133.284 91.0439ZM24.0625 113.75H50.3125V120.313H24.0625V113.75ZM24.0625 124.688H52.5C53.0801 124.688 53.6365 124.457 54.0468 124.047C54.457 123.637 54.6875 123.08 54.6875 122.5V111.563C54.6875 110.982 54.457 110.426 54.0468 110.016C53.6365 109.606 53.0801 109.375 52.5 109.375H24.0625V94.0626H78.75C79.1275 94.0648 79.4992 93.9693 79.8288 93.7853C80.1585 93.6013 80.4349 93.3351 80.6312 93.0126L89.6875 77.8751V129.063H24.0625V124.688ZM120.312 129.063H94.0625V81.3533L98.5906 92.6845C98.7527 93.0915 99.0333 93.4405 99.396 93.6862C99.7587 93.9319 100.187 94.0631 100.625 94.0626H120.312V129.063ZM102.112 89.6876L95.1125 72.1876H121.012L128.012 89.6876H102.112Z" fill="#0F7CE3"/>
<path d="M61.25 111.562C60.6698 111.562 60.1134 111.793 59.7032 112.203C59.293 112.613 59.0625 113.17 59.0625 113.75V122.5C59.0625 123.08 59.293 123.637 59.7032 124.047C60.1134 124.457 60.6698 124.688 61.25 124.688C61.8302 124.688 62.3866 124.457 62.7968 124.047C63.207 123.637 63.4375 123.08 63.4375 122.5V113.75C63.4375 113.17 63.207 112.613 62.7968 112.203C62.3866 111.793 61.8302 111.562 61.25 111.562Z" fill="#0F7CE3"/>
<path d="M70 111.562C69.4198 111.562 68.8634 111.793 68.4532 112.203C68.043 112.613 67.8125 113.17 67.8125 113.75V122.5C67.8125 123.08 68.043 123.637 68.4532 124.047C68.8634 124.457 69.4198 124.688 70 124.688C70.5802 124.688 71.1366 124.457 71.5468 124.047C71.957 123.637 72.1875 123.08 72.1875 122.5V113.75C72.1875 113.17 71.957 112.613 71.5468 112.203C71.1366 111.793 70.5802 111.562 70 111.562Z" fill="#0F7CE3"/>
<path d="M45.5437 63.5469C45.9898 63.6389 46.4526 63.6058 46.8811 63.4514C47.3095 63.297 47.687 63.0272 47.9718 62.6719C47.9718 62.6719 51.4062 57.75 55.6281 57.4437C56.7895 57.4318 57.9378 57.6905 58.9819 58.1993C60.026 58.708 60.9374 59.453 61.6437 60.375C61.8406 60.6311 62.0918 60.8405 62.3793 60.988C62.6667 61.1355 62.9833 61.2175 63.3062 61.2281H76.6937C77.0129 61.2143 77.3252 61.1308 77.6086 60.9834C77.8921 60.836 78.1398 60.6284 78.3344 60.375C79.0519 59.4653 79.9655 58.7292 81.0071 58.2217C82.0487 57.7142 83.1913 57.4483 84.35 57.4437C88.6156 57.7281 92.0062 62.6281 92.0281 62.6719C92.3079 63.0333 92.6849 63.3075 93.1149 63.4625C93.5449 63.6174 94.0102 63.6467 94.4562 63.5469C94.9 63.4177 95.2915 63.1512 95.5744 62.7857C95.8574 62.4202 96.0173 61.9745 96.0312 61.5125C96.3812 47.5562 89.075 43.2906 85.0937 42C85.2429 40.7587 85.316 39.5095 85.3125 38.2594C85.3125 21.2625 72.1875 7.76561 71.5531 7.19686C71.3497 6.99183 71.1078 6.8291 70.8412 6.71804C70.5747 6.60698 70.2887 6.5498 70 6.5498C69.7112 6.5498 69.4253 6.60698 69.1587 6.71804C68.8921 6.8291 68.6502 6.99183 68.4468 7.19686C67.8125 7.76561 54.6875 21.2625 54.6875 38.2594C54.6912 39.51 54.7716 40.7592 54.9281 42C50.925 43.2906 43.6187 47.5562 43.9906 61.5125C44.0031 61.9717 44.1598 62.4154 44.4386 62.7805C44.7173 63.1457 45.104 63.4138 45.5437 63.5469ZM91.2406 55.7156C89.3454 54.234 87.0709 53.3167 84.6781 53.0687C83.8002 52.9983 82.9168 53.0499 82.0531 53.2219C82.9708 51.0042 83.7025 48.714 84.2406 46.375C86.7562 47.2937 90.0593 49.6562 91.2406 55.7156ZM70 12.0312C73.3468 16.0125 80.9375 26.3812 80.9375 38.2812C80.7211 44.8548 78.8069 51.2604 75.3812 56.875H64.6187C61.1894 51.254 59.2751 44.8404 59.0625 38.2594C59.0625 26.3812 66.6531 16.0125 70 12.0312ZM55.65 46.375C56.1881 48.714 56.9198 51.0042 57.8375 53.2219C56.9737 53.0499 56.0903 52.9983 55.2125 53.0687C52.8197 53.3167 50.5452 54.234 48.65 55.7156C49.9406 49.6562 53.2437 47.2937 55.65 46.375Z" fill="#FACF38"/>
<path d="M74.375 41.5625C74.9552 41.5625 75.5116 41.332 75.9218 40.9218C76.332 40.5116 76.5625 39.9552 76.5625 39.375V30.625C76.5625 30.0448 76.332 29.4884 75.9218 29.0782C75.5116 28.668 74.9552 28.4375 74.375 28.4375H65.625C65.0448 28.4375 64.4884 28.668 64.0782 29.0782C63.668 29.4884 63.4375 30.0448 63.4375 30.625V39.375C63.4375 39.9552 63.668 40.5116 64.0782 40.9218C64.4884 41.332 65.0448 41.5625 65.625 41.5625H74.375ZM67.8125 32.8125H72.1875V37.1875H67.8125V32.8125Z" fill="#FACF38"/>
<path d="M67.8125 67.8125V78.75C67.8125 79.3302 68.043 79.8866 68.4532 80.2968C68.8634 80.707 69.4198 80.9375 70 80.9375C70.5802 80.9375 71.1366 80.707 71.5468 80.2968C71.957 79.8866 72.1875 79.3302 72.1875 78.75V67.8125C72.1875 67.2323 71.957 66.6759 71.5468 66.2657C71.1366 65.8555 70.5802 65.625 70 65.625C69.4198 65.625 68.8634 65.8555 68.4532 66.2657C68.043 66.6759 67.8125 67.2323 67.8125 67.8125Z" fill="#FACF38"/>
<path d="M76.5625 65.625V72.1875C76.5625 72.7677 76.793 73.3241 77.2032 73.7343C77.6134 74.1445 78.1698 74.375 78.75 74.375C79.3302 74.375 79.8866 74.1445 80.2968 73.7343C80.707 73.3241 80.9375 72.7677 80.9375 72.1875V65.625C80.9375 65.0448 80.707 64.4884 80.2968 64.0782C79.8866 63.668 79.3302 63.4375 78.75 63.4375C78.1698 63.4375 77.6134 63.668 77.2032 64.0782C76.793 64.4884 76.5625 65.0448 76.5625 65.625Z" fill="#FACF38"/>
<path d="M61.25 63.4375C60.6698 63.4375 60.1134 63.668 59.7032 64.0782C59.293 64.4884 59.0625 65.0448 59.0625 65.625V72.1875C59.0625 72.7677 59.293 73.3241 59.7032 73.7343C60.1134 74.1445 60.6698 74.375 61.25 74.375C61.8302 74.375 62.3866 74.1445 62.7968 73.7343C63.207 73.3241 63.4375 72.7677 63.4375 72.1875V65.625C63.4375 65.0448 63.207 64.4884 62.7968 64.0782C62.3866 63.668 61.8302 63.4375 61.25 63.4375Z" fill="#FACF38"/>
</svg>
