<svg width="104" height="44" viewBox="0 0 104 44" fill="none" xmlns="http://www.w3.org/2000/svg">
<g clip-path="url(#clip0)">
<path d="M42.2689 11.5009C42.2674 11.4898 42.2655 11.479 42.2638 11.4681C42.2571 11.4275 42.2484 11.3877 42.2372 11.3487C42.2356 11.3427 42.2343 11.3368 42.2325 11.3308C42.2186 11.2858 42.2018 11.242 42.1822 11.1996C42.1789 11.1924 42.1751 11.1855 42.1717 11.1784C42.1539 11.1417 42.1339 11.1062 42.1121 11.0719C42.1078 11.0651 42.1037 11.058 42.0993 11.0513C42.0737 11.0132 42.0459 10.9768 42.0156 10.9423C42.0097 10.9355 42.0034 10.9292 41.9972 10.9225C41.9706 10.8937 41.9426 10.8664 41.9131 10.8404C41.9056 10.8338 41.8983 10.827 41.8907 10.8206C41.8548 10.7908 41.8171 10.7632 41.7775 10.738C41.7713 10.7341 41.765 10.7307 41.7588 10.727C41.7212 10.704 41.6821 10.6834 41.6417 10.6649C41.6375 10.6631 41.6338 10.6605 41.6297 10.6586L22.6573 2.29612C22.3668 2.1679 22.0333 2.1679 21.7428 2.29612L8.63366 8.07451C8.07721 8.31978 7.83099 8.9566 8.08355 9.497C8.33596 10.0374 8.992 10.2772 9.5483 10.0312L22.2001 4.45444L38.4596 11.6214L22.2001 18.5608L3.67293 10.6536C3.6716 10.653 3.67027 10.6527 3.66894 10.6522C3.6418 10.6407 3.61377 10.6308 3.58559 10.6214C3.57851 10.6189 3.57143 10.6161 3.56435 10.6138C3.54119 10.6066 3.51729 10.601 3.49354 10.5953C3.481 10.5923 3.46846 10.5886 3.45577 10.586C3.44058 10.5828 3.42494 10.5811 3.40945 10.5785C3.38791 10.5751 3.36638 10.5712 3.34484 10.5689C3.33481 10.5679 3.32433 10.5678 3.31415 10.5671C3.28716 10.5651 3.26031 10.5633 3.23346 10.5632C3.23154 10.5632 3.22977 10.5629 3.22785 10.5629C3.21738 10.5629 3.2072 10.5642 3.19687 10.5645C3.17297 10.5651 3.14908 10.5658 3.12547 10.5679C3.10703 10.5695 3.08903 10.5724 3.07089 10.5749C3.05422 10.5774 3.0374 10.5792 3.02103 10.5824C2.99846 10.5865 2.97647 10.592 2.95435 10.5973C2.9424 10.6003 2.93045 10.6029 2.91865 10.6063C2.89475 10.6131 2.87144 10.6211 2.84828 10.6292C2.83825 10.6327 2.82821 10.636 2.81833 10.6398C2.79546 10.6487 2.77319 10.6586 2.75106 10.6689C2.74088 10.6738 2.73041 10.6782 2.72038 10.6834C2.70031 10.6934 2.68069 10.7045 2.66137 10.7158C2.64942 10.7227 2.63747 10.7294 2.62596 10.7367C2.60929 10.7472 2.59321 10.7585 2.57713 10.7698C2.56371 10.7792 2.55028 10.7887 2.5373 10.7987C2.52373 10.8093 2.5106 10.8205 2.49762 10.8317C2.48345 10.8437 2.46944 10.8556 2.45602 10.8684C2.44436 10.8794 2.4333 10.8911 2.42223 10.9026C2.40896 10.9164 2.39568 10.93 2.38299 10.9444C2.37178 10.9573 2.36131 10.9711 2.35054 10.9845C2.33962 10.9983 2.3287 11.0118 2.31838 11.0262C2.30613 11.0434 2.29507 11.0613 2.28386 11.0792C2.27663 11.0908 2.26896 11.1022 2.26202 11.1141C2.24875 11.1373 2.23694 11.1612 2.22529 11.1853C2.22204 11.1921 2.21806 11.1983 2.21496 11.2053C2.21437 11.2066 2.21408 11.208 2.21349 11.2092C2.20169 11.2355 2.19151 11.2626 2.18192 11.2898C2.17941 11.2969 2.17631 11.3037 2.17395 11.3108C2.16672 11.333 2.16097 11.3559 2.15522 11.3787C2.15197 11.3913 2.14799 11.4037 2.14519 11.4165C2.14209 11.4305 2.14046 11.4449 2.13796 11.459C2.13412 11.4808 2.12999 11.5026 2.12763 11.5245C2.12675 11.5331 2.12675 11.5417 2.12601 11.5503C2.12365 11.5778 2.12188 11.6055 2.12173 11.633C2.12173 11.6345 2.12158 11.636 2.12158 11.6377V32.6159C2.12158 33.0349 2.37237 33.4157 2.76404 33.5914L21.7363 42.1011C21.7363 42.1011 21.739 42.102 21.7401 42.1027C21.7483 42.1061 21.7565 42.1087 21.7646 42.112C21.8015 42.1273 21.8385 42.1408 21.8762 42.152C21.8893 42.1559 21.9026 42.1591 21.916 42.1626C21.9518 42.1719 21.9877 42.1794 22.0237 42.1851C22.0347 42.1868 22.0458 42.1889 22.057 42.1904C22.1045 42.1964 22.1522 42.2004 22.1995 42.2004C22.2042 42.2004 22.2088 42.1996 22.2135 42.1994C22.2553 42.199 22.297 42.196 22.3386 42.1908C22.354 42.189 22.369 42.1861 22.3841 42.1836C22.4164 42.1783 22.4485 42.1718 22.4804 42.1636C22.4953 42.1599 22.5099 42.1561 22.5245 42.1517C22.5598 42.1412 22.5943 42.1288 22.6287 42.1147C22.6383 42.1109 22.648 42.1077 22.6574 42.1036C22.6597 42.1026 22.662 42.102 22.6641 42.101L41.6363 33.5912C42.028 33.4156 42.2788 33.0348 42.2788 32.6157V11.6373C42.2788 11.591 42.2748 11.5456 42.2689 11.5009ZM23.3065 39.4454V25.0175C23.3065 24.424 22.8113 23.943 22.2001 23.943C21.5889 23.943 21.0937 24.424 21.0937 25.0175V39.4455L4.33427 31.9283V13.2831L21.755 20.7181C21.897 20.7787 22.0485 20.8089 22.2003 20.8089C22.3521 20.8089 22.5036 20.7787 22.6455 20.7181L40.066 13.2831V31.9282L23.3065 39.4454Z" fill="white"/>
</g>
<path fill-rule="evenodd" clip-rule="evenodd" d="M49.1413 2.20001C48.8424 2.20001 48.6001 2.44232 48.6001 2.74122V22.4588C48.6001 22.7577 48.8424 23 49.1413 23H96.0589C96.3578 23 96.6001 22.7577 96.6001 22.4588V2.74122C96.6001 2.44232 96.3578 2.20001 96.0589 2.20001H49.1413ZM63.4422 7.26888C62.6889 6.50252 61.5783 6.11934 60.1105 6.11934H52.5119V19.7579H60.1105C61.5783 19.7579 62.6889 19.3812 63.4422 18.6278C64.2086 17.8615 64.5918 16.7444 64.5918 15.2767V10.6006C64.5918 9.13281 64.2086 8.02225 63.4422 7.26888ZM59.3312 8.84705C60.5002 8.84705 61.0847 9.43156 61.0847 10.6006V15.2767C61.0847 16.4457 60.5002 17.0302 59.3312 17.0302H56.0189V8.84705H59.3312ZM74.7179 6.11934H66.5348V19.7579H70.0418V15.6663H72.7696L75.0102 19.7579H78.8095L76.374 15.4715C77.1534 15.2767 77.7184 14.8805 78.0691 14.283C78.4328 13.6855 78.6147 12.8477 78.6147 11.7696V10.0161C78.6147 8.65222 78.3029 7.66505 77.6794 7.05456C77.069 6.43108 76.0818 6.11934 74.7179 6.11934ZM73.9386 8.84705C74.7179 8.84705 75.1076 9.23673 75.1076 10.0161V11.7696C75.1076 12.5489 74.7179 12.9386 73.9386 12.9386H70.0418V8.84705H73.9386ZM82.7009 6.11934H78.999L84.1622 16.1534V19.7579H87.6692V16.1534L92.8324 6.11934H89.1305L85.9157 12.7438L82.7009 6.11934Z" fill="white"/>
<path d="M53.2762 41.8H49.7691V28.1614H53.2762V33.5194H55.0297L58.0692 28.1614H61.771L57.9522 34.8833L61.7516 41.8H58.0497L55.0297 36.2471H53.2762V41.8ZM69.3654 41.8H62.3513V39.0723H64.1048V30.8891H62.3513V28.1614H69.3654V30.8891H67.6119V39.0723H69.3654V41.8ZM70.7083 38.9749C74.2673 39.1697 76.6767 39.2671 77.9367 39.2671C78.2354 39.2671 78.4692 39.1827 78.6381 39.0138C78.8199 38.832 78.9109 38.5917 78.9109 38.2929V36.5394H74.4296C73.0658 36.5394 72.0721 36.2342 71.4486 35.6237C70.8381 35.0002 70.5329 34.0065 70.5329 32.6427V32.0582C70.5329 30.6943 70.8381 29.7071 71.4486 29.0966C72.0721 28.4732 73.0658 28.1614 74.4296 28.1614H81.2684V30.8891H75.209C74.4296 30.8891 74.04 31.2788 74.04 32.0582V32.4478C74.04 33.2272 74.4296 33.6169 75.209 33.6169H78.716C79.989 33.6169 80.9242 33.9156 81.5217 34.5131C82.1192 35.1106 82.4179 36.0458 82.4179 37.3187V38.2929C82.4179 39.5659 82.1192 40.5011 81.5217 41.0986C80.9242 41.6961 79.989 41.9948 78.716 41.9948C78.0536 41.9948 77.3522 41.9818 76.6118 41.9559L74.8193 41.8779C73.4944 41.813 72.1241 41.7221 70.7083 41.6052V38.9749ZM83.7608 38.9749C87.3198 39.1697 89.7293 39.2671 90.9892 39.2671C91.288 39.2671 91.5218 39.1827 91.6906 39.0138C91.8725 38.832 91.9634 38.5917 91.9634 38.2929V36.5394H87.4822C86.1183 36.5394 85.1246 36.2342 84.5012 35.6237C83.8907 35.0002 83.5854 34.0065 83.5854 32.6427V32.0582C83.5854 30.6943 83.8907 29.7071 84.5012 29.0966C85.1246 28.4732 86.1183 28.1614 87.4822 28.1614H94.3209V30.8891H88.2615C87.4822 30.8891 87.0925 31.2788 87.0925 32.0582V32.4478C87.0925 33.2272 87.4822 33.6169 88.2615 33.6169H91.7686C93.0415 33.6169 93.9767 33.9156 94.5742 34.5131C95.1717 35.1106 95.4705 36.0458 95.4705 37.3187V38.2929C95.4705 39.5659 95.1717 40.5011 94.5742 41.0986C93.9767 41.6961 93.0415 41.9948 91.7686 41.9948C91.1061 41.9948 90.4047 41.9818 89.6643 41.9559L87.8718 41.8779C86.5469 41.813 85.1766 41.7221 83.7608 41.6052V38.9749Z" fill="#BDBDBD"/>
<defs>
<clipPath id="clip0">
<rect width="40" height="40" fill="white" transform="translate(2.19995 2.20001)"/>
</clipPath>
</defs>
</svg>
