<svg width="128" height="27" viewBox="0 0 128 27" fill="none" xmlns="http://www.w3.org/2000/svg">
<g clip-path="url(#clip0)">
<path d="M14.4591 20.1712H6.60228C6.20398 20.1712 5.92856 20.1005 5.78386 19.9611C5.59434 19.7573 5.43797 19.5271 5.32009 19.2782C5.1518 18.958 4.92012 18.6725 4.63808 18.4378C4.61718 18.4364 4.59676 18.4311 4.57803 18.4221C4.55929 18.413 4.54261 18.4005 4.52896 18.3852L4.45498 18.3141L4.45258 18.3117L4.45127 18.3104L4.44799 18.3073L4.44657 18.3059C4.42846 18.2885 4.25408 18.1559 3.92824 17.9119L3.76456 17.8069L3.62816 17.6756L3.54686 17.5973L3.38318 17.4397L3.14835 17.2137L2.94975 17.0225L2.94244 17.0154L2.61933 16.7043L2.59205 16.678L2.56477 16.6518C2.31215 16.3391 2.07372 16.0214 1.85547 15.7062C1.63424 15.3858 1.4338 15.0525 1.2553 14.7082C1.2479 14.7092 1.24035 14.7085 1.23326 14.7062C1.22617 14.7039 1.21972 14.7001 1.21444 14.695C1.20915 14.6899 1.20516 14.6837 1.20278 14.6769C1.20041 14.67 1.19971 14.6628 1.20074 14.6557C1.03583 14.3312 0.890101 13.9979 0.764254 13.6576C0.756847 13.6586 0.749302 13.6579 0.74221 13.6556C0.735119 13.6533 0.728676 13.6495 0.723388 13.6444C0.7181 13.6393 0.71411 13.6331 0.711734 13.6263C0.709358 13.6195 0.708659 13.6122 0.709693 13.6051V13.5525C0.600571 13.2734 0.490795 12.9552 0.382328 12.607L0.355156 12.5282C0.336933 12.4757 0.327876 12.4494 0.327876 12.4494C0.249805 12.1384 0.195103 11.8225 0.164193 11.5039C0.162242 11.459 0.153038 11.4147 0.136912 11.3726C0.120772 11.3304 0.111532 11.2861 0.109523 11.2413C0.0732944 10.8583 0.0549619 10.4695 0.0549619 10.0856C0.0533361 9.41431 0.117272 8.74435 0.245925 8.08457C0.496256 6.81 1.01627 5.59864 1.77363 4.52582C2.16807 3.96774 2.61558 3.44618 3.11038 2.96791C3.60269 2.4873 4.14105 2.05253 4.71829 1.66939C5.82996 0.932905 7.08886 0.427547 8.41468 0.185545C9.79596 -0.0618483 11.2128 -0.0618483 12.5941 0.185545C13.9239 0.428258 15.1872 0.93352 16.3042 1.66949C17.4655 2.44025 18.4712 3.40815 19.2723 4.52582C20.0358 5.5969 20.5606 6.80859 20.8137 8.08457C20.9435 8.74422 21.008 9.41423 21.0064 10.0856C21.0064 10.4688 20.988 10.8576 20.9518 11.2413C20.9339 11.2584 20.9198 11.2789 20.9104 11.3015C20.9011 11.3241 20.8966 11.3483 20.8972 11.3726V11.5039C20.8248 11.8525 20.7698 12.1706 20.7336 12.4494C20.7262 12.4485 20.7186 12.4491 20.7115 12.4514C20.7045 12.4537 20.698 12.4576 20.6927 12.4627C20.6875 12.4677 20.6835 12.4739 20.6811 12.4808C20.6787 12.4876 20.678 12.4948 20.679 12.502V12.607C20.5708 12.9544 20.4608 13.2726 20.3516 13.5525V13.6051L20.2971 13.6576C20.1712 13.9979 20.0255 14.3312 19.8606 14.6557C19.8616 14.6628 19.8609 14.67 19.8585 14.6769C19.8561 14.6837 19.8521 14.6899 19.8468 14.6949C19.8416 14.7 19.8351 14.7039 19.828 14.7062C19.821 14.7085 19.8134 14.7092 19.806 14.7082C19.6276 15.0525 19.4271 15.3858 19.2059 15.7062C18.9886 16.0199 18.7499 16.3382 18.4966 16.6518L18.4693 16.678L18.442 16.7043C18.2058 16.9666 17.9506 17.2123 17.6782 17.4397L17.5963 17.4922C17.5157 17.5347 17.4495 17.5985 17.4053 17.6761C17.3735 17.7231 17.3369 17.7671 17.2962 17.8074C17.2582 17.8079 17.2209 17.8169 17.1871 17.8337C17.1708 17.84 17.1569 17.8509 17.1472 17.865C17.1375 17.879 17.1324 17.8956 17.1325 17.9125C16.8021 18.1599 16.6325 18.2888 16.6142 18.3064C16.5802 18.3356 16.5437 18.3619 16.5051 18.3852L16.4233 18.4378C16.1181 18.657 15.8744 18.9458 15.714 19.2782C15.6108 19.5285 15.4631 19.7596 15.2775 19.9611C15.1328 20.1005 14.8575 20.1712 14.4591 20.1712ZM9.80446 13.656L9.69534 13.6652L9.83512 15.2036C9.72517 15.2396 9.63328 15.314 9.57772 15.4122C9.52216 15.5104 9.50699 15.6251 9.53523 15.7335C9.56346 15.8419 9.63304 15.9362 9.73013 15.9975C9.82722 16.0588 9.94473 16.0828 10.0593 16.0645C10.1739 16.0463 10.2771 15.9872 10.3485 15.899C10.4199 15.8109 10.4542 15.7001 10.4447 15.5886C10.4352 15.4772 10.3824 15.3733 10.297 15.2976C10.2115 15.2219 10.0996 15.1799 9.98353 15.18C9.96989 15.18 9.95614 15.1806 9.94272 15.1817L9.80446 13.656ZM11.7703 12.2693L11.969 13.0975C11.6257 13.203 11.339 13.4339 11.1706 13.7406C11.0021 14.0473 10.9653 14.4054 11.068 14.7379C11.1707 15.0705 11.4048 15.351 11.72 15.5192C12.0351 15.6874 12.4062 15.73 12.7536 15.6377C13.101 15.5454 13.397 15.3257 13.5779 15.0256C13.7589 14.7256 13.8104 14.3692 13.7214 14.033C13.6325 13.6968 13.4102 13.4076 13.1022 13.2274C12.7942 13.0473 12.4251 12.9906 12.0742 13.0696L11.8669 12.2041C11.9384 12.142 11.988 12.0598 12.0087 11.9692L12.8622 11.9835C12.8916 12.1422 12.9836 12.2839 13.1189 12.379C13.2541 12.4741 13.4223 12.5153 13.5883 12.494C13.7543 12.4727 13.9054 12.3905 14.0101 12.2646C14.1148 12.1388 14.165 11.9789 14.1502 11.8182C14.1355 11.6576 14.057 11.5086 13.931 11.4024C13.805 11.2961 13.6413 11.2407 13.474 11.2478C13.3066 11.2548 13.1486 11.3237 13.0327 11.4402C12.9169 11.5566 12.8521 11.7116 12.852 11.8729V11.8782L12.0194 11.8643C12.0184 11.8021 12.0039 11.7409 11.9768 11.6845C11.9498 11.6281 11.9107 11.5778 11.8623 11.5368C11.8138 11.4958 11.757 11.465 11.6954 11.4464C11.6338 11.4278 11.5689 11.4218 11.5048 11.4288L11.244 10.2473C11.3879 10.2138 11.5157 10.1341 11.6062 10.0212C11.6967 9.90839 11.7445 9.76919 11.7417 9.62665C11.7389 9.4841 11.6856 9.34674 11.5908 9.23728C11.4959 9.12782 11.365 9.0528 11.2199 9.02463L11.2618 7.84682C11.426 7.82773 11.5765 7.74906 11.6826 7.62684C11.7887 7.50463 11.8423 7.34808 11.8327 7.18908C11.823 7.03009 11.7508 6.88062 11.6306 6.77115C11.5105 6.66167 11.3515 6.60042 11.1861 6.59988C11.0532 6.59974 10.9235 6.63935 10.815 6.71324L9.71771 5.65667L9.64056 5.73095L10.7318 6.78153C10.6427 6.86674 10.5812 6.97496 10.5546 7.09312C10.528 7.21128 10.5376 7.33431 10.5821 7.44735C10.6266 7.56039 10.7042 7.6586 10.8055 7.73011C10.9067 7.80161 11.0273 7.84336 11.1527 7.85029L11.1105 9.01328H11.0938C10.9602 9.01367 10.8298 9.05377 10.7207 9.12809C10.6115 9.20241 10.5289 9.30735 10.484 9.42858L9.14907 9.08399C9.15049 9.06088 9.15126 9.03703 9.15126 9.01307C9.15183 8.71288 9.03126 8.42421 8.81498 8.20796C8.5987 7.99172 8.30363 7.86482 7.99203 7.85404C7.68042 7.84326 7.37665 7.94944 7.1448 8.15018C6.91296 8.35092 6.77118 8.63051 6.74937 8.92997H6.00614C6.00614 8.92787 6.00614 8.92577 6.00614 8.92377C6.0056 8.79006 5.9609 8.65998 5.87851 8.55234C5.79613 8.44469 5.68032 8.36505 5.54783 8.32494L5.752 7.40043C5.87569 7.41351 6.00067 7.39214 6.11212 7.33885C6.22356 7.28556 6.31677 7.20259 6.38067 7.0998C6.44457 6.997 6.47648 6.87871 6.47261 6.75897C6.46874 6.63923 6.42924 6.52308 6.35882 6.42431C6.2884 6.32555 6.19001 6.24832 6.07534 6.20181C5.96067 6.15529 5.83455 6.14145 5.71194 6.16192C5.58934 6.18239 5.47542 6.23631 5.38372 6.31728C5.29201 6.39825 5.22637 6.50286 5.1946 6.61869H4.61288C4.59426 6.50611 4.53167 6.40462 4.43792 6.335C4.34416 6.26537 4.22631 6.23286 4.10848 6.24412C3.99065 6.25538 3.88174 6.30955 3.80402 6.39556C3.72631 6.48157 3.68566 6.59292 3.69039 6.70683C3.69512 6.82074 3.74488 6.9286 3.82948 7.00836C3.91409 7.08812 4.02714 7.13374 4.14553 7.1359C4.26392 7.13806 4.37869 7.0966 4.46638 7.01999C4.55406 6.94337 4.60803 6.8374 4.61724 6.72375H5.17605C5.17442 6.7415 5.17354 6.75989 5.17354 6.77859C5.17379 6.91459 5.21989 7.04684 5.30493 7.15544C5.38996 7.26404 5.50932 7.34312 5.64506 7.38078L5.44144 8.30319C5.28045 8.28324 5.11756 8.32224 4.98503 8.41247C4.85251 8.5027 4.76003 8.63757 4.72593 8.79035L3.83058 8.66911C3.83178 8.6502 3.83244 8.63066 3.83244 8.61081C3.8322 8.3692 3.73512 8.13701 3.56141 7.96264C3.38771 7.78827 3.1508 7.68519 2.90008 7.67488C2.64936 7.66457 2.40419 7.74783 2.21567 7.9073C2.02716 8.06678 1.90986 8.29015 1.88823 8.53086C1.86661 8.77156 1.94232 9.01101 2.09959 9.19929C2.25685 9.38756 2.48353 9.51012 2.73237 9.54142C2.9812 9.57271 3.23298 9.51033 3.4352 9.36727C3.63743 9.22421 3.77449 9.01152 3.81781 8.77354L4.71196 8.89446C4.71196 8.9036 4.7113 8.91348 4.7113 8.92367C4.71194 9.05775 4.75701 9.18813 4.83995 9.29584C4.92289 9.40355 5.03938 9.48295 5.17245 9.5225L4.96643 10.4557C4.73134 10.4174 4.48982 10.4637 4.28788 10.5857C4.08594 10.7078 3.9377 10.8971 3.87139 11.1176L2.39825 10.7375C2.39825 10.7288 2.39912 10.7197 2.39912 10.7104C2.39896 10.5977 2.35456 10.4893 2.27483 10.4068C2.19509 10.3243 2.08591 10.2739 1.96919 10.2657C1.85247 10.2575 1.73683 10.292 1.64548 10.3625C1.55412 10.4329 1.4938 10.534 1.47661 10.6454C1.45942 10.7569 1.48664 10.8705 1.5528 10.9634C1.61896 11.0564 1.71917 11.1218 1.83334 11.1466C1.94751 11.1713 2.06719 11.1537 2.16838 11.097C2.26956 11.0404 2.34478 10.9491 2.37893 10.8413L3.84728 11.22C3.80454 11.4505 3.85315 11.688 3.98351 11.8856C4.11387 12.0833 4.31649 12.2266 4.55132 12.2874C4.78616 12.3481 5.03612 12.3218 5.25181 12.2137C5.4675 12.1056 5.63321 11.9236 5.71621 11.7035L6.84158 11.9938C6.83973 12.0128 6.83874 12.0323 6.83874 12.0522C6.83887 12.1437 6.85993 12.2341 6.90043 12.317C6.94094 12.3998 6.99989 12.473 7.0731 12.5314C7.14631 12.5898 7.23199 12.632 7.32404 12.6549C7.41609 12.6779 7.51226 12.681 7.60571 12.6641C7.69916 12.6472 7.7876 12.6107 7.86475 12.5572C7.94191 12.5037 8.00587 12.4345 8.0521 12.3545C8.09834 12.2745 8.1257 12.1857 8.13226 12.0944C8.13882 12.0031 8.1244 11.9115 8.09004 11.8261L8.78471 11.3395C8.86381 11.396 8.95977 11.4265 9.05828 11.4263C9.12355 11.4261 9.18804 11.4127 9.24755 11.3869C9.30706 11.3611 9.36026 11.3235 9.40365 11.2766C9.44705 11.2296 9.47968 11.1744 9.49941 11.1145C9.51914 11.0546 9.52553 10.9914 9.51816 10.929C9.51079 10.8665 9.48982 10.8063 9.45663 10.7522C9.42344 10.6981 9.37877 10.6514 9.32553 10.615C9.2723 10.5787 9.2117 10.5535 9.14769 10.5412C9.08369 10.529 9.01771 10.5298 8.95407 10.5438L8.63511 9.96595C8.76874 9.87565 8.88207 9.76032 8.96832 9.62686C9.05457 9.49341 9.11196 9.34457 9.13707 9.18926L10.4558 9.52944C10.4394 9.61923 10.4436 9.71138 10.4681 9.79945C10.4925 9.88753 10.5366 9.9694 10.5974 10.0393C10.6581 10.1093 10.734 10.1656 10.8197 10.2044C10.9054 10.2432 10.9988 10.2635 11.0935 10.2639C11.1073 10.2639 11.1212 10.2639 11.1349 10.2626L11.3976 11.4527C11.3304 11.4766 11.2699 11.515 11.2206 11.5651C11.1714 11.6152 11.1349 11.6755 11.1139 11.7414C11.0929 11.8073 11.088 11.877 11.0996 11.9451C11.1112 12.0131 11.1389 12.0776 11.1807 12.1336L10.1816 12.7347C10.1015 12.5936 9.96797 12.4878 9.80879 12.4392C9.64962 12.3907 9.47713 12.4033 9.32734 12.4743C9.17754 12.5453 9.06203 12.6692 9.0049 12.8203C8.94777 12.9713 8.95346 13.1378 9.02076 13.2849C9.08806 13.432 9.21179 13.5484 9.3661 13.6098C9.52041 13.6711 9.69338 13.6728 9.84891 13.6143C10.0044 13.5558 10.1305 13.4418 10.2007 13.2959C10.271 13.1501 10.2801 12.9838 10.226 12.8317L11.2557 12.2119C11.3256 12.2698 11.412 12.3062 11.5036 12.3163C11.5953 12.3264 11.6879 12.3097 11.7696 12.2685L11.7703 12.2693ZM15.3495 11.6943C15.1858 11.6948 15.0283 11.7547 14.9085 11.8622C14.7887 11.9696 14.7154 12.1166 14.7033 12.2738C14.6912 12.431 14.7412 12.5868 14.8432 12.7101C14.9452 12.8334 15.0918 12.915 15.2537 12.9388L15.1991 13.9322C15.0821 13.9463 14.975 14.0029 14.8999 14.0904C14.8248 14.1779 14.7872 14.2898 14.7948 14.4031C14.8025 14.5164 14.8549 14.6226 14.9412 14.7C15.0275 14.7774 15.1413 14.8201 15.2592 14.8195C15.3772 14.8188 15.4904 14.7747 15.5757 14.6964C15.6611 14.618 15.7121 14.5112 15.7184 14.3978C15.7246 14.2844 15.6856 14.173 15.6094 14.0863C15.5332 13.9997 15.4254 13.9443 15.3082 13.9316L15.3619 12.9455C15.532 12.9406 15.6932 12.8717 15.8111 12.7535C15.9289 12.6354 15.994 12.4775 15.9922 12.3138C15.9905 12.15 15.9222 11.9934 15.8019 11.8776C15.6816 11.7618 15.5189 11.696 15.3488 11.6944L15.3495 11.6943ZM15.9302 12.607L15.8709 12.6952L17.0197 13.4134C17.0161 13.4363 17.0142 13.4594 17.0143 13.4825C17.0144 13.5932 17.0572 13.6999 17.1344 13.7819C17.2116 13.8639 17.3177 13.9154 17.4321 13.9264C17.5465 13.9374 17.661 13.9071 17.7536 13.8414C17.8461 13.7757 17.9099 13.6792 17.9328 13.5707C17.9556 13.4622 17.9358 13.3495 17.8771 13.2542C17.8185 13.159 17.7252 13.0882 17.6154 13.0554C17.5056 13.0227 17.387 13.0303 17.2827 13.077C17.1785 13.1236 17.0959 13.2058 17.051 13.3078L15.9302 12.607ZM17.0732 10.1968L17.7497 10.9728C17.5608 11.1017 17.4259 11.2914 17.3696 11.5076C17.3132 11.7238 17.339 11.9523 17.4423 12.1519C17.5457 12.3514 17.7197 12.5087 17.933 12.5955C18.1463 12.6822 18.3848 12.6927 18.6054 12.6249C18.826 12.5572 19.0142 12.4157 19.1359 12.2261C19.2576 12.0364 19.3049 11.8111 19.2691 11.5908C19.2334 11.3706 19.117 11.1699 18.941 11.025C18.765 10.8802 18.541 10.8007 18.3094 10.801C18.1463 10.801 17.9859 10.8408 17.843 10.9165L17.1489 10.1202C17.2035 10.0546 17.2438 9.97905 17.2674 9.89815C17.2911 9.81724 17.2976 9.73258 17.2866 9.6492L18.464 9.28087C18.5354 9.42628 18.6624 9.53951 18.8185 9.59692C18.9745 9.65432 19.1476 9.65145 19.3015 9.58891C19.4554 9.52638 19.5783 9.40901 19.6445 9.26131C19.7106 9.11362 19.7149 8.94703 19.6565 8.79634C19.5981 8.64565 19.4815 8.52251 19.331 8.45265C19.1806 8.38278 19.0079 8.37158 18.849 8.4214C18.6902 8.47122 18.5575 8.5782 18.4786 8.71999C18.3998 8.86178 18.3809 9.02743 18.4259 9.18232L17.2637 9.54583C17.2228 9.41819 17.1407 9.30643 17.0293 9.22677C16.9179 9.14711 16.7831 9.10368 16.6443 9.10279C16.5844 9.10276 16.5247 9.11079 16.467 9.12664L16.0836 8.21263C16.1655 8.15503 16.2256 8.07322 16.2547 7.97968C16.2838 7.88613 16.2804 7.78598 16.2449 7.69449L16.9577 7.43111C17.0112 7.57943 17.1205 7.703 17.2641 7.77735C17.4077 7.8517 17.5751 7.87138 17.7331 7.83251C17.8911 7.79363 18.0281 7.69903 18.1171 7.56746C18.206 7.43588 18.2404 7.27693 18.2133 7.12212C18.1863 6.96731 18.0998 6.82793 17.9711 6.73161C17.8423 6.63529 17.6806 6.58906 17.5182 6.60208C17.3557 6.6151 17.2042 6.68642 17.0937 6.80191C16.9833 6.9174 16.9219 7.06862 16.9218 7.22561C16.9218 7.26007 16.9247 7.29447 16.9306 7.32846L16.1941 7.60046C16.156 7.54588 16.1057 7.50014 16.047 7.46655C15.9883 7.43295 15.9225 7.41234 15.8545 7.40621L15.8895 6.76251C16.0585 6.73076 16.2141 6.65205 16.3371 6.53609C16.4601 6.42013 16.5451 6.27202 16.5816 6.11005C16.6181 5.94809 16.6045 5.77938 16.5425 5.62476C16.4805 5.47015 16.3728 5.33642 16.2327 5.24009C16.0926 5.14377 15.9263 5.08907 15.7543 5.08277C15.5823 5.07647 15.4121 5.11883 15.2648 5.20463C15.1175 5.29042 14.9996 5.41589 14.9256 5.56551C14.8515 5.71514 14.8247 5.88237 14.8483 6.04654L14.1031 6.322C14.0659 6.24507 14.0067 6.17993 13.9324 6.13418C13.8581 6.08844 13.7719 6.06398 13.6837 6.06367C13.5944 6.06359 13.5069 6.08864 13.4321 6.13574L12.6947 5.6199C12.7673 5.47444 12.7788 5.30758 12.7267 5.15415C12.6746 5.00073 12.563 4.87262 12.4151 4.79658C12.2672 4.72054 12.0945 4.70245 11.9331 4.74609C11.7717 4.78972 11.6341 4.89172 11.5489 5.03076C11.4638 5.1698 11.4377 5.33514 11.4762 5.49224C11.5147 5.64935 11.6147 5.78606 11.7554 5.87383C11.8961 5.9616 12.0666 5.99364 12.2312 5.96326C12.3959 5.93287 12.542 5.84241 12.639 5.71077L13.3461 6.20539C13.2845 6.26891 13.2435 6.34833 13.2281 6.43394C13.2127 6.51954 13.2235 6.60762 13.2592 6.68741C13.295 6.76719 13.3541 6.83521 13.4293 6.88316C13.5046 6.93112 13.5927 6.95691 13.683 6.9574L13.7074 8.30845C13.4383 8.34281 13.1891 8.46361 13.0002 8.65128C12.8113 8.83896 12.6937 9.08253 12.6665 9.34256C12.6393 9.60259 12.704 9.86385 12.8502 10.0841C12.9964 10.3042 13.2156 10.4705 13.4721 10.5559C13.7287 10.6412 14.0077 10.6407 14.2639 10.5545C14.5201 10.4682 14.7386 10.3011 14.884 10.0804C15.0293 9.85971 15.0931 9.59822 15.0648 9.33829C15.0366 9.07836 14.9181 8.83521 14.7285 8.64821L15.4574 8.13836C15.5203 8.21098 15.6056 8.26238 15.7009 8.28505C15.7962 8.30773 15.8966 8.3005 15.9873 8.26443L16.3647 9.16362C16.2321 9.22505 16.1252 9.32792 16.0612 9.45543C15.9972 9.58294 15.9801 9.72757 16.0125 9.86569C16.0449 10.0038 16.125 10.1273 16.2397 10.2159C16.3544 10.3045 16.4969 10.3531 16.644 10.3537C16.8022 10.3536 16.9548 10.2975 17.0729 10.1961L17.0732 10.1968ZM7.13021 5.75196L7.58055 6.72574C7.47323 6.77063 7.38775 6.85327 7.34158 6.95679C7.29541 7.0603 7.29203 7.17689 7.33213 7.28272C7.37223 7.38856 7.45278 7.47566 7.55734 7.52624C7.6619 7.57682 7.78257 7.58707 7.8947 7.55488C8.00684 7.52269 8.10198 7.4505 8.1607 7.35306C8.21942 7.25561 8.23728 7.14026 8.21063 7.03056C8.18399 6.92086 8.11485 6.8251 8.01734 6.76282C7.91983 6.70055 7.8013 6.67646 7.68597 6.69549L7.22318 5.69481C7.27229 5.65606 7.31266 5.60806 7.34182 5.55375C7.37098 5.49945 7.38831 5.43998 7.39276 5.379L8.04203 5.32427C8.11727 5.54929 8.27788 5.73871 8.49182 5.85473C8.70575 5.97075 8.95726 6.00483 9.19614 5.95016C9.43502 5.89549 9.6437 5.75609 9.78052 5.5598C9.91734 5.36351 9.97223 5.12476 9.93425 4.89121C9.89626 4.65766 9.76819 4.4465 9.57559 4.29987C9.383 4.15324 9.14005 4.08194 8.89524 4.10019C8.65044 4.11844 8.42179 4.2249 8.25493 4.39833C8.08808 4.57175 7.9953 4.79938 7.99511 5.03577C7.99508 5.09803 8.00144 5.16015 8.0141 5.2212L7.38741 5.27373C7.37236 5.19014 7.33283 5.11242 7.27347 5.04972C7.21411 4.98702 7.13738 4.94195 7.05232 4.9198C6.96726 4.89765 6.87739 4.89934 6.7933 4.92469C6.7092 4.95004 6.63437 4.99798 6.57761 5.06287C6.52085 5.12777 6.48452 5.20692 6.4729 5.29102C6.46127 5.37511 6.47483 5.46066 6.51198 5.53759C6.54913 5.61452 6.60833 5.67964 6.68261 5.72528C6.75689 5.77092 6.84316 5.7952 6.93128 5.79524C7.00011 5.79538 7.06808 5.78051 7.1301 5.75175L7.13021 5.75196ZM6.8609 11.8897L5.74785 11.6026C5.80668 11.3677 5.76937 11.1201 5.64368 10.911C5.51798 10.7019 5.31353 10.5474 5.07272 10.4796L5.27917 9.54456C5.30557 9.5477 5.33213 9.54928 5.35872 9.54929C5.48732 9.54945 5.61301 9.51241 5.71948 9.44297L5.96741 9.75993C5.88918 9.83092 5.83912 9.92595 5.82583 10.0286C5.81255 10.1313 5.83688 10.2353 5.89463 10.3226C5.95238 10.4099 6.03993 10.475 6.14222 10.5069C6.24451 10.5387 6.35512 10.5352 6.45501 10.497C6.5549 10.4587 6.63782 10.3882 6.68948 10.2974C6.74114 10.2066 6.75832 10.1014 6.73805 9.99974C6.71778 9.8981 6.66133 9.80645 6.57843 9.74057C6.49553 9.67469 6.39136 9.6387 6.28386 9.6388C6.20348 9.63872 6.12447 9.65889 6.0547 9.69732L5.80372 9.3771C5.90412 9.28579 5.97147 9.1659 5.99589 9.03503H6.74654C6.7534 9.33832 6.88285 9.62708 7.10736 9.83993C7.33187 10.0528 7.63375 10.173 7.94884 10.1749C8.15737 10.1748 8.36226 10.1223 8.54323 10.0226L8.85106 10.5799C8.78871 10.6103 8.73429 10.6539 8.69185 10.7074C8.64942 10.7609 8.62007 10.8229 8.60598 10.8889C8.5919 10.9548 8.59344 11.0229 8.6105 11.0882C8.62756 11.1535 8.65969 11.2142 8.70451 11.2658L8.04149 11.7297C7.97631 11.6244 7.8803 11.54 7.7655 11.487C7.6507 11.4341 7.52221 11.4149 7.39614 11.4319C7.27008 11.449 7.15205 11.5015 7.05685 11.5829C6.96165 11.6642 6.89352 11.7709 6.861 11.8894L6.8609 11.8897ZM14.6477 8.57509C14.4307 8.39654 14.1546 8.29831 13.8691 8.29805C13.8518 8.29805 13.8342 8.29805 13.8168 8.2991L13.7922 6.945C13.8935 6.92157 13.9836 6.86591 14.0479 6.78703C14.1123 6.70814 14.147 6.61066 14.1466 6.51037C14.1466 6.48063 14.1436 6.45097 14.1375 6.42181L14.8707 6.15086C14.9209 6.33065 15.0313 6.48952 15.1846 6.60296C15.338 6.7164 15.5258 6.77812 15.7192 6.77859C15.7393 6.77859 15.7598 6.77796 15.7799 6.77659L15.7455 7.40883C15.6354 7.4248 15.535 7.47819 15.4623 7.55932C15.3896 7.64045 15.3494 7.74397 15.3492 7.85113C15.3489 7.92041 15.3655 7.98878 15.3977 8.05074L14.6477 8.5754V8.57509Z" fill="black"/>
<path d="M10.395 25.3191H6.60205L9.6902 26.8472C9.93883 26.9482 10.206 27.0002 10.4759 27C10.7458 27.0002 11.0129 26.9482 11.2616 26.8472L14.4588 25.3191H10.395Z" fill="black"/>
<path d="M15.4956 23.428C15.5833 23.3464 15.6528 23.2484 15.6998 23.14C15.7467 23.0316 15.77 22.9151 15.7684 22.7976C15.773 22.6861 15.7535 22.5748 15.7113 22.4708C15.6691 22.3669 15.6049 22.2724 15.5229 22.1935C15.4409 22.1145 15.3428 22.0528 15.2348 22.0121C15.1268 21.9714 15.0113 21.9527 14.8954 21.9572H6.16563C6.04976 21.9527 5.93418 21.9714 5.82618 22.0121C5.71818 22.0528 5.62009 22.1145 5.53809 22.1935C5.45609 22.2724 5.39195 22.3669 5.34971 22.4708C5.30747 22.5748 5.28805 22.6861 5.29266 22.7976C5.28805 22.9092 5.30747 23.0205 5.34971 23.1245C5.39195 23.2284 5.45609 23.3229 5.53809 23.4018C5.62009 23.4808 5.71818 23.5425 5.82618 23.5832C5.93418 23.6239 6.04976 23.6426 6.16563 23.6381H14.8954C15.005 23.644 15.1147 23.6284 15.2179 23.5923C15.321 23.5562 15.4155 23.5003 15.4956 23.428Z" fill="black"/>
<path d="M115.643 26.7057C115.129 26.524 114.651 26.2597 114.229 25.9241L115.277 24.0836C115.888 24.5038 116.508 24.7139 117.136 24.7139C118.184 24.7139 118.969 24.1424 119.493 22.9994L120.017 21.8143L114.281 8.6273H116.848L121.248 19.318L125.412 8.6273H127.9L121.562 23.8566C121.126 24.8819 120.545 25.6551 119.82 26.1762C119.083 26.7016 118.185 26.9764 117.267 26.9579C116.715 26.9644 116.165 26.8791 115.643 26.7057ZM32.6233 20.9443C31.1878 20.1604 29.9961 19.0212 29.1718 17.6446C28.3476 16.268 27.9207 14.7043 27.9355 13.1154C27.92 11.5232 28.3594 9.95751 29.2056 8.58948C30.0408 7.23036 31.2391 6.11155 32.6757 5.34948C34.1564 4.55594 35.8262 4.14751 37.5207 4.16442C38.7908 4.16357 40.0492 4.39901 41.2265 4.8578C42.3885 5.29865 43.4446 5.96364 44.3299 6.81189L42.8371 8.55166C42.147 7.8512 41.3191 7.28981 40.4015 6.90014C38.8126 6.21418 37.0163 6.11794 35.3581 6.62992C33.6999 7.1419 32.2968 8.22596 31.4186 9.67368C30.7895 10.7096 30.4636 11.8902 30.4758 13.0902C30.4732 13.9837 30.6544 14.8689 31.0092 15.6946C31.3639 16.5203 31.8851 17.2702 32.5426 17.9008C33.2001 18.5315 33.9808 19.0305 34.8398 19.3689C35.6987 19.7074 36.6188 19.8786 37.5469 19.8727C38.5199 19.8702 39.4822 19.6772 40.3754 19.3054C41.2866 18.9361 42.1207 18.4107 42.8371 17.7548L44.3561 19.3433C43.4279 20.2192 42.3346 20.9167 41.1348 21.3983C39.7752 21.9571 38.3001 22.2068 36.824 22.1281C35.348 22.0494 33.9106 21.6444 32.6233 20.9444V20.9443ZM85.8269 21.1965C84.7849 20.6473 83.93 19.8198 83.3651 18.8138C82.7802 17.7885 82.4877 16.6202 82.4878 15.3091C82.4879 13.998 82.7803 12.8339 83.3651 11.8169C83.9346 10.8151 84.7825 9.98566 85.8138 9.42154C86.8614 8.84162 88.0574 8.55166 89.4019 8.55166C91.5493 8.55166 93.173 9.16099 94.2731 10.3797C95.3731 11.5983 95.9231 13.2919 95.923 15.4604C95.923 15.7966 95.9143 16.0487 95.8968 16.2168H84.9495C85.1416 17.4103 85.661 18.36 86.5077 19.066C87.3544 19.772 88.3976 20.125 89.6373 20.125C90.4233 20.1315 91.2026 19.9857 91.9289 19.6964C92.6238 19.4186 93.2521 19.0067 93.7752 18.4861L95.1109 19.8224C94.4227 20.5333 93.5829 21.0924 92.6491 21.4613C91.6349 21.858 90.5486 22.0552 89.454 22.0414C88.0922 22.0412 86.8831 21.7596 85.8268 21.1965H85.8269ZM57.0711 21.1965C56.0291 20.6473 55.1742 19.8198 54.6093 18.8138C54.0244 17.7884 53.7319 16.6201 53.7319 15.309C53.7319 13.9979 54.0243 12.8338 54.6092 11.8168C55.1787 10.815 56.0265 9.98555 57.0579 9.42143C58.1055 8.84151 59.3015 8.55155 60.6459 8.55155C62.7934 8.55155 64.4171 9.16089 65.5172 10.3796C66.6172 11.5982 67.1671 13.2918 67.1671 15.4603C67.1671 15.7965 67.1583 16.0486 67.1409 16.2167H56.1937C56.3858 17.4102 56.9052 18.3599 57.7519 19.0659C58.5986 19.7719 59.6418 20.1249 60.8815 20.1249C61.6675 20.1314 62.4468 19.9856 63.1731 19.6962C63.868 19.4185 64.4963 19.0066 65.0194 18.486L66.3551 19.8223C65.6669 20.5332 64.8271 21.0923 63.8933 21.4612C62.8791 21.8579 61.7928 22.0551 60.6982 22.0413C59.3364 22.0412 58.1273 21.7596 57.071 21.1965H57.0711ZM109.384 21.9656V3.25671H111.82V21.9655L109.384 21.9656ZM99.2489 21.9656V8.6273H101.685V11.5017C102.138 10.5436 102.784 9.81656 103.622 9.32068C104.46 8.82481 105.456 8.56847 106.608 8.55166V10.8209C105.194 10.7705 104.05 11.1235 103.177 11.8799C102.304 12.6363 101.806 13.6533 101.684 14.9308V21.9655L99.2489 21.9656ZM73.6097 21.9656L68.1883 8.6273H70.7811L74.9452 19.6458L79.0831 8.6273H81.5449L76.1499 21.9655L73.6097 21.9656ZM47.7609 21.9656V3.25671H50.1963V21.9655L47.7609 21.9656Z" fill="black"/>
</g>
<defs>
<clipPath id="clip0">
<rect width="128" height="27" fill="white"/>
</clipPath>
</defs>
</svg>
