<svg width="488" height="328" viewBox="0 0 488 328" fill="none" xmlns="http://www.w3.org/2000/svg">
<path d="M107.239 24.9769H21.1577V175.644H107.239V24.9769Z" fill="#FAFAFA"/>
<path d="M47.9747 177.085C47.9747 177.085 38.5349 109.305 33.6021 101.852C33.6021 101.852 61.8053 80.6711 62.6649 23.2568H19.8722V177.085H47.9747Z" fill="#F5F5F5"/>
<path d="M80.4139 176.79C80.4139 176.79 89.8382 109.003 94.7788 101.557C94.7788 101.557 66.5834 80.369 65.7161 22.9625H108.509V176.79H80.4139Z" fill="#F5F5F5"/>
<path d="M109.5 19.2362H13.1814V180.625H113.496V19.2362H109.5ZM38.4574 103.084V141.463H21.1576V103.084H38.4574ZM21.1576 100.31V60.5906H38.4574V100.31H21.1576ZM64.7943 100.31V60.5906H86.4772V100.31H64.7943ZM86.4772 103.084V141.463H64.7943V103.084H86.4772ZM39.2395 100.31V60.5906H62.0298V100.31H39.2395ZM62.0298 103.084V141.463H39.2318V103.084H62.0298ZM39.2318 59.8778V25.0156H62.022V59.8778H39.2318ZM62.022 142.153V175.659H39.2318V142.153H62.022ZM64.7943 142.153H86.4772V175.659H64.7943V142.153ZM64.7943 59.9011V25.0156H86.4772V59.8778L64.7943 59.9011ZM87.2051 103.084H105.512V141.463H87.2051V103.084ZM87.2051 100.31V60.5906H105.512V100.31H87.2051ZM105.512 59.8778H87.2051V25.0156H105.512V59.8778ZM38.4574 25.0156V59.8778H21.1576V25.0156H38.4574ZM21.1576 142.153H38.4574V175.659H21.1576V142.153ZM87.2051 175.659V142.153H105.512V175.659H87.2051Z" fill="#EBEBEB"/>
<path d="M400.329 54.8268H138.423V230.316H400.329V54.8268Z" fill="#F5F5F5"/>
<path d="M400.329 54.8268H138.423V72.3586H400.329V54.8268Z" fill="#EBEBEB"/>
<path d="M149.768 63.5888C149.799 64.0142 149.701 64.4391 149.488 64.8081C149.274 65.1771 148.954 65.4732 148.57 65.6576C148.185 65.8421 147.754 65.9064 147.333 65.8423C146.911 65.7781 146.519 65.5883 146.207 65.2978C145.894 65.0073 145.677 64.6294 145.583 64.2134C145.488 63.7975 145.521 63.3627 145.678 62.9659C145.834 62.569 146.106 62.2284 146.458 61.9885C146.811 61.7487 147.228 61.6206 147.654 61.621C148.195 61.6022 148.721 61.7987 149.118 62.1676C149.514 62.5365 149.748 63.0476 149.768 63.5888Z" fill="#FAFAFA"/>
<path d="M156.598 63.5888C156.629 64.0142 156.532 64.4391 156.318 64.8081C156.104 65.1771 155.784 65.4732 155.4 65.6576C155.015 65.8421 154.584 65.9064 154.163 65.8423C153.741 65.7781 153.349 65.5883 153.037 65.2978C152.724 65.0073 152.507 64.6294 152.413 64.2134C152.318 63.7975 152.351 63.3627 152.508 62.9659C152.664 62.569 152.936 62.2284 153.289 61.9885C153.641 61.7487 154.058 61.6206 154.484 61.621C155.025 61.6022 155.551 61.7987 155.948 62.1676C156.344 62.5365 156.578 63.0476 156.598 63.5888Z" fill="#FAFAFA"/>
<path d="M163.428 63.5888C163.459 64.0142 163.361 64.4391 163.148 64.8081C162.934 65.1771 162.614 65.4732 162.23 65.6576C161.845 65.8421 161.414 65.9064 160.993 65.8423C160.571 65.7781 160.179 65.5883 159.867 65.2978C159.554 65.0073 159.337 64.6294 159.243 64.2134C159.148 63.7975 159.181 63.3627 159.338 62.9659C159.494 62.569 159.766 62.2284 160.119 61.9885C160.471 61.7487 160.888 61.6206 161.314 61.621C161.855 61.6022 162.381 61.7987 162.778 62.1676C163.174 62.5365 163.408 63.0476 163.428 63.5888Z" fill="#FAFAFA"/>
<path d="M480.509 89.5029H427.889V158.151L480.509 159.475V89.5029Z" fill="#EBEBEB"/>
<path d="M477.048 91.951H431.002V154.207L477.048 155.764V91.951Z" fill="#FAFAFA"/>
<path d="M468.986 103.262L438.429 102.1V145.616H468.986V103.262Z" fill="#EBEBEB"/>
<path d="M438.429 145.616L468.986 123.257L438.429 102.1V145.616Z" fill="#F5F5F5"/>
<path d="M474.709 41.1994L445.421 40.2853V78.4943L474.709 79.2303V41.1994Z" fill="#EBEBEB"/>
<path d="M472.781 42.865L447.156 41.6487V76.294L472.781 77.1617V42.865Z" fill="#FAFAFA"/>
<path d="M468.297 47.9394L451.291 47.2964V71.514H468.297V47.9394Z" fill="#EBEBEB"/>
<path d="M451.291 71.514L468.297 59.0721L451.291 47.2964V71.514Z" fill="#F5F5F5"/>
<path d="M273.221 8.83936L270.417 34.8853H306.357L309.338 8.83936H273.221Z" fill="#EBEBEB"/>
<path d="M274.7 10.5518L271.966 33.3439H304.405L307.031 10.5518H274.7Z" fill="#FAFAFA"/>
<path d="M280.159 14.5415L278.479 29.6717H298.946L299.999 14.5415H280.159Z" fill="#EBEBEB"/>
<path d="M320.118 0L316.354 34.8855H364.506L368.501 0H320.118Z" fill="#EBEBEB"/>
<path d="M322.092 2.29346L318.437 32.825H361.896L365.412 2.29346H322.092Z" fill="#FAFAFA"/>
<path d="M329.41 7.63867L327.157 27.8975H354.578L355.987 7.63867H329.41Z" fill="#EBEBEB"/>
<path d="M386.475 34.8855H246.249V38.8985H386.475V34.8855Z" fill="#EBEBEB"/>
<path d="M270.24 48.66L264.099 38.8986H273.221V48.66H270.24Z" fill="#EBEBEB"/>
<path d="M267.064 38.8986L272.493 48.66H273.221V38.8986H267.064Z" fill="#E0E0E0"/>
<path d="M351.147 48.66L345.007 38.8986H354.129V48.66H351.147Z" fill="#EBEBEB"/>
<path d="M347.973 38.8986L353.401 48.66H354.129V38.8986H347.973Z" fill="#E0E0E0"/>
<path d="M78.5087 273.459C91.4177 265.015 94.6934 248.831 94.5463 234.22C94.5463 231.78 94.856 229.215 93.7332 227.046C92.6103 224.877 89.9077 223.359 87.6697 224.327C85.8189 225.14 84.9671 227.224 83.8984 228.975C82.4651 231.273 80.4114 233.118 77.9744 234.298C76.3869 235.072 74.4277 235.506 72.8944 234.623C70.7958 233.414 70.6177 230.501 70.6874 228.077L71.1055 214.527C71.3148 212.105 71.1238 209.666 70.5402 207.306C69.8356 204.982 68.2171 202.813 65.8939 202.108C63.5708 201.403 60.6513 202.666 60.1015 205.029C59.985 206.031 59.9384 207.041 59.9621 208.05C59.8692 209.05 59.3658 210.157 58.4133 210.374C57.4608 210.591 56.4619 209.925 55.7417 209.197C53.2714 206.687 51.622 203.495 50.0964 200.318C48.5709 197.142 47.0531 193.904 44.8073 191.177C42.5616 188.45 39.4486 186.257 35.9329 185.978C32.4171 185.7 28.6226 187.753 27.6934 191.138C26.7641 194.524 28.6536 198.056 30.7909 200.876C33.957 205.063 37.7101 208.771 41.9344 211.885C42.7603 212.36 43.4118 213.088 43.7929 213.961C44.2885 215.588 42.701 217.153 41.067 217.649C39.224 218.207 37.2416 217.974 35.3211 218.145C33.4006 218.315 31.3098 219.105 30.5431 220.879C29.4745 223.335 31.5111 225.977 33.5323 227.728C37.5962 231.244 42.2322 234.037 47.2389 235.986C49.0278 236.676 50.9095 237.296 52.3344 238.582C53.7593 239.868 54.5879 242.076 53.6663 243.757C52.7448 245.438 50.4759 245.942 48.5864 245.546C46.6969 245.151 45.0397 244.105 43.2508 243.385C39.9055 242.045 35.5069 242.176 33.3154 245.004C32.6319 245.975 32.1854 247.092 32.0119 248.267C31.8384 249.442 31.9427 250.64 32.3165 251.767C33.0899 254.014 34.3066 256.082 35.8941 257.849C41.1103 264.335 47.9464 269.327 55.7107 272.321C63.4546 275.187 70.7106 276.086 78.5551 273.459" fill="#FACF38"/>
<path d="M31.2789 187.9L31.5112 188.132L32.2237 188.798C32.8587 189.372 33.7725 190.224 34.9495 191.347C38.245 194.519 41.297 197.935 44.0796 201.566C45.8529 203.89 47.6882 206.446 49.6087 209.266C51.5292 212.086 53.5581 215.108 55.5637 218.369C57.6893 221.763 59.6281 225.27 61.3716 228.874C62.2699 230.749 63.0675 232.709 63.8806 234.708L66.3355 240.782C69.5047 248.468 72.235 256.329 74.513 264.325C76.3472 270.858 77.5555 277.551 78.1216 284.313C78.4868 288.876 78.4505 293.462 78.0132 298.018C77.8506 299.629 77.6957 300.877 77.5563 301.721C77.5021 302.124 77.4557 302.441 77.417 302.682C77.4102 302.79 77.4102 302.899 77.417 303.007C77.4579 302.905 77.484 302.798 77.4944 302.689L77.6802 301.736C77.8429 300.892 78.0287 299.645 78.2223 298.033C78.7272 293.47 78.8101 288.869 78.4701 284.29C77.9436 277.5 76.7584 270.777 74.9312 264.217C72.671 256.199 69.9457 248.32 66.7691 240.619L64.3143 234.538C63.5012 232.547 62.6958 230.571 61.7821 228.688C60.0337 225.069 58.0817 221.551 55.9354 218.152C53.9065 214.891 51.8699 211.869 49.9339 209.049C47.998 206.229 46.1472 203.626 44.3506 201.372C41.5307 197.745 38.4231 194.351 35.0579 191.223C33.8731 190.115 32.9284 189.279 32.2779 188.729L31.5035 188.101C31.4354 188.027 31.3602 187.959 31.2789 187.9Z" fill="#263238"/>
<path d="M61.6427 228.665C61.7691 228.333 61.8574 227.987 61.906 227.635C62.0532 226.969 62.2313 226 62.4326 224.8C62.8353 222.39 63.2845 219.051 63.7646 215.364C64.2447 211.676 64.7326 208.352 65.174 205.958C65.3908 204.758 65.5766 203.797 65.716 203.123C65.8082 202.781 65.8627 202.431 65.8786 202.077C65.7296 202.399 65.6179 202.737 65.5457 203.084C65.3598 203.743 65.1198 204.703 64.8642 205.897C64.3376 208.283 63.7955 211.614 63.3154 215.302C62.8353 218.989 62.4326 222.235 62.1151 224.745C61.9602 225.884 61.8364 226.837 61.7357 227.604C61.663 227.953 61.6318 228.309 61.6427 228.665Z" fill="#263238"/>
<path d="M30.2103 222.088C30.6222 222.185 31.0421 222.245 31.4648 222.266C32.2392 222.359 33.4473 222.483 34.8876 222.677C37.7684 223.056 41.741 223.715 46.0775 224.629C50.4141 225.543 54.317 226.558 57.1126 227.364C58.5142 227.751 59.6371 228.1 60.4192 228.34C60.8149 228.49 61.2248 228.599 61.6427 228.665C61.268 228.467 60.8768 228.301 60.4734 228.17C59.699 227.883 58.5994 227.488 57.2055 227.054C54.4254 226.171 50.5303 225.117 46.1705 224.187C41.8107 223.258 37.8303 222.638 34.9263 222.359C33.4782 222.204 32.2934 222.127 31.4803 222.088C31.0579 222.048 30.6327 222.048 30.2103 222.088Z" fill="#263238"/>
<path d="M74.5438 263.628C74.6374 263.514 74.7131 263.386 74.7684 263.249L75.3337 262.133C75.8293 261.165 76.4953 259.747 77.3006 257.973C78.9114 254.44 80.979 249.49 83.186 244.028C85.393 238.566 87.4141 233.569 88.9552 230.005C89.7296 228.27 90.3181 226.845 90.7827 225.791L91.2706 224.637C91.3337 224.505 91.383 224.368 91.4177 224.226C91.3239 224.339 91.2457 224.464 91.1854 224.598C91.0383 224.9 90.8447 225.272 90.6201 225.714C90.1322 226.682 89.4663 228.107 88.6609 229.874C87.0502 233.406 84.9826 238.396 82.7678 243.857C80.5531 249.319 78.5397 254.316 77.0064 257.88L75.1788 262.079L74.691 263.225C74.6235 263.352 74.574 263.488 74.5438 263.628Z" fill="#263238"/>
<path d="M32.9207 249.281C33.0481 249.36 33.1864 249.42 33.3311 249.459L34.5391 249.893L38.9996 251.442C42.7631 252.751 47.936 254.611 53.651 256.679C59.366 258.748 64.5699 260.553 68.3644 261.785C70.2616 262.404 71.8027 262.885 72.8713 263.195L74.1026 263.551C74.2458 263.598 74.3938 263.63 74.544 263.644C74.416 263.564 74.278 263.502 74.1336 263.458L72.9255 263.032L68.465 261.482C64.7015 260.181 59.5286 258.322 53.8059 256.253C48.0832 254.185 42.8948 252.38 39.0925 251.14C37.1953 250.528 35.6542 250.048 34.5856 249.73L33.3543 249.381C33.2151 249.328 33.0692 249.294 32.9207 249.281Z" fill="#263238"/>
<path d="M430.058 302.806C430.058 302.922 343.218 303.007 236.112 303.007C129.007 303.007 42.1514 302.922 42.1514 302.806C42.1514 302.689 128.976 302.604 236.112 302.604C343.249 302.604 430.058 302.697 430.058 302.806Z" fill="#263238"/>
<path d="M358.527 69.7478H94.9026C93.8219 69.7478 92.7519 69.9609 91.7536 70.3748C90.7553 70.7888 89.8484 71.3955 89.0846 72.1603C88.3208 72.9251 87.7152 73.833 87.3024 74.8321C86.8895 75.8312 86.6776 76.9019 86.6786 77.983V264.264C86.6776 265.345 86.8895 266.415 87.3024 267.414C87.7152 268.414 88.3208 269.321 89.0846 270.086C89.8484 270.851 90.7553 271.458 91.7536 271.872C92.7519 272.286 93.8219 272.499 94.9026 272.499H196.084C196.084 272.499 202.519 292.409 182.563 302.713H277.17C277.17 302.713 254.651 294.966 260.443 272.499H358.527C360.711 272.499 362.804 271.631 364.348 270.087C365.892 268.542 366.759 266.448 366.759 264.264V77.983C366.759 75.7989 365.892 73.7042 364.348 72.1598C362.804 70.6154 360.711 69.7478 358.527 69.7478Z" fill="#263238"/>
<path d="M230.513 252.836C234.099 257.965 228.484 263.582 223.358 259.995C223.187 259.874 223.037 259.725 222.917 259.553C219.339 254.425 224.946 248.816 230.072 252.395C230.243 252.516 230.393 252.665 230.513 252.836Z" fill="#455A64"/>
<path d="M358.001 79.1606H95.4292C94.0307 79.1606 92.897 80.2949 92.897 81.694V235.444C92.897 236.843 94.0307 237.978 95.4292 237.978H358.001C359.399 237.978 360.533 236.843 360.533 235.444V81.694C360.533 80.2949 359.399 79.1606 358.001 79.1606Z" fill="#E0E0E0"/>
<path d="M360.533 90.7968H92.897V237.977H360.533V90.7968Z" fill="#FAFAFA"/>
<path d="M114.851 85.2886C114.851 85.7115 114.726 86.1249 114.491 86.4765C114.256 86.8282 113.922 87.1022 113.532 87.2641C113.141 87.4259 112.711 87.4683 112.297 87.3857C111.882 87.3032 111.501 87.0996 111.202 86.8006C110.903 86.5015 110.7 86.1205 110.617 85.7058C110.535 85.291 110.577 84.8611 110.739 84.4703C110.901 84.0796 111.175 83.7457 111.526 83.5107C111.878 83.2758 112.291 83.1504 112.714 83.1504C113.28 83.1504 113.824 83.3757 114.225 83.7767C114.626 84.1777 114.851 84.7215 114.851 85.2886Z" fill="#0F7CE3"/>
<path d="M101.895 85.2886C101.895 85.7115 101.77 86.1249 101.535 86.4765C101.3 86.8282 100.967 87.1022 100.576 87.2641C100.186 87.4259 99.7558 87.4683 99.3412 87.3857C98.9266 87.3032 98.5458 87.0996 98.2469 86.8006C97.9479 86.5015 97.7444 86.1205 97.6619 85.7058C97.5795 85.291 97.6218 84.8611 97.7835 84.4703C97.9453 84.0796 98.2193 83.7457 98.5707 83.5107C98.9222 83.2758 99.3354 83.1504 99.7582 83.1504C100.325 83.1504 100.869 83.3757 101.269 83.7767C101.67 84.1777 101.895 84.7215 101.895 85.2886Z" fill="#0F7CE3"/>
<path d="M108.114 85.2886C108.114 85.7115 107.988 86.1249 107.753 86.4765C107.519 86.8282 107.185 87.1022 106.794 87.2641C106.404 87.4259 105.974 87.4683 105.559 87.3857C105.145 87.3032 104.764 87.0996 104.465 86.8006C104.166 86.5015 103.963 86.1205 103.88 85.7058C103.798 85.291 103.84 84.8611 104.002 84.4703C104.163 84.0796 104.437 83.7457 104.789 83.5107C105.14 83.2758 105.554 83.1504 105.976 83.1504C106.543 83.1504 107.087 83.3757 107.488 83.7767C107.888 84.1777 108.114 84.7215 108.114 85.2886Z" fill="#0F7CE3"/>
<path d="M224.767 159.328C224.767 159.444 214.964 159.545 202.876 159.545C190.787 159.545 180.976 159.444 180.976 159.328C180.976 159.212 190.78 159.111 202.876 159.111C214.971 159.111 224.767 159.204 224.767 159.328Z" fill="#455A64"/>
<path d="M224.767 165.193C224.767 165.309 214.964 165.41 202.876 165.41C190.787 165.41 180.976 165.309 180.976 165.193C180.976 165.077 190.78 164.968 202.876 164.968C214.971 164.968 224.767 165.069 224.767 165.193Z" fill="#455A64"/>
<path d="M207.22 171.05C207.22 171.174 201.35 171.274 194.102 171.274C186.853 171.274 180.976 171.174 180.976 171.05C180.976 170.926 186.853 170.833 194.102 170.833C201.35 170.833 207.22 170.933 207.22 171.05Z" fill="#455A64"/>
<path d="M201.799 99.4116H180.976V102.053H201.799V99.4116Z" fill="#455A64"/>
<path d="M226.734 107.926H180.976V152.216H226.734V107.926Z" fill="#E0E0E0"/>
<path d="M184.522 148.42L197.184 125.628L207.537 140.2L213.825 132.461L223.188 148.42H184.522Z" fill="#0F7CE3"/>
<path d="M208.652 124.489C210.47 124.489 211.944 123.015 211.944 121.197C211.944 119.378 210.47 117.904 208.652 117.904C206.835 117.904 205.361 119.378 205.361 121.197C205.361 123.015 206.835 124.489 208.652 124.489Z" fill="#0F7CE3"/>
<path d="M223.188 148.544C223.179 148.485 223.179 148.425 223.188 148.366C223.188 148.226 223.188 148.064 223.188 147.847C223.188 147.374 223.188 146.708 223.188 145.856C223.188 144.097 223.188 141.556 223.141 138.333C223.141 131.864 223.087 122.653 223.048 111.59L223.234 111.776H184.577C184.522 111.822 184.979 111.365 184.786 111.567V121.499C184.786 124.753 184.786 127.944 184.786 131.043C184.786 137.241 184.786 143.113 184.786 148.505L184.592 148.312L212.548 148.412L220.431 148.459H222.522H223.064H222.545H220.485L212.648 148.505L184.569 148.606H184.383V148.412C184.383 142.989 184.383 137.156 184.383 130.95C184.383 127.851 184.383 124.66 184.383 121.406V111.606C184.19 111.792 184.646 111.327 184.608 111.381H223.265H223.451V111.567C223.412 122.676 223.381 131.926 223.358 138.426C223.358 141.634 223.319 144.159 223.304 145.91C223.304 146.747 223.304 147.397 223.304 147.862C223.304 148.071 223.304 148.234 223.304 148.358C223.27 148.423 223.232 148.485 223.188 148.544Z" fill="#455A64"/>
<path d="M280.554 159.328C280.554 159.444 270.751 159.545 258.655 159.545C246.559 159.545 236.763 159.444 236.763 159.328C236.763 159.212 246.559 159.111 258.655 159.111C270.751 159.111 280.554 159.204 280.554 159.328Z" fill="#455A64"/>
<path d="M280.554 165.193C280.554 165.309 270.751 165.41 258.655 165.41C246.559 165.41 236.763 165.309 236.763 165.193C236.763 165.077 246.559 164.968 258.655 164.968C270.751 164.968 280.554 165.069 280.554 165.193Z" fill="#455A64"/>
<path d="M263.007 171.05C263.007 171.174 257.129 171.274 249.881 171.274C242.633 171.274 236.778 171.174 236.778 171.05C236.778 170.926 242.648 170.833 249.896 170.833C257.145 170.833 263.007 170.933 263.007 171.05Z" fill="#455A64"/>
<path d="M257.586 99.4116H236.763V102.053H257.586V99.4116Z" fill="#455A64"/>
<path d="M282.521 107.926H236.763V152.216H282.521V107.926Z" fill="#E0E0E0"/>
<path d="M240.309 148.42L252.963 125.628L263.316 140.2L269.612 132.461L278.967 148.42H240.309Z" fill="#0F7CE3"/>
<path d="M267.754 121.197C267.755 121.85 267.563 122.489 267.201 123.033C266.839 123.577 266.324 124.001 265.721 124.252C265.118 124.503 264.454 124.569 263.813 124.442C263.173 124.315 262.584 124 262.122 123.538C261.66 123.076 261.346 122.487 261.219 121.846C261.092 121.205 261.158 120.541 261.409 119.938C261.659 119.334 262.083 118.819 262.627 118.457C263.171 118.095 263.81 117.903 264.463 117.904C265.336 117.904 266.173 118.251 266.79 118.868C267.407 119.486 267.754 120.323 267.754 121.197Z" fill="#0F7CE3"/>
<path d="M278.967 148.544C278.967 148.544 278.967 148.482 278.967 148.366C278.967 148.25 278.967 148.064 278.967 147.847C278.967 147.374 278.967 146.708 278.967 145.856C278.967 144.097 278.967 141.556 278.92 138.333C278.92 131.864 278.858 122.653 278.82 111.59L279.005 111.776H240.348C240.294 111.822 240.758 111.365 240.565 111.567V121.499C240.565 124.753 240.565 127.944 240.565 131.043C240.565 137.241 240.565 143.113 240.565 148.505L240.379 148.312L268.334 148.412L276.218 148.459H278.309H278.851H278.324H276.272L268.427 148.505L240.356 148.606H240.162V148.412C240.162 142.989 240.162 137.156 240.162 130.95V111.606C239.961 111.792 240.425 111.327 240.379 111.381H279.036H279.23V111.567C279.184 122.676 279.153 131.926 279.129 138.426C279.129 141.634 279.091 144.159 279.083 145.91C279.083 146.747 279.083 147.397 279.083 147.862C279.083 148.071 279.083 148.234 279.083 148.358C279.055 148.426 279.016 148.489 278.967 148.544Z" fill="#455A64"/>
<path d="M203.263 179.223H182.439V181.865H203.263V179.223Z" fill="#455A64"/>
<path d="M228.198 187.729H182.439V232.02H228.198V187.729Z" fill="#E0E0E0"/>
<path d="M185.986 228.231L198.647 205.439L209.001 220.004L215.289 212.272L224.651 228.231H185.986Z" fill="#0F7CE3"/>
<path d="M213.415 201.008C213.415 201.661 213.221 202.299 212.859 202.841C212.496 203.384 211.981 203.807 211.378 204.057C210.776 204.307 210.112 204.372 209.472 204.245C208.833 204.117 208.245 203.803 207.783 203.342C207.322 202.88 207.008 202.292 206.881 201.652C206.753 201.012 206.819 200.348 207.068 199.745C207.318 199.142 207.741 198.626 208.283 198.264C208.826 197.901 209.464 197.708 210.116 197.708C210.55 197.707 210.979 197.791 211.38 197.957C211.78 198.122 212.144 198.365 212.451 198.672C212.758 198.979 213 199.343 213.166 199.744C213.331 200.145 213.416 200.574 213.415 201.008Z" fill="#0F7CE3"/>
<path d="M224.651 228.356C224.651 228.356 224.651 228.286 224.651 228.17C224.651 228.053 224.651 227.867 224.651 227.651C224.651 227.186 224.651 226.519 224.651 225.659C224.651 223.909 224.651 221.368 224.597 218.137C224.597 211.668 224.543 202.457 224.504 191.402L224.69 191.587H186.033L186.25 191.371V193.904C186.25 194.741 186.25 195.577 186.25 196.406V210.886C186.25 217.083 186.25 222.948 186.25 228.348L186.056 228.154L214.011 228.255L221.895 228.301H223.993H224.535C224.597 228.295 224.659 228.295 224.721 228.301H224.032H221.98L214.135 228.356L186.056 228.448H185.87V228.263C185.87 222.84 185.87 216.998 185.87 210.8C185.87 207.702 185.87 204.52 185.87 201.256V191.402L186.095 191.177H224.752H224.938V191.371C224.899 202.48 224.868 211.73 224.845 218.23C224.845 221.437 224.845 223.963 224.799 225.706C224.799 226.55 224.799 227.201 224.799 227.666C224.799 227.867 224.799 228.03 224.799 228.162C224.766 228.237 224.715 228.304 224.651 228.356Z" fill="#455A64"/>
<path d="M259.088 179.223H238.265V181.865H259.088V179.223Z" fill="#455A64"/>
<path d="M284.023 187.729H238.265V232.02H284.023V187.729Z" fill="#E0E0E0"/>
<path d="M241.812 228.231L254.473 205.439L264.827 220.004L271.115 212.272L280.477 228.231H241.812Z" fill="#0F7CE3"/>
<path d="M269.233 201.008C269.231 201.659 269.037 202.295 268.674 202.835C268.312 203.375 267.797 203.796 267.196 204.044C266.594 204.292 265.933 204.356 265.295 204.229C264.657 204.101 264.071 203.786 263.612 203.326C263.152 202.865 262.839 202.278 262.713 201.64C262.587 201.001 262.652 200.34 262.902 199.738C263.151 199.137 263.573 198.623 264.114 198.262C264.655 197.901 265.291 197.708 265.942 197.708C266.374 197.708 266.803 197.793 267.203 197.959C267.603 198.125 267.966 198.368 268.271 198.675C268.577 198.981 268.819 199.345 268.984 199.746C269.149 200.146 269.234 200.575 269.233 201.008Z" fill="#0F7CE3"/>
<path d="M280.477 228.356C280.471 228.294 280.471 228.231 280.477 228.17C280.477 228.038 280.477 227.867 280.477 227.651C280.477 227.186 280.477 226.519 280.477 225.659C280.477 223.909 280.477 221.368 280.43 218.137C280.43 211.668 280.376 202.457 280.337 191.402L280.523 191.587H241.858L242.075 191.371V201.318C242.075 204.572 242.075 207.753 242.075 210.862C242.075 217.06 242.075 222.925 242.075 228.325L241.881 228.131L269.837 228.232L277.72 228.278H279.811H280.353H280.547H279.857H277.797L269.961 228.332L241.881 228.425H241.688V228.239C241.688 222.816 241.688 216.975 241.688 210.777C241.688 207.678 241.688 204.497 241.688 201.233V191.402L241.905 191.177H280.57H280.756V191.371C280.717 202.48 280.686 211.73 280.663 218.23C280.663 221.437 280.624 223.963 280.608 225.706C280.608 226.55 280.608 227.201 280.608 227.666C280.608 227.867 280.608 228.03 280.608 228.162C280.571 228.23 280.526 228.295 280.477 228.356Z" fill="#455A64"/>
<path d="M316.687 179.223H295.864V181.865H316.687V179.223Z" fill="#455A64"/>
<path d="M341.623 187.729H295.864V232.02H341.623V187.729Z" fill="#E0E0E0"/>
<path d="M299.411 228.231L312.072 205.439L322.425 220.004L328.713 212.272L338.076 228.231H299.411Z" fill="#0F7CE3"/>
<path d="M326.839 201.008C326.839 201.661 326.646 202.299 326.284 202.841C325.921 203.384 325.406 203.807 324.803 204.057C324.2 204.307 323.537 204.372 322.897 204.245C322.257 204.117 321.669 203.803 321.208 203.342C320.747 202.88 320.432 202.292 320.305 201.652C320.178 201.012 320.243 200.348 320.493 199.745C320.743 199.142 321.165 198.626 321.708 198.264C322.25 197.901 322.888 197.708 323.541 197.708C323.974 197.707 324.404 197.791 324.804 197.957C325.205 198.122 325.569 198.365 325.876 198.672C326.182 198.979 326.425 199.343 326.59 199.744C326.756 200.145 326.84 200.574 326.839 201.008Z" fill="#0F7CE3"/>
<path d="M338.076 228.356C338.076 228.356 338.076 228.286 338.076 228.17C338.076 228.053 338.076 227.867 338.076 227.651C338.076 227.186 338.076 226.519 338.076 225.659C338.076 223.909 338.076 221.368 338.022 218.137C338.022 211.668 337.967 202.457 337.929 191.402L338.114 191.587H299.457L299.674 191.371V210.862C299.674 217.06 299.674 222.925 299.674 228.325L299.48 228.131L327.436 228.232L335.319 228.278H337.418H337.952C338.016 228.272 338.081 228.272 338.145 228.278H337.456H335.404L327.56 228.332L299.48 228.425H299.294V228.239C299.294 222.816 299.294 216.975 299.294 210.777C299.294 207.678 299.294 204.497 299.294 201.233V191.402L299.519 191.177H338.176H338.362V191.371C338.324 202.48 338.293 211.73 338.269 218.23C338.269 221.437 338.231 223.963 338.223 225.706C338.223 226.55 338.223 227.201 338.223 227.666C338.223 227.867 338.223 228.03 338.223 228.162C338.19 228.237 338.139 228.304 338.076 228.356Z" fill="#455A64"/>
<path d="M337.34 152.209C339.004 151.995 340.682 151.922 342.358 151.992L342.141 152.209V151.713C342.141 151.542 342.141 151.38 342.141 151.217C342.141 150.892 342.141 150.582 342.141 150.272C342.141 149.722 342.141 149.187 342.188 148.676C342.164 148.18 342.217 147.684 342.343 147.204C342.459 147.686 342.508 148.181 342.49 148.676C342.49 149.187 342.49 149.722 342.536 150.272C342.536 150.582 342.536 150.892 342.536 151.217V152.209L342.312 152.433C340.651 152.505 338.987 152.43 337.34 152.209Z" fill="#455A64"/>
<path d="M314.519 152.208C318.318 151.919 322.134 151.919 325.934 152.208C322.135 152.508 318.318 152.508 314.519 152.208Z" fill="#455A64"/>
<path d="M298.086 147.188C298.305 148.852 298.378 150.532 298.303 152.209L298.086 151.992H300.046L301.641 152.038C302.136 152.025 302.631 152.077 303.112 152.193C302.632 152.318 302.136 152.371 301.641 152.348L300.046 152.394H299.101H298.086L297.87 152.17C297.802 150.506 297.875 148.84 298.086 147.188Z" fill="#455A64"/>
<path d="M298.086 124.357C298.305 126.252 298.378 128.161 298.303 130.067C298.378 131.97 298.305 133.877 298.086 135.769C297.872 133.876 297.8 131.97 297.87 130.067C297.8 128.161 297.872 126.253 298.086 124.357Z" fill="#455A64"/>
<path d="M303.112 107.91C301.447 108.129 299.765 108.201 298.087 108.127L298.303 107.91V108.91C298.303 109.227 298.303 109.545 298.303 109.855C298.303 110.405 298.303 110.932 298.257 111.451C298.28 111.946 298.227 112.443 298.102 112.923C297.977 112.443 297.924 111.946 297.947 111.451C297.947 110.932 297.947 110.405 297.901 109.855C297.901 109.545 297.901 109.227 297.901 108.91C297.901 108.747 297.901 108.576 297.901 108.406V107.91L298.117 107.693C299.786 107.625 301.456 107.698 303.112 107.91Z" fill="#455A64"/>
<path d="M325.934 107.91C322.134 108.199 318.318 108.199 314.519 107.91C318.318 107.621 322.134 107.621 325.934 107.91Z" fill="#455A64"/>
<path d="M342.366 112.946C342.142 111.28 342.067 109.597 342.141 107.918C342.583 108.352 342.265 108.042 342.358 108.135H341.32H340.376L338.78 108.088C338.285 108.111 337.789 108.059 337.309 107.933C337.789 107.808 338.285 107.756 338.78 107.779L340.376 107.732H342.327L342.552 107.949C342.63 109.617 342.568 111.288 342.366 112.946Z" fill="#455A64"/>
<path d="M342.366 135.8C342.142 133.908 342.067 132.002 342.141 130.098C342.067 128.192 342.142 126.283 342.366 124.388C342.58 126.284 342.653 128.192 342.583 130.098C342.653 132.001 342.58 133.907 342.366 135.8Z" fill="#455A64"/>
<path d="M341.723 159.266C341.723 159.382 331.912 159.483 319.824 159.483C307.735 159.483 297.924 159.382 297.924 159.266C297.924 159.15 307.728 159.049 319.824 159.049C331.919 159.049 341.723 159.142 341.723 159.266Z" fill="#455A64"/>
<path d="M341.723 165.131C341.723 165.247 331.912 165.348 319.824 165.348C307.735 165.348 297.955 165.239 297.955 165.131C297.955 165.022 307.759 164.906 319.855 164.906C331.95 164.906 341.723 165.007 341.723 165.131Z" fill="#455A64"/>
<path d="M318.747 99.3495H297.924V101.991H318.747V99.3495Z" fill="#455A64"/>
<path d="M159.688 133.817C159.688 138.26 158.371 142.604 155.903 146.299C153.436 149.993 149.928 152.873 145.825 154.573C141.721 156.274 137.206 156.719 132.849 155.852C128.493 154.985 124.492 152.845 121.351 149.703C118.21 146.561 116.071 142.558 115.205 138.2C114.338 133.842 114.783 129.324 116.483 125.219C118.183 121.114 121.061 117.605 124.754 115.136C128.447 112.668 132.789 111.35 137.231 111.35C143.187 111.35 148.899 113.717 153.11 117.93C157.322 122.144 159.688 127.858 159.688 133.817Z" fill="#E0E0E0"/>
<path d="M164.125 182.748C164.125 182.864 152.602 182.965 138.392 182.965C124.182 182.965 112.652 182.864 112.652 182.748C112.652 182.632 124.174 182.523 138.392 182.523C152.61 182.523 164.125 182.624 164.125 182.748Z" fill="#455A64"/>
<path d="M164.125 188.481C164.125 188.605 152.602 188.698 138.392 188.698C124.182 188.698 112.652 188.605 112.652 188.481C112.652 188.357 124.174 188.264 138.392 188.264C152.61 188.264 164.125 188.318 164.125 188.481Z" fill="#455A64"/>
<path d="M164.125 194.136C164.125 194.26 152.602 194.353 138.392 194.353C124.182 194.353 112.652 194.26 112.652 194.136C112.652 194.012 124.174 193.904 138.431 193.904C152.687 193.904 164.125 194.02 164.125 194.136Z" fill="#455A64"/>
<path d="M142.225 199.954C142.225 200.078 135.542 200.171 127.303 200.171C119.064 200.171 112.373 200.078 112.373 199.954C112.373 199.83 119.056 199.737 127.303 199.737C135.55 199.737 142.225 199.838 142.225 199.954Z" fill="#455A64"/>
<path d="M112.652 173.715H148.119V171.119H112.652V173.715Z" fill="#455A64"/>
<path d="M123.183 150.961C127.136 154.385 132.189 156.269 137.416 156.269C142.644 156.269 147.697 154.385 151.65 150.961C150.457 146.902 147.561 142.083 140.522 141.014C142.1 140.318 143.439 139.174 144.374 137.724C145.309 136.274 145.798 134.582 145.78 132.856C145.78 127.975 142.109 124.009 137.54 123.986C132.971 123.962 129.254 127.906 129.231 132.779C129.199 134.52 129.683 136.232 130.621 137.699C131.559 139.165 132.911 140.322 134.505 141.022C127.349 142.083 124.399 146.925 123.183 150.961Z" fill="#0F7CE3"/>
<path d="M132.538 208.848H112.652V211.273H132.538V208.848Z" fill="#0F7CE3"/>
<path d="M410.35 124.69L413.741 136.071C413.922 136.582 414.024 137.118 414.043 137.659C414.043 139.263 412.495 140.526 410.946 140.82C409.347 140.993 407.729 140.803 406.214 140.262C405.796 141.897 403.891 142.586 402.226 142.896C394.809 144.277 387.147 143.321 380.296 140.162C383.22 135.973 385.596 131.427 387.366 126.635L404.666 127.41C405.685 127.52 406.715 127.433 407.701 127.154C408.191 127.005 408.629 126.72 408.964 126.332C409.299 125.944 409.516 125.469 409.591 124.962" fill="#FACF38"/>
<path d="M390.525 146.917C390.742 145.647 390.223 140.301 390.223 140.301C390.223 140.301 385.352 139.782 385.058 134.948C384.764 130.114 385.058 118.958 385.058 118.958L393.932 114.619L403.705 122.018L402.226 146.197L391.656 155.633L390.525 146.917Z" fill="#FFBE9D"/>
<path d="M386.026 127.084C386.024 127.207 386.059 127.328 386.127 127.431C386.194 127.534 386.29 127.614 386.403 127.662C386.516 127.711 386.641 127.724 386.762 127.701C386.882 127.678 386.993 127.619 387.081 127.533C387.168 127.447 387.228 127.336 387.252 127.216C387.277 127.095 387.265 126.97 387.219 126.857C387.172 126.743 387.092 126.646 386.99 126.577C386.888 126.509 386.768 126.472 386.645 126.472C386.564 126.471 386.484 126.486 386.409 126.517C386.334 126.547 386.265 126.592 386.208 126.649C386.15 126.706 386.104 126.774 386.073 126.848C386.042 126.923 386.026 127.003 386.026 127.084Z" fill="#263238"/>
<path d="M385.461 126.41C385.546 126.496 386.003 126.108 386.669 126.07C387.335 126.031 387.83 126.356 387.9 126.263C387.97 126.17 387.853 126.077 387.637 125.93C387.341 125.736 386.99 125.643 386.638 125.667C386.287 125.684 385.952 125.818 385.685 126.046C385.461 126.225 385.383 126.379 385.461 126.41Z" fill="#263238"/>
<path d="M393.205 127.084C393.203 127.208 393.238 127.328 393.306 127.432C393.373 127.535 393.47 127.615 393.583 127.663C393.697 127.711 393.822 127.724 393.943 127.7C394.064 127.677 394.175 127.617 394.262 127.53C394.349 127.443 394.408 127.332 394.432 127.211C394.456 127.09 394.443 126.965 394.395 126.851C394.347 126.738 394.267 126.641 394.163 126.574C394.06 126.506 393.94 126.471 393.816 126.472C393.654 126.472 393.499 126.537 393.384 126.652C393.269 126.766 393.205 126.922 393.205 127.084Z" fill="#263238"/>
<path d="M392.81 126.41C392.887 126.496 393.344 126.108 394.01 126.069C394.676 126.031 395.179 126.356 395.249 126.263C395.319 126.17 395.203 126.077 394.978 125.93C394.684 125.738 394.337 125.646 393.987 125.667C393.637 125.688 393.303 125.821 393.034 126.046C392.833 126.224 392.771 126.379 392.81 126.41Z" fill="#263238"/>
<path d="M392.608 132.701C391.591 133.22 390.507 133.596 389.387 133.817C389.634 134.15 389.984 134.392 390.384 134.506C390.783 134.619 391.208 134.598 391.594 134.444C391.778 134.401 391.951 134.321 392.103 134.209C392.254 134.097 392.382 133.955 392.477 133.791C392.572 133.628 392.632 133.447 392.655 133.26C392.678 133.072 392.662 132.882 392.608 132.701Z" fill="#FAFAFA"/>
<path d="M390.223 140.301C392.52 140.206 394.742 139.456 396.627 138.14C396.627 138.14 395.179 141.688 390.332 141.486L390.223 140.301Z" fill="#EB996E"/>
<path d="M417.768 135.924C417.16 135.947 416.557 135.811 416.018 135.529C415.222 135.096 414.561 134.453 414.105 133.67C413.541 132.694 413.064 131.67 412.68 130.609C411.774 128.363 411.132 126.271 410.628 124.753C410.559 124.512 410.489 124.295 410.427 124.086C410.398 123.862 410.356 123.64 410.303 123.42C407.662 113.349 398.803 111.458 397.053 111.458C395.171 111.458 391.88 110.42 387.087 115.409C386.361 116.153 385.748 116.999 385.267 117.92C384.21 119.25 383.481 120.811 383.137 122.475C382.927 123.255 382.89 124.072 383.029 124.869C383.122 124.869 383.137 123.962 383.509 122.545C383.732 121.72 384.043 120.923 384.438 120.166C384.021 122.029 384.192 123.975 384.926 125.736L386.645 125.256L392.841 123.164C392.275 121.259 393.104 118.888 393.568 117.741H393.615C395.024 124.977 402.993 125.736 402.993 125.736L402.598 139.472C410.783 137.721 410.892 128.781 410.837 126.558C411.209 127.813 411.689 129.254 412.293 130.764C412.698 131.841 413.201 132.879 413.795 133.863C414.298 134.699 415.036 135.367 415.917 135.785C416.51 136.066 417.174 136.163 417.822 136.063C418.062 136.041 418.292 135.956 418.488 135.816C418.246 135.836 418.005 135.872 417.768 135.924Z" fill="#FACF38"/>
<path d="M390.409 132.043C390.056 131.961 389.695 131.922 389.333 131.926C389.162 131.926 388.992 131.926 388.961 131.771C388.937 131.585 388.969 131.396 389.054 131.229C389.201 130.795 389.348 130.338 389.511 129.85C389.828 128.866 390.099 127.975 390.285 127.324C390.413 126.981 390.494 126.621 390.525 126.255C390.344 126.577 390.203 126.921 390.107 127.278C389.875 127.913 389.573 128.827 389.255 129.788L388.814 131.175C388.718 131.394 388.696 131.639 388.752 131.872C388.779 131.931 388.819 131.982 388.869 132.024C388.918 132.065 388.976 132.096 389.038 132.112C389.134 132.123 389.23 132.123 389.325 132.112C389.688 132.133 390.052 132.109 390.409 132.043Z" fill="#263238"/>
<path d="M401.645 128.107C400.143 127.813 398.873 127.603 398.44 127.572C398.497 127.318 398.528 127.058 398.532 126.798C398.525 125.961 398.254 125.147 397.758 124.474C397.301 123.846 396.663 123.373 395.931 123.118C395.273 122.884 394.564 122.83 393.878 122.963C393.281 123.083 392.722 123.35 392.252 123.738C391.56 124.272 391.076 125.031 390.881 125.883C390.827 126.112 390.798 126.346 390.796 126.581C390.784 126.66 390.784 126.741 390.796 126.821C390.796 126.821 390.796 126.488 390.967 125.914C391.19 125.103 391.678 124.388 392.353 123.885C392.809 123.541 393.339 123.31 393.902 123.211C394.623 123.08 395.366 123.168 396.037 123.464C396.708 123.76 397.274 124.25 397.664 124.871C398.054 125.492 398.249 126.215 398.225 126.948C398.2 127.681 397.957 128.389 397.526 128.982C397.1 129.573 396.506 130.021 395.822 130.268C395.209 130.495 394.546 130.554 393.902 130.439C393.339 130.337 392.808 130.104 392.353 129.757C391.677 129.258 391.189 128.545 390.967 127.735C390.903 127.507 390.859 127.274 390.835 127.038C390.951 127.038 391.029 126.976 391.029 126.945C391.029 126.914 390.936 126.867 390.804 126.844C390.649 126.83 390.494 126.83 390.339 126.844C390.152 126.843 389.965 126.864 389.782 126.906V126.86C389.779 126.022 389.507 125.208 389.007 124.535C388.552 123.91 387.917 123.437 387.188 123.18C386.527 122.946 385.816 122.892 385.128 123.025C384.405 123.171 383.739 123.521 383.208 124.033C382.677 124.544 382.304 125.197 382.131 125.914C382.076 126.143 382.048 126.377 382.046 126.612C382.033 126.691 382.033 126.772 382.046 126.852C382.046 126.852 382.046 126.519 382.216 125.945C382.44 125.134 382.927 124.419 383.602 123.916C384.058 123.572 384.589 123.341 385.151 123.242C385.68 123.145 386.223 123.166 386.743 123.303C387.263 123.44 387.747 123.689 388.16 124.034C388.573 124.378 388.905 124.809 389.133 125.296C389.361 125.783 389.479 126.314 389.48 126.852C389.479 127.603 389.249 128.336 388.82 128.952C388.391 129.568 387.783 130.038 387.079 130.299C386.463 130.526 385.797 130.585 385.151 130.47C384.588 130.368 384.057 130.135 383.602 129.788C382.927 129.289 382.439 128.576 382.216 127.766C382.061 127.193 382.077 126.852 382.046 126.852C382.034 126.934 382.034 127.018 382.046 127.1C382.048 127.332 382.076 127.564 382.131 127.789C382.324 128.645 382.809 129.406 383.502 129.943C383.975 130.326 384.532 130.591 385.128 130.718C385.816 130.85 386.527 130.797 387.188 130.563C387.916 130.303 388.55 129.831 389.007 129.207C389.469 128.588 389.738 127.847 389.782 127.077C389.969 127.123 390.162 127.144 390.355 127.139C390.504 127.148 390.654 127.148 390.804 127.139C390.806 127.371 390.834 127.602 390.889 127.828C391.056 128.549 391.428 129.206 391.96 129.72C392.491 130.234 393.16 130.583 393.886 130.725C394.572 130.858 395.28 130.805 395.938 130.571C396.669 130.312 397.306 129.84 397.766 129.215C398.084 128.781 398.306 128.285 398.416 127.758C398.827 127.89 400.081 128.184 401.599 128.479C402.71 128.74 403.838 128.919 404.975 129.013C403.893 128.618 402.779 128.315 401.645 128.107Z" fill="#263238"/>
<path d="M404.216 131.841C404.14 131.036 404.229 130.224 404.48 129.455C404.608 129.072 404.836 128.73 405.141 128.466C405.447 128.202 405.817 128.024 406.214 127.952C406.674 127.929 407.126 128.073 407.488 128.358C407.849 128.643 408.096 129.049 408.181 129.501C408.237 129.965 408.153 130.434 407.939 130.848C407.725 131.263 407.391 131.603 406.981 131.826C406.568 132.04 406.111 132.158 405.646 132.171C405.181 132.185 404.719 132.093 404.294 131.903" fill="#FFBE9D"/>
<path d="M405.595 131.152C405.595 131.097 405.858 131.214 406.199 131.152C406.411 131.077 406.595 130.937 406.725 130.752C406.854 130.568 406.922 130.347 406.919 130.121C406.94 130.008 406.936 129.892 406.906 129.78C406.877 129.669 406.823 129.566 406.748 129.478C406.6 129.359 406.411 129.303 406.222 129.323C405.858 129.323 405.602 129.447 405.587 129.385C405.571 129.323 405.749 129.161 406.183 129.044C406.316 129.011 406.454 129.008 406.588 129.035C406.722 129.061 406.848 129.118 406.958 129.199C407.085 129.32 407.182 129.469 407.24 129.635C407.298 129.801 407.315 129.978 407.291 130.152C407.279 130.484 407.153 130.801 406.934 131.051C406.752 131.261 406.498 131.397 406.222 131.43C405.804 131.423 405.595 131.152 405.595 131.152Z" fill="#EB996E"/>
<path d="M424.35 315.248L418.519 311.289L425.868 300.319L434.456 306.021L434.046 306.726C432.187 309.871 424.374 322.561 422.43 324.18C420.215 325.977 424.35 315.248 424.35 315.248Z" fill="#FACF38"/>
<path d="M421.702 324.056C421.593 323.986 424.281 319.842 427.703 314.806C431.126 309.77 433.976 305.734 434.084 305.804C434.193 305.873 431.498 310.018 428.075 315.1C424.652 320.182 421.803 324.141 421.702 324.056Z" fill="#263238"/>
<path d="M425.411 316.247C425.411 316.371 425.047 316.44 424.637 316.471C424.226 316.502 423.862 316.471 423.824 316.347C423.785 316.224 424.141 316.045 424.598 316.022C425.055 315.999 425.427 316.123 425.411 316.247Z" fill="#263238"/>
<path d="M425.326 317.208C425.326 317.331 424.9 317.347 424.428 317.316C423.955 317.285 423.56 317.223 423.553 317.091C423.545 316.96 423.948 316.836 424.451 316.867C424.954 316.898 425.349 317.084 425.326 317.208Z" fill="#263238"/>
<path d="M431.808 309.088C431.754 309.088 431.606 308.879 431.428 308.484C431.188 307.954 431.048 307.384 431.018 306.803C430.988 306.2 431.162 305.605 431.514 305.114C431.8 304.742 432.079 304.642 432.11 304.688C432.141 304.735 431.963 304.928 431.777 305.285C431.551 305.752 431.445 306.269 431.467 306.788C431.504 307.327 431.592 307.861 431.73 308.383C431.831 308.794 431.87 309.065 431.808 309.088Z" fill="#263238"/>
<path d="M424.296 315.534C424.242 315.426 424.451 315.209 424.738 315C425.024 314.79 425.288 314.651 425.381 314.736C425.473 314.821 425.326 315.123 425.001 315.364C424.676 315.604 424.343 315.65 424.296 315.534Z" fill="#263238"/>
<path d="M423.847 314.984C423.747 314.907 423.847 314.558 424.11 314.209C424.374 313.861 424.645 313.628 424.745 313.69C424.846 313.752 424.746 314.101 424.482 314.465C424.219 314.829 423.94 315.062 423.847 314.984Z" fill="#263238"/>
<path d="M355.624 324.265V317.215L368.788 317.13L368.897 327.449L368.076 327.504C364.436 327.728 349.552 328.395 347.105 327.674C344.418 326.868 355.624 324.265 355.624 324.265Z" fill="#FACF38"/>
<path d="M346.834 327.023C346.834 326.899 351.775 326.798 357.862 326.798C363.948 326.798 368.889 326.899 368.889 327.023C368.889 327.147 363.956 327.256 357.862 327.256C351.767 327.256 346.834 327.155 346.834 327.023Z" fill="#263238"/>
<path d="M355.391 325.706C355.283 325.768 355.027 325.512 354.764 325.172C354.5 324.831 354.322 324.521 354.407 324.397C354.493 324.273 354.841 324.498 355.12 324.869C355.399 325.241 355.499 325.644 355.391 325.706Z" fill="#263238"/>
<path d="M354.547 326.171C354.431 326.218 354.199 325.9 353.959 325.489C353.719 325.079 353.548 324.715 353.649 324.637C353.75 324.56 354.083 324.823 354.346 325.265C354.609 325.706 354.663 326.125 354.547 326.171Z" fill="#263238"/>
<path d="M364.909 326.977C364.862 326.977 364.97 326.69 365.195 326.326C365.499 325.831 365.89 325.395 366.349 325.04C366.834 324.679 367.425 324.488 368.029 324.497C368.494 324.497 368.742 324.707 368.719 324.753C368.695 324.8 368.432 324.753 368.037 324.815C367.524 324.895 367.038 325.097 366.62 325.404C366.195 325.737 365.803 326.11 365.451 326.519C365.164 326.829 364.963 327.015 364.909 326.977Z" fill="#263238"/>
<path d="M355.352 324.381C355.414 324.273 355.716 324.327 356.042 324.443C356.367 324.56 356.646 324.707 356.622 324.831C356.599 324.955 356.274 325.001 355.894 324.87C355.515 324.738 355.259 324.49 355.352 324.381Z" fill="#263238"/>
<path d="M355.562 323.7C355.562 323.576 355.925 323.475 356.336 323.483C356.746 323.49 357.11 323.599 357.11 323.723C357.11 323.847 356.77 323.94 356.336 323.94C355.902 323.94 355.546 323.824 355.562 323.7Z" fill="#263238"/>
<path d="M388.922 161.482L374.619 156.717C374.619 156.717 368.308 174.908 366.372 175.086C355.655 176.062 344.186 172.506 340.159 171.104C339.756 170.647 339.292 170.097 338.773 169.423C338.327 168.842 337.984 168.19 337.758 167.494C337.449 166.64 337.256 165.749 337.185 164.844C337.202 164.67 337.164 164.494 337.077 164.343C336.989 164.191 336.857 164.07 336.698 163.997C336.539 163.923 336.361 163.901 336.189 163.934C336.017 163.966 335.859 164.052 335.737 164.178C335.28 164.782 335.157 167.075 336.217 169.554C337.278 172.033 333.53 170.058 332.152 169.361C330.774 168.663 326.414 166.727 325.864 166.982C325.09 167.362 325.314 168.292 326.708 168.95C328.102 169.609 332.129 171.878 331.734 172.591C331.339 173.304 324.369 169.671 324.369 169.671C324.369 169.671 323.006 168.656 322.519 169.461C321.636 170.91 329.318 174.218 330.061 174.513C330.572 174.714 330.169 175.504 329.627 175.287C329.085 175.07 322.766 171.514 321.845 172.963C321.148 174.086 328.148 175.737 329.054 177.193C329.96 178.649 323.866 175.403 323.246 176.511C323.014 176.922 322.89 177.286 326.654 178.619C329.416 179.476 332.224 180.182 335.064 180.733V180.772C335.064 180.772 372.66 197.591 380.752 181.384C389.333 164.186 388.922 161.482 388.922 161.482Z" fill="#FFBE9D"/>
<path d="M380.172 201.457C380.172 201.457 371.057 262.055 372.366 264.984C373.675 267.912 420.548 317.665 420.548 317.665L431.514 298.87C431.514 298.87 394.537 257.578 394.815 256.47C395.094 255.362 407.918 196.429 407.918 196.429L380.172 201.457Z" fill="#455A64"/>
<path d="M382.162 276.303L389.867 259.375L397.572 242.448L384.593 264.953L382.162 276.303Z" fill="#263238"/>
<path d="M386.754 261.203C386.789 261.424 386.805 261.647 386.8 261.87C386.8 262.35 386.8 262.993 386.847 263.791V263.729C389.782 267.045 396.287 274.575 403.798 283.376L416.847 298.762L420.765 303.464C421.199 303.991 421.539 304.425 421.81 304.75C421.943 304.893 422.057 305.052 422.151 305.223C422.002 305.099 421.864 304.962 421.741 304.812L420.633 303.573C419.642 302.449 418.31 300.884 416.606 298.971L403.442 283.67C395.938 274.877 389.503 267.269 386.692 263.853C386.692 263.078 386.692 262.412 386.731 261.932C386.705 261.689 386.713 261.444 386.754 261.203Z" fill="#263238"/>
<path d="M427.998 294.981C428.106 295.051 425.543 299.118 422.283 304.061C419.023 309.003 416.297 312.962 416.196 312.892C416.096 312.823 418.651 308.755 421.911 303.813C425.171 298.87 427.897 294.911 427.998 294.981Z" fill="#263238"/>
<path d="M376.873 224.218C376.958 223.583 384.237 207.174 384.237 207.174L380.706 202.193L380.079 202.054L376.873 224.218Z" fill="#263238"/>
<path d="M387.311 200.876L380.079 202.085L384.237 207.206C377.523 222.406 363.654 254.587 361.989 264.961C359.774 278.704 351.434 321.631 352.27 322.29C353.107 322.948 372.335 322.29 372.335 322.29L384.593 264.961L411.697 217.997C415.068 212.149 416.053 205.225 414.446 198.668L413.904 196.437" fill="#455A64"/>
<path d="M365.644 315.921C365.648 315.815 365.661 315.708 365.683 315.604C365.683 315.371 365.76 315.062 365.822 314.666L366.418 311.079C366.968 307.942 367.75 303.441 368.742 297.909C369.733 292.378 370.918 285.723 372.226 278.379C372.908 274.707 373.62 270.848 374.356 266.851C374.542 265.859 374.743 264.852 374.937 263.837C375.037 263.326 375.13 262.822 375.246 262.288C375.308 262.032 375.355 261.769 375.432 261.513L375.719 260.738C376.493 258.771 377.376 256.865 378.243 254.858C385.252 239.108 391.772 224.931 396.488 214.674L402.118 202.534C402.776 201.124 403.303 200.024 403.667 199.249C403.837 198.893 403.976 198.606 404.085 198.397C404.126 198.296 404.178 198.2 404.24 198.11L404.123 198.42L403.752 199.288L402.273 202.611C400.948 205.524 399.059 209.708 396.751 214.821C392.105 225.117 385.631 239.31 378.631 255.06C377.763 257.028 376.888 258.98 376.114 260.909L375.835 261.622C375.758 261.87 375.719 262.125 375.657 262.396C375.541 262.892 375.448 263.411 375.339 263.946C375.146 264.961 374.952 265.968 374.759 266.959C373.984 270.949 373.295 274.807 372.606 278.472C371.258 285.816 370.043 292.417 369.02 297.987C367.998 303.557 367.17 308.012 366.597 311.157C366.302 312.706 366.07 313.884 365.915 314.728C365.83 315.116 365.768 315.426 365.722 315.658C365.705 315.748 365.679 315.837 365.644 315.921Z" fill="#263238"/>
<path d="M373.481 316.774C373.481 316.898 368.835 316.913 363.174 316.774C357.513 316.634 352.867 316.487 352.867 316.363C352.867 316.239 357.513 316.224 363.182 316.324C368.85 316.425 373.489 316.65 373.481 316.774Z" fill="#263238"/>
<path d="M380.079 202.077L380.357 202.735L415.104 199.923L413.881 196.429L380.079 202.077Z" fill="#263238"/>
<path d="M394.428 145.445L392.105 154.835L392.02 148.079L392.198 146.584L392.407 145.445L389.309 144.399L387.714 146.886H387.249C387.249 146.886 374.743 145.639 370.368 162.171L366.364 171.971L378.483 178.014V178.789L379.258 202.178L414.26 196.507C414.4 191.254 409.041 181.741 410.226 176.984L414.26 160.715L408.971 145.554L405.308 145.67L403.272 143.26L394.467 145.445" fill="#263238"/>
<path d="M378.7 177.875C378.418 177.796 378.155 177.662 377.926 177.48C377.28 177.036 376.73 176.467 376.307 175.806C375.667 174.817 375.375 173.642 375.479 172.467C375.538 171.031 376.011 169.643 376.842 168.47C377.486 167.55 378.334 166.792 379.32 166.254L379.211 166.393C379.506 164.247 379.769 162.404 379.986 161.094C380.06 160.396 380.189 159.704 380.373 159.026C380.374 159.731 380.322 160.436 380.218 161.133C380.086 162.442 379.877 164.302 379.614 166.448V166.541L379.521 166.595C378.469 167.194 377.585 168.048 376.949 169.078C376.313 170.108 375.946 171.281 375.882 172.49C375.764 173.594 376.009 174.706 376.578 175.659C376.966 176.304 377.464 176.876 378.05 177.348C378.491 177.689 378.708 177.844 378.7 177.875Z" fill="#455A64"/>
<path d="M380.04 162.14C379.939 162.187 379.599 161.691 379.266 161.025C378.933 160.358 378.755 159.777 378.855 159.731C378.956 159.684 379.297 160.18 379.63 160.846C379.963 161.513 380.117 162.047 380.04 162.14Z" fill="#455A64"/>
<path d="M344.232 155.493L454.335 176.651C462.187 178.161 467.127 185.335 466.237 193.508C466.224 193.623 466.204 193.737 466.175 193.849C465.809 195.781 465.062 197.621 463.978 199.262C462.894 200.903 461.496 202.312 459.863 203.407C458.23 204.502 456.396 205.261 454.467 205.641C452.538 206.02 450.553 206.012 448.627 205.617L340.724 183.832L316.927 164.805L344.232 155.493Z" fill="#FACF38"/>
<path d="M344.232 155.493C344.232 155.493 350.241 157.748 349.002 163.511C347.763 169.275 341.948 169.035 341.948 169.035C341.948 169.035 347.601 170.29 346.036 178.371C345.022 183.577 340.724 183.848 340.724 183.848L316.927 164.805L344.232 155.493Z" fill="#E0E0E0"/>
<path d="M322.1 168.942C324.424 167.788 325.237 164.712 324.424 162.256L316.951 164.805L322.1 168.942Z" fill="#455A64"/>
<path d="M452.832 191.518L452.546 191.479L451.694 191.339L448.449 190.758C445.631 190.247 441.565 189.48 436.532 188.512C426.464 186.575 412.611 183.794 397.309 180.633L358.14 172.483L346.269 169.996L343.047 169.306L342.211 169.113C342.113 169.099 342.017 169.073 341.925 169.035C342.024 169.039 342.122 169.052 342.219 169.074L343.063 169.221L346.3 169.841L358.218 172.212L397.417 180.245C412.711 183.406 426.573 186.234 436.617 188.241L448.504 190.611L451.733 191.27L452.577 191.448C452.665 191.46 452.75 191.484 452.832 191.518Z" fill="#455A64"/>
<path d="M448.627 205.617C450.553 206.012 452.538 206.02 454.467 205.641C456.396 205.261 458.23 204.502 459.863 203.407C461.496 202.312 462.895 200.903 463.978 199.262C465.062 197.621 465.809 195.781 466.175 193.849C466.204 193.737 466.225 193.623 466.237 193.508C467.128 185.335 462.187 178.161 454.335 176.651L448.627 205.617Z" fill="#455A64"/>
<path d="M404.867 159.901C404.867 159.901 398.169 181.043 396.302 181.508C385.863 184.173 373.977 182.477 369.787 181.725C369.315 181.338 368.757 180.857 368.146 180.284C367.617 179.78 367.178 179.191 366.845 178.541C366.401 177.749 366.07 176.899 365.861 176.015C365.853 175.837 365.789 175.666 365.678 175.526C365.566 175.387 365.414 175.286 365.242 175.239C365.07 175.191 364.887 175.2 364.72 175.263C364.553 175.326 364.41 175.44 364.312 175.589C363.948 176.256 364.196 178.541 365.629 180.819C365.629 180.819 357.234 186.149 355.399 186.102C353.564 186.056 348.306 185.924 348.856 186.652C349.405 187.381 355.399 188.38 355.399 188.38L366.24 192.06C366.24 192.06 406.013 202.766 411.457 185.475C414.787 174.877 417.095 168.64 417.613 166.107L404.867 159.901Z" fill="#FFBE9D"/>
<path d="M409.025 145.585C409.025 145.585 417.776 147.134 418.117 161.466C418.279 170.182 416.401 178.815 412.634 186.676L397.239 178.588C400.697 171.665 403.297 164.347 404.983 156.795L408.979 145.577L409.025 145.585Z" fill="#263238"/>
<path d="M404.534 157.593C404.534 157.89 404.5 158.186 404.433 158.476C404.348 159.034 404.201 159.839 403.984 160.8C403.416 163.378 402.7 165.92 401.839 168.415C400.974 170.91 399.962 173.352 398.811 175.729C398.37 176.643 397.99 177.371 397.711 177.859C397.585 178.133 397.429 178.393 397.247 178.634C397.318 178.347 397.427 178.07 397.572 177.813C397.835 177.216 398.168 176.488 398.556 175.636C399.376 173.792 400.445 171.212 401.459 168.307C402.474 165.402 403.21 162.714 403.705 160.753C403.932 159.839 404.126 159.065 404.286 158.429C404.335 158.141 404.418 157.86 404.534 157.593Z" fill="#455A64"/>
</svg>
