<svg width="540" height="364" viewBox="0 0 540 364" fill="none" xmlns="http://www.w3.org/2000/svg">
<path d="M132.721 128.462C132.721 128.462 127.993 124.637 120.581 135.979C113.168 147.321 110.103 154.028 110.103 154.028C110.103 154.028 108.212 156.375 106.642 154.554C105.071 152.733 103.155 147.83 100.107 148.373C97.0592 148.916 95.5733 152.224 95.6492 157.268C95.7252 162.313 95.4551 173.388 95.4297 174.382C95.4044 175.376 94.6952 176.745 93.4204 175.676C92.1455 174.607 85.1634 165.128 80.8154 168.677C76.4675 172.227 79.0003 186.217 79.2451 187.795C79.4899 189.374 79.1354 189.942 78.4008 190.242C77.6663 190.543 75.5979 187.135 73.5041 184.521C71.4103 181.907 68.506 179.234 66.1758 181.489C63.8456 183.745 62.1149 193.901 70.2367 211.515L74.5425 219.433L83.6522 219.851C103.222 219.575 111.766 213.687 112.83 210.663C113.894 207.64 110.213 206.17 106.92 205.41C103.628 204.65 99.6511 204.291 99.6004 203.481C99.5498 202.67 99.9466 202.094 101.458 201.651C102.969 201.209 116.874 197.475 118.25 192.072C119.626 186.668 107.984 184.48 106.431 183.803C104.877 183.126 105.865 181.89 106.751 181.448C107.638 181.005 117.651 176.027 122.294 173.931C126.938 171.834 129.361 169.203 128.517 166.138C127.672 163.073 122.413 163.566 120.074 162.939C117.735 162.313 119.069 159.599 119.069 159.599C119.069 159.599 123.865 154.003 131.075 142.51C138.285 131.018 132.611 128.387 132.611 128.387" fill="#EBEBEB"/>
<path d="M72.9302 220.92C78.2575 212.501 87.9751 197.684 96.2573 184.93C104.54 172.177 112.02 160.617 117.364 152.224L123.713 142.276L125.402 139.57L125.857 138.869C125.959 138.71 126.018 138.635 126.018 138.635L125.883 138.885C125.773 139.052 125.629 139.294 125.452 139.595L123.764 142.326C122.303 144.698 120.159 148.114 117.491 152.349C112.163 160.776 104.708 172.344 96.4262 185.106C88.1439 197.868 78.401 212.668 73.0315 221.02" fill="#E0E0E0"/>
<path d="M102.522 155.347C102.597 155.553 102.651 155.766 102.682 155.982C102.775 156.391 102.885 156.984 103.02 157.719C103.282 159.189 103.586 161.227 103.864 163.491C104.143 165.754 104.413 167.734 104.607 169.27C104.7 169.964 104.784 170.548 104.843 171.024C104.887 171.236 104.91 171.451 104.911 171.667C104.822 171.468 104.762 171.257 104.734 171.041C104.649 170.632 104.54 170.039 104.413 169.304C104.168 167.825 103.881 165.779 103.569 163.524C103.256 161.269 102.986 159.29 102.783 157.744L102.53 155.999C102.499 155.783 102.496 155.564 102.522 155.347Z" fill="#E0E0E0"/>
<path d="M105.747 171.91C105.747 171.835 109.968 171.024 115.186 170.089C120.403 169.154 124.659 168.469 124.667 168.544C124.675 168.619 120.446 169.438 115.237 170.365C110.027 171.292 105.764 171.985 105.747 171.91Z" fill="#E0E0E0"/>
<path d="M92.1372 190.936C92.3617 190.912 92.5881 190.912 92.8126 190.936L94.6194 191.128C96.1559 191.287 98.2666 191.495 100.614 191.646C102.961 191.796 105.08 191.863 106.616 191.896H108.44C108.664 191.881 108.888 191.898 109.107 191.946C108.887 191.985 108.664 192.004 108.44 192.005C108.009 192.005 107.385 192.005 106.616 192.005C105.071 192.005 102.944 192.005 100.588 191.838C98.2328 191.671 96.1222 191.454 94.594 191.245C93.8342 191.136 93.2179 191.044 92.7957 190.961C92.5759 190.972 92.3555 190.964 92.1372 190.936Z" fill="#E0E0E0"/>
<path d="M85.8896 176.587C86.0055 176.758 86.1045 176.94 86.1851 177.13L86.9197 178.633C87.5191 179.903 88.338 181.673 89.2245 183.644C90.111 185.615 90.913 187.394 91.4534 188.656L92.095 190.192C92.188 190.378 92.2561 190.574 92.2976 190.777C92.174 190.609 92.0719 190.427 91.9937 190.234L91.2676 188.731C90.6682 187.461 89.8493 185.691 88.9628 183.719C88.0763 181.748 87.2742 179.978 86.7339 178.708C86.4806 178.107 86.2611 177.589 86.0923 177.171C85.9993 176.986 85.9312 176.79 85.8896 176.587Z" fill="#E0E0E0"/>
<path d="M71.7144 191.88C71.8627 192.095 71.9899 192.325 72.0943 192.564L73.0399 194.494C73.8166 196.122 74.8804 198.377 76.0455 200.883C77.2105 203.389 78.2321 205.66 78.9751 207.314C79.3212 208.099 79.6083 208.759 79.8193 209.277C79.9391 209.512 80.0353 209.758 80.1064 210.012C79.9579 209.793 79.8307 209.561 79.7265 209.319L78.7809 207.398C78.0042 205.727 76.9404 203.506 75.7753 201C74.6102 198.494 73.5802 196.223 72.8457 194.569L72.0014 192.614C71.8848 192.378 71.7887 192.132 71.7144 191.88Z" fill="#E0E0E0"/>
<path d="M80.0305 209.519C80.3115 209.498 80.5938 209.498 80.8748 209.519L83.1797 209.678C85.1299 209.811 87.8231 209.979 90.7781 210.087C93.733 210.196 96.4516 210.229 98.3765 210.237H100.69C100.971 210.213 101.253 210.213 101.534 210.237C101.255 210.282 100.973 210.308 100.69 210.313C100.149 210.313 99.3558 210.371 98.3765 210.388C96.4262 210.388 93.7246 210.388 90.7781 210.321C87.8316 210.254 85.1046 210.004 83.1797 209.828L80.8832 209.578C80.5979 209.581 80.3127 209.561 80.0305 209.519Z" fill="#E0E0E0"/>
<path d="M58.3495 160.317C58.3914 161.694 58.3123 163.071 58.1131 164.434C57.5984 168.329 56.3101 172.084 54.3223 175.484L54.2379 175.334H54.4152L54.3308 175.484L30.6913 216.969L30.5477 217.228L30.3789 216.978L5.38852 177.531L4.15588 175.585L3.9617 175.284H4.32474L4.15588 175.585C2.26252 172.369 0.985942 168.835 0.390442 165.161C0.0879181 163.371 -0.0393089 161.555 0.0105238 159.741L0.162493 157.06C0.297576 156.174 0.432656 155.297 0.559297 154.42C1.90057 147.693 5.49693 141.611 10.7665 137.156C13.2273 135.14 16.0012 133.529 18.9812 132.387L20.0704 131.987L20.6107 131.786L21.1679 131.636L23.3715 131.068C24.8263 130.791 26.2989 130.615 27.7785 130.542C29.2053 130.466 30.6358 130.491 32.059 130.617C32.7597 130.675 33.4436 130.826 34.1274 130.917L35.1406 131.085C35.4698 131.151 35.7991 131.252 36.1284 131.335L38.0617 131.853L39.8938 132.546C40.1977 132.663 40.5017 132.763 40.7972 132.889L41.6414 133.315L43.33 134.15C47.1861 136.364 50.5012 139.393 53.0391 143.02C54.9283 145.758 56.354 148.782 57.2604 151.973C57.5889 153.136 57.8371 154.319 58.0034 155.514C58.1616 156.384 58.2576 157.263 58.2904 158.145C58.2904 158.847 58.2904 159.39 58.3495 159.774C58.4086 160.158 58.3495 160.325 58.3495 160.325C58.3495 160.325 58.3495 160.133 58.3495 159.774C58.3495 159.415 58.2989 158.855 58.2566 158.154C58.2061 157.274 58.0989 156.398 57.9358 155.531C57.7532 154.344 57.4938 153.169 57.1591 152.015C56.241 148.854 54.8158 145.859 52.9378 143.145C50.3899 139.556 47.0752 136.564 43.2287 134.384L41.5401 133.548L40.6959 133.139C40.4088 133.005 40.1049 132.914 39.8009 132.797L37.9857 132.112L36.0693 131.611C35.7484 131.527 35.4276 131.427 35.0984 131.36L34.0937 131.201C33.4183 131.11 32.7428 130.968 32.0505 130.909C30.6466 130.79 29.2359 130.771 27.8292 130.851C26.3663 130.924 24.9106 131.1 23.4728 131.377L21.2945 131.945L20.7458 132.095L20.2139 132.287L19.1417 132.688C16.1861 133.812 13.4346 135.403 10.9945 137.399C5.78643 141.811 2.23977 147.837 0.930777 154.495C0.804137 155.331 0.669051 156.224 0.542411 157.093C0.415771 157.962 0.4411 158.855 0.398887 159.749C0.350742 161.541 0.475128 163.334 0.770364 165.103C1.36175 168.726 2.62091 172.211 4.48515 175.384L4.66245 175.685H4.3163L4.48515 175.384C4.87351 176.002 5.32942 176.662 5.70934 177.33L30.6828 216.802H30.3704C40.3159 199.497 48.6151 185.064 54.1535 175.392L54.2464 175.543H54.0606L54.1451 175.392C56.1361 172.018 57.4491 168.294 58.0118 164.426C58.206 163.098 58.2566 162.063 58.3073 161.378C58.3073 161.035 58.3073 160.776 58.3073 160.593C58.3073 160.409 58.3495 160.317 58.3495 160.317Z" fill="#E0E0E0"/>
<path d="M47.7455 159.949C47.7369 159.852 47.7369 159.754 47.7455 159.657C47.7455 159.44 47.7455 159.156 47.678 158.822C47.678 158.63 47.678 158.421 47.678 158.187C47.678 157.953 47.602 157.694 47.5598 157.419C47.4733 156.784 47.3435 156.157 47.1714 155.54C46.7383 153.836 46.0496 152.206 45.1283 150.704C42.9535 147.085 39.5723 144.33 35.5662 142.911C31.5601 141.492 27.1794 141.498 23.1773 142.928C22.3582 143.216 21.5599 143.559 20.788 143.955C20.008 144.378 19.2577 144.852 18.5422 145.375C17.8133 145.913 17.1196 146.496 16.4653 147.121C15.8192 147.776 15.2184 148.473 14.6671 149.209C13.5276 150.73 12.6412 152.422 12.0414 154.22C10.7864 157.924 10.7864 161.933 12.0414 165.637C12.6243 167.437 13.5028 169.131 14.6417 170.648C15.1872 171.389 15.7823 172.092 16.4231 172.753C17.0762 173.379 17.767 173.964 18.4916 174.507C19.207 175.033 19.9572 175.51 20.7373 175.935C21.4577 176.312 22.2022 176.641 22.9662 176.921C26.9657 178.367 31.3489 178.392 35.3655 176.994C39.3821 175.595 42.7825 172.859 44.9848 169.254C45.9211 167.759 46.6187 166.131 47.0532 164.426C47.2318 163.81 47.3644 163.182 47.45 162.547C47.45 162.271 47.5429 162.021 47.5767 161.787V161.144C47.5767 160.785 47.6273 160.492 47.6442 160.309C47.6351 160.209 47.6351 160.108 47.6442 160.008C47.6554 160.108 47.6554 160.209 47.6442 160.309C47.6442 160.526 47.6442 160.81 47.6442 161.144V161.787C47.6442 162.021 47.5767 162.28 47.5429 162.555C47.4654 163.197 47.3442 163.834 47.1799 164.46C46.7621 166.187 46.0787 167.84 45.1536 169.362C42.9446 173.048 39.5028 175.855 35.4235 177.296C31.3441 178.737 26.8839 178.723 22.8142 177.255C21.1192 176.667 19.527 175.822 18.0948 174.749C17.3479 174.202 16.6399 173.605 15.9757 172.962C15.3359 172.284 14.7436 171.564 14.2027 170.807C13.0421 169.262 12.1412 167.542 11.5348 165.712C10.928 163.821 10.6093 161.85 10.5892 159.866C10.6164 157.879 10.9465 155.908 11.5686 154.019C12.1811 152.195 13.0877 150.48 14.2534 148.941C14.8188 148.189 15.4336 147.475 16.0939 146.803C16.7652 146.17 17.4757 145.578 18.2214 145.033C18.9539 144.501 19.7211 144.019 20.5178 143.588C21.3099 143.199 22.1279 142.864 22.9662 142.585C27.0428 141.138 31.5024 141.146 35.5739 142.607C39.6454 144.068 43.0728 146.89 45.2634 150.587C46.1765 152.118 46.8511 153.776 47.2643 155.506C47.4277 156.129 47.5434 156.762 47.6104 157.402C47.6104 157.686 47.6949 157.937 47.7117 158.179C47.7286 158.421 47.7117 158.621 47.7117 158.814C47.7117 159.181 47.7117 159.473 47.7117 159.691C47.7302 159.776 47.7415 159.862 47.7455 159.949Z" fill="#E0E0E0"/>
<path d="M28.9014 168.493L18.1538 161.085L20.771 157.377L27.9727 162.346L37.2934 150.628L40.8815 153.426L28.9014 168.493Z" fill="#E0E0E0"/>
<path fill-rule="evenodd" clip-rule="evenodd" d="M329.504 31.2182C332.645 31.606 335.72 32.4065 338.647 33.5986L345.359 28.0361L356.892 36.7223L353.261 44.6067C355.201 47.0794 356.803 49.7951 358.023 52.6832L366.744 53.4432L368.695 67.6418L360.488 70.6736C360.103 73.7995 359.29 76.8591 358.074 79.7691L363.705 86.4508L354.925 97.8681L346.955 94.2684C344.457 96.1907 341.712 97.7748 338.791 98.979L338.022 107.607L323.67 109.536L320.605 101.418C317.458 101.013 314.38 100.192 311.453 98.979L304.699 104.541L293.166 95.8553L296.805 87.9709C294.86 85.5013 293.259 82.7849 292.043 79.8944L283.322 79.1343L281.372 64.9357L289.57 61.8956C289.966 58.7906 290.778 55.7515 291.984 52.8586L286.378 46.1852L295.15 34.7679L303.129 38.3676C305.627 36.4466 308.372 34.8625 311.293 33.6571L312.061 25.0293L326.414 23.1L329.478 31.2182H329.504ZM325.215 50.8123C322.005 50.9147 318.906 51.9976 316.344 53.9123C313.781 55.8269 311.88 58.4795 310.903 61.5056C309.925 64.5317 309.919 67.783 310.884 70.813C311.849 73.843 313.739 76.5031 316.293 78.428C318.848 80.3528 321.943 81.4481 325.152 81.5634C328.361 81.6786 331.528 80.8082 334.217 79.0716C336.906 77.3351 338.986 74.8175 340.17 71.8647C341.355 68.9119 341.587 65.6687 340.834 62.5804C339.993 59.1421 337.982 56.095 335.137 53.9518C332.293 51.8085 328.789 50.6998 325.215 50.8123Z" fill="#F5F5F5"/>
<path fill-rule="evenodd" clip-rule="evenodd" d="M198.701 76.6454C200.732 76.9016 202.719 77.424 204.611 78.1989L208.967 74.5824L216.456 80.2201L214.1 85.34C215.361 86.9452 216.4 88.709 217.19 90.5851L222.855 91.0779L224.113 100.265L218.795 102.236C218.534 104.245 218.006 106.211 217.224 108.083L220.88 112.392L215.198 119.859L210.023 117.529C208.401 118.775 206.618 119.8 204.721 120.578L204.222 126.182L194.935 127.435L192.943 122.164C190.912 121.913 188.924 121.394 187.033 120.619L182.677 124.236L175.188 118.598L177.552 113.478C176.289 111.875 175.249 110.111 174.462 108.233L168.797 107.74L167.531 98.5113L172.858 96.5485C173.114 94.5397 173.639 92.5735 174.42 90.702L170.713 86.3673L176.412 78.959L181.588 81.2892C183.208 80.0436 184.988 79.0157 186.881 78.2323L187.379 72.628L196.708 71.417L198.701 76.6788V76.6454ZM195.898 89.3657C193.804 89.4248 191.78 90.1245 190.105 91.3687C188.429 92.6128 187.185 94.34 186.543 96.3127C185.901 98.2853 185.893 100.406 186.52 102.384C187.147 104.361 188.378 106.098 190.044 107.354C191.71 108.611 193.728 109.326 195.822 109.4C197.915 109.475 199.981 108.906 201.734 107.771C203.487 106.637 204.841 104.992 205.61 103.065C206.379 101.137 206.526 99.0211 206.029 97.0079C205.479 94.7795 204.174 92.805 202.33 91.4142C200.486 90.0234 198.216 89.3003 195.898 89.3657Z" fill="#EBEBEB"/>
<path d="M276.939 144.08C278.18 144.626 279.321 145.371 280.316 146.285C283.109 148.758 284.952 152.11 285.534 155.773C285.947 158.305 285.75 160.898 284.96 163.34C284.04 166.156 282.376 168.676 280.139 170.64C278.941 171.71 277.582 172.589 276.112 173.246C274.591 173.963 272.963 174.434 271.291 174.641C267.754 175.123 264.154 174.466 261.024 172.768C257.893 171.07 255.398 168.42 253.908 165.211C253.18 163.707 252.704 162.097 252.498 160.442C252.272 158.859 252.292 157.25 252.557 155.673C253.031 152.753 254.284 150.011 256.187 147.73C257.845 145.757 259.951 144.201 262.333 143.187C265.775 141.696 269.632 141.43 273.25 142.435C274.564 142.788 275.81 143.352 276.939 144.105C276.889 144.206 275.647 143.446 273.157 142.827C269.626 141.983 265.91 142.333 262.603 143.821C260.355 144.833 258.377 146.352 256.829 148.256C255.044 150.444 253.878 153.061 253.452 155.84C252.985 158.91 253.446 162.049 254.777 164.86C256.197 167.878 258.554 170.368 261.505 171.968C264.456 173.568 267.846 174.194 271.181 173.755C272.765 173.566 274.307 173.127 275.749 172.452C277.148 171.841 278.442 171.015 279.582 170.005C281.589 168.277 283.127 166.079 284.056 163.612C284.985 161.146 285.275 158.488 284.901 155.882C284.376 152.338 282.674 149.067 280.063 146.586C278.197 144.799 276.872 144.172 276.939 144.08Z" fill="#EBEBEB"/>
<path d="M294.348 131.068C294.38 130.882 294.422 130.698 294.475 130.517C294.585 130.107 294.728 129.556 294.914 128.846L296.737 122.29L296.805 122.457L283.432 115.299L283.719 115.249L277.665 122.081L277.556 122.206L277.395 122.164C274.193 121.398 270.903 121.053 267.61 121.137H267.424L267.332 120.978C265.939 118.473 264.427 115.825 262.849 113.036L263.237 113.194L248.648 117.437L248.91 117.061C249.095 119.876 249.29 122.966 249.492 126.14V126.374L249.29 126.491C246.495 128.174 243.939 130.219 241.691 132.571L241.522 132.747L241.286 132.68L232.446 130.174L232.928 129.982L225.591 143.245L225.498 142.711L232.379 148.733L232.581 148.908L232.522 149.167C231.752 152.304 231.408 155.528 231.501 158.755V159.022L231.256 159.156L223.219 163.574L223.438 163.048L227.693 177.489L227.22 177.163L236.389 176.604H236.676L236.82 176.846C238.514 179.609 240.573 182.136 242.941 184.363C243 184.571 242.822 183.903 243.076 184.83V184.881V184.947V185.089L242.991 185.365L242.831 185.908L242.518 187.01L241.877 189.199C241.455 190.66 241.033 192.113 240.619 193.558L240.391 193.024L253.722 200.265L253.156 200.357L259.243 193.558L259.362 193.358L259.632 193.425C262.815 194.203 266.088 194.559 269.366 194.485H269.645L269.771 194.719C271.286 197.409 272.771 200.062 274.229 202.679L273.714 202.47L288.312 198.294L288.008 198.728C287.822 195.655 287.636 192.623 287.459 189.658V189.399L287.678 189.274C290.492 187.602 293.067 185.565 295.336 183.218L295.505 183.043L295.741 183.11L304.564 185.616L304.116 185.799L311.462 172.628L311.537 173.062L304.674 167.024L304.522 166.89L304.564 166.698C305.365 163.54 305.734 160.29 305.661 157.035V156.851L305.822 156.759L313.868 152.374L313.741 152.691C312.12 147.087 310.735 142.318 309.52 138.234L309.739 138.376L300.562 138.877H300.469L300.418 138.802C299.151 136.683 297.675 134.694 296.011 132.864L294.762 131.527C294.614 131.387 294.475 131.236 294.348 131.076C294.512 131.196 294.668 131.327 294.813 131.469C295.116 131.744 295.564 132.162 296.13 132.755C297.849 134.559 299.375 136.535 300.68 138.652L300.545 138.576L309.714 137.967H309.874L309.925 138.134C311.149 142.21 312.576 146.97 314.248 152.558L314.307 152.767L314.113 152.867L306.092 157.31L306.252 157.035C306.345 160.346 305.99 163.655 305.197 166.873L305.087 166.539L311.985 172.553L312.204 172.737L312.061 172.987L304.775 186.192L304.623 186.459L304.327 186.376L295.488 183.87L295.893 183.761C293.583 186.169 290.956 188.259 288.084 189.975L288.286 189.599C288.472 192.567 288.663 195.591 288.86 198.67V199.012L288.531 199.104L273.942 203.33L273.596 203.431L273.427 203.122L268.961 195.17L269.366 195.404C266.007 195.488 262.651 195.128 259.387 194.335L259.843 194.193L253.756 201L253.511 201.276L253.19 201.1L239.851 193.867L239.521 193.692L239.631 193.333C240.048 191.891 240.467 190.44 240.889 188.981L241.522 186.785L241.843 185.691L242.004 185.139L242.079 184.864L242.122 184.73V184.655V184.605C242.375 185.532 242.189 184.864 242.248 185.064C239.818 182.771 237.709 180.167 235.975 177.322L236.406 177.547L227.229 178.099H226.857L226.756 177.748L222.535 163.307L222.433 162.956L222.754 162.781L230.792 158.379L230.564 158.78C230.48 155.459 230.846 152.141 231.653 148.916L231.796 149.351C229.407 147.254 227.06 145.175 224.916 143.32L224.662 143.087L224.823 142.786L232.159 129.606L232.32 129.314L232.641 129.406L241.463 131.911L241.058 132.02C243.381 129.626 246.012 127.545 248.884 125.831L248.699 126.182C248.513 123.016 248.327 119.918 248.158 117.111V116.819L248.445 116.736L263.051 112.56L263.304 112.484L263.431 112.718C264.993 115.508 266.487 118.197 267.872 120.678L267.593 120.527C270.938 120.453 274.277 120.824 277.522 121.63L277.252 121.713L283.364 114.932L283.491 114.79L283.66 114.881L296.949 122.19L297.058 122.248V122.365C296.214 125.163 295.555 127.326 295.1 128.821L294.585 130.492C294.524 130.69 294.445 130.883 294.348 131.068Z" fill="#EBEBEB"/>
<path d="M330.094 146.168L316.848 94.0512L370.754 93.1659L330.094 146.168Z" fill="#EBEBEB"/>
<path d="M354.481 103.274L335.967 127.413L434.647 201.485L453.161 177.346L354.481 103.274Z" fill="#EBEBEB"/>
<path d="M426.527 279.385L433.374 294.744C433.374 294.744 419.866 306.788 420.879 309.778L451.458 297.709L441.783 273.346L426.527 279.385Z" fill="#0F7CE3"/>
<path opacity="0.5" d="M426.527 279.385L433.374 294.744C433.374 294.744 419.866 306.788 420.879 309.778L451.458 297.709L441.783 273.346L426.527 279.385Z" fill="black"/>
<path d="M451.458 297.701L450.386 295.254L421.461 307.782C421.461 307.782 420.338 308.901 420.87 309.795L451.458 297.701Z" fill="#263238"/>
<path d="M480.374 301.159L488.952 315.649C488.952 315.649 476.947 329.13 478.264 332.003L507.256 316.568L494.837 293.416L480.374 301.159Z" fill="#0F7CE3"/>
<path opacity="0.5" d="M480.374 301.159L488.952 315.649C488.952 315.649 476.947 329.13 478.264 332.003L507.256 316.568L494.837 293.416L480.374 301.159Z" fill="black"/>
<path d="M507.256 316.526L505.888 314.246L478.618 329.898C478.618 329.898 477.63 331.143 478.264 331.961L507.256 316.526Z" fill="#263238"/>
<path d="M442.973 97.9516L424.18 99.4048L423.555 88.9981C423.555 88.9981 415.957 88.8895 414.842 81.5647C413.728 74.2399 412.597 57.2183 412.597 57.2183C416.559 54.8401 421.09 53.5514 425.724 53.4853C430.358 53.4193 434.925 54.5782 438.955 56.8425L440.17 57.5273L442.973 97.9516Z" fill="#FFBE9D"/>
<path d="M423.53 88.8896C426.964 88.478 430.197 87.065 432.817 84.8304C432.817 84.8304 431.179 90.5934 423.682 90.9609L423.53 88.8896Z" fill="#EB996E"/>
<path d="M440.339 65.2447C440.457 65.1696 445.227 63.0398 445.776 68.0844C446.325 73.1291 441.099 72.628 441.074 72.486C441.048 72.344 440.339 65.2447 440.339 65.2447Z" fill="#FFBE9D"/>
<path d="M442.425 70.4064C442.425 70.4064 442.517 70.4565 442.678 70.5149C442.897 70.5802 443.133 70.5592 443.336 70.4565C443.651 70.2187 443.895 69.9019 444.043 69.5391C444.192 69.1762 444.239 68.7806 444.181 68.3935C444.15 67.9611 444.02 67.5413 443.801 67.1657C443.735 67.0138 443.633 66.8797 443.504 66.775C443.374 66.6703 443.221 66.5981 443.058 66.5644C442.952 66.549 442.845 66.5706 442.754 66.6256C442.663 66.6805 442.594 66.7652 442.56 66.8651C442.509 67.007 442.56 67.1073 442.56 67.1156C442.56 67.124 442.441 67.0488 442.458 66.8316C442.474 66.7042 442.533 66.5861 442.627 66.4976C442.689 66.4363 442.763 66.3884 442.844 66.3567C442.926 66.3251 443.013 66.3105 443.1 66.3138C443.314 66.3337 443.519 66.407 443.696 66.5268C443.873 66.6466 444.017 66.809 444.113 66.9987C444.378 67.411 444.538 67.8812 444.577 68.3684C444.65 68.8148 444.588 69.2725 444.399 69.684C444.209 70.0956 443.902 70.4427 443.514 70.682C443.38 70.7409 443.233 70.7679 443.087 70.7606C442.94 70.7534 442.797 70.7121 442.669 70.6402C442.441 70.5316 442.408 70.4231 442.425 70.4064Z" fill="#EB996E"/>
<path d="M415.796 68.7443C415.834 69.017 415.978 69.2645 416.197 69.4344C416.416 69.6042 416.693 69.6832 416.97 69.6547C417.106 69.6474 417.239 69.613 417.362 69.5535C417.484 69.494 417.593 69.4107 417.682 69.3085C417.771 69.2063 417.839 69.0874 417.88 68.9589C417.922 68.8304 417.936 68.6949 417.924 68.5605C417.89 68.287 417.749 68.0375 417.531 67.8657C417.313 67.6939 417.036 67.6135 416.759 67.6418C416.622 67.6502 416.488 67.6856 416.365 67.7459C416.242 67.8061 416.133 67.8901 416.043 67.9928C415.953 68.0955 415.885 68.2148 415.843 68.3439C415.801 68.4729 415.785 68.6091 415.796 68.7443Z" fill="#263238"/>
<path d="M415.467 67.3411C415.619 67.458 416.311 66.7565 417.476 66.6061C418.642 66.4558 419.536 66.8984 419.638 66.7397C419.739 66.5811 419.52 66.4391 419.123 66.2303C418.579 65.9638 417.967 65.8676 417.367 65.9546C416.774 66.0352 416.221 66.2982 415.788 66.7063C415.476 67.0237 415.4 67.291 415.467 67.3411Z" fill="#263238"/>
<path d="M426.882 67.4747C426.919 67.7474 427.063 67.9949 427.282 68.1648C427.501 68.3347 427.778 68.4137 428.055 68.3851C428.191 68.3767 428.324 68.3415 428.445 68.2817C428.567 68.2218 428.676 68.1385 428.765 68.0366C428.854 67.9346 428.921 67.8162 428.963 67.6882C429.005 67.5601 429.021 67.4251 429.009 67.291C428.973 67.0183 428.832 66.7701 428.614 66.5987C428.397 66.4273 428.121 66.3461 427.844 66.3722C427.707 66.3807 427.573 66.416 427.45 66.4763C427.328 66.5366 427.218 66.6205 427.128 66.7232C427.039 66.8259 426.971 66.9453 426.928 67.0743C426.886 67.2034 426.87 67.3395 426.882 67.4747Z" fill="#263238"/>
<path d="M426.704 65.988C426.856 66.1133 427.548 65.4117 428.714 65.253C429.879 65.0943 430.765 65.5454 430.875 65.395C430.985 65.2447 430.757 65.0943 430.351 64.8855C429.813 64.6121 429.202 64.5128 428.604 64.6016C428.009 64.6828 427.456 64.949 427.025 65.3616C426.713 65.679 426.628 65.9379 426.704 65.988Z" fill="#263238"/>
<path d="M423.758 74.9248C423.129 74.8297 422.492 74.8073 421.858 74.858C421.563 74.858 421.276 74.858 421.2 74.6576C421.141 74.3778 421.168 74.0873 421.276 73.8224C421.444 73.0874 421.63 72.3106 421.824 71.5088C422.359 69.5401 422.732 67.5318 422.939 65.5037C422.246 67.4237 421.709 69.3955 421.335 71.4003L420.828 73.7221C420.69 74.0942 420.69 74.5027 420.828 74.8747C420.885 74.9705 420.963 75.052 421.057 75.1129C421.15 75.1738 421.257 75.2123 421.368 75.2255C421.533 75.2508 421.701 75.2508 421.866 75.2255C422.507 75.2052 423.143 75.1042 423.758 74.9248Z" fill="#263238"/>
<path d="M427.219 75.2422C427.033 75.2422 427.219 76.4783 426.265 77.4972C425.311 78.5162 423.994 78.5579 424.011 78.7333C424.028 78.9087 424.34 78.9338 424.897 78.867C425.622 78.7768 426.292 78.4367 426.789 77.9065C427.267 77.3972 427.525 76.7224 427.506 76.0273C427.481 75.5094 427.304 75.2254 427.219 75.2422Z" fill="#263238"/>
<path d="M425.776 61.6116C425.936 61.904 427.05 61.6116 428.41 61.6116C429.769 61.6116 430.943 61.7954 431.044 61.4947C431.103 61.3527 430.875 61.0854 430.394 60.8516C429.763 60.5607 429.071 60.4233 428.376 60.4507C427.68 60.4679 426.998 60.6452 426.383 60.9685C425.928 61.2024 425.683 61.478 425.776 61.6116Z" fill="#263238"/>
<path d="M415.425 64.017C415.661 64.2425 416.413 63.875 417.35 63.7247C418.287 63.5743 419.123 63.6579 419.266 63.3655C419.325 63.2236 419.165 62.9813 418.785 62.7892C418.276 62.5584 417.707 62.4884 417.156 62.5888C416.6 62.6711 416.086 62.9255 415.686 63.3154C415.391 63.6245 415.315 63.9001 415.425 64.017Z" fill="#263238"/>
<path d="M408.325 53.084C408.211 52.6355 408.213 52.1659 408.329 51.7181C408.446 51.2703 408.673 50.8584 408.992 50.5199C409.327 50.2019 409.765 50.0115 410.229 49.9825C410.693 49.9534 411.152 50.0876 411.525 50.3612C411.413 50.0642 411.365 49.7473 411.384 49.4309C411.403 49.1144 411.489 48.8055 411.636 48.5239C411.783 48.2422 411.988 47.9942 412.238 47.7957C412.488 47.5971 412.777 47.4525 413.087 47.3712C414.286 47.1289 415.451 47.889 416.666 48.0393C417.858 48.1148 419.043 47.8072 420.043 47.1624C421.082 46.5777 422.019 45.826 423.074 45.2748C425.3 44.1 427.905 43.842 430.322 44.5567C432.74 45.2715 434.774 46.9012 435.983 49.0917C436.782 48.7712 437.661 48.7002 438.501 48.8884C439.342 49.0765 440.104 49.5147 440.686 50.1441C441.835 51.4313 442.458 53.0958 442.433 54.8129C442.433 55.9591 442.306 57.1018 442.054 58.2206C442.054 58.3124 442.054 58.4043 442.096 58.5045C442.594 62.547 442.805 67.3494 441.074 67.6167C438.043 68.0844 437.967 62.3298 437.967 62.3298C434.041 61.4278 434.641 55.7149 433.594 55.0133C432.547 54.3118 430.318 52.633 423.091 57.6526C420.375 59.3402 417.191 60.138 413.99 59.9327H413.787H413.737H413.669C412.941 59.8549 412.229 59.6662 411.559 59.3731C410.768 59.0586 410.1 58.5027 409.651 57.7862C409.435 57.426 409.33 57.0118 409.348 56.5937C409.366 56.1757 409.506 55.7718 409.752 55.4309C409.054 54.8035 408.558 53.9875 408.325 53.084Z" fill="#263238"/>
<path d="M423.53 95.3708L424.366 124.503L442.686 85.4902L442.23 81.8738L423.53 95.3708Z" fill="#EBEBEB"/>
<path d="M435.679 182.442C435.012 182.659 396.842 220.82 397.687 227.677C398.531 234.534 425.691 285.306 425.691 285.306L445.109 275.86L426.932 231.36L427.169 228.595L449.381 210.597L448.191 181.665L435.679 182.442Z" fill="#263238"/>
<path d="M443.902 189.967C444.349 190.627 450.952 250.578 452.724 253.677C454.497 256.775 481.024 307.966 481.024 307.966L500.721 300.115L476.676 243.863L479.412 190.627L477.934 175.593L448.191 181.665L443.902 189.967Z" fill="#263238"/>
<path d="M452.378 252.658C452.315 252.462 452.273 252.261 452.252 252.057C452.176 251.622 452.083 251.046 451.965 250.328C451.728 248.774 451.391 246.611 450.985 243.955C450.2 238.518 449.12 231.093 447.921 222.891C446.722 214.689 445.743 207.239 444.983 201.81C444.637 199.138 444.349 196.966 444.138 195.413L443.936 193.667C443.915 193.464 443.915 193.26 443.936 193.057C443.936 193.057 443.986 193.266 444.062 193.659C444.138 194.051 444.231 194.669 444.349 195.387L445.32 201.769C446.114 207.197 447.195 214.622 448.385 222.833C449.576 231.043 450.572 238.476 451.323 243.913C451.678 246.578 451.965 248.749 452.167 250.303C452.252 251.029 452.328 251.614 452.378 252.048C452.399 252.251 452.399 252.455 452.378 252.658Z" fill="#455A64"/>
<path d="M476.178 242.143C475.929 243.755 475.545 245.345 475.03 246.895C474.646 248.481 474.127 250.032 473.477 251.53C473.735 249.928 474.127 248.349 474.65 246.811C475.019 245.213 475.53 243.651 476.178 242.143Z" fill="#455A64"/>
<path d="M479.159 255.723C478.718 255.293 478.352 254.794 478.078 254.245C476.608 251.655 475.969 248.683 476.246 245.726C476.267 245.116 476.392 244.514 476.617 243.947C476.152 248.04 477.041 252.172 479.15 255.723H479.159Z" fill="#455A64"/>
<path d="M420.617 224.887C422.98 225.808 424.918 227.556 426.063 229.798C425.961 229.865 425.016 228.504 423.53 227.159C422.044 225.814 420.524 224.996 420.617 224.887Z" fill="#455A64"/>
<path d="M423.572 223.116C424.362 223.656 425.005 224.378 425.446 225.221C426.013 225.99 426.381 226.885 426.519 227.827C425.999 227.057 425.522 226.26 425.092 225.438C424.542 224.693 424.035 223.917 423.572 223.116Z" fill="#455A64"/>
<path d="M426.206 135.653L431.077 159.59L435.045 192.999C435.045 192.999 451.407 190.735 458.381 188.555C466.469 186.05 484.064 183.861 484.064 183.861L481.092 186.768C487.39 185.022 491.4 179.084 491.4 179.084C480.56 169.137 471.273 148.624 471.273 148.624L463.025 108.099C463.025 108.099 461.775 102.386 461.015 99.8391C460.255 97.2917 447.735 89.0983 445.996 88.0626L444.907 87.5531L444.56 84.3042L443.269 83.5358L429.727 95.7215C427.087 98.0875 425.409 101.324 425.007 104.825C424.435 109.885 424.237 114.98 424.416 120.068C424.577 124.87 426.206 135.653 426.206 135.653Z" fill="#0F7CE3"/>
<path d="M435.51 94.2015C435.51 94.2015 428.351 98.0017 427.11 101.226C425.868 104.45 429.558 139.796 429.558 139.796L403.833 140.28L403.732 155.439C403.732 155.439 444.586 158.638 446.182 156.45C448.326 153.493 450.825 125.873 450.825 125.873L451.754 105.995C451.754 105.995 449.415 90.8439 435.51 94.2015Z" fill="#0F7CE3"/>
<g opacity="0.3">
<path opacity="0.3" d="M431.077 159.59C434.405 160.62 437.915 160.942 441.378 160.534C444.999 160.208 448.689 158.246 450.057 154.905C451.104 152.357 450.665 149.476 450.825 146.728C450.968 144.331 451.559 141.992 451.931 139.629C452.302 137.265 451.087 132.947 450.242 130.65C450.242 130.65 449.331 147.054 446.73 153.944C446.441 154.906 445.892 155.773 445.143 156.45C444.223 157.185 442.956 157.285 441.766 157.369C438.482 157.711 430.562 157.143 430.562 157.143" fill="black"/>
</g>
<path d="M451.737 108.166C451.748 108.288 451.748 108.411 451.737 108.534C451.737 108.784 451.737 109.135 451.694 109.586C451.694 110.538 451.585 111.9 451.5 113.645C451.416 115.391 451.289 117.571 451.154 120.068C451.019 122.565 450.918 125.43 450.605 128.57C450.293 131.711 449.997 135.152 449.601 138.843C449.204 142.535 448.756 146.477 448.039 150.595C447.87 151.647 447.633 152.688 447.33 153.71C446.979 154.781 446.336 155.734 445.472 156.466C444.585 157.224 443.444 157.626 442.272 157.594C441.141 157.594 440.001 157.594 438.895 157.594C434.302 157.477 429.558 157.252 424.695 156.984C417.392 156.592 410.342 156.149 403.782 155.681H403.596V155.498C403.596 150.11 403.656 145.041 403.689 140.355V140.18H403.867L428.697 139.654L435.636 139.537H437.469C437.882 139.537 438.093 139.537 438.093 139.537C438.093 139.537 437.882 139.537 437.469 139.578L435.645 139.654L428.697 139.871L403.875 140.547L404.052 140.372C404.052 145.049 404.052 150.119 404.002 155.506L403.808 155.305C410.384 155.748 417.426 156.199 424.72 156.592C429.575 156.851 434.319 157.093 438.904 157.21C440.052 157.21 441.183 157.252 442.281 157.21C443.362 157.25 444.418 156.883 445.236 156.182C446.042 155.5 446.641 154.609 446.967 153.61C447.264 152.606 447.498 151.585 447.667 150.553C448.385 146.452 448.841 142.51 449.271 138.86C449.702 135.21 450.031 131.744 450.327 128.604C450.622 125.463 450.766 122.607 450.935 120.11C451.103 117.612 451.239 115.466 451.348 113.695C451.458 111.925 451.559 110.588 451.627 109.644C451.627 109.193 451.686 108.809 451.711 108.584C451.703 108.444 451.712 108.304 451.737 108.166Z" fill="#263238"/>
<path d="M408.797 155.214C408.598 152.769 408.538 150.315 408.62 147.864C408.564 145.411 408.649 142.957 408.873 140.514C409.073 142.959 409.132 145.412 409.05 147.864C409.106 150.317 409.022 152.77 408.797 155.214Z" fill="#263238"/>
<path d="M406.079 142.819C406.028 142.819 406.281 142.502 406.771 142.669C406.914 142.718 407.04 142.808 407.133 142.926C407.225 143.045 407.282 143.188 407.294 143.337C407.316 143.523 407.279 143.712 407.186 143.876C407.094 144.04 406.952 144.171 406.78 144.251C406.608 144.33 406.415 144.354 406.228 144.319C406.042 144.284 405.871 144.192 405.741 144.055C405.632 143.956 405.552 143.831 405.507 143.692C405.463 143.553 405.456 143.404 405.488 143.262C405.606 142.777 405.943 142.677 405.952 142.727C405.96 142.777 405.791 142.953 405.783 143.295C405.781 143.385 405.798 143.474 405.835 143.557C405.871 143.639 405.926 143.712 405.994 143.771C406.076 143.839 406.175 143.883 406.281 143.899C406.387 143.915 406.495 143.903 406.594 143.863C406.687 143.816 406.765 143.744 406.82 143.656C406.876 143.567 406.905 143.466 406.906 143.362C406.904 143.275 406.878 143.189 406.832 143.115C406.786 143.04 406.722 142.978 406.644 142.936C406.349 142.761 406.104 142.869 406.079 142.819Z" fill="#263238"/>
<path d="M463.151 111.574C463.151 111.574 476.541 128.888 478.171 133.599C479.8 138.309 478.542 145.091 475.815 148.332C473.088 151.572 470.893 150.253 470.893 150.253L463.151 111.574Z" fill="#0F7CE3"/>
<path d="M470.429 148.866C469.338 149.256 468.205 149.516 467.052 149.643C465.929 149.905 464.778 150.028 463.624 150.01C464.715 149.62 465.848 149.359 467.001 149.234C468.124 148.972 469.276 148.848 470.429 148.866Z" fill="#263238"/>
<path d="M472.962 161.62C473.113 161.911 473.234 162.216 473.325 162.53C473.527 163.132 473.831 163.984 474.228 165.036C475.268 167.778 476.469 170.458 477.825 173.062C479.19 175.659 480.689 178.185 482.316 180.629C482.941 181.573 483.456 182.3 483.819 182.843C484.025 183.1 484.201 183.38 484.342 183.678C484.096 183.458 483.875 183.211 483.684 182.943C483.287 182.45 482.73 181.723 482.071 180.796C480.36 178.397 478.814 175.885 477.445 173.279C476.075 170.664 474.907 167.95 473.949 165.161C473.586 164.092 473.316 163.215 473.164 162.605C473.053 162.287 472.985 161.956 472.962 161.62Z" fill="#263238"/>
<g opacity="0.3">
<path opacity="0.3" d="M473.89 163.674C476.018 167.416 478.196 171.191 481.421 174.09C482.641 175.006 483.747 176.063 484.714 177.238C485.558 178.483 485.955 180.22 485.128 181.498C485.004 181.736 484.811 181.931 484.572 182.058C484.334 182.185 484.063 182.237 483.794 182.208C483.441 182.074 483.144 181.827 482.949 181.506C478.911 176.361 475.894 170.506 474.059 164.251" fill="black"/>
</g>
<g opacity="0.3">
<path opacity="0.3" d="M472.117 150.186C473.949 148.883 474.591 146.411 474.321 144.189C474.051 141.967 473.021 139.929 472.1 137.9C469.319 131.831 467.139 125.509 465.591 119.024L464.282 114.222L470.902 148.465L472.117 150.186Z" fill="black"/>
</g>
<path d="M438.997 92.6647C439.786 91.7903 440.632 90.9673 441.529 90.2008C442.321 89.315 443.167 88.4782 444.062 87.6952C443.499 88.7359 442.756 89.6715 441.867 90.4597C441.056 91.3642 440.083 92.1118 438.997 92.6647Z" fill="#263238"/>
<path d="M437.646 95.6381C437.646 95.7132 436.869 95.9471 435.687 96.5234C432.585 98.0461 430.086 100.551 428.587 103.639C428.013 104.817 427.743 105.602 427.743 105.585C427.74 105.39 427.772 105.195 427.835 105.009C427.966 104.499 428.135 103.999 428.342 103.514C429.737 100.27 432.331 97.6739 435.594 96.2561C436.081 96.045 436.583 95.8718 437.097 95.7383C437.273 95.675 437.459 95.6411 437.646 95.6381Z" fill="#263238"/>
<path d="M473.586 153.635C473.501 153.534 473.43 153.421 473.375 153.301L472.843 152.307C472.362 151.38 471.712 150.119 470.91 148.582C470.066 144.79 468.892 139.261 467.6 133.106C466.402 127.268 465.363 122.014 464.519 118.189L463.675 113.654C463.59 113.161 463.514 112.752 463.455 112.417C463.42 112.275 463.406 112.129 463.413 111.983C463.47 112.118 463.512 112.258 463.54 112.401C463.616 112.726 463.717 113.136 463.835 113.629C464.088 114.748 464.434 116.268 464.848 118.13C465.692 121.989 466.79 127.234 468.023 133.022C469.314 139.178 470.446 144.715 471.197 148.532C471.948 150.094 472.556 151.372 473.004 152.316L473.477 153.343C473.523 153.436 473.56 153.534 473.586 153.635Z" fill="#263238"/>
<path d="M429.119 139.787C429.011 139.377 428.943 138.958 428.916 138.535C428.823 137.649 428.697 136.488 428.545 135.094C428.241 132.195 427.852 128.178 427.455 123.751C427.059 119.325 426.721 115.299 426.493 112.384C426.392 110.989 426.316 109.828 426.248 108.943C426.209 108.521 426.209 108.096 426.248 107.674C426.344 108.086 426.409 108.505 426.442 108.926C426.535 109.812 426.662 110.973 426.822 112.367C427.118 115.266 427.506 119.275 427.903 123.71C428.3 128.145 428.637 132.162 428.865 135.069C428.967 136.463 429.043 137.624 429.11 138.518C429.143 138.94 429.146 139.365 429.119 139.787Z" fill="#263238"/>
<path d="M404.162 142.051C404.162 142.051 398.607 137.875 397.256 137.632C396.218 137.44 390.029 137.549 387.184 137.632C386.652 137.628 386.14 137.83 385.758 138.196C385.376 138.562 385.154 139.061 385.141 139.587C385.133 139.653 385.133 139.721 385.141 139.787C385.212 140.121 385.376 140.428 385.615 140.673C385.854 140.918 386.158 141.092 386.492 141.174C386.06 141.311 385.683 141.579 385.415 141.941C385.147 142.302 385 142.738 384.997 143.187C384.997 144.774 386.914 145.108 386.914 145.108L386.635 145.358C386.395 145.599 386.224 145.899 386.141 146.227C386.057 146.556 386.064 146.9 386.16 147.225C386.257 147.55 386.44 147.843 386.689 148.074C386.939 148.306 387.247 148.466 387.581 148.54L388.425 148.741C388.101 148.871 387.82 149.087 387.613 149.366C387.406 149.645 387.28 149.975 387.252 150.319C387.252 152.407 392.047 152.825 392.047 152.825C392.047 152.825 403.808 154.671 404.061 154.587C404.314 154.504 404.162 142.051 404.162 142.051Z" fill="#FFBE9D"/>
<path d="M388.273 135.127C388.324 135.82 388.493 137.29 389.675 137.95L396.235 137.699C396.235 137.699 391.355 136.029 390.654 135.194C390.383 134.852 390.068 134.546 389.717 134.283C389.571 134.186 389.401 134.132 389.226 134.127C389.05 134.122 388.877 134.166 388.726 134.254C388.575 134.343 388.452 134.471 388.372 134.626C388.292 134.78 388.258 134.954 388.273 135.127Z" fill="#FFBE9D"/>
<path d="M393.144 137.633C392.166 137.862 391.157 137.932 390.155 137.841C389.154 137.9 388.15 137.83 387.167 137.633C388.15 137.415 389.16 137.344 390.164 137.424C391.162 137.374 392.163 137.444 393.144 137.633Z" fill="#EB996E"/>
<path d="M391.676 141.257C390.843 141.523 389.962 141.611 389.092 141.516C388.226 141.548 387.362 141.397 386.559 141.074C387.415 140.982 388.279 140.982 389.134 141.074C389.986 141.04 390.838 141.102 391.676 141.257Z" fill="#EB996E"/>
<path d="M395.01 140.79C395.112 140.856 395.01 141.207 394.614 141.441C394.217 141.675 393.862 141.65 393.854 141.533C393.845 141.416 394.09 141.274 394.377 141.09C394.664 140.907 394.909 140.74 395.01 140.79Z" fill="#EB996E"/>
<path d="M392.393 145.367C390.517 145.584 388.619 145.522 386.762 145.183C387.693 145 388.646 144.957 389.59 145.058C390.535 145.022 391.479 145.126 392.393 145.367Z" fill="#EB996E"/>
<path d="M396.133 143.629C396.184 143.629 396.285 143.746 396.319 143.997C396.355 144.338 396.255 144.68 396.041 144.95C395.826 145.219 395.514 145.396 395.171 145.442C394.917 145.442 394.765 145.442 394.765 145.35C394.765 145.258 395.331 145.166 395.703 144.69C396.074 144.214 396.032 143.654 396.133 143.629Z" fill="#EB996E"/>
<path d="M393.389 149.384C392.545 149.486 391.69 149.452 390.857 149.284C389.989 149.254 389.132 149.079 388.324 148.766C389.168 148.664 390.023 148.697 390.857 148.866C391.724 148.901 392.579 149.076 393.389 149.384Z" fill="#EB996E"/>
<path d="M397.045 147.338C397.096 147.338 397.18 147.471 397.172 147.73C397.139 148.037 397.015 148.327 396.817 148.565C396.344 149.142 395.804 149.351 395.745 149.267C395.686 149.183 396.091 148.791 396.488 148.306C396.885 147.822 396.978 147.363 397.045 147.338Z" fill="#EB996E"/>
<path d="M478.871 187.102C480.032 186.991 481.151 186.613 482.137 185.999C483.124 185.384 483.951 184.549 484.553 183.561C484.688 183.335 484.807 183.026 484.629 182.834C484.561 182.778 484.481 182.735 484.396 182.71C484.31 182.684 484.22 182.675 484.131 182.684C482.295 182.67 480.471 182.981 478.745 183.603C478.644 183.625 478.548 183.669 478.465 183.731C478.382 183.793 478.314 183.872 478.264 183.962C478.218 184.103 478.218 184.255 478.264 184.396C478.492 185.273 478.72 186.15 478.956 187.035" fill="#0F7CE3"/>
<g opacity="0.4">
<path opacity="0.4" d="M478.871 187.102C480.032 186.991 481.151 186.613 482.137 185.999C483.124 185.384 483.951 184.549 484.553 183.561C484.688 183.335 484.807 183.026 484.629 182.834C484.561 182.778 484.481 182.735 484.396 182.71C484.31 182.684 484.22 182.675 484.131 182.684C482.295 182.67 480.471 182.981 478.745 183.603C478.644 183.625 478.548 183.669 478.465 183.731C478.382 183.793 478.314 183.872 478.264 183.962C478.218 184.103 478.218 184.255 478.264 184.396C478.492 185.273 478.72 186.15 478.956 187.035" fill="black"/>
</g>
<path d="M423.53 95.3708C423.53 95.3708 420.828 104.333 421.571 103.823C422.314 103.314 423.927 101.902 423.927 101.902L423.53 95.3708Z" fill="#EBEBEB"/>
<path d="M423.682 99.5051L422.213 102.996C422.066 103.358 421.969 103.737 421.926 104.124C421.799 105.101 421.664 106.888 422.246 107.014C422.541 107.03 422.836 106.981 423.11 106.87C423.383 106.758 423.627 106.588 423.825 106.371L423.682 99.5051Z" fill="#263238"/>
<path d="M469.441 100.056C469.441 100.056 455.013 94.4854 447.017 99.4048C439.022 104.324 437.57 112.175 432.808 112.175C423.521 112.175 423.825 105.694 423.825 105.694L421.85 106.287C421.85 107.615 419.705 117.145 429.448 118.306C439.191 119.467 443.345 106.295 452.142 106.287C457.646 106.379 463.011 108.009 467.618 110.989L473.941 107.039L469.441 100.056Z" fill="#263238"/>
<path d="M432.437 118.189C434.925 116.722 436.875 114.507 438 111.866C440.246 106.746 445.058 100.908 449.077 99.4383C453.096 97.9683 462.391 96.9326 468.816 101.109L472.928 106.604L467.592 110.037C464.591 108.478 461.437 107.227 458.178 106.304C451.542 104.475 447.507 106.546 443.648 110.154C443.412 110.38 443.184 110.605 442.998 110.822C441.134 112.789 439.087 114.578 436.886 116.168C434.969 117.445 433.281 118.189 432.437 118.189Z" fill="#455A64"/>
<path d="M133.566 40.4055C125.005 41.7168 118.732 34.559 116.731 28.2699C114.882 22.4234 114.004 16.3347 111.412 10.7305C107.782 2.96299 98.1743 -0.628419 89.5543 0.0898627C80.9344 0.808145 72.2384 5.10113 64.6062 9.1185L66.7169 55.8904C66.7169 55.8904 83.3236 38.3509 91.3104 38.0669C104.633 37.5408 103.907 59.1978 116.841 62.3967C116.841 62.3967 134.976 67.2576 147.235 51.5974C155.011 41.65 155.678 29.5728 155.678 29.5728C155.678 29.5728 149.717 37.9417 133.566 40.4055Z" fill="#0F7CE3"/>
<path d="M64.234 1.40125C64.3522 1.40125 66.6824 51.0796 69.4347 112.359C72.1871 173.639 74.3315 223.334 74.2133 223.342C74.0951 223.35 71.7734 173.672 69.0126 112.376C66.2519 51.0796 64.1159 1.4096 64.234 1.40125Z" fill="#263238"/>
<g opacity="0.2">
<path opacity="0.2" d="M109.926 25.0293C111.376 29.9712 113.495 34.6967 116.224 39.0776C118.69 42.8945 122.43 46.11 126.913 47.0371C127.733 47.1464 128.538 47.3511 129.31 47.6468C129.695 47.8018 130.031 48.0566 130.282 48.3843C130.533 48.7121 130.691 49.1007 130.737 49.5093C130.737 50.7371 129.496 51.5389 128.382 52.0818C126.834 52.922 125.178 53.5514 123.46 53.9527C121.771 54.2701 120.37 54.4538 119.179 53.1175C118.028 52.0007 116.992 50.7724 116.089 49.4509C112.18 42.8611 110.247 33.4399 109.926 25.9898" fill="black"/>
</g>
<path d="M121.535 55.0718C121.535 55.0718 121.4 55.0134 121.155 54.8547C120.8 54.626 120.459 54.3779 120.133 54.1113C118.931 53.1272 117.869 51.9865 116.976 50.7204C115.653 48.841 114.588 46.7964 113.81 44.64C112.862 42.0095 112.081 39.3233 111.471 36.5969C110.311 31.6563 109.58 26.6268 109.284 21.5631C109.174 19.6254 109.158 18.0553 109.158 16.9695C109.158 16.46 109.158 16.0507 109.158 15.7167C109.143 15.5722 109.143 15.4268 109.158 15.2823C109.196 15.4239 109.213 15.5702 109.208 15.7167C109.208 16.0507 109.208 16.46 109.259 16.9611C109.31 18.0469 109.369 19.6171 109.521 21.5464C109.904 26.58 110.672 31.5777 111.817 36.4967C112.437 39.2089 113.215 41.8833 114.147 44.5064C114.912 46.6358 115.945 48.6617 117.22 50.5366C118.078 51.7992 119.091 52.9522 120.234 53.9694C121.053 54.7127 121.56 55.0468 121.535 55.0718Z" fill="#263238"/>
<path d="M12.6156 233.214L125.722 251.53V233.214H12.6156Z" fill="#E0E0E0"/>
<path d="M144.389 274.599L257.504 292.915V274.599H144.389Z" fill="#E0E0E0"/>
<path d="M275.259 314.18L388.374 332.496V314.18H275.259Z" fill="#E0E0E0"/>
<path d="M405.961 345.684L519.067 364V345.684H405.961Z" fill="#E0E0E0"/>
<path d="M125.722 219.5H12.6156V233.223H125.722V219.5Z" fill="#FACF38"/>
<g opacity="0.3">
<path opacity="0.3" d="M125.722 219.5H90.4232V233.223H125.722V219.5Z" fill="black"/>
</g>
<path d="M257.496 260.876H144.389V274.599H257.496V260.876Z" fill="#FACF38"/>
<g opacity="0.3">
<path opacity="0.3" d="M257.504 260.876H222.205V274.599H257.504V260.876Z" fill="black"/>
</g>
<path d="M388.374 300.457H275.268V314.18H388.374V300.457Z" fill="#FACF38"/>
<g opacity="0.3">
<path opacity="0.3" d="M388.374 300.457H353.075V314.18H388.374V300.457Z" fill="black"/>
</g>
<path d="M519.245 331.961H406.138V345.684H519.245V331.961Z" fill="#FACF38"/>
<g opacity="0.3">
<path opacity="0.3" d="M519.244 331.961H483.946V345.684H519.244V331.961Z" fill="black"/>
</g>
<path d="M449.542 282.024C449.543 282.625 449.725 283.212 450.064 283.711C450.402 284.21 450.883 284.598 451.445 284.827C452.006 285.056 452.624 285.115 453.22 284.996C453.815 284.878 454.362 284.588 454.791 284.162C455.22 283.737 455.512 283.195 455.63 282.606C455.747 282.016 455.686 281.405 455.453 280.85C455.22 280.295 454.827 279.821 454.321 279.487C453.816 279.154 453.222 278.975 452.615 278.975C452.211 278.975 451.81 279.054 451.437 279.208C451.063 279.361 450.724 279.586 450.439 279.869C450.153 280.152 449.927 280.488 449.773 280.858C449.619 281.228 449.541 281.624 449.542 282.024Z" fill="#EBEBEB"/>
</svg>
