<svg width="64" height="64" viewBox="0 0 64 64" fill="none" xmlns="http://www.w3.org/2000/svg">
<path d="M61.4087 31.8062C61.5801 31.9323 61.7873 32.0002 62 32C62.1571 31.9995 62.312 31.9627 62.4525 31.8925C62.6172 31.8087 62.7555 31.681 62.8521 31.5235C62.9488 31.366 62.9999 31.1848 63 31V25C63.0001 24.8429 62.9631 24.6881 62.8921 24.548C62.8211 24.4079 62.718 24.2865 62.5913 24.1937L32.5913 2.19375C32.4199 2.06769 32.2127 1.99969 32 1.99969C31.7873 1.99969 31.5801 2.06769 31.4088 2.19375L1.40875 24.1937C1.282 24.2865 1.17892 24.4079 1.1079 24.548C1.03688 24.6881 0.999909 24.8429 1 25V31C0.999771 31.1849 1.05084 31.3662 1.14752 31.5238C1.2442 31.6814 1.3827 31.809 1.54762 31.8926C1.71254 31.9762 1.8974 32.0123 2.08165 31.9971C2.2659 31.9818 2.44231 31.9158 2.59125 31.8062L7 28.5737V60H2C1.73478 60 1.48043 60.1053 1.29289 60.2929C1.10536 60.4804 1 60.7348 1 61C1 61.2652 1.10536 61.5196 1.29289 61.7071C1.48043 61.8946 1.73478 62 2 62H62C62.2652 62 62.5196 61.8946 62.7071 61.7071C62.8946 61.5196 63 61.2652 63 61C63 60.7348 62.8946 60.4804 62.7071 60.2929C62.5196 60.1053 62.2652 60 62 60H57V28.5737L61.4087 31.8062ZM55 60H9V27.1062L32 10.24L55 27.1062V60ZM32.5913 8.19375C32.4198 8.06787 32.2127 8 32 8C31.7873 8 31.5802 8.06787 31.4088 8.19375L3 29.0262V25.5062L32 4.24L61 25.5062V29.0262L32.5913 8.19375Z" fill="#0A60B1"/>
<path d="M44 35.0001C43.9995 32.8937 43.4446 30.8246 42.3911 29.0007C41.3376 27.1768 39.8225 25.6623 37.9982 24.6094C36.1739 23.5566 34.1046 23.0025 31.9983 23.0027C29.892 23.003 27.8228 23.5577 25.9988 24.6111C24.1748 25.6645 22.6602 27.1794 21.6072 29.0036C20.5542 30.8278 19.9999 32.8971 20 35.0034C20.0001 37.1097 20.5546 39.1789 21.6079 41.003C22.6611 42.8271 24.1759 44.3419 26 45.3951V47.0001H25C24.7348 47.0001 24.4804 47.1054 24.2929 47.2929C24.1054 47.4805 24 47.7348 24 48.0001V51.0001C24 51.2653 24.1054 51.5196 24.2929 51.7072C24.4804 51.8947 24.7348 52.0001 25 52.0001V54.0001C25 54.2653 25.1054 54.5196 25.2929 54.7072C25.4804 54.8947 25.7348 55.0001 26 55.0001H27V56.0001C27.0011 56.7954 27.3175 57.5578 27.8798 58.1202C28.4422 58.6826 29.2047 58.999 30 59.0001H34C34.7953 58.999 35.5578 58.6826 36.1201 58.1202C36.6825 57.5578 36.9989 56.7954 37 56.0001V55.0001H38C38.2652 55.0001 38.5196 54.8947 38.7071 54.7072C38.8946 54.5196 39 54.2653 39 54.0001V52.0001C39.2652 52.0001 39.5196 51.8947 39.7071 51.7072C39.8946 51.5196 40 51.2653 40 51.0001V48.0001C40 47.7348 39.8946 47.4805 39.7071 47.2929C39.5196 47.1054 39.2652 47.0001 39 47.0001H38V45.3951C39.8278 44.3453 41.3455 42.8308 42.3993 41.0052C43.453 39.1796 44.0052 37.1079 44 35.0001ZM35 56.0001C34.9996 56.2652 34.8942 56.5193 34.7067 56.7068C34.5192 56.8942 34.2651 56.9997 34 57.0001H30C29.7349 56.9997 29.4807 56.8942 29.2933 56.7068C29.1058 56.5193 29.0004 56.2652 29 56.0001V55.0001H35V56.0001ZM37 53.0001H27V52.0001H37V53.0001ZM38 50.0001H26V49.0001H38V50.0001ZM36.545 43.9101C36.3809 43.9937 36.2431 44.1211 36.1469 44.2781C36.0507 44.4352 35.9999 44.6159 36 44.8001V47.0001H35V35.0001C35 34.7348 34.8946 34.4805 34.7071 34.2929C34.5196 34.1054 34.2652 34.0001 34 34.0001C33.7348 34.0001 33.4804 34.1054 33.2929 34.2929C33.1053 34.4805 33 34.7348 33 35.0001V47.0001H31V35.0001C31 34.7348 30.8946 34.4805 30.7071 34.2929C30.5196 34.1054 30.2652 34.0001 30 34.0001C29.7348 34.0001 29.4804 34.1054 29.2929 34.2929C29.1054 34.4805 29 34.7348 29 35.0001V47.0001H28V44.8001C28.0001 44.6159 27.9493 44.4352 27.8531 44.2781C27.7569 44.1211 27.6191 43.9937 27.455 43.9101C25.4546 42.8894 23.8561 41.2251 22.9168 39.1853C21.9775 37.1455 21.7521 34.8489 22.277 32.6654C22.8018 30.4819 24.0464 28.5386 25.8102 27.1485C27.574 25.7585 29.7543 25.0026 32 25.0026C34.2457 25.0026 36.426 25.7585 38.1898 27.1485C39.9536 28.5386 41.1981 30.4819 41.723 32.6654C42.2479 34.8489 42.0225 37.1455 41.0832 39.1853C40.1439 41.2251 38.5453 42.8894 36.545 43.9101Z" fill="#0A60B1"/>
<path d="M28 32C28 32.2652 28.1054 32.5196 28.2929 32.7071C28.4804 32.8946 28.7348 33 29 33H35C35.2652 33 35.5196 32.8946 35.7071 32.7071C35.8946 32.5196 36 32.2652 36 32C36 31.7348 35.8946 31.4804 35.7071 31.2929C35.5196 31.1054 35.2652 31 35 31H29C28.7348 31 28.4804 31.1054 28.2929 31.2929C28.1054 31.4804 28 31.7348 28 32Z" fill="#0A60B1"/>
<path d="M31 20V21C31 21.2652 31.1054 21.5196 31.2929 21.7071C31.4804 21.8946 31.7348 22 32 22C32.2652 22 32.5196 21.8946 32.7071 21.7071C32.8946 21.5196 33 21.2652 33 21V20C33 19.7348 32.8946 19.4804 32.7071 19.2929C32.5196 19.1054 32.2652 19 32 19C31.7348 19 31.4804 19.1054 31.2929 19.2929C31.1054 19.4804 31 19.7348 31 20Z" fill="#0A60B1"/>
<path d="M18 33H17C16.7348 33 16.4804 33.1054 16.2929 33.2929C16.1054 33.4804 16 33.7348 16 34C16 34.2652 16.1054 34.5196 16.2929 34.7071C16.4804 34.8946 16.7348 35 17 35H18C18.2652 35 18.5196 34.8946 18.7071 34.7071C18.8946 34.5196 19 34.2652 19 34C19 33.7348 18.8946 33.4804 18.7071 33.2929C18.5196 33.1054 18.2652 33 18 33Z" fill="#0A60B1"/>
<path d="M46 36H47C47.2652 36 47.5196 35.8946 47.7071 35.7071C47.8946 35.5196 48 35.2652 48 35C48 34.7348 47.8946 34.4804 47.7071 34.2929C47.5196 34.1054 47.2652 34 47 34H46C45.7348 34 45.4804 34.1054 45.2929 34.2929C45.1054 34.4804 45 34.7348 45 35C45 35.2652 45.1054 35.5196 45.2929 35.7071C45.4804 35.8946 45.7348 36 46 36Z" fill="#0A60B1"/>
<path d="M21.3933 44.1924L20.6863 44.9C20.4987 45.0876 20.3934 45.342 20.3934 45.6072C20.3934 45.8724 20.4987 46.1268 20.6863 46.3144C20.8739 46.5019 21.1282 46.6073 21.3935 46.6073C21.6587 46.6073 21.9131 46.5019 22.1007 46.3144L22.8077 45.6074C22.9952 45.4198 23.1006 45.1654 23.1006 44.9002C23.1006 44.635 22.9952 44.3806 22.8077 44.193C22.6201 44.0055 22.3657 43.9001 22.1005 43.9001C21.8352 43.9001 21.5809 44.0055 21.3933 44.193V44.1924Z" fill="#0A60B1"/>
<path d="M41.9 26.1C42.0314 26.1001 42.1615 26.0743 42.2829 26.0241C42.4042 25.9738 42.5145 25.9001 42.6073 25.8071L43.3143 25.1001C43.4973 24.9116 43.5988 24.6587 43.5968 24.3961C43.5949 24.1334 43.4896 23.882 43.3039 23.6963C43.1181 23.5106 42.8667 23.4054 42.604 23.4035C42.3413 23.4016 42.0885 23.5032 41.9 23.6862L41.193 24.3932C41.0533 24.5331 40.9582 24.7112 40.9197 24.9051C40.8812 25.0991 40.901 25.3 40.9766 25.4827C41.0523 25.6653 41.1804 25.8214 41.3448 25.9313C41.5091 26.0412 41.7024 26.0999 41.9 26.1Z" fill="#0A60B1"/>
<path d="M21.3933 25.8076C21.4862 25.9004 21.5964 25.9741 21.7178 26.0243C21.8391 26.0746 21.9691 26.1005 22.1005 26.1005C22.2318 26.1005 22.3619 26.0746 22.4832 26.0243C22.6045 25.9741 22.7148 25.9004 22.8077 25.8076C22.9005 25.7147 22.9742 25.6044 23.0245 25.4831C23.0747 25.3618 23.1006 25.2317 23.1006 25.1004C23.1006 24.969 23.0747 24.839 23.0245 24.7176C22.9742 24.5963 22.9005 24.486 22.8077 24.3932L22.1007 23.6862C21.9131 23.4986 21.6587 23.3932 21.3935 23.3932C21.1282 23.3932 20.8739 23.4986 20.6863 23.6862C20.4987 23.8737 20.3934 24.1281 20.3934 24.3934C20.3934 24.6586 20.4987 24.913 20.6863 25.1006L21.3933 25.8076Z" fill="#0A60B1"/>
<path d="M42.6068 44.1923C42.5139 44.0995 42.4037 44.0258 42.2824 43.9755C42.161 43.9253 42.031 43.8994 41.8996 43.8994C41.7683 43.8994 41.6382 43.9253 41.5169 43.9755C41.3956 44.0258 41.2853 44.0995 41.1924 44.1923C41.0996 44.2852 41.0259 44.3955 40.9756 44.5168C40.9254 44.6381 40.8995 44.7682 40.8995 44.8995C40.8995 45.0309 40.9254 45.1609 40.9756 45.2822C41.0259 45.4036 41.0996 45.5138 41.1924 45.6067L41.8994 46.3137C42.0878 46.4968 42.3407 46.5983 42.6034 46.5965C42.8661 46.5946 43.1175 46.4895 43.3033 46.3038C43.489 46.118 43.5943 45.8667 43.5963 45.604C43.5983 45.3413 43.4968 45.0884 43.3138 44.9L42.6068 44.1923Z" fill="#0A60B1"/>
</svg>
