<svg width="64" height="64" viewBox="0 0 64 64" fill="none" xmlns="http://www.w3.org/2000/svg">
<path d="M60.25 10H57.25V3.75C57.25 1.68225 55.5677 0 53.5 0H10.5C8.43225 0 6.75 1.68225 6.75 3.75V10H3.75C1.68225 10 0 11.6823 0 13.75V49.7497C0 51.8175 1.68225 53.4997 3.75 53.4997H25.75V56.4995H23.372C21.3042 56.4995 19.622 58.1818 19.622 60.2495V62.75C19.622 63.4404 20.1816 64 20.872 64H43.1281C43.8185 64 44.3781 63.4404 44.3781 62.75V60.2495C44.3781 58.1818 42.6959 56.4995 40.6281 56.4995H38.25V53.4997H60.25C62.3177 53.4997 64 51.8175 64 49.7497V13.75C64 11.6823 62.3177 10 60.25 10ZM60.25 12.5C60.9393 12.5 61.5 13.0608 61.5 13.75V42.4997H57.25V12.5H60.25ZM10.5 2.5H53.5C54.1893 2.5 54.75 3.06075 54.75 3.75V10H9.25V3.75C9.25 3.06075 9.81075 2.5 10.5 2.5ZM3.75 12.5H6.75V21.8738C6.75 22.5641 7.30963 23.1238 8 23.1238C8.69038 23.1238 9.25 22.5641 9.25 21.8738V12.5H54.75V42.4997H48.375V38.3805C48.375 37.6901 47.8154 37.1305 47.125 37.1305H45.4986C45.2128 36.1463 44.8205 35.2 44.3257 34.3009L45.4764 33.1504C45.9645 32.6623 45.9645 31.8708 45.4764 31.3825L41.6814 27.5875C41.1932 27.0995 40.4018 27.0995 39.9135 27.5875L38.763 28.7381C37.864 28.2434 36.9176 27.8511 35.9334 27.5654V25.939C35.9334 25.2486 35.3738 24.689 34.6834 24.689H29.3164C28.626 24.689 28.0664 25.2486 28.0664 25.939V27.5654C27.0821 27.8512 26.1359 28.2434 25.2367 28.7381L24.0863 27.5875C23.5981 27.0995 22.8066 27.0995 22.3184 27.5875L18.5234 31.3825C18.0352 31.8706 18.0352 32.6621 18.5234 33.1504L19.674 34.3009C19.1793 35.1999 18.787 36.1463 18.5011 37.1305H16.875C16.1846 37.1305 15.625 37.6901 15.625 38.3805V42.4997H9.25V33.1237C9.25 32.4334 8.69038 31.8738 8 31.8738C7.30963 31.8738 6.75 32.4334 6.75 33.1237V42.4997H2.5V13.75C2.5 13.0608 3.06075 12.5 3.75 12.5ZM22.1306 33.2217L21.1752 32.2664L23.2025 30.2391L24.1579 31.1945C24.575 31.6114 25.2269 31.6803 25.7219 31.3594C26.9047 30.5924 28.2019 30.0547 29.5772 29.7615C30.1542 29.6385 30.5666 29.1289 30.5666 28.539V27.1887H33.4336V28.539C33.4336 29.1289 33.846 29.6385 34.423 29.7615C35.7983 30.0547 37.0954 30.5923 38.2784 31.3594C38.7734 31.6803 39.4253 31.6115 39.8424 31.1945L40.7977 30.2391L42.825 32.2664L41.8696 33.2217C41.4526 33.6389 41.3838 34.2908 41.7048 34.7858C42.4717 35.9688 43.0094 37.2659 43.3026 38.6411C43.4256 39.218 43.9352 39.6305 44.5251 39.6305H45.875V42.4997H38.0821C38.1934 42.031 38.2508 41.5492 38.2508 41.064C38.2508 37.6172 35.4466 34.8133 32 34.8133C28.5534 34.8133 25.7493 37.6174 25.7493 41.064C25.7493 41.5492 25.8066 42.031 25.9179 42.4997H18.125V39.6305H19.4751C20.065 39.6305 20.5746 39.2181 20.6976 38.6411C20.9909 37.2658 21.5285 35.9686 22.2955 34.7858C22.6165 34.2909 22.5478 33.6389 22.1306 33.2217ZM28.2493 41.064C28.2493 38.9959 29.9317 37.3133 32 37.3133C34.0682 37.3133 35.7508 38.9959 35.7508 41.064C35.7508 41.5576 35.6509 42.0452 35.4613 42.4997H28.5387C28.3491 42.0452 28.2493 41.5576 28.2493 41.064ZM41.878 60.2495V61.5H22.122V60.2495C22.122 59.5602 22.6828 58.9995 23.372 58.9995H40.6281C41.3174 58.9995 41.878 59.5602 41.878 60.2495ZM35.75 56.4995H28.25V53.4997H35.75V56.4995ZM60.25 50.9997H3.75C3.06075 50.9997 2.5 50.439 2.5 49.7497V44.9997H61.5V49.7497C61.5 50.439 60.9393 50.9997 60.25 50.9997Z" fill="#0A60B1"/>
<path d="M35.75 7.5H49.25C49.9404 7.5 50.5 6.94037 50.5 6.25C50.5 5.55963 49.9404 5 49.25 5H35.75C35.0596 5 34.5 5.55963 34.5 6.25C34.5 6.94037 35.0596 7.5 35.75 7.5Z" fill="#0A60B1"/>
<path d="M20.25 7.5C20.5788 7.5 20.9013 7.36625 21.1338 7.13375C21.3663 6.90125 21.5 6.57875 21.5 6.25C21.5 5.92125 21.3663 5.59875 21.1338 5.36625C20.9013 5.13375 20.5788 5 20.25 5C19.9212 5 19.5987 5.13375 19.3662 5.36625C19.1337 5.59875 19 5.92125 19 6.25C19 6.57875 19.1337 6.90125 19.3662 7.13375C19.5987 7.36625 19.9212 7.5 20.25 7.5Z" fill="#0A60B1"/>
<path d="M14.75 7.5C15.0788 7.5 15.4013 7.36625 15.6337 7.13375C15.8663 6.90125 16 6.57875 16 6.25C16 5.92125 15.8663 5.59875 15.6337 5.36625C15.4013 5.13375 15.0788 5 14.75 5C14.4212 5 14.0988 5.13375 13.8663 5.36625C13.6338 5.59875 13.5 5.92125 13.5 6.25C13.5 6.57875 13.6338 6.90125 13.8663 7.13375C14.0988 7.36625 14.4212 7.5 14.75 7.5Z" fill="#0A60B1"/>
<path d="M25.75 7.5C26.0788 7.5 26.4013 7.36625 26.6338 7.13375C26.8663 6.90125 27 6.57875 27 6.25C27 5.92125 26.8663 5.59875 26.6338 5.36625C26.4013 5.13375 26.0788 5 25.75 5C25.4212 5 25.0987 5.13375 24.8662 5.36625C24.6337 5.59875 24.5 5.92125 24.5 6.25C24.5 6.57875 24.6337 6.90125 24.8662 7.13375C25.0987 7.36625 25.4212 7.5 25.75 7.5Z" fill="#0A60B1"/>
<path d="M14 18.4998H16.9748C17.6651 18.4998 18.2248 17.9401 18.2248 17.2498C18.2248 16.5594 17.6651 15.9998 16.9748 15.9998H14C13.3096 15.9998 12.75 16.5594 12.75 17.2498C12.75 17.9401 13.3096 18.4998 14 18.4998Z" fill="#0A60B1"/>
<path d="M22.4749 18.4998H33.9421C34.6325 18.4998 35.1921 17.9401 35.1921 17.2498C35.1921 16.5594 34.6325 15.9998 33.9421 15.9998H22.4749C21.7845 15.9998 21.2249 16.5594 21.2249 17.2498C21.2249 17.9401 21.7845 18.4998 22.4749 18.4998Z" fill="#0A60B1"/>
<path d="M14 24.4995H21.25C21.9404 24.4995 22.5 23.9399 22.5 23.2495C22.5 22.5591 21.9404 21.9995 21.25 21.9995H14C13.3096 21.9995 12.75 22.5591 12.75 23.2495C12.75 23.9399 13.3096 24.4995 14 24.4995Z" fill="#0A60B1"/>
<path d="M39.4419 18.4998H49.9999C50.6903 18.4998 51.2499 17.9401 51.2499 17.2498C51.2499 16.5594 50.6903 15.9998 49.9999 15.9998H39.4419C38.7515 15.9998 38.1919 16.5594 38.1919 17.2498C38.1919 17.9401 38.7515 18.4998 39.4419 18.4998Z" fill="#0A60B1"/>
<path d="M49.9999 21.9995H41.4451C40.7547 21.9995 40.1951 22.5591 40.1951 23.2495C40.1951 23.9399 40.7547 24.4995 41.4451 24.4995H49.9999C50.6903 24.4995 51.2499 23.9399 51.2499 23.2495C51.2499 22.5591 50.6903 21.9995 49.9999 21.9995Z" fill="#0A60B1"/>
<path d="M8 28.7488C8.32875 28.7488 8.65125 28.615 8.88375 28.3825C9.11625 28.15 9.25 27.8275 9.25 27.4988C9.25 27.17 9.11625 26.8475 8.88375 26.615C8.65125 26.3825 8.32875 26.2488 8 26.2488C7.67125 26.2488 7.34875 26.3825 7.11625 26.615C6.88375 26.8475 6.75 27.17 6.75 27.4988C6.75 27.8275 6.88375 28.15 7.11625 28.3825C7.34875 28.615 7.67125 28.7488 8 28.7488Z" fill="#0A60B1"/>
</svg>
