<svg width="64" height="64" viewBox="0 0 64 64" fill="none" xmlns="http://www.w3.org/2000/svg">
<path d="M30.0035 41.383V38.6554C30.0035 37.8787 29.6519 37.1599 29.0389 36.6831C28.4259 36.2062 27.6425 36.0425 26.8899 36.2335L9.09153 40.7515C7.98228 41.033 7.20753 42.029 7.20753 43.1734V43.39H7.08515C4.98978 43.39 3.28528 45.0941 3.28528 47.1887C3.28528 48.2051 3.6809 49.1596 4.39778 49.8746C5.1144 50.5931 6.06878 50.9887 7.08515 50.9887H7.20753V51.205C7.20753 52.3495 7.98228 53.3455 9.0914 53.6269L9.99815 53.857C10.0014 53.8695 10.0038 53.882 10.0077 53.8945L12.7308 62.783C12.9524 63.5109 13.6128 63.9999 14.374 63.9999L21.858 63.9995C22.3759 63.9995 22.7955 63.5797 22.7955 63.062C22.7955 62.5442 22.3759 62.1245 21.858 62.1245H20.3672L18.4949 56.0139L26.89 58.145C27.0959 58.1972 27.3042 58.223 27.5107 58.223C28.0587 58.223 28.5938 58.0417 29.0392 57.6954C29.6522 57.2186 30.0038 56.4997 30.0038 55.7231V52.9959C32.8454 52.5431 34.9479 50.1055 34.9479 47.1887C34.9477 44.2727 32.8453 41.8357 30.0035 41.383ZM7.08515 49.1137C6.57053 49.1137 6.08765 48.9136 5.72353 48.5487C5.36028 48.1864 5.16015 47.7034 5.16015 47.1887C5.16015 46.128 6.02365 45.265 7.08503 45.265H7.2074V49.1137H7.08515ZM9.08253 51.205V43.1734C9.08253 42.8876 9.2759 42.6391 9.5529 42.5689L14.4414 41.3279V53.0505L9.55278 51.8095C9.2759 51.7394 9.08253 51.4907 9.08253 51.205ZM16.38 55.5121L18.4062 62.125H14.4902L12.1223 54.3964L16.3705 55.4747C16.3739 55.4872 16.3763 55.4997 16.38 55.5121ZM30.0035 51.0861V48.875C30.0035 48.3572 29.5839 47.9375 29.066 47.9375C28.5482 47.9375 28.1285 48.3572 28.1285 48.875V55.7231C28.1285 55.9885 27.9777 56.1455 27.8877 56.2154C27.7978 56.2855 27.6087 56.3931 27.3513 56.3276L16.3164 53.5265V40.8519L27.3513 38.0506C27.6087 37.9852 27.7977 38.0929 27.8877 38.1629C27.9777 38.2329 28.1285 38.3897 28.1285 38.6551V44.625C28.1285 45.1427 28.5482 45.5625 29.066 45.5625C29.5839 45.5625 30.0035 45.1427 30.0035 44.625V43.2926C31.7859 43.7155 33.0727 45.3055 33.0727 47.1887C33.0727 49.0726 31.786 50.6631 30.0035 51.0861Z" fill="#0A60B1"/>
<path d="M58.3903 0H5.61004C4.32792 0 3.28479 1.04312 3.28479 2.32525V9C3.28479 9.51775 3.70441 9.9375 4.22229 9.9375C4.74016 9.9375 5.15979 9.51775 5.15979 9V2.32525C5.15979 2.077 5.36167 1.875 5.61004 1.875H58.3903C58.6385 1.875 58.8405 2.077 58.8405 2.32525V26.6108C58.8405 26.859 58.6387 27.061 58.3903 27.061H56.8075V24.3836C56.8075 23.1766 55.8257 22.1946 54.6185 22.1946H44.7502C44.2323 22.1946 43.8127 22.6144 43.8127 23.1321C43.8127 23.6499 44.2323 24.0696 44.7502 24.0696H54.6185C54.7917 24.0696 54.9325 24.2105 54.9325 24.3836V37.8491C54.9325 38.0223 54.7917 38.1631 54.6185 38.1631H34.7322C34.559 38.1631 34.4182 38.0223 34.4182 37.8491V24.3835C34.4182 24.2104 34.559 24.0695 34.7322 24.0695H40.5002C41.018 24.0695 41.4377 23.6497 41.4377 23.132C41.4377 22.6143 41.018 22.1945 40.5002 22.1945H34.7322C33.5252 22.1945 32.5432 23.1765 32.5432 24.3835V27.0609H23.4363C23.1877 27.0609 22.9493 27.1596 22.7733 27.3355L19.4215 30.6874C19.3067 30.8021 19.1728 30.8193 19.103 30.8193C19.0334 30.8193 18.8994 30.8021 18.7848 30.6874L15.4329 27.3355C15.257 27.1596 15.0187 27.0609 14.7699 27.0609H5.61004C5.36179 27.0609 5.15979 26.8589 5.15979 26.6106V13.25C5.15979 12.7323 4.74016 12.3125 4.22229 12.3125C3.70441 12.3125 3.28479 12.7323 3.28479 13.25V26.6106C3.28479 27.8927 4.32792 28.9359 5.61004 28.9359H14.3817L17.4589 32.0132C17.8982 32.4524 18.482 32.6942 19.103 32.6942C19.724 32.6942 20.308 32.4524 20.7473 32.0132L23.8245 28.9359H32.5432V37.849C32.5432 39.056 33.525 40.038 34.7322 40.038H54.6185C55.8255 40.038 56.8075 39.056 56.8075 37.849V28.9359H58.3903C59.6724 28.9359 60.7155 27.8927 60.7155 26.6106V2.32525C60.7155 1.04312 59.6724 0 58.3903 0V0Z" fill="#0A60B1"/>
<path d="M40.8768 28.4893V33.7432C40.8768 34.3178 41.1872 34.8509 41.687 35.1345C41.9315 35.2733 42.204 35.3425 42.4763 35.3425C42.7606 35.3425 43.045 35.267 43.2967 35.1167L47.6946 32.4898C48.1826 32.1983 48.4741 31.6849 48.4741 31.1163C48.4741 30.5477 48.1826 30.0343 47.6946 29.7429L43.2968 27.116C42.8037 26.8213 42.1866 26.8145 41.687 27.0979C41.1872 27.3814 40.8768 27.9147 40.8768 28.4893ZM42.7518 28.9743L46.3377 31.1162L42.7518 33.258V28.9743Z" fill="#0A60B1"/>
<path d="M55.8696 42.8228H49.8962C49.3784 42.8228 48.9587 43.2425 48.9587 43.7603C48.9587 44.278 49.3784 44.6978 49.8962 44.6978H55.8696C56.3875 44.6978 56.8071 44.278 56.8071 43.7603C56.8071 43.2425 56.3875 42.8228 55.8696 42.8228Z" fill="#0A60B1"/>
<path d="M55.8698 46.6187H42.8014C42.2835 46.6187 41.8639 47.0384 41.8639 47.5562C41.8639 48.0739 42.2835 48.4937 42.8014 48.4937H55.8698C56.3876 48.4937 56.8073 48.0739 56.8073 47.5562C56.8073 47.0384 56.3876 46.6187 55.8698 46.6187Z" fill="#0A60B1"/>
<path d="M55.8698 50.4146H42.8014C42.2835 50.4146 41.8639 50.8344 41.8639 51.3521C41.8639 51.8699 42.2835 52.2896 42.8014 52.2896H55.8698C56.3876 52.2896 56.8073 51.8699 56.8073 51.3521C56.8073 50.8344 56.3876 50.4146 55.8698 50.4146Z" fill="#0A60B1"/>
<path d="M45.4744 8.01502C45.9923 8.01502 46.4119 7.59527 46.4119 7.07752C46.4119 6.55976 45.9923 6.14001 45.4744 6.14001H19.031C18.5131 6.14001 18.0935 6.55976 18.0935 7.07752C18.0935 7.59527 18.5131 8.01502 19.031 8.01502H45.4744Z" fill="#0A60B1"/>
<path d="M11.13 10.7537C11.13 11.2715 11.5496 11.6912 12.0675 11.6912H51.978C52.4959 11.6912 52.9155 11.2715 52.9155 10.7537C52.9155 10.236 52.4959 9.81622 51.978 9.81622H12.0675C11.5496 9.81622 11.13 10.236 11.13 10.7537Z" fill="#0A60B1"/>
<path d="M12.0351 6.14001H12.0221C11.5042 6.14001 11.0846 6.55976 11.0846 7.07752C11.0846 7.59527 11.5042 8.01502 12.0221 8.01502H12.0351C12.553 8.01502 12.9726 7.59527 12.9726 7.07752C12.9726 6.55976 12.553 6.14001 12.0351 6.14001Z" fill="#0A60B1"/>
<path d="M12.0023 15.3674H45.4742C45.9921 15.3674 46.4117 14.9476 46.4117 14.4299C46.4117 13.9121 45.9921 13.4924 45.4742 13.4924H12.0023C11.4844 13.4924 11.0648 13.9121 11.0648 14.4299C11.0648 14.9476 11.4844 15.3674 12.0023 15.3674Z" fill="#0A60B1"/>
<path d="M52.9155 18.1061C52.9155 17.5884 52.4959 17.1686 51.978 17.1686H31.6245C31.1066 17.1686 30.687 17.5884 30.687 18.1061C30.687 18.6239 31.1066 19.0436 31.6245 19.0436H51.978C52.4959 19.0436 52.9155 18.6239 52.9155 18.1061Z" fill="#0A60B1"/>
<path d="M27.0555 18.1061C27.0555 17.5884 26.6359 17.1686 26.118 17.1686H12.0675C11.5496 17.1686 11.13 17.5884 11.13 18.1061C11.13 18.6239 11.5496 19.0436 12.0675 19.0436H26.118C26.6359 19.0436 27.0555 18.6239 27.0555 18.1061Z" fill="#0A60B1"/>
<path d="M12.0023 24.3649H12.0153C12.5332 24.3649 12.9528 23.9451 12.9528 23.4274C12.9528 22.9096 12.5332 22.4899 12.0153 22.4899H12.0023C11.4844 22.4899 11.0648 22.9096 11.0648 23.4274C11.0648 23.9451 11.4844 24.3649 12.0023 24.3649Z" fill="#0A60B1"/>
<path d="M15.2535 22.4899C14.7357 22.4899 14.316 22.9096 14.316 23.4274C14.316 23.9451 14.7357 24.3649 15.2535 24.3649H15.2665C15.7844 24.3649 16.204 23.9451 16.204 23.4274C16.204 22.9096 15.7844 22.4899 15.2665 22.4899H15.2535Z" fill="#0A60B1"/>
<path d="M18.5049 22.4899C17.987 22.4899 17.5674 22.9096 17.5674 23.4274C17.5674 23.9451 17.987 24.3649 18.5049 24.3649H18.5179C19.0358 24.3649 19.4554 23.9451 19.4554 23.4274C19.4554 22.9096 19.0358 22.4899 18.5179 22.4899H18.5049Z" fill="#0A60B1"/>
</svg>
