<svg width="64" height="64" viewBox="0 0 64 64" fill="none" xmlns="http://www.w3.org/2000/svg">
<path d="M60.25 10H57.25V3.75C57.25 1.68225 55.5677 0 53.5 0H10.5C8.43225 0 6.75 1.68225 6.75 3.75V10H3.75C1.68225 10 0 11.6823 0 13.75V49.7497C0 51.8175 1.68225 53.4997 3.75 53.4997H25.75V56.4995H23.372C21.3042 56.4995 19.622 58.1818 19.622 60.2495V62.75C19.622 63.4404 20.1816 64 20.872 64H43.1281C43.8185 64 44.3781 63.4404 44.3781 62.75V60.2495C44.3781 58.1818 42.6959 56.4995 40.6281 56.4995H38.25V53.4997H60.25C62.3177 53.4997 64 51.8175 64 49.7497V13.75C64 11.6823 62.3177 10 60.25 10ZM60.25 12.5C60.9393 12.5 61.5 13.0608 61.5 13.75V42.4997H57.25V12.5H60.25ZM10.5 2.5H53.5C54.1893 2.5 54.75 3.06075 54.75 3.75V10H9.25V3.75C9.25 3.06075 9.81075 2.5 10.5 2.5ZM3.75 12.5H6.75V21.8738C6.75 22.5641 7.30963 23.1238 8 23.1238C8.69038 23.1238 9.25 22.5641 9.25 21.8738V12.5H54.75V42.4997H48.375V38.3805C48.375 37.6901 47.8154 37.1305 47.125 37.1305H45.4986C45.2128 36.1463 44.8205 35.2 44.3257 34.3009L45.4764 33.1504C45.9645 32.6623 45.9645 31.8708 45.4764 31.3825L41.6814 27.5875C41.1932 27.0995 40.4018 27.0995 39.9135 27.5875L38.763 28.7381C37.864 28.2434 36.9176 27.8511 35.9334 27.5654V25.939C35.9334 25.2486 35.3738 24.689 34.6834 24.689H29.3164C28.626 24.689 28.0664 25.2486 28.0664 25.939V27.5654C27.0821 27.8512 26.1359 28.2434 25.2367 28.7381L24.0863 27.5875C23.5981 27.0995 22.8066 27.0995 22.3184 27.5875L18.5234 31.3825C18.0352 31.8706 18.0352 32.6621 18.5234 33.1504L19.674 34.3009C19.1793 35.1999 18.787 36.1463 18.5011 37.1305H16.875C16.1846 37.1305 15.625 37.6901 15.625 38.3805V42.4997H9.25V33.1237C9.25 32.4334 8.69038 31.8738 8 31.8738C7.30963 31.8738 6.75 32.4334 6.75 33.1237V42.4997H2.5V13.75C2.5 13.0608 3.06075 12.5 3.75 12.5ZM22.1306 33.2217L21.1752 32.2664L23.2025 30.2391L24.1579 31.1945C24.575 31.6114 25.2269 31.6803 25.7219 31.3594C26.9047 30.5924 28.2019 30.0547 29.5772 29.7615C30.1542 29.6385 30.5666 29.1289 30.5666 28.539V27.1887H33.4336V28.539C33.4336 29.1289 33.846 29.6385 34.423 29.7615C35.7983 30.0547 37.0954 30.5923 38.2784 31.3594C38.7734 31.6803 39.4253 31.6115 39.8424 31.1945L40.7977 30.2391L42.825 32.2664L41.8696 33.2217C41.4526 33.6389 41.3838 34.2908 41.7048 34.7858C42.4717 35.9688 43.0094 37.2659 43.3026 38.6411C43.4256 39.218 43.9352 39.6305 44.5251 39.6305H45.875V42.4997H38.0821C38.1934 42.031 38.2508 41.5492 38.2508 41.064C38.2508 37.6172 35.4466 34.8133 32 34.8133C28.5534 34.8133 25.7493 37.6174 25.7493 41.064C25.7493 41.5492 25.8066 42.031 25.9179 42.4997H18.125V39.6305H19.4751C20.065 39.6305 20.5746 39.2181 20.6976 38.6411C20.9909 37.2658 21.5285 35.9686 22.2955 34.7858C22.6165 34.2909 22.5478 33.6389 22.1306 33.2217ZM28.2493 41.064C28.2493 38.9959 29.9317 37.3133 32 37.3133C34.0682 37.3133 35.7508 38.9959 35.7508 41.064C35.7508 41.5576 35.6509 42.0452 35.4613 42.4997H28.5387C28.3491 42.0452 28.2493 41.5576 28.2493 41.064ZM41.878 60.2495V61.5H22.122V60.2495C22.122 59.5602 22.6828 58.9995 23.372 58.9995H40.6281C41.3174 58.9995 41.878 59.5602 41.878 60.2495ZM35.75 56.4995H28.25V53.4997H35.75V56.4995ZM60.25 50.9997H3.75C3.06075 50.9997 2.5 50.439 2.5 49.7497V44.9997H61.5V49.7497C61.5 50.439 60.9393 50.9997 60.25 50.9997Z" fill="#0A60B1"/>
</svg>
