<svg fill="none" height="66" viewBox="0 0 64 26" width="162" xmlns="http://www.w3.org/2000/svg"><g fill="#000"><path clip-rule="evenodd" d="m4.40297 0h59.59703v21.597l-4.403 4.403h-59.597v-21.59703zm57.84613 1.02564h-57.12089v3.07692h54.04399zm.7253.72524-3.077 3.07692v16.044h3.077zm-.7253 20.14652h-2.3517v2.3517zm-3.3773 3.077v-3.077h-54.044l-3.07692 3.077zm-57.84616-.7253v-19.12089h3.07692v16.04399zm4.10257-3.3773h53.74359v-15.74359h-53.74359zm-1.02565-16.76924v-2.35168l-2.35168 2.35168z" fill-rule="evenodd"/><path d="m51.9177 17-.9177-.93v-.86l.2893-.3h.4489l.2992.3v.43l.3192.32h1.2868l.3192-.32v-1.3l-.3192-.32h-1.7257l-.9177-.92v-3.17l.9177-.93h2.1546l.9277.93v.86l-.2893.3h-.4588l-.2893-.3v-.43l-.3192-.32h-1.2968l-.3092.32v2.31l.3192.31h1.7157l.9277.93v2.16l-.9277.93z"/><path d="m45.9177 17-.9177-.93v-.86l.2893-.3h.4489l.2992.3v.43l.3192.32h1.2868l.3192-.32v-1.3l-.3192-.32h-1.7257l-.9177-.92v-3.17l.9177-.93h2.1546l.9277.93v.86l-.2893.3h-.4588l-.2893-.3v-.43l-.3192-.32h-1.2968l-.3092.32v2.31l.3192.31h1.7157l.9277.93v2.16l-.9277.93z"/><path d="m39.2886 17-.2886-.29v-.46l.2886-.29h1.194v-5.92h-1.194l-.2886-.29v-.46l.2886-.29h3.4129l.2985.29v.46l-.2985.29h-1.1841v5.92h1.1841l.2985.29v.46l-.2985.29z"/><path d="m33.2886 17-.2886-.29v-7.41l.2886-.29h.4477l.2985.29v3.35l.3184.31h1.2936l.3184-.31v-3.35l.2885-.3h.4478l.2985.3v3.78l-.7463.86.7463.95v1.82l-.2985.29h-.4478l-.2885-.29v-1.39l-.9652-1.32-.6468.01-.3184.31v2.39l-.2985.29z"/><path d="m28.8099 15-.2397-.2397v-1.3305h-1.3305l-.2397-.2397v-.3802l.2397-.2396h1.3305v-1.3306l.2397-.2397h.3719l.248.2397v1.3306h1.3223l.2479.2396v.3802l-.2479.2397h-1.3223v1.3305l-.248.2397z"/><path d="m22.77 17-.29-.2904v-3.8841l-1.48-1.4922v-2.04288l.29-.29041h.45l.3.29041v1.61228l.96.9714.97-.9714v-1.61228l.29-.29041h.45l.29.29041v2.04288l-1.48 1.4922v3.8841l-.3.2904z"/><path d="m15.2893 17-.2893-.29v-7.40999l.2893-.3h2.783l.9277.93v2.14999l-.7481.8563.7481.9637v2.81l-.2893.29h-.4588l-.2893-.29v-2.38l-.9626-1.33-.6434.01-.3192.32v3.38l-.2992.29zm1.0673-5.03h1.2868l.3192-.32v-1.3l-.3192-.31h-1.2868l-.3192.31v1.3z"/><path d="m9.28713 17-.28713-.29v-7.41999l.28713-.29h2.79207l.9208.93v6.13999l-.9208.93zm1.05937-1.04h1.2971l.3168-.32v-5.28l-.3168-.31h-1.2971l-.3069.31v5.28z"/></g></svg>
