<svg width="444" height="332" viewBox="0 0 444 332" fill="none" xmlns="http://www.w3.org/2000/svg">
<path d="M443.256 291.044H0.213575V291.266H443.256V291.044Z" fill="#EBEBEB"/>
<path d="M146.054 304.708H116.707V304.929H146.054V304.708Z" fill="#EBEBEB"/>
<path d="M229.568 302.306H221.867V302.528H229.568V302.306Z" fill="#EBEBEB"/>
<path d="M63.7017 298.567H46.6977V298.789H63.7017V298.567Z" fill="#EBEBEB"/>
<path d="M368.63 297.078H345.521V297.3H368.63V297.078Z" fill="#EBEBEB"/>
<path d="M337.626 297.078H316.856V297.3H337.626V297.078Z" fill="#EBEBEB"/>
<path d="M398.872 307.711H315.864V307.933H398.872V307.711Z" fill="#EBEBEB"/>
<path d="M210.216 251.525H39.1216C37.7812 251.523 36.4966 250.988 35.5497 250.04C34.6027 249.091 34.0709 247.806 34.0709 246.465V5.95542C34.0826 4.62277 34.6195 3.34854 35.5652 2.40951C36.5109 1.47047 37.7889 0.942468 39.1216 0.940186H210.216C211.558 0.940186 212.844 1.47324 213.793 2.42209C214.742 3.37094 215.275 4.65785 215.275 5.99973V246.465C215.275 247.807 214.742 249.094 213.793 250.043C212.844 250.992 211.558 251.525 210.216 251.525ZM39.1216 1.1174C37.84 1.11975 36.6117 1.6305 35.7063 2.53755C34.8009 3.4446 34.2924 4.67383 34.2924 5.95542V246.465C34.2924 247.747 34.8009 248.976 35.7063 249.883C36.6117 250.79 37.84 251.301 39.1216 251.303H210.216C211.498 251.301 212.727 250.791 213.634 249.884C214.541 248.977 215.051 247.748 215.054 246.465V5.95542C215.051 4.67302 214.541 3.44381 213.634 2.53701C212.727 1.63022 211.498 1.11975 210.216 1.1174H39.1216Z" fill="#EBEBEB"/>
<path d="M401.885 251.525H230.782C229.44 251.523 228.155 250.989 227.207 250.04C226.258 249.092 225.724 247.806 225.722 246.465V5.95542C225.736 4.62197 226.275 3.34775 227.222 2.40895C228.169 1.47016 229.448 0.942444 230.782 0.940186H401.885C403.216 0.944797 404.491 1.47383 405.435 2.41262C406.379 3.3514 406.915 4.62431 406.926 5.95542V246.465C406.926 247.804 406.396 249.088 405.451 250.037C404.506 250.985 403.223 251.52 401.885 251.525ZM230.782 1.1174C229.499 1.11975 228.27 1.63022 227.363 2.53701C226.456 3.44381 225.946 4.67302 225.944 5.95542V246.465C225.946 247.748 226.456 248.977 227.363 249.884C228.27 250.791 229.499 251.301 230.782 251.303H401.885C403.167 251.301 404.396 250.791 405.303 249.884C406.21 248.977 406.72 247.748 406.723 246.465V5.95542C406.72 4.67302 406.21 3.44381 405.303 2.53701C404.396 1.63022 403.167 1.11975 401.885 1.1174H230.782Z" fill="#EBEBEB"/>
<path d="M282.52 288.404H303.388V197.102H282.52V288.404Z" fill="#F0F0F0"/>
<path d="M207.513 291.044H299.391V288.404H207.513V291.044Z" fill="#F0F0F0"/>
<path d="M282.52 197.102H203.499V288.404H282.52V197.102Z" fill="#F5F5F5"/>
<path d="M274.315 202.223H211.704V240.715H274.315V202.223Z" fill="#F0F0F0"/>
<path d="M274.315 244.791H211.704V283.282H274.315V244.791Z" fill="#F0F0F0"/>
<path d="M259.243 208.931H226.785C225.77 208.932 224.765 208.733 223.828 208.344C222.89 207.955 222.039 207.385 221.322 206.666C220.606 205.947 220.039 205.094 219.653 204.155C219.268 203.216 219.072 202.21 219.076 201.195H266.925C266.93 202.208 266.735 203.212 266.351 204.149C265.967 205.086 265.402 205.938 264.689 206.657C263.975 207.375 263.127 207.946 262.192 208.336C261.258 208.727 260.255 208.929 259.243 208.931Z" fill="#F5F5F5"/>
<path d="M259.243 251.498H226.785C224.743 251.498 222.785 250.687 221.341 249.243C219.896 247.799 219.085 245.84 219.085 243.798H266.934C266.934 245.839 266.124 247.796 264.682 249.24C263.239 250.684 261.283 251.496 259.243 251.498Z" fill="#F5F5F5"/>
<path d="M367.744 288.404H388.611V197.102H367.744V288.404Z" fill="#F0F0F0"/>
<path d="M292.728 291.044H384.606V288.404H292.728V291.044Z" fill="#F0F0F0"/>
<path d="M367.744 197.102H288.723V288.404H367.744V197.102Z" fill="#F5F5F5"/>
<path d="M359.539 202.223H296.928V240.715H359.539V202.223Z" fill="#F0F0F0"/>
<path d="M359.539 244.791H296.928V283.282H359.539V244.791Z" fill="#F0F0F0"/>
<path d="M344.457 208.931H312C309.958 208.931 307.999 208.12 306.555 206.675C305.111 205.231 304.3 203.273 304.3 201.231H352.149C352.149 203.271 351.339 205.229 349.896 206.672C348.454 208.116 346.498 208.928 344.457 208.931Z" fill="#F5F5F5"/>
<path d="M344.457 251.498H312C309.958 251.498 307.999 250.687 306.555 249.243C305.111 247.799 304.3 245.84 304.3 243.798H352.149C352.149 245.839 351.339 247.796 349.896 249.24C348.454 250.684 346.498 251.496 344.457 251.498Z" fill="#F5F5F5"/>
<path d="M98.941 74.4321H134.686V33.1139L98.941 33.1139V74.4321Z" fill="#E6E6E6"/>
<path d="M94.8651 74.4321H133.729V33.1139L94.8651 33.1139V74.4321Z" fill="#F5F5F5"/>
<path d="M130.468 71.1802V36.3748H98.1171V71.1802H130.468Z" fill="white"/>
<path d="M122.635 62.7446V61.4775C122.633 57.0578 120.876 52.8198 117.751 49.6946C114.626 46.5693 110.388 44.8126 105.968 44.8102V46.0773C105.968 50.4978 107.724 54.7371 110.85 57.8629C113.975 60.9886 118.215 62.7446 122.635 62.7446Z" fill="#F5F5F5"/>
<path d="M254.201 152.416L388.62 152.416V26.6809L254.201 26.6809L254.201 152.416Z" fill="#E6E6E6"/>
<path d="M250.036 152.416L386.671 152.416V26.6809L250.036 26.6809L250.036 152.416Z" fill="#F0F0F0"/>
<path d="M254.201 156.9L388.62 156.9V152.416L254.201 152.416V156.9Z" fill="#E6E6E6"/>
<path d="M243.089 156.9L379.724 156.9V152.416L243.089 152.416V156.9Z" fill="#F0F0F0"/>
<path d="M380.831 145.664V33.4329L255.858 33.4329V145.664H380.831Z" fill="#FAFAFA"/>
<path d="M345.397 145.673L324.582 33.4329H290.291L311.105 145.673H345.397Z" fill="white"/>
<path d="M378.137 107.589C378.256 107.58 378.366 107.525 378.444 107.435C378.522 107.346 378.561 107.229 378.554 107.111V37.8279C378.554 37.7174 378.51 37.6115 378.432 37.5334C378.354 37.4553 378.248 37.4114 378.137 37.4114C378.027 37.4114 377.921 37.4553 377.843 37.5334C377.765 37.6115 377.721 37.7174 377.721 37.8279V107.111C377.714 107.229 377.753 107.346 377.831 107.435C377.909 107.525 378.019 107.58 378.137 107.589Z" fill="#F0F0F0"/>
<path d="M303.733 145.673L282.928 33.4329H269.557L290.362 145.673H303.733Z" fill="white"/>
<path d="M256.602 145.664V33.4329H255.858V145.664H256.602Z" fill="#E6E6E6"/>
<path opacity="0.4" d="M248.654 42.0723H383.064L383.605 36.0646H249.186L248.654 42.0723Z" fill="#E6E6E6"/>
<path opacity="0.4" d="M248.654 48.9926H383.064L383.605 42.9761H249.186L248.654 48.9926Z" fill="#E6E6E6"/>
<path opacity="0.4" d="M248.654 55.9041H383.064L383.605 49.8964H249.186L248.654 55.9041Z" fill="#E6E6E6"/>
<path opacity="0.4" d="M248.654 62.8243H383.064L383.605 56.8078H249.186L248.654 62.8243Z" fill="#E6E6E6"/>
<path opacity="0.4" d="M248.654 69.7357H383.064L383.605 63.7281H249.186L248.654 69.7357Z" fill="#E6E6E6"/>
<path opacity="0.4" d="M248.654 76.6561H383.064L383.605 70.6396H249.186L248.654 76.6561Z" fill="#E6E6E6"/>
<path opacity="0.4" d="M248.654 83.5676H383.064L383.605 77.5599H249.186L248.654 83.5676Z" fill="#E6E6E6"/>
<path opacity="0.4" d="M248.654 90.4879H383.064L383.605 84.4714H249.186L248.654 90.4879Z" fill="#E6E6E6"/>
<path opacity="0.4" d="M248.654 97.3994H383.064L383.605 91.3917H249.186L248.654 97.3994Z" fill="#E6E6E6"/>
<path d="M73.599 141.837H101.484V109.84H73.599V141.837Z" fill="#E6E6E6"/>
<path d="M70.4448 141.837H100.545V109.84H70.4448V141.837Z" fill="#F5F5F5"/>
<path d="M98.0284 139.311V112.356H72.9699V139.311H98.0284Z" fill="white"/>
<path d="M91.95 126.33V125.346C91.95 124.499 91.7829 123.659 91.4581 122.876C91.1334 122.093 90.6574 121.381 90.0575 120.782C89.4576 120.183 88.7454 119.708 87.9617 119.384C87.1781 119.061 86.3383 118.895 85.4904 118.896C83.7858 118.905 82.1541 119.589 80.952 120.798C79.7499 122.006 79.0752 123.642 79.0752 125.346V126.33C79.0752 128.041 79.7548 129.682 80.9646 130.891C82.1743 132.101 83.8151 132.781 85.5259 132.781C87.2321 132.774 88.8661 132.091 90.07 130.882C91.274 129.673 91.95 128.036 91.95 126.33Z" fill="#F5F5F5"/>
<path d="M143.148 130.37H181.436V86.2612H143.148V130.37Z" fill="#E6E6E6"/>
<path d="M138.806 130.37H180.293V86.2612H138.806V130.37Z" fill="#F5F5F5"/>
<path d="M176.819 126.906V89.7524H142.28V126.906H176.819Z" fill="white"/>
<path d="M160.994 101.431L167.551 112.791C167.697 113.044 167.774 113.331 167.774 113.624C167.774 113.917 167.697 114.204 167.55 114.457C167.404 114.71 167.193 114.921 166.94 115.067C166.686 115.213 166.399 115.29 166.106 115.289H152.992C152.7 115.29 152.412 115.213 152.159 115.067C151.905 114.921 151.695 114.71 151.548 114.457C151.402 114.204 151.325 113.917 151.325 113.624C151.325 113.331 151.402 113.044 151.548 112.791L158.105 101.431C158.253 101.179 158.464 100.97 158.717 100.825C158.97 100.68 159.257 100.604 159.549 100.604C159.841 100.604 160.128 100.68 160.381 100.825C160.635 100.97 160.846 101.179 160.994 101.431Z" fill="#F5F5F5"/>
<path d="M79.979 291.035H101.023L101.023 224.685H79.979V291.035Z" fill="#E6E6E6"/>
<path d="M83.9752 291.044H79.979V279.676H88.1664L83.9752 291.044Z" fill="#F0F0F0"/>
<path d="M158.619 291.035H179.663V224.685H158.619V291.035Z" fill="#E6E6E6"/>
<path d="M79.9878 284.062H162.11V224.685H79.9878L79.9878 284.062Z" fill="#F0F0F0"/>
<path d="M83.0802 228.416V269.858H119.702V228.416H83.0802Z" fill="#E6E6E6"/>
<path d="M122.387 228.416V269.858H159.009V228.416H122.387Z" fill="#E6E6E6"/>
<path d="M137.078 231.597H144.317C145.872 231.601 147.412 231.29 148.842 230.68C150.272 230.071 151.564 229.177 152.638 228.052H128.713C129.792 229.183 131.09 230.081 132.529 230.691C133.967 231.3 135.516 231.609 137.078 231.597Z" fill="#F0F0F0"/>
<path d="M97.3993 231.597H104.647C106.202 231.601 107.742 231.289 109.172 230.68C110.602 230.07 111.894 229.176 112.968 228.052H89.0435C90.1214 229.181 91.4186 230.078 92.8555 230.687C94.2923 231.297 95.8386 231.606 97.3993 231.597Z" fill="#F0F0F0"/>
<path d="M158.114 291.044H162.11V279.676H153.923L158.114 291.044Z" fill="#F0F0F0"/>
<path d="M136.449 215.798C136.447 216.701 136.713 217.584 137.214 218.336C137.714 219.087 138.426 219.673 139.26 220.02C140.094 220.367 141.011 220.459 141.897 220.284C142.783 220.108 143.597 219.675 144.236 219.037C144.875 218.399 145.311 217.586 145.487 216.7C145.664 215.815 145.574 214.897 145.229 214.063C144.884 213.228 144.299 212.515 143.548 212.013C142.798 211.511 141.915 211.243 141.012 211.243C139.804 211.246 138.646 211.726 137.791 212.579C136.936 213.433 136.454 214.59 136.449 215.798Z" fill="#E0E0E0"/>
<path d="M143.077 217.393C145.592 217.393 147.631 215.354 147.631 212.839C147.631 210.323 145.592 208.284 143.077 208.284C140.562 208.284 138.523 210.323 138.523 212.839C138.523 215.354 140.562 217.393 143.077 217.393Z" fill="#E0E0E0"/>
<path d="M113.632 216.533C113.632 217.434 113.899 218.315 114.4 219.064C114.9 219.813 115.612 220.396 116.444 220.741C117.276 221.086 118.192 221.176 119.075 221C119.959 220.825 120.77 220.391 121.407 219.754C122.044 219.117 122.478 218.305 122.654 217.422C122.83 216.538 122.739 215.623 122.395 214.79C122.05 213.958 121.466 213.247 120.717 212.747C119.968 212.246 119.088 211.979 118.187 211.979C116.979 211.979 115.82 212.459 114.966 213.313C114.112 214.167 113.632 215.325 113.632 216.533Z" fill="#E0E0E0"/>
<path d="M149.173 219.174C152.261 219.174 154.765 216.671 154.765 213.583C154.765 210.495 152.261 207.991 149.173 207.991C146.085 207.991 143.582 210.495 143.582 213.583C143.582 216.671 146.085 219.174 149.173 219.174Z" fill="#E0E0E0"/>
<path d="M132.506 208.435C132.504 209.541 132.831 210.623 133.444 211.543C134.057 212.464 134.93 213.182 135.951 213.607C136.973 214.031 138.097 214.143 139.183 213.928C140.268 213.714 141.265 213.182 142.048 212.4C142.83 211.619 143.364 210.622 143.58 209.538C143.797 208.453 143.687 207.328 143.264 206.306C142.841 205.284 142.124 204.41 141.204 203.795C140.285 203.18 139.203 202.852 138.097 202.852C136.617 202.855 135.197 203.443 134.149 204.489C133.102 205.535 132.511 206.954 132.506 208.435Z" fill="#E0E0E0"/>
<path d="M123.645 209.861C123.643 210.967 123.97 212.049 124.583 212.97C125.196 213.89 126.069 214.608 127.091 215.033C128.112 215.458 129.237 215.57 130.322 215.355C131.407 215.14 132.404 214.608 133.187 213.827C133.97 213.045 134.503 212.049 134.72 210.964C134.936 209.879 134.826 208.755 134.403 207.732C133.98 206.71 133.263 205.836 132.344 205.222C131.424 204.607 130.343 204.279 129.236 204.279C127.755 204.279 126.334 204.867 125.286 205.913C124.238 206.96 123.648 208.38 123.645 209.861Z" fill="#E0E0E0"/>
<path d="M127.393 214.371C127.393 215.423 127.705 216.451 128.289 217.325C128.873 218.199 129.704 218.881 130.675 219.283C131.647 219.686 132.716 219.791 133.747 219.586C134.778 219.381 135.726 218.874 136.469 218.131C137.213 217.387 137.719 216.44 137.924 215.409C138.129 214.377 138.024 213.308 137.622 212.337C137.219 211.365 136.538 210.535 135.663 209.951C134.789 209.367 133.761 209.055 132.71 209.055C131.3 209.055 129.947 209.615 128.95 210.612C127.953 211.609 127.393 212.961 127.393 214.371Z" fill="#E0E0E0"/>
<path d="M118.143 214.026C118.143 215.162 118.479 216.272 119.11 217.216C119.741 218.16 120.638 218.896 121.687 219.331C122.736 219.765 123.891 219.879 125.005 219.657C126.118 219.436 127.142 218.889 127.945 218.086C128.748 217.283 129.294 216.26 129.516 215.146C129.738 214.032 129.624 212.878 129.189 211.829C128.755 210.779 128.019 209.883 127.075 209.252C126.13 208.621 125.02 208.284 123.885 208.284C122.362 208.284 120.901 208.889 119.824 209.966C118.748 211.043 118.143 212.503 118.143 214.026Z" fill="#E0E0E0"/>
<path d="M158.087 215.798C158.087 215.798 157.467 224.659 133.481 224.659C109.494 224.659 108.865 215.798 108.865 215.798H158.087Z" fill="#F0F0F0"/>
<path d="M221.735 331.06C316.619 331.06 393.538 326.569 393.538 321.029C393.538 315.49 316.619 310.999 221.735 310.999C126.851 310.999 49.9318 315.49 49.9318 321.029C49.9318 326.569 126.851 331.06 221.735 331.06Z" fill="#F5F5F5"/>
<path d="M272.924 58.4471C272.203 56.0661 271.247 53.7627 270.071 51.5711L271.843 45.7672L260.386 34.3013L254.582 36.0734C252.39 34.8966 250.087 33.9408 247.706 33.2203L244.853 27.9037H228.637L225.793 33.2203C223.411 33.9391 221.108 34.895 218.917 36.0734L213.113 34.3013L201.647 45.7672L203.419 51.5711C202.249 53.7648 201.296 56.0678 200.575 58.4471L195.214 61.3003V77.5156L200.575 80.36C201.295 82.7399 202.247 85.0431 203.419 87.236L201.647 93.0398L213.113 104.506L218.917 102.734C221.11 103.905 223.413 104.858 225.793 105.578L228.637 110.894H244.853L247.706 105.578C250.085 104.856 252.388 103.904 254.582 102.734L260.386 104.506L271.852 93.0398L270.079 87.236C271.258 85.0451 272.214 82.7416 272.933 80.36L278.293 77.5156V61.3003L272.924 58.4471ZM236.745 92.4373C232.188 92.4373 227.734 91.0861 223.946 88.5546C220.157 86.0232 217.204 82.4251 215.46 78.2154C213.717 74.0057 213.261 69.3735 214.149 64.9046C215.038 60.4356 217.233 56.3306 220.455 53.1086C223.676 49.8867 227.781 47.6925 232.25 46.8036C236.719 45.9146 241.352 46.3709 245.561 48.1146C249.771 49.8583 253.369 52.8111 255.901 56.5997C258.432 60.3884 259.783 64.8426 259.783 69.3991C259.783 75.5092 257.356 81.369 253.035 85.6895C248.715 90.01 242.855 92.4373 236.745 92.4373Z" fill="#0F7CE3"/>
<path opacity="0.2" d="M272.924 58.4471C272.203 56.0661 271.247 53.7627 270.071 51.5711L271.843 45.7672L260.386 34.3013L254.582 36.0734C252.39 34.8966 250.087 33.9408 247.706 33.2203L244.853 27.9037H228.637L225.793 33.2203C223.411 33.9391 221.108 34.895 218.917 36.0734L213.113 34.3013L201.647 45.7672L203.419 51.5711C202.249 53.7648 201.296 56.0678 200.575 58.4471L195.214 61.3003V77.5156L200.575 80.36C201.295 82.7399 202.247 85.0431 203.419 87.236L201.647 93.0398L213.113 104.506L218.917 102.734C221.11 103.905 223.413 104.858 225.793 105.578L228.637 110.894H244.853L247.706 105.578C250.085 104.856 252.388 103.904 254.582 102.734L260.386 104.506L271.852 93.0398L270.079 87.236C271.258 85.0451 272.214 82.7416 272.933 80.36L278.293 77.5156V61.3003L272.924 58.4471ZM236.745 92.4373C232.188 92.4373 227.734 91.0861 223.946 88.5546C220.157 86.0232 217.204 82.4251 215.46 78.2154C213.717 74.0057 213.261 69.3735 214.149 64.9046C215.038 60.4356 217.233 56.3306 220.455 53.1086C223.676 49.8867 227.781 47.6925 232.25 46.8036C236.719 45.9146 241.352 46.3709 245.561 48.1146C249.771 49.8583 253.369 52.8111 255.901 56.5997C258.432 60.3884 259.783 64.8426 259.783 69.3991C259.783 75.5092 257.356 81.369 253.035 85.6895C248.715 90.0101 242.855 92.4373 236.745 92.4373Z" fill="white"/>
<path d="M236.745 61.7698C235.234 61.7698 233.758 62.2178 232.502 63.0571C231.246 63.8964 230.267 65.0893 229.688 66.4849C229.11 67.8806 228.959 69.4164 229.254 70.898C229.549 72.3796 230.276 73.7406 231.344 74.8088C232.412 75.877 233.773 76.6045 235.255 76.8992C236.737 77.1939 238.272 77.0426 239.668 76.4645C241.064 75.8864 242.257 74.9074 243.096 73.6514C243.935 72.3953 244.383 70.9186 244.383 69.4079C244.383 67.3822 243.578 65.4394 242.146 64.007C240.714 62.5746 238.771 61.7698 236.745 61.7698Z" fill="#FACF38"/>
<path d="M388.319 84.17C387.289 80.766 385.927 77.4716 384.252 74.3345L386.786 66.0408L370.42 49.6748L362.117 52.2178C358.991 50.5235 355.698 49.1576 352.29 48.1419L348.223 40.4861H325.052L320.976 48.1419C317.57 49.1608 314.277 50.5266 311.15 52.2178L302.856 49.6748L286.472 66.0585L289.006 74.3522C287.324 77.4858 285.961 80.781 284.939 84.1878L277.275 88.2549V111.426L284.93 115.502C285.951 118.906 287.313 122.199 288.997 125.329L286.463 133.614L302.847 149.997L311.141 147.463C314.272 149.149 317.567 150.509 320.976 151.521L325.052 159.186H348.223L352.29 151.53C355.695 150.507 358.988 149.141 362.117 147.454L370.42 149.988L386.803 133.605L384.269 125.311C385.94 122.177 387.296 118.885 388.319 115.484L395.974 111.408V88.2372L388.319 84.17ZM336.633 141.828C328.325 141.828 320.203 139.364 313.294 134.748C306.386 130.132 301.001 123.571 297.822 115.895C294.642 108.218 293.81 99.7717 295.431 91.6227C297.052 83.4737 301.053 75.9884 306.928 70.1133C312.803 64.2382 320.289 60.2372 328.438 58.6162C336.587 56.9953 345.033 57.8272 352.71 61.0068C360.386 64.1864 366.947 69.5708 371.563 76.4792C376.179 83.3876 378.643 91.5097 378.643 99.8183C378.643 105.335 377.556 110.798 375.445 115.895C373.334 120.991 370.239 125.622 366.338 129.523C362.437 133.424 357.806 136.519 352.71 138.63C347.613 140.741 342.15 141.828 336.633 141.828Z" fill="#07427A"/>
<path d="M336.633 63.7016C329.489 63.7034 322.505 65.8236 316.565 69.7942C310.626 73.7648 305.997 79.4075 303.264 86.0087C300.531 92.61 299.817 99.8734 301.212 106.88C302.607 113.888 306.048 120.324 311.101 125.375C316.153 130.426 322.59 133.866 329.598 135.259C336.605 136.653 343.868 135.937 350.469 133.202C357.07 130.468 362.711 125.837 366.68 119.897C370.649 113.956 372.768 106.972 372.768 99.8273C372.756 90.2482 368.945 81.065 362.171 74.2924C355.397 67.5198 346.212 63.711 336.633 63.7016ZM336.633 131.141C330.44 131.143 324.385 129.308 319.234 125.868C314.083 122.429 310.068 117.539 307.697 111.817C305.325 106.095 304.704 99.7985 305.911 93.7236C307.118 87.6486 310.1 82.0682 314.479 77.6879C318.858 73.3076 324.438 70.3244 330.512 69.1154C336.587 67.9064 342.884 68.526 348.606 70.8958C354.328 73.2657 359.22 77.2793 362.661 82.4291C366.102 87.5789 367.939 93.6335 367.939 99.8273C367.929 108.128 364.628 116.086 358.76 121.956C352.891 127.827 344.934 131.13 336.633 131.141Z" fill="#0F7CE3"/>
<path opacity="0.2" d="M336.633 63.7016C329.489 63.7034 322.505 65.8236 316.565 69.7942C310.626 73.7648 305.997 79.4075 303.264 86.0087C300.531 92.61 299.817 99.8734 301.212 106.88C302.607 113.888 306.048 120.324 311.101 125.375C316.153 130.426 322.59 133.866 329.598 135.259C336.605 136.653 343.868 135.937 350.469 133.202C357.07 130.468 362.711 125.837 366.68 119.897C370.649 113.956 372.768 106.972 372.768 99.8273C372.756 90.2482 368.945 81.065 362.171 74.2924C355.397 67.5198 346.212 63.711 336.633 63.7016ZM336.633 131.141C330.44 131.143 324.385 129.308 319.234 125.868C314.083 122.429 310.068 117.539 307.697 111.817C305.325 106.095 304.704 99.7985 305.911 93.7236C307.118 87.6486 310.1 82.0682 314.479 77.6879C318.858 73.3076 324.438 70.3244 330.512 69.1154C336.587 67.9064 342.884 68.526 348.606 70.8958C354.328 73.2657 359.22 77.2793 362.661 82.4291C366.102 87.5789 367.939 93.6335 367.939 99.8273C367.929 108.128 364.628 116.086 358.76 121.956C352.891 127.827 344.934 131.13 336.633 131.141Z" fill="black"/>
<path d="M253.634 161.463C253.399 161.463 253.173 161.37 253.007 161.204C252.841 161.038 252.748 160.812 252.748 160.577V158.805C252.748 158.57 252.841 158.345 253.007 158.179C253.173 158.012 253.399 157.919 253.634 157.919C253.869 157.919 254.094 158.012 254.26 158.179C254.427 158.345 254.52 158.57 254.52 158.805V160.577C254.52 160.812 254.427 161.038 254.26 161.204C254.094 161.37 253.869 161.463 253.634 161.463Z" fill="#0F7CE3"/>
<path d="M239.838 138.567C239.024 138.044 238.388 137.287 238.012 136.396C237.919 136.18 237.745 136.009 237.526 135.922C237.308 135.835 237.063 135.838 236.847 135.931C236.631 136.024 236.46 136.198 236.373 136.417C236.286 136.635 236.289 136.88 236.382 137.096C236.902 138.306 237.769 139.336 238.872 140.055C239.014 140.148 239.181 140.197 239.35 140.197C239.542 140.199 239.729 140.138 239.884 140.024C240.038 139.91 240.151 139.749 240.206 139.565C240.261 139.381 240.255 139.184 240.188 139.004C240.122 138.824 239.999 138.671 239.838 138.567Z" fill="#0F7CE3"/>
<path d="M236.745 127.5C236.98 127.5 237.206 127.406 237.372 127.24C237.538 127.074 237.631 126.849 237.631 126.614V123.22C237.631 122.985 237.538 122.76 237.372 122.593C237.206 122.427 236.98 122.334 236.745 122.334C236.51 122.334 236.285 122.427 236.119 122.593C235.952 122.76 235.859 122.985 235.859 123.22V126.614C235.859 126.849 235.952 127.074 236.119 127.24C236.285 127.406 236.51 127.5 236.745 127.5Z" fill="#0F7CE3"/>
<path d="M245.969 139.347H242.567C242.332 139.347 242.106 139.44 241.94 139.606C241.774 139.772 241.68 139.998 241.68 140.233C241.68 140.468 241.774 140.693 241.94 140.859C242.106 141.025 242.332 141.119 242.567 141.119H245.969C246.204 141.119 246.429 141.025 246.596 140.859C246.762 140.693 246.855 140.468 246.855 140.233C246.855 139.998 246.762 139.772 246.596 139.606C246.429 139.44 246.204 139.347 245.969 139.347Z" fill="#0F7CE3"/>
<path d="M237.631 133.41V130.016C237.631 129.781 237.538 129.556 237.372 129.39C237.206 129.223 236.98 129.13 236.745 129.13C236.51 129.13 236.285 129.223 236.119 129.39C235.952 129.556 235.859 129.781 235.859 130.016V133.41C235.859 133.645 235.952 133.87 236.119 134.036C236.285 134.203 236.51 134.296 236.745 134.296C236.98 134.296 237.206 134.203 237.372 134.036C237.538 133.87 237.631 133.645 237.631 133.41Z" fill="#0F7CE3"/>
<path d="M254.467 145.106C254.436 144.874 254.314 144.663 254.128 144.52C253.942 144.377 253.707 144.314 253.474 144.344C253.359 144.364 253.248 144.405 253.149 144.468C253.05 144.53 252.964 144.611 252.897 144.707C252.829 144.802 252.781 144.91 252.756 145.024C252.73 145.139 252.727 145.257 252.748 145.372C252.776 145.578 252.791 145.785 252.792 145.992V148.651C252.792 148.886 252.885 149.111 253.052 149.277C253.218 149.443 253.443 149.537 253.678 149.537C253.913 149.537 254.139 149.443 254.305 149.277C254.471 149.111 254.564 148.886 254.564 148.651V145.992C254.551 145.695 254.519 145.399 254.467 145.106Z" fill="#0F7CE3"/>
<path d="M253.634 151.123C253.399 151.123 253.173 151.216 253.007 151.382C252.841 151.548 252.748 151.774 252.748 152.009V155.411C252.748 155.646 252.841 155.872 253.007 156.038C253.173 156.204 253.399 156.297 253.634 156.297C253.869 156.297 254.094 156.204 254.26 156.038C254.427 155.872 254.52 155.646 254.52 155.411V152.009C254.52 151.774 254.427 151.548 254.26 151.382C254.094 151.216 253.869 151.123 253.634 151.123Z" fill="#0F7CE3"/>
<path d="M252.863 141.588C251.996 140.598 250.85 139.891 249.576 139.559C249.463 139.53 249.345 139.524 249.23 139.54C249.114 139.556 249.003 139.595 248.903 139.654C248.803 139.714 248.715 139.792 248.645 139.885C248.575 139.978 248.524 140.084 248.495 140.197C248.466 140.31 248.459 140.428 248.475 140.543C248.492 140.658 248.531 140.77 248.59 140.87C248.649 140.97 248.727 141.058 248.821 141.128C248.914 141.198 249.02 141.249 249.133 141.278C250.064 141.519 250.901 142.034 251.534 142.758C251.617 142.853 251.719 142.928 251.834 142.98C251.948 143.032 252.073 143.059 252.198 143.059C252.369 143.059 252.535 143.01 252.678 142.917C252.821 142.825 252.935 142.693 253.005 142.538C253.075 142.383 253.099 142.211 253.074 142.042C253.049 141.874 252.975 141.716 252.863 141.588Z" fill="#0F7CE3"/>
<path d="M236.745 120.668C236.51 120.668 236.285 120.575 236.119 120.408C235.952 120.242 235.859 120.017 235.859 119.782V118.01C235.859 117.775 235.952 117.549 236.119 117.383C236.285 117.217 236.51 117.124 236.745 117.124C236.98 117.124 237.206 117.217 237.372 117.383C237.538 117.549 237.631 117.775 237.631 118.01V119.782C237.631 120.017 237.538 120.242 237.372 120.408C237.206 120.575 236.98 120.668 236.745 120.668Z" fill="#0F7CE3"/>
<path d="M295.608 206.078H90.4437V209.365H295.608V206.078Z" fill="#07427A"/>
<path d="M295.608 209.365H340.125V206.078H295.608V209.365Z" fill="#0F7CE3"/>
<path opacity="0.2" d="M295.608 209.365H340.125V206.078H295.608V209.365Z" fill="black"/>
<path d="M325.256 212.883H105.312L97.9575 209.365H332.61L325.256 212.883Z" fill="#0F7CE3"/>
<path opacity="0.6" d="M325.256 212.883H105.312L97.9575 209.365H332.61L325.256 212.883Z" fill="white"/>
<path d="M111.958 212.883V317.742H114.775L118.32 212.883H111.958Z" fill="#07427A"/>
<path d="M145.221 212.883V317.742H148.039L151.584 212.883H145.221Z" fill="#07427A"/>
<path d="M325.256 212.883V317.742H322.447L318.894 212.883H325.256Z" fill="#07427A"/>
<path d="M292.001 212.883V317.742H289.184L285.639 212.883H292.001Z" fill="#07427A"/>
<path d="M225.049 166.275L215.789 203.995L215.532 206.078H279.401L279.667 203.995L288.918 166.275H225.049Z" fill="#0F7CE3"/>
<path opacity="0.3" d="M225.049 166.275L215.789 203.995L215.532 206.078H279.401L279.667 203.995L288.918 166.275H225.049Z" fill="black"/>
<path d="M286.96 166.275H223.082L213.831 203.995H277.7L286.96 166.275Z" fill="#0F7CE3"/>
<path d="M276.344 202.267L284.762 168.002H224.437L216.028 202.267H276.344Z" fill="white"/>
<path d="M261.059 203.995L260.793 206.078H190.465L190.722 203.995H261.059Z" fill="#0F7CE3"/>
<path opacity="0.6" d="M261.059 203.995L260.793 206.078H190.465L190.722 203.995H261.059Z" fill="white"/>
<path d="M128.2 199.219C128.155 197.87 127.627 196.581 126.711 195.589C125.795 194.596 124.553 193.967 123.211 193.814V192.795C123.21 192.736 123.197 192.678 123.173 192.624C123.149 192.57 123.115 192.522 123.072 192.481C123.029 192.441 122.978 192.409 122.923 192.389C122.868 192.368 122.809 192.359 122.75 192.361H113.18C113.121 192.359 113.062 192.368 113.006 192.389C112.95 192.409 112.899 192.44 112.856 192.481C112.812 192.521 112.777 192.57 112.752 192.624C112.727 192.678 112.713 192.736 112.711 192.795V206.086H123.211V204.633C124.555 204.482 125.799 203.852 126.716 202.857C127.632 201.863 128.159 200.571 128.2 199.219ZM123.211 202.914V195.533C124.097 195.664 124.906 196.108 125.491 196.786C126.076 197.463 126.397 198.329 126.397 199.224C126.397 200.119 126.076 200.984 125.491 201.662C124.906 202.339 124.097 202.784 123.211 202.914Z" fill="#0F7CE3"/>
<path d="M307.295 206.078H316.191L313.56 186.593H307.295V206.078Z" fill="#263238"/>
<path d="M294.252 206.078H311.105L314.233 183.27H297.389L294.252 206.078Z" fill="#0F7CE3"/>
<path opacity="0.3" d="M294.252 206.078H311.105L314.233 183.27H297.389L294.252 206.078Z" fill="black"/>
<path d="M292.001 206.078H309.537L312.674 183.27H295.138L292.001 206.078Z" fill="#0F7CE3"/>
<path opacity="0.4" d="M307.986 204.279L310.627 185.068H296.689L294.048 204.279H307.986Z" fill="white"/>
<path d="M175.251 172.406L174.524 173.186L173.744 174.072C173.222 174.675 172.699 175.286 172.203 175.915C171.21 177.174 170.253 178.458 169.358 179.779C167.578 182.332 166.091 185.079 164.928 187.966C164.386 189.339 163.965 190.756 163.67 192.202C163.528 193.017 163.439 193.371 163.395 193.717C163.346 193.992 163.346 194.274 163.395 194.55C163.544 194.983 163.777 195.382 164.081 195.724C164.385 196.067 164.754 196.345 165.167 196.543C165.765 196.912 166.394 197.229 167.046 197.492C167.388 197.633 167.743 197.766 168.109 197.89C168.446 198.014 168.871 198.138 169.137 198.245V203.127C168.517 203.216 168.065 203.286 167.542 203.322C167.019 203.357 166.514 203.366 165.991 203.322C164.916 203.3 163.847 203.164 162.801 202.914C161.623 202.638 160.494 202.183 159.452 201.567C158.227 200.851 157.174 199.874 156.368 198.705C155.539 197.462 154.988 196.053 154.756 194.576C154.696 194.23 154.658 193.881 154.64 193.531C154.623 193.194 154.623 192.857 154.64 192.521V192.024C154.63 191.892 154.63 191.758 154.64 191.626L154.711 190.846C154.938 188.821 155.365 186.823 155.987 184.883C157.187 181.155 158.877 177.603 161.011 174.32C162.037 172.708 163.152 171.155 164.352 169.668C164.946 168.924 165.557 168.198 166.195 167.48C166.505 167.117 166.833 166.762 167.17 166.408C167.506 166.053 167.817 165.743 168.277 165.3L175.251 172.406Z" fill="#B55B52"/>
<path d="M167.373 198.138L171.502 195.108L173.851 203.597C173.851 203.597 170.191 204.952 167.4 203.127L167.373 198.138Z" fill="#B55B52"/>
<path d="M177.236 193.07L178.848 200.176L173.851 203.597L171.503 195.108L177.236 193.07Z" fill="#B55B52"/>
<path d="M203.348 139.834C203.162 140.357 203.295 140.88 203.641 140.995C203.986 141.11 204.412 140.791 204.589 140.268C204.766 139.745 204.642 139.214 204.305 139.099C203.969 138.983 203.535 139.302 203.348 139.834Z" fill="#263238"/>
<path d="M203.251 140.862C203.32 142.687 203.639 144.493 204.199 146.231C203.753 146.359 203.284 146.389 202.825 146.319C202.367 146.248 201.928 146.08 201.541 145.824L203.251 140.862Z" fill="#A02724"/>
<path d="M202.498 136.272C202.564 136.294 202.635 136.294 202.701 136.272C203.09 136.142 203.504 136.107 203.909 136.168C204.315 136.23 204.699 136.387 205.032 136.626C205.099 136.675 205.181 136.696 205.263 136.687C205.345 136.677 205.42 136.637 205.473 136.574C205.527 136.512 205.555 136.431 205.552 136.349C205.549 136.267 205.515 136.189 205.457 136.13C205.041 135.82 204.557 135.614 204.045 135.529C203.534 135.445 203.009 135.483 202.515 135.643C202.451 135.665 202.395 135.707 202.355 135.762C202.315 135.818 202.294 135.885 202.294 135.953C202.294 136.021 202.315 136.088 202.355 136.143C202.395 136.199 202.451 136.241 202.515 136.263L202.498 136.272Z" fill="#263238"/>
<path d="M183.917 141.766C184.909 146.807 185.893 156.049 182.366 159.416C182.366 159.416 183.748 164.529 193.123 164.529C203.428 164.529 198.05 159.416 198.05 159.416C192.423 158.07 192.565 153.896 193.548 149.98L183.917 141.766Z" fill="#B55B52"/>
<path d="M181.019 161.171C180.275 159.549 179.468 157.697 181.143 157.121C182.995 156.483 193.132 155.828 196.623 157.024C197.085 157.15 197.516 157.366 197.893 157.66C198.27 157.955 198.585 158.322 198.818 158.739C199.052 159.157 199.2 159.617 199.253 160.092C199.307 160.567 199.265 161.048 199.131 161.508L181.019 161.171Z" fill="#263238"/>
<path d="M216.418 169.819C218.589 173.727 220.919 177.749 223.276 181.613C225.633 185.476 228.105 189.322 230.746 192.831C231.402 193.717 232.084 194.559 232.757 195.4C233.094 195.834 233.449 196.189 233.794 196.588L234.308 197.172L234.441 197.323L234.503 197.394L234.565 197.474C234.978 197.873 235.474 198.176 236.018 198.36C236.856 198.651 237.719 198.862 238.597 198.989C242.904 199.424 247.246 199.373 251.542 198.838L252.889 203.535C251.693 204.066 250.577 204.421 249.389 204.864C248.202 205.307 247.032 205.599 245.845 205.9C243.328 206.532 240.748 206.877 238.154 206.928C236.697 206.952 235.243 206.806 233.821 206.494C232.074 206.147 230.427 205.415 229 204.35L228.407 203.862L228.265 203.738L228.176 203.65L228.008 203.481L227.317 202.799C226.865 202.347 226.369 201.913 225.961 201.435C225.075 200.504 224.242 199.574 223.471 198.617C220.376 194.876 217.52 190.942 214.921 186.841C213.627 184.82 212.38 182.78 211.181 180.718C209.976 178.636 208.815 176.598 207.69 174.4L216.418 169.819Z" fill="#B55B52"/>
<path d="M170.023 160.976C163.554 162.456 156.147 180.08 156.147 180.08L169.128 188.941C172.356 184.311 175.221 179.438 177.696 174.365C181.533 166.337 176.633 159.461 170.023 160.976Z" fill="#FACF38"/>
<path opacity="0.2" d="M174.648 172.211L168.516 188.551L169.119 188.976C169.119 188.976 171.777 185.246 174.648 180.213V172.211Z" fill="black"/>
<path d="M208.656 161.321C208.656 161.321 215.993 169.615 209.064 220.92H172.176C171.928 215.257 175.481 187.647 170.023 160.967C174.099 160.182 178.222 159.661 182.366 159.408C187.589 159.102 192.826 159.102 198.05 159.408C201.63 159.768 205.176 160.408 208.656 161.321Z" fill="#FACF38"/>
<path opacity="0.2" d="M204.553 176.163C205.516 181.986 208.032 187.442 211.837 191.953C211.988 188.648 212.05 185.68 212.041 183.031L204.553 176.163Z" fill="black"/>
<path d="M201.355 166.922C200.469 173.452 213.317 190.128 213.317 190.128L226.245 181.267C226.245 181.267 222.656 172.079 216.622 166.053C209.746 159.142 202.365 159.815 201.355 166.922Z" fill="#FACF38"/>
<path d="M250.089 198.883L255.353 196.721L260.767 200.814C260.767 200.814 255.601 205.386 250.905 203.605L250.089 198.883Z" fill="#B55B52"/>
<path d="M258.826 196.508L262.796 199.343L260.74 200.814L255.326 196.721L258.826 196.508Z" fill="#B55B52"/>
<path d="M186.211 132.621C184.368 139.214 182.951 142.98 185.059 147.419C188.223 154.109 197.217 153.923 201.009 148.021C204.412 142.705 206.857 132.816 201.434 128.058C200.244 127 198.802 126.265 197.248 125.921C195.693 125.577 194.076 125.637 192.55 126.094C191.025 126.551 189.642 127.391 188.532 128.534C187.423 129.676 186.624 131.083 186.211 132.621Z" fill="#B55B52"/>
<path d="M200.247 132.692C197.589 140.259 194.461 148.571 186.823 146.993C181.896 145.974 181.506 138.044 179.734 134.438C178.166 131.274 178.263 124.912 181.506 124.833C180.053 122.724 187.399 115.006 192.414 119.082C193.699 117.31 202.959 112.091 209.817 120.375C216.276 128.208 213.113 134.739 200.247 132.692Z" fill="#263238"/>
<path d="M194.266 137.53C194.088 139.22 194.468 140.922 195.347 142.377C196.525 144.273 198.253 143.547 198.891 141.606C199.458 139.834 199.52 136.777 197.881 135.545C196.242 134.314 194.514 135.492 194.266 137.53Z" fill="#B55B52"/>
<path d="M250.869 312.736C251.755 312.736 252.641 312.612 252.898 312.213C252.971 312.107 253.011 311.982 253.011 311.854C253.011 311.726 252.971 311.6 252.898 311.495C252.78 311.308 252.597 311.173 252.384 311.114C251.232 310.804 248.84 312.177 248.725 312.239C248.695 312.254 248.67 312.279 248.656 312.31C248.641 312.34 248.638 312.375 248.645 312.408C248.651 312.439 248.666 312.469 248.688 312.492C248.71 312.516 248.738 312.533 248.769 312.541C249.462 312.667 250.165 312.732 250.869 312.736ZM251.968 311.398C252.071 311.383 252.175 311.383 252.278 311.398C252.345 311.41 252.408 311.437 252.463 311.477C252.518 311.517 252.564 311.568 252.597 311.628C252.712 311.832 252.677 311.929 252.597 311.982C252.278 312.434 250.532 312.443 249.248 312.257C250.09 311.797 251.014 311.505 251.968 311.398Z" fill="#0F7CE3"/>
<path d="M248.787 312.541H248.858C249.69 312.168 251.339 310.68 251.206 309.882C251.206 309.696 251.046 309.475 250.603 309.422C250.444 309.408 250.284 309.426 250.132 309.474C249.98 309.523 249.839 309.602 249.717 309.705C248.831 310.423 248.654 312.284 248.645 312.363C248.642 312.392 248.646 312.42 248.656 312.447C248.667 312.473 248.685 312.496 248.707 312.514C248.731 312.528 248.759 312.537 248.787 312.541ZM250.47 309.749H250.568C250.86 309.749 250.878 309.9 250.887 309.936C250.966 310.405 249.841 311.575 248.99 312.08C249.061 311.3 249.371 310.56 249.877 309.962C250.042 309.821 250.253 309.745 250.47 309.749Z" fill="#0F7CE3"/>
<path d="M240.768 312.381H247.662L249.23 296.405H242.336L240.768 312.381Z" fill="#B55B52"/>
<path d="M248.051 311.584H240.528C240.39 311.584 240.256 311.632 240.148 311.719C240.04 311.806 239.965 311.927 239.935 312.062L238.57 318.158C238.535 318.307 238.534 318.462 238.568 318.61C238.602 318.759 238.669 318.898 238.765 319.017C238.861 319.136 238.982 319.231 239.121 319.296C239.259 319.361 239.41 319.393 239.563 319.39C242.274 319.346 246.199 319.186 249.611 319.186C253.607 319.186 257.054 319.399 261.732 319.399C264.568 319.399 265.356 316.537 264.169 316.28C258.773 315.102 254.369 314.977 249.708 312.098C249.214 311.777 248.64 311.599 248.051 311.584Z" fill="#263238"/>
<path opacity="0.2" d="M249.221 296.414L248.423 304.646H241.521L242.327 296.414H249.221Z" fill="black"/>
<path d="M223.232 312.727C223.525 312.765 223.822 312.745 224.106 312.667C224.391 312.59 224.657 312.456 224.889 312.275C224.971 312.163 225.014 312.028 225.014 311.889C225.014 311.751 224.971 311.616 224.889 311.504C224.837 311.407 224.763 311.322 224.675 311.256C224.586 311.19 224.484 311.145 224.375 311.123C223.365 310.884 221.46 312.186 221.38 312.239C221.355 312.259 221.335 312.285 221.323 312.314C221.31 312.344 221.306 312.376 221.309 312.408C221.316 312.438 221.331 312.466 221.353 312.488C221.375 312.51 221.403 312.525 221.433 312.532C222.024 312.661 222.627 312.726 223.232 312.727ZM224.118 311.415C224.183 311.406 224.249 311.406 224.313 311.415C224.377 311.425 224.437 311.449 224.489 311.486C224.542 311.523 224.585 311.571 224.614 311.628C224.765 311.903 224.677 312.009 224.614 312.053C224.322 312.434 222.913 312.443 221.876 312.275C222.543 311.824 223.304 311.53 224.101 311.415H224.118Z" fill="#0F7CE3"/>
<path d="M221.478 312.541H221.549C222.266 312.151 223.649 310.644 223.498 309.882C223.475 309.76 223.41 309.65 223.315 309.571C223.219 309.492 223.099 309.448 222.975 309.448C222.851 309.433 222.726 309.444 222.607 309.481C222.488 309.517 222.378 309.579 222.284 309.661C221.487 310.317 221.318 312.319 221.309 312.39C221.309 312.42 221.316 312.449 221.33 312.476C221.344 312.502 221.364 312.524 221.389 312.541C221.418 312.55 221.449 312.55 221.478 312.541ZM222.869 309.749H222.94C223.152 309.749 223.17 309.874 223.179 309.918C223.268 310.37 222.381 311.513 221.673 312.053C221.72 311.267 222.004 310.513 222.488 309.891C222.594 309.8 222.729 309.75 222.869 309.749Z" fill="#0F7CE3"/>
<path d="M213.574 312.381H220.468L223.932 296.405H217.038L213.574 312.381Z" fill="#B55B52"/>
<path d="M220.955 311.584H213.211C213.073 311.585 212.94 311.633 212.834 311.72C212.727 311.807 212.654 311.928 212.626 312.062L211.261 318.158C211.229 318.308 211.231 318.463 211.268 318.612C211.304 318.76 211.373 318.899 211.47 319.017C211.567 319.136 211.689 319.231 211.828 319.295C211.967 319.36 212.118 319.392 212.271 319.39C214.974 319.346 216.294 319.186 219.697 319.186C221.797 319.186 224.482 319.399 227.379 319.399C230.277 319.399 230.649 316.537 229.461 316.28C224.145 315.119 223.782 313.515 222.08 311.982C221.766 311.716 221.366 311.575 220.955 311.584Z" fill="#263238"/>
<g opacity="0.2">
<path opacity="0.2" d="M217.038 296.414H223.932L222.142 304.646H215.248L217.038 296.414Z" fill="black"/>
</g>
<path d="M209.064 220.928C209.064 220.928 260.722 226.395 260.155 252.748C259.789 269.298 256.607 285.664 250.745 301.146H240.502C240.502 301.146 241.025 284.425 240.679 257.444C240.573 249.354 224.242 246.687 208.284 245.748C201.526 245.323 195.021 243.018 189.504 239.092C183.986 235.167 179.676 229.778 177.058 223.533L175.968 220.928H209.064Z" fill="#263238"/>
<path d="M253.253 298.399C253.306 298.399 252.588 303.246 252.588 303.246H238.411L238.021 298.921L253.253 298.399Z" fill="#0F7CE3"/>
<path d="M198.005 220.928C198.005 220.928 235.451 233.334 236.399 248.716C238.172 277.018 224.251 301.146 224.251 301.146H213.911C213.911 301.146 217.836 289.183 219.227 263.54C220.999 231.331 160.896 263.487 172.158 220.928H198.005Z" fill="#263238"/>
<path d="M227.379 298.399C227.432 298.399 226.076 303.246 226.076 303.246H211.899L212.156 298.921L227.379 298.399Z" fill="#0F7CE3"/>
<path d="M225.013 248.06H167.418C167.418 246.317 168.11 244.644 169.343 243.411C170.576 242.178 172.249 241.486 173.992 241.486H218.438C220.182 241.486 221.854 242.178 223.087 243.411C224.32 244.644 225.013 246.317 225.013 248.06Z" fill="#0F7CE3"/>
<path d="M170.085 248.051L161.401 320.852H163.262L174.276 248.051H170.085Z" fill="#0F7CE3"/>
<path opacity="0.4" d="M170.085 248.051L161.401 320.852H163.262L174.276 248.051H170.085Z" fill="black"/>
<path d="M181.701 248.051L181.533 320.852H183.385L185.893 248.051H181.701Z" fill="#0F7CE3"/>
<path opacity="0.4" d="M181.701 248.051L181.533 320.852H183.385L185.893 248.051H181.701Z" fill="black"/>
<path d="M222.346 248.051L231.03 320.852H229.169L218.164 248.051H222.346Z" fill="#0F7CE3"/>
<path opacity="0.4" d="M222.346 248.051L231.03 320.852H229.169L218.164 248.051H222.346Z" fill="black"/>
<path d="M210.729 248.051L210.898 320.852H209.046L206.538 248.051H210.729Z" fill="#0F7CE3"/>
<path opacity="0.4" d="M210.729 248.051L210.898 320.852H209.046L206.538 248.051H210.729Z" fill="black"/>
</svg>
