<svg width="537" height="305" viewBox="0 0 537 305" fill="none" xmlns="http://www.w3.org/2000/svg">
<path d="M149.954 13.1413C151.081 12.6437 152.038 11.8266 152.707 10.791C153.375 9.75532 153.725 8.54657 153.713 7.31415C153.77 6.50583 153.66 5.69448 153.391 4.93031C153.121 4.16615 152.698 3.46545 152.146 2.87158C151.595 2.27771 150.928 1.80331 150.186 1.47774C149.444 1.15218 148.643 0.982392 147.832 0.978877C147.022 0.975361 146.22 1.1382 145.475 1.45731C144.73 1.77642 144.059 2.24501 143.502 2.83408C142.946 3.42314 142.516 4.12014 142.24 4.88194C141.964 5.64373 141.847 6.4541 141.897 7.26289C141.871 8.50491 142.214 9.72668 142.883 10.7732C143.553 11.8198 144.518 12.644 145.656 13.1413C136.565 14.517 136.975 24.3941 136.975 24.3941L158.481 24.4967C158.481 24.4967 158.968 14.5084 149.954 13.1413Z" fill="#E0E0E0"/>
<path d="M499.03 65.1333L489.059 54.3932L492.289 51.3941L499.175 58.802L513.641 44.5673L516.734 47.7116L499.03 65.1333Z" fill="#F5F5F5"/>
<path d="M354.392 123.79C354.392 116.45 346.703 111.828 338.825 115.485C337.049 116.317 335.596 117.71 334.689 119.449C332.716 123.277 333.587 127.652 335.381 131.283L341.499 146.774C341.693 147.267 342.032 147.69 342.47 147.988C342.908 148.287 343.426 148.446 343.956 148.446C344.486 148.446 345.003 148.287 345.442 147.988C345.88 147.69 346.218 147.267 346.412 146.774L352.393 131.198C354.495 126.43 354.392 123.79 354.392 123.79ZM347.027 130.147C341.747 133.214 336.39 127.541 339.286 121.936C339.676 121.193 340.268 120.577 340.995 120.158C346.284 117.082 351.633 122.722 348.736 128.369C348.347 129.112 347.754 129.728 347.027 130.147Z" fill="#EBEBEB"/>
<path d="M445.278 230.268C428.813 215.23 427.873 191.392 431.453 170.569C432.051 167.092 432.162 163.358 434.264 160.53C436.366 157.702 440.579 156.138 443.543 158.044C446.004 159.624 446.739 162.803 447.867 165.503C449.389 169.109 451.894 172.214 455.095 174.466C457.189 175.927 459.88 177.029 462.272 176.106C465.553 174.867 466.476 170.757 466.929 167.28L469.492 147.842C469.945 144.364 470.415 140.818 471.962 137.674C473.508 134.53 476.345 131.796 479.822 131.334C483.3 130.873 487.17 133.342 487.418 136.837C487.512 138.289 487.025 139.716 486.923 141.177C486.82 142.638 487.29 144.321 488.632 144.911C489.973 145.501 491.528 144.723 492.716 143.852C496.825 140.844 499.91 136.666 502.832 132.488C505.754 128.31 508.608 124.02 512.427 120.645C516.247 117.27 521.219 114.869 526.295 115.28C531.37 115.69 536.326 119.5 536.932 124.559C537.539 129.617 533.967 134.197 530.276 137.734C524.787 142.979 518.568 147.402 511.812 150.866C510.599 151.49 509.249 152.165 508.685 153.43C507.6 155.643 509.539 158.249 511.718 159.325C514.23 160.547 517.11 160.667 519.81 161.367C522.51 162.068 525.321 163.666 526.004 166.366C526.961 170.117 523.441 173.423 520.151 175.448C513.541 179.524 506.282 182.437 498.688 184.061C495.971 184.642 493.134 185.086 490.802 186.624C488.469 188.162 486.786 191.076 487.709 193.699C488.632 196.322 491.767 197.544 494.544 197.424C497.321 197.304 499.953 196.177 502.661 195.57C507.745 194.434 513.948 195.621 516.477 200.175C518.186 203.166 517.81 206.968 516.332 210.053C514.854 213.137 512.393 215.64 509.83 217.905C500.85 225.817 489.939 231.678 478.216 233.976C466.493 236.275 455.933 235.882 445.338 230.328" fill="#EBEBEB"/>
<path d="M446.585 238.744C448.491 230.567 448.012 228.038 452.566 217.93C457.648 207.017 463.354 196.404 469.655 186.146L474.568 178.046C476.191 175.389 477.789 172.757 479.523 170.279C482.86 165.527 486.457 160.963 490.298 156.608C493.946 152.422 497.552 148.585 500.961 145.014C504.37 141.442 507.617 138.178 510.701 135.342C515.552 130.82 520.751 126.689 526.252 122.987C528.2 121.679 529.738 120.705 530.789 120.064L531.994 119.338C532.267 119.176 532.412 119.107 532.412 119.107C532.412 119.107 532.284 119.21 532.028 119.381L530.849 120.15C529.815 120.825 528.285 121.859 526.372 123.157C520.928 126.92 515.772 131.084 510.949 135.615C507.89 138.477 504.669 141.75 501.277 145.321C497.885 148.893 494.296 152.746 490.674 156.933C486.849 161.288 483.269 165.852 479.951 170.604C478.242 173.073 476.635 175.688 475.021 178.345L470.108 186.445C463.818 196.684 458.113 207.27 453.019 218.153C448.422 228.235 448.884 230.713 446.935 238.855" fill="#E0E0E0"/>
<path d="M479.703 170.245C479.619 169.739 479.582 169.228 479.592 168.715C479.541 167.733 479.523 166.306 479.515 164.546C479.515 161.017 479.643 156.147 479.814 150.781C479.985 145.415 480.036 140.528 479.942 137.033C479.942 135.273 479.857 133.846 479.805 132.864C479.753 132.355 479.753 131.843 479.805 131.334C479.922 131.831 479.993 132.337 480.019 132.847C480.139 133.829 480.241 135.256 480.327 137.016C480.515 140.536 480.515 145.415 480.327 150.798C480.139 156.181 479.993 160.932 479.874 164.546C479.874 166.255 479.805 167.639 479.78 168.715C479.804 169.227 479.778 169.739 479.703 170.245Z" fill="#E0E0E0"/>
<path d="M526.132 168.117C525.974 168.14 525.812 168.14 525.654 168.117L524.295 168.049C523.125 167.981 521.424 167.878 519.323 167.827C515.119 167.69 509.3 167.707 502.892 168.006C496.484 168.305 490.682 168.861 486.513 169.373C484.419 169.613 482.736 169.86 481.565 170.023L480.224 170.202C479.916 170.202 479.754 170.253 479.745 170.202C479.893 170.139 480.048 170.096 480.207 170.074L481.531 169.792C482.693 169.57 484.368 169.271 486.461 168.98C490.631 168.365 496.432 167.767 502.866 167.451C509.3 167.135 515.119 167.195 519.331 167.451C521.441 167.553 523.142 167.707 524.312 167.844L525.662 168.006C525.823 168.021 525.982 168.058 526.132 168.117Z" fill="#E0E0E0"/>
<path d="M453.216 217.162C453.122 216.972 453.044 216.775 452.985 216.572C452.848 216.119 452.669 215.547 452.447 214.863C451.977 213.359 451.362 211.181 450.627 208.472C449.157 203.046 447.346 195.51 445.5 187.154C443.655 178.798 441.869 171.253 440.493 165.793C439.81 163.128 439.246 160.949 438.836 159.36C438.656 158.65 438.511 158.069 438.391 157.651C438.331 157.447 438.291 157.238 438.272 157.027C438.369 157.214 438.443 157.412 438.494 157.617L439.032 159.325C439.502 160.821 440.126 163.008 440.852 165.716C442.33 171.134 444.133 178.678 445.979 187.034C447.824 195.391 449.61 202.927 450.986 208.395C451.678 211.061 452.233 213.248 452.643 214.829C452.831 215.547 452.976 216.128 453.088 216.581C453.151 216.769 453.194 216.964 453.216 217.162Z" fill="#E0E0E0"/>
<path d="M515.939 206.302C515.737 206.374 515.528 206.422 515.315 206.447L513.487 206.772L506.763 207.899C501.089 208.882 493.263 210.335 484.624 211.966C475.986 213.598 468.151 214.983 462.452 215.871C459.607 216.315 457.325 216.657 455.702 216.862L453.856 217.093C453.643 217.114 453.429 217.114 453.216 217.093C453.42 217.02 453.632 216.968 453.848 216.939L455.668 216.615L462.392 215.461C468.066 214.478 475.892 213.026 484.53 211.403C493.169 209.779 501.004 208.378 506.745 207.489C509.591 207.045 511.872 206.703 513.495 206.498L515.341 206.276C515.541 206.257 515.742 206.265 515.939 206.302Z" fill="#E0E0E0"/>
<path d="M1.75353 125.413C1.75353 125.413 6.88009 119.62 18.4405 132.402C30.0009 145.185 35.2385 152.968 35.2385 152.968C35.2385 152.968 38.0923 155.532 39.673 152.926C41.2537 150.32 42.6122 143.749 46.5084 143.8C50.5669 143.852 52.9508 147.714 53.9163 154.054C54.8818 160.393 57.4963 174.312 57.7356 175.559C57.9748 176.807 59.1539 178.388 60.5125 176.773C61.871 175.158 68.6039 161.795 74.7558 165.366C80.9076 168.938 80.6769 187.128 80.6855 189.119C80.694 191.11 81.275 191.802 82.2833 192.024C83.2915 192.246 85.1285 187.53 87.1962 183.813C89.2639 180.097 92.3228 176.123 95.6978 178.49C99.0727 180.857 103.336 193.289 96.8769 217.136L93.1601 227.987L81.8902 230.397C57.4622 234.071 45.5856 228.406 43.629 224.783C41.6724 221.16 45.9616 218.58 49.9005 216.956C53.8394 215.333 58.7182 214.043 58.6156 213.018C58.5131 211.992 57.8979 211.309 55.9156 211.095C53.9334 210.882 35.8622 209.036 33.0255 202.517C30.1889 195.997 44.2356 190.845 45.9872 189.7C47.7388 188.555 46.3033 187.18 45.1328 186.804C43.9622 186.428 30.4196 182.224 24.1993 180.532C17.9791 178.84 14.4161 176.038 14.8006 171.988C15.2022 168.092 21.8753 167.502 24.6607 166.229C27.4461 164.956 25.2161 161.829 25.2161 161.829C25.2161 161.829 18.0816 155.78 6.70921 142.767C-4.66322 129.754 1.8646 125.302 1.8646 125.302" fill="#EBEBEB"/>
<path d="M12.1604 136.845C12.1604 136.845 12.2458 136.914 12.3826 137.067L13.0148 137.742C13.5702 138.375 14.3648 139.255 15.3816 140.391L24.0626 150.166L52.8311 182.267C64.0925 194.793 74.2431 206.191 81.5142 214.479L90.0585 224.347L92.374 227.047L92.9635 227.756C93.0319 227.834 93.0947 227.917 93.1515 228.004C93.1515 228.004 93.0746 227.936 92.9294 227.782L92.3056 227.107L89.9303 224.458L81.275 214.735C73.944 206.481 63.7678 195.134 52.4979 182.608C41.228 170.083 31.1372 158.684 23.8319 150.397L15.2876 140.536C14.2965 139.374 13.5189 138.469 12.9806 137.828L12.3826 137.119C12.3014 137.034 12.2271 136.942 12.1604 136.845Z" fill="#E0E0E0"/>
<path d="M44.996 153.054C45.1183 154.077 45.1697 155.108 45.1498 156.138C45.2096 158.163 45.2951 160.726 45.3805 163.572C45.4659 166.417 45.5514 169.108 45.5428 171.014C45.5428 171.971 45.5428 172.723 45.483 173.278C45.496 173.567 45.4613 173.855 45.3805 174.132C45.2746 173.111 45.2233 172.084 45.2267 171.056C45.1498 169.031 45.0473 166.46 44.9362 163.623C44.8251 160.786 44.808 158.078 44.8337 156.172C44.8337 155.224 44.8337 154.464 44.902 153.917C44.8977 153.626 44.9293 153.336 44.996 153.054Z" fill="#E0E0E0"/>
<path d="M44.4151 174.577C44.4151 174.696 38.981 174.722 32.2823 174.628C25.5836 174.534 20.1409 174.355 20.1409 174.226C20.1409 174.098 25.5836 174.081 32.2823 174.175C38.981 174.269 44.4237 174.449 44.4151 174.577Z" fill="#E0E0E0"/>
<path d="M65.3227 195.732C65.0813 195.881 64.8193 195.993 64.5452 196.066C64.0326 196.262 63.2892 196.51 62.3579 196.8C60.5038 197.39 57.9149 198.133 55.0184 198.8C52.1218 199.466 49.4646 199.953 47.5421 200.244C46.5766 200.389 45.8333 200.483 45.2523 200.543C44.9713 200.601 44.6831 200.615 44.3978 200.585C45.4118 200.304 46.4418 200.084 47.4823 199.928C49.3877 199.56 52.0193 199.073 54.9073 198.364C57.7952 197.655 60.3842 197.005 62.2639 196.501C63.2667 196.182 64.2882 195.925 65.3227 195.732Z" fill="#E0E0E0"/>
<path d="M70.1333 176.388C70.0094 177.353 69.8123 178.307 69.5437 179.242C69.1336 180.951 68.527 183.394 67.8349 186.077C67.1428 188.76 66.4934 191.127 65.9979 192.853C65.7851 193.799 65.4995 194.728 65.1434 195.63C65.2603 194.665 65.4546 193.71 65.7244 192.776C66.1431 191.067 66.7497 188.624 67.4333 185.941C68.1168 183.258 68.7833 180.891 69.2789 179.165C69.4916 178.219 69.7773 177.29 70.1333 176.388Z" fill="#E0E0E0"/>
<path d="M90.9643 192.716C90.9419 193.052 90.8817 193.385 90.7849 193.707C90.6055 194.425 90.3919 195.314 90.1355 196.356C89.5716 198.595 88.7599 201.671 87.8371 205.063C86.9143 208.455 86.0514 211.514 85.402 213.727C85.0944 214.76 84.8296 215.632 84.6245 216.341C84.5433 216.667 84.4258 216.982 84.2742 217.281C84.2974 216.945 84.3575 216.613 84.4536 216.29C84.633 215.572 84.8466 214.692 85.103 213.641C85.6669 211.411 86.4786 208.335 87.4014 204.943C88.3242 201.551 89.1871 198.484 89.8279 196.279C90.1441 195.245 90.4004 194.374 90.614 193.665C90.6938 193.336 90.8114 193.018 90.9643 192.716Z" fill="#E0E0E0"/>
<path d="M84.2654 216.649C83.9421 216.801 83.6043 216.922 83.2572 217.008C82.5993 217.213 81.6338 217.486 80.4376 217.802C78.0537 218.443 74.7386 219.255 71.0389 220.007C67.3392 220.758 63.9813 221.314 61.5291 221.656C60.3073 221.827 59.3162 221.946 58.6326 222.014C58.2779 222.081 57.9163 222.104 57.556 222.083C57.8967 221.965 58.2491 221.885 58.607 221.844L61.4864 221.34C63.913 220.921 67.2623 220.323 70.9534 219.571C74.6446 218.819 77.9512 218.058 80.3521 217.503L83.1974 216.837C83.5452 216.734 83.9035 216.671 84.2654 216.649Z" fill="#E0E0E0"/>
<path d="M42.4328 145.21C42.8641 145.172 43.2785 145.025 43.6376 144.783C44.0601 144.477 44.3623 144.032 44.492 143.527C44.5627 143.199 44.5885 142.862 44.5689 142.527C44.5689 142.168 44.5689 141.784 44.5689 141.374C44.5689 138.076 44.6458 133.342 44.6971 127.506C44.6971 126.043 44.7142 124.513 44.7483 122.918C44.7483 122.115 44.7483 121.303 44.7483 120.474C44.7832 120.071 44.7832 119.665 44.7483 119.261C44.6707 118.875 44.4839 118.519 44.2101 118.236C43.9351 117.948 43.5763 117.753 43.1847 117.681C42.7552 117.65 42.3241 117.65 41.8946 117.681H39.1946H33.5383H8.36684C7.86112 117.692 7.37753 117.89 7.00973 118.237C6.64194 118.585 6.41612 119.056 6.37603 119.56L6.32477 122.824C6.32477 125.003 6.25641 127.096 6.22223 129.249C6.16242 133.462 6.10261 137.52 6.0428 141.391V142.835C6.01204 143.273 6.11964 143.709 6.3504 144.082C6.57056 144.45 6.90751 144.732 7.30735 144.885C7.72719 145.015 8.1684 145.062 8.60609 145.022H13.9377H23.5158L37.3746 145.091L41.1427 145.133H42.1252H42.4585C42.3477 145.144 42.236 145.144 42.1252 145.133H41.1427H37.3746L23.5158 145.21H13.9377H8.58045C8.09709 145.253 7.60996 145.204 7.14501 145.065C6.66324 144.878 6.25541 144.539 5.98299 144.099C5.7117 143.659 5.58335 143.146 5.61559 142.63C5.61559 142.151 5.61559 141.673 5.61559 141.186C5.66686 137.315 5.71812 133.257 5.76939 129.044C5.76939 126.943 5.8292 124.772 5.86337 122.619C5.86337 121.525 5.86338 120.432 5.91464 119.321C6.01097 118.743 6.3078 118.217 6.75307 117.836C7.19834 117.455 7.76362 117.242 8.34976 117.236H33.5212H41.886C42.3395 117.224 42.7933 117.241 43.2445 117.287C43.7121 117.375 44.1399 117.608 44.4664 117.954C44.7862 118.288 45.0053 118.706 45.0987 119.159C45.1364 119.588 45.1364 120.02 45.0987 120.449C45.0987 121.303 45.0987 122.098 45.0987 122.893C45.0987 124.49 45.0474 126.028 45.0218 127.489C44.9021 133.325 44.8167 138.05 44.7483 141.348C44.7483 141.758 44.7483 142.143 44.7483 142.51C44.7587 142.855 44.7243 143.2 44.6458 143.535C44.4912 144.064 44.1593 144.522 43.7059 144.834C43.4293 145.019 43.1132 145.136 42.7832 145.176C42.6694 145.208 42.5507 145.22 42.4328 145.21Z" fill="#455A64"/>
<path d="M26.8567 128.976L31.5219 131.804L26.7542 134.607L21.9865 137.401L22.089 131.77L22.1915 126.139L26.8567 128.976Z" fill="#455A64"/>
<path d="M459.06 47.2672C460.6 46.5855 461.907 45.4669 462.818 44.0499C463.73 42.633 464.205 40.98 464.186 39.2954C464.186 34.5363 460.598 30.6572 456.129 30.6315C451.661 30.6059 448.029 34.4594 448.012 39.2185C447.977 40.9163 448.445 42.5865 449.357 44.0187C450.27 45.451 451.585 46.5813 453.139 47.2672C440.698 49.147 441.262 62.6469 441.262 62.6469L470.68 62.7836C470.68 62.7836 471.398 49.1641 459.06 47.2672Z" fill="#0F7CE3"/>
<path d="M284.701 16.8449L236.991 21.3717L240.042 53.5331L287.753 49.0064L284.701 16.8449Z" fill="white"/>
<path d="M287.747 48.9761C287.747 48.9761 287.747 48.771 287.67 48.378L287.491 46.6692C287.337 45.1568 287.115 42.978 286.833 40.1841C286.278 34.5961 285.483 26.5816 284.526 16.824L284.714 16.9864L237.02 21.6344L237.216 21.3952V21.6344V21.9079L237.268 22.4376L237.37 23.5142L237.575 25.6417L237.968 29.854C238.23 32.6395 238.489 35.3793 238.746 38.0736C239.25 43.4565 239.737 48.6343 240.198 53.5302L239.976 53.3508L274.324 50.1894L284.159 49.335L286.782 49.1043L287.465 49.053H287.747H287.534L286.876 49.1214L284.312 49.3948L274.538 50.3774L240.079 53.7438H239.874V53.5387C239.404 48.6343 238.908 43.4651 238.387 38.0822C238.131 35.3936 237.871 32.6537 237.609 29.8626C237.473 28.4699 237.336 27.0601 237.208 25.6503L237.003 23.5227L236.875 22.4889L236.823 21.9591V21.6857V21.4379L237.028 21.1901L284.74 16.7044H284.919V16.8838C285.773 26.6927 286.542 34.7499 287.055 40.3806C287.294 43.1489 287.491 45.3192 287.619 46.823C287.679 47.5407 287.722 48.1046 287.756 48.5318C287.79 48.959 287.747 48.9761 287.747 48.9761Z" fill="#455A64"/>
<path d="M284.705 16.8497C284.601 17.0352 284.475 17.2073 284.33 17.3623L283.202 18.6696C282.185 19.8316 280.758 21.455 278.998 23.4458L264.883 39.2357L264.755 39.3724L264.601 39.2698L263.328 38.4581L244.65 26.4962L239.045 22.7708L237.524 21.7541C237.343 21.6438 237.171 21.518 237.011 21.3781C237.209 21.459 237.398 21.5592 237.575 21.6772L239.139 22.6256L244.846 26.18L263.593 38.048L264.866 38.9024H264.575L278.776 23.2066L283.091 18.5243L284.27 17.2683C284.406 17.1194 284.551 16.9795 284.705 16.8497Z" fill="#455A64"/>
<path d="M178.637 55.2304C178.545 54.1896 178.382 53.1562 178.15 52.1374C177.847 50.955 177.366 49.8257 176.723 48.7881C175.892 47.4041 174.801 46.1942 173.51 45.2251C171.836 43.9578 169.87 43.1317 167.794 42.8226C165.717 42.5135 163.596 42.7315 161.625 43.4564C159.303 44.3119 157.283 45.83 155.815 47.8226C154.233 49.9652 153.38 52.5585 153.38 55.2219C153.38 57.8853 154.233 60.4786 155.815 62.6212C157.279 64.6195 159.3 66.1412 161.625 66.9959C164.369 67.9975 167.377 68.0133 170.131 67.0405C172.886 66.0678 175.216 64.1671 176.723 61.6643C177.366 60.6267 177.847 59.4973 178.15 58.3149C178.381 57.2988 178.544 56.2683 178.637 55.2304C178.646 55.2985 178.646 55.3675 178.637 55.4355V56.0422C178.637 56.3712 178.611 56.6997 178.56 57.0247C178.513 57.4743 178.433 57.9198 178.321 58.3576C178.037 59.5598 177.574 60.7121 176.945 61.7753C175.432 64.3705 173.056 66.3518 170.23 67.3731C167.405 68.3944 164.311 68.391 161.489 67.3633C160.313 66.9673 159.206 66.3908 158.208 65.6545C157.152 64.8936 156.226 63.9674 155.465 62.9117C153.823 60.6954 152.937 58.0101 152.937 55.2518C152.937 52.4935 153.823 49.8082 155.465 47.5919C156.226 46.5362 157.152 45.61 158.208 44.8492C159.206 44.1128 160.313 43.5363 161.489 43.1403C163.519 42.403 165.704 42.1911 167.838 42.5242C169.973 42.8574 171.989 43.7247 173.698 45.0457C175.007 46.0509 176.107 47.3018 176.937 48.7283C177.571 49.7895 178.038 50.9423 178.321 52.146C178.433 52.5838 178.513 53.0293 178.56 53.4789C178.611 53.8039 178.637 54.1324 178.637 54.4615V55.0681C178.642 55.1221 178.642 55.1765 178.637 55.2304Z" fill="#263238"/>
<path d="M195.751 76.4886C195.683 76.5911 191.171 73.6861 185.686 70.0035C180.201 66.3209 175.8 63.245 175.869 63.1681C175.937 63.0912 180.44 65.9706 185.934 69.6617C191.428 73.3528 195.819 76.386 195.751 76.4886Z" fill="#263238"/>
<path d="M233.517 99.9853L223.537 89.2452L226.767 86.2461L233.662 93.654L248.128 79.4193L251.221 82.5635L233.517 99.9853Z" fill="#0F7CE3"/>
<path d="M513.495 89.7065H513.974H514.572L515.426 89.8176C517.25 90.1142 518.97 90.8665 520.425 92.0049C522.758 93.8434 524.267 96.532 524.62 99.4812C524.706 100.336 524.706 101.233 524.706 102.138C524.706 103.044 524.706 103.993 524.706 104.967C524.706 106.906 524.706 108.965 524.706 111.118C524.706 113.272 524.706 115.553 524.706 117.954C524.706 119.133 524.706 120.346 524.706 121.577C524.765 122.85 524.639 124.125 524.33 125.362C523.807 127.36 522.744 129.175 521.256 130.607C519.768 132.04 517.913 133.033 515.896 133.479C514.486 133.722 513.054 133.811 511.624 133.744H473.483L473.636 133.684L465.032 142.288L464.648 142.672V133.564L464.87 133.786C463.926 133.82 462.981 133.786 462.042 133.684C461.101 133.564 460.18 133.326 459.299 132.975C457.566 132.277 456.033 131.159 454.839 129.721C453.646 128.283 452.83 126.571 452.464 124.738C452.305 123.844 452.231 122.937 452.242 122.029V119.372C452.242 115.852 452.242 112.383 452.242 108.999V103.975C452.19 102.331 452.241 100.684 452.395 99.0454C452.652 97.4355 453.252 95.8997 454.156 94.5426C455.026 93.2498 456.155 92.1512 457.471 91.316C458.787 90.4808 460.262 89.927 461.803 89.6894C463.265 89.5511 464.735 89.5054 466.203 89.5527H482.129L505.131 89.6296H511.368H512.983H513.538H512.983H511.368H505.131L482.129 89.7065H466.203C464.754 89.661 463.305 89.7095 461.862 89.8518C459.585 90.1963 457.478 91.259 455.847 92.8851C454.217 94.5112 453.148 96.6156 452.797 98.8916C452.648 100.51 452.602 102.137 452.66 103.762V108.786C452.66 112.204 452.66 115.621 452.66 119.159C452.585 120.922 452.657 122.688 452.874 124.439C453.243 126.183 454.022 127.815 455.147 129.198C456.895 131.313 459.381 132.684 462.102 133.035C463.021 133.131 463.946 133.162 464.87 133.129H465.092V142.109L464.716 141.946L473.329 133.342L473.389 133.282H473.483H511.624C513.039 133.354 514.458 133.268 515.854 133.026C517.194 132.737 518.467 132.194 519.605 131.428C521.788 129.953 523.363 127.738 524.039 125.191C524.336 124.019 524.465 122.811 524.424 121.602C524.424 120.372 524.424 119.159 524.424 117.98C524.424 115.613 524.424 113.34 524.424 111.144C524.424 108.948 524.424 106.932 524.424 104.992C524.424 104.018 524.424 103.078 524.424 102.164C524.424 101.25 524.424 100.37 524.364 99.5324C524.033 96.6327 522.567 93.9818 520.288 92.1587C518.863 91.0155 517.174 90.2487 515.375 89.9287L514.564 89.792H513.974L513.495 89.7065Z" fill="#263238"/>
<path d="M479.609 113.058C479.609 113.058 479.558 112.844 479.447 112.477C479.287 111.975 478.969 111.537 478.541 111.229C478.233 111.009 477.875 110.868 477.5 110.819C477.124 110.77 476.742 110.814 476.388 110.948C475.955 111.106 475.582 111.393 475.318 111.77C475.054 112.148 474.913 112.597 474.913 113.058C474.913 113.519 475.054 113.968 475.318 114.345C475.582 114.723 475.955 115.01 476.388 115.168C476.742 115.302 477.124 115.346 477.5 115.297C477.875 115.247 478.233 115.107 478.541 114.886C478.969 114.579 479.287 114.141 479.447 113.639C479.558 113.28 479.566 113.058 479.609 113.058C479.665 113.262 479.665 113.477 479.609 113.682C479.513 114.255 479.209 114.772 478.755 115.134C478.412 115.414 478.003 115.6 477.568 115.675C477.132 115.75 476.684 115.711 476.268 115.561C475.75 115.38 475.302 115.042 474.985 114.594C474.667 114.146 474.497 113.611 474.497 113.062C474.497 112.513 474.667 111.978 474.985 111.531C475.302 111.083 475.75 110.745 476.268 110.563C476.684 110.413 477.131 110.372 477.566 110.445C478.002 110.519 478.411 110.704 478.755 110.982C479.21 111.347 479.514 111.867 479.609 112.443C479.664 112.644 479.664 112.857 479.609 113.058Z" fill="#263238"/>
<path d="M490.93 112.972C490.867 112.785 490.816 112.594 490.776 112.4C490.616 111.896 490.298 111.456 489.87 111.144C489.561 110.923 489.202 110.782 488.825 110.733C488.448 110.684 488.065 110.728 487.709 110.862C487.281 111.026 486.912 111.316 486.653 111.693C486.393 112.071 486.254 112.518 486.254 112.977C486.254 113.435 486.393 113.883 486.653 114.26C486.912 114.638 487.281 114.928 487.709 115.091C488.066 115.222 488.449 115.264 488.826 115.213C489.202 115.163 489.561 115.021 489.87 114.801C490.296 114.491 490.613 114.054 490.776 113.553C490.817 113.357 490.868 113.163 490.93 112.972C490.93 112.972 491.007 113.195 490.93 113.596C490.827 114.167 490.524 114.682 490.075 115.049C489.733 115.328 489.324 115.515 488.889 115.589C488.453 115.664 488.005 115.625 487.589 115.476C487.071 115.294 486.623 114.956 486.306 114.508C485.988 114.061 485.818 113.526 485.818 112.977C485.818 112.428 485.988 111.893 486.306 111.445C486.623 110.997 487.071 110.659 487.589 110.478C488.005 110.327 488.452 110.287 488.887 110.36C489.323 110.433 489.732 110.618 490.075 110.896C490.525 111.266 490.828 111.784 490.93 112.357C491.007 112.75 490.956 112.972 490.93 112.972Z" fill="#263238"/>
<path d="M502.26 112.972C502.196 112.785 502.142 112.593 502.097 112.4C501.952 111.902 501.653 111.462 501.243 111.144C500.933 110.923 500.574 110.782 500.197 110.733C499.82 110.684 499.437 110.728 499.081 110.862C498.653 111.026 498.285 111.316 498.025 111.693C497.765 112.071 497.626 112.518 497.626 112.977C497.626 113.435 497.765 113.883 498.025 114.26C498.285 114.638 498.653 114.928 499.081 115.091C499.438 115.222 499.821 115.264 500.198 115.213C500.575 115.163 500.933 115.021 501.243 114.801C501.651 114.484 501.949 114.048 502.097 113.553C502.217 113.195 502.225 112.972 502.26 112.972C502.294 112.972 502.337 113.195 502.26 113.596C502.157 114.167 501.854 114.682 501.405 115.049C501.063 115.328 500.654 115.515 500.218 115.589C499.783 115.664 499.335 115.625 498.919 115.476C498.401 115.294 497.953 114.956 497.635 114.508C497.318 114.061 497.147 113.526 497.147 112.977C497.147 112.428 497.318 111.893 497.635 111.445C497.953 110.997 498.401 110.659 498.919 110.478C499.334 110.327 499.781 110.287 500.217 110.36C500.653 110.433 501.062 110.618 501.405 110.896C501.854 111.266 502.157 111.784 502.26 112.357C502.337 112.75 502.285 112.972 502.26 112.972Z" fill="#263238"/>
<path d="M84.7783 54.3076C84.7783 46.9766 77.0885 42.3456 69.2192 46.0026C67.4434 46.8351 65.9904 48.228 65.0838 49.9671C63.1015 53.795 63.9816 58.1696 65.7673 61.8009L71.885 77.3002C72.0793 77.7934 72.4175 78.2167 72.8556 78.515C73.2937 78.8133 73.8115 78.9728 74.3415 78.9728C74.8715 78.9728 75.3893 78.8133 75.8274 78.515C76.2655 78.2167 76.6037 77.7934 76.798 77.3002L82.779 61.7155C84.8723 56.9563 84.7783 54.3076 84.7783 54.3076ZM77.3961 60.6987C72.1157 63.7661 66.767 58.0927 69.655 52.4877C70.0404 51.7423 70.6341 51.1249 71.3638 50.7105C76.6442 47.6345 82.0014 53.3165 79.1049 58.913C78.72 59.661 78.1264 60.2813 77.3961 60.6987Z" fill="#FACF38"/>
<path d="M111.941 79.6328C111.941 79.6328 111.941 79.7268 112.052 79.9147C112.163 80.1027 112.205 80.3847 112.334 80.7692L113.393 83.9989C114.324 86.8441 115.683 91.0223 117.426 96.3795L117.477 96.5504H117.306L100.081 93.3976H99.97V93.278L100.201 93.389C92.68 99.0082 83.5285 102.015 74.1407 101.95C72.0151 101.916 69.8942 101.739 67.7923 101.421C65.6159 101.094 63.4658 100.611 61.3584 99.9767L58.1714 98.8147C57.6311 98.6262 57.1056 98.3977 56.5993 98.1311L55.0442 97.3878C50.7868 95.2451 46.9033 92.4292 43.5436 89.0486C40.0218 85.479 37.1608 81.3133 35.0934 76.7448C32.0159 70.0518 30.7072 62.6812 31.2925 55.3379C31.8777 47.9946 34.3373 40.9243 38.436 34.8033C42.5347 28.6822 48.1354 23.7152 54.7024 20.3773C61.2693 17.0394 68.5829 15.4423 75.9435 15.7387C86.6128 16.1208 96.7573 20.4634 104.398 27.9196C112.039 35.3758 116.629 45.4109 117.272 56.0677C117.598 60.4825 117.203 64.921 116.102 69.2088C115.422 71.9176 114.472 74.5511 113.265 77.0695C112.846 77.9239 112.513 78.5818 112.274 78.992L111.906 79.6413L112.231 78.992C112.462 78.5391 112.786 77.8897 113.188 77.0268C114.358 74.5021 115.28 71.8695 115.939 69.166C117.003 64.8924 117.369 60.4752 117.024 56.0848C116.615 49.6345 114.748 43.3611 111.563 37.7371C108.378 32.1131 103.958 27.2851 98.6371 23.6166C91.5747 18.7711 83.2245 16.1486 74.6599 16.0862C66.0954 16.0237 57.7078 18.5242 50.5756 23.2662C42.1467 28.9143 36.0031 37.3779 33.2447 47.142C30.4862 56.9061 31.293 67.3332 35.5206 76.5568C37.5665 81.0813 40.3954 85.2089 43.8769 88.7495C47.2023 92.0968 51.0452 94.8866 55.2578 97.0118L56.8043 97.7552C57.3033 98.0247 57.8234 98.2533 58.3594 98.4387L61.5037 99.5922C63.5937 100.226 65.7268 100.709 67.8863 101.036C69.9684 101.353 72.0691 101.533 74.1748 101.574C83.4856 101.636 92.5615 98.6534 100.021 93.0814L100.252 92.9106V93.2011L100.141 93.0558L117.34 96.2855L117.221 96.4223L113.291 84.0074L112.274 80.7606C112.163 80.4018 112.086 80.1198 112.026 79.9062C111.966 79.6926 111.941 79.6157 111.941 79.6157V79.6328Z" fill="#263238"/>
<path d="M388.954 43.7726C388.836 43.2773 388.779 42.7694 388.783 42.2602C388.756 41.6464 388.684 41.0354 388.57 40.4318C388.468 39.607 388.308 38.7904 388.091 37.9881C387.557 35.7698 386.693 33.6443 385.528 31.6824C384.023 29.0789 382.033 26.7877 379.667 24.9325C376.818 22.6749 373.478 21.1179 369.918 20.3869C365.836 19.547 361.603 19.8094 357.657 21.1473C355.518 21.8469 353.5 22.8729 351.676 24.1891C349.749 25.5106 348.052 27.1384 346.652 29.0081C343.624 32.915 341.926 37.6881 341.806 42.6292C341.686 47.5703 343.151 52.4202 345.985 56.4694C346.672 57.4404 347.426 58.3626 348.241 59.2291C349.044 60.0563 349.9 60.8298 350.804 61.5447C352.557 62.9425 354.513 64.0635 356.606 64.8684C360.48 66.3949 364.691 66.8637 368.807 66.2269C372.401 65.6664 375.813 64.2705 378.769 62.1513C381.225 60.4159 383.325 58.2261 384.955 55.7004C386.204 53.7931 387.163 51.7113 387.801 49.5229C388.056 48.7316 388.255 47.9237 388.399 47.1048C388.542 46.5093 388.639 45.9038 388.689 45.2935C388.712 44.7813 388.795 44.2737 388.937 43.7811C388.995 44.2893 388.995 44.8024 388.937 45.3105C388.93 45.9322 388.873 46.5522 388.766 47.1646C388.665 48.007 388.502 48.8409 388.279 49.6596C387.71 51.9287 386.794 54.0961 385.562 56.0849C383.753 59.0274 381.338 61.5501 378.476 63.4847C375.615 65.4193 372.374 66.7212 368.969 67.3035C364.657 68.0153 360.233 67.564 356.153 65.9962C353.95 65.1734 351.884 64.021 350.027 62.5785C349.063 61.83 348.15 61.0194 347.292 60.1519C346.45 59.2382 345.668 58.2707 344.951 57.2554C341.944 52.988 340.389 47.8663 340.517 42.6472C340.644 37.428 342.448 32.3885 345.66 28.2733C346.42 27.2907 347.248 26.3628 348.138 25.4964C349.027 24.652 349.975 23.8725 350.975 23.1638C352.895 21.7904 355.016 20.7239 357.264 20.0024C361.414 18.6249 365.858 18.3888 370.131 19.3189C373.501 20.0555 376.674 21.5039 379.439 23.5669C382.203 25.63 384.495 28.26 386.16 31.2809C387.303 33.3372 388.116 35.5601 388.57 37.8685C388.76 38.7118 388.883 39.5689 388.937 40.4318C389.016 41.0464 389.045 41.6665 389.023 42.2859C389.054 42.7824 389.031 43.281 388.954 43.7726Z" fill="#455A64"/>
<path d="M384.178 28.8542C384.229 28.9311 383.793 29.307 382.965 29.9222L381.427 31.0244C381.128 31.2295 380.803 31.4687 380.453 31.6909L379.274 32.3061C375.004 34.7435 370.15 35.9668 365.235 35.8434L363.108 35.7494L361.074 35.4247C360.741 35.3735 360.408 35.3307 360.083 35.2624L359.126 35.0061C358.502 34.8352 357.879 34.6899 357.289 34.5019C355.203 33.8002 353.198 32.8779 351.308 31.7507C348.113 29.8197 346.549 28.0596 346.669 27.9485C346.788 27.8374 348.54 29.2729 351.795 30.9475C353.678 31.9156 355.642 32.7162 357.665 33.3399C358.229 33.5108 358.827 33.639 359.434 33.7928L360.348 34.0149L361.296 34.1602L363.244 34.4507L365.269 34.5276C369.981 34.6285 374.647 33.5816 378.863 31.4773L380.06 30.9561C380.418 30.7681 380.752 30.5716 381.068 30.3922L382.691 29.5377C383.588 29.0165 384.118 28.7858 384.178 28.8542Z" fill="#455A64"/>
<path d="M345.968 57.8877C345.917 57.8193 346.352 57.4434 347.181 56.8196L348.719 55.7174C349.018 55.5124 349.343 55.2731 349.693 55.051L350.872 54.4358C355.142 52.0013 359.997 50.781 364.911 50.907L367.038 51.001L369.072 51.3171C369.405 51.3769 369.738 51.4197 370.063 51.488L371.02 51.7358C371.643 51.9152 372.267 52.0605 372.857 52.2484C374.944 52.9439 376.949 53.8635 378.838 54.9911C382.033 56.9307 383.597 58.6908 383.477 58.8019C383.358 58.913 381.606 57.4775 378.351 55.8029C376.47 54.8281 374.505 54.0245 372.481 53.4019C371.908 53.2396 371.31 53.1114 370.712 52.9576L369.798 52.7269L368.849 52.5817L366.901 52.2997L364.876 52.2143C360.161 52.1146 355.493 53.1644 351.274 55.2731L350.12 55.8114C349.762 55.9994 349.428 56.2044 349.112 56.3753L347.489 57.281C346.557 57.7339 346.019 57.9646 345.968 57.8877Z" fill="#455A64"/>
<path d="M388.937 44.3278C388.937 44.6953 378.231 44.7294 365.013 44.4047C351.795 44.0801 341.149 43.5503 341.157 43.1658C341.166 42.7813 351.855 42.7728 365.081 43.0975C378.308 43.4222 388.946 43.969 388.937 44.3278Z" fill="#455A64"/>
<path d="M363.962 67.0471C363.603 67.0471 363.569 56.3496 363.885 43.1658C364.201 29.982 364.74 19.3017 365.124 19.3102C365.509 19.3188 365.517 30.0162 365.201 43.2342C364.885 56.4522 364.321 67.0556 363.962 67.0471Z" fill="#455A64"/>
<path d="M363.962 67.0129C363.877 67.1496 361.245 65.3639 358.203 61.331C356.43 58.9565 354.992 56.3487 353.931 53.5813C352.64 50.1656 352.014 46.5347 352.086 42.8839C352.172 39.2267 352.991 35.6239 354.495 32.289C355.702 29.5855 357.272 27.0588 359.16 24.7786C362.373 20.891 365.022 19.1736 365.141 19.3103C365.261 19.447 362.868 21.4122 359.912 25.3511C358.194 27.6416 356.759 30.1319 355.64 32.7675C354.265 35.974 353.514 39.4132 353.427 42.901C353.377 46.3936 353.955 49.8667 355.136 53.1541C356.11 55.8492 357.415 58.4124 359.024 60.7842C361.724 64.8598 364.099 66.8677 363.962 67.0129Z" fill="#455A64"/>
<path d="M365.654 19.3189C365.748 19.1822 368.38 20.9679 371.413 25.0008C373.186 27.3753 374.624 29.9831 375.685 32.7505C376.968 36.1713 377.594 39.8035 377.53 43.4564C377.44 47.1104 376.621 50.7096 375.121 54.0428C373.907 56.7429 372.339 59.2687 370.456 61.5532C367.243 65.4408 364.586 67.1668 364.475 67.0215C364.364 66.8763 366.748 64.9196 369.695 60.9807C371.414 58.6902 372.848 56.1999 373.967 53.5643C375.336 50.356 376.084 46.9175 376.172 43.4308C376.222 39.9382 375.644 36.4651 374.463 33.1777C373.485 30.4829 372.176 27.92 370.567 25.5476C367.893 21.472 365.5 19.4641 365.654 19.3189Z" fill="#455A64"/>
<path d="M341.209 78.7613L340.918 78.8382L340.064 79.0433L336.749 79.8208L324.052 82.7258L323.881 82.7686L323.932 82.5977L328.597 65.7313V65.6117H328.76L328.623 65.8338C324.767 59.6337 322.559 52.5518 322.206 45.2592C322.112 43.2193 322.157 41.1752 322.343 39.1415C322.568 37.0291 322.934 34.934 323.437 32.87C323.954 30.7311 324.625 28.6323 325.444 26.59C325.923 25.5732 326.401 24.5479 326.888 23.5226C327.134 22.9999 327.419 22.4971 327.743 22.0188C328.033 21.5232 328.324 21.0277 328.597 20.5321C331.111 16.4845 334.258 12.8669 337.919 9.8176C341.787 6.62763 346.19 4.14848 350.924 2.49516C357.866 0.0227704 365.327 -0.626154 372.592 0.610506C379.857 1.84717 386.684 4.92801 392.417 9.55811C398.151 14.1882 402.6 20.2126 405.339 27.0544C408.077 33.8963 409.014 41.3267 408.059 48.6342C406.733 59.2296 401.508 68.951 393.402 75.902C385.297 82.8529 374.892 86.5347 364.218 86.229C359.791 86.1606 355.405 85.3727 351.231 83.8964C348.597 82.9766 346.061 81.7974 343.661 80.3762C342.806 79.8806 342.217 79.5217 341.832 79.2141L341.217 78.7869L341.832 79.1714C342.26 79.4363 342.883 79.8208 343.704 80.2993C346.118 81.6779 348.659 82.8224 351.291 83.717C355.454 85.1559 359.822 85.9146 364.227 85.9641C371.725 86.1295 379.135 84.3221 385.714 80.7229C392.294 77.1237 397.813 71.8591 401.717 65.4562C405.622 59.0532 407.777 51.7368 407.964 44.2394C408.152 36.742 406.367 29.3269 402.787 22.7365C397.924 13.8275 390.048 6.94082 380.57 3.31016C371.092 -0.320508 360.631 -0.457976 351.06 2.92238C346.368 4.55755 342 7.00739 338.158 10.1594C334.533 13.182 331.417 16.768 328.931 20.7799C328.64 21.2669 328.35 21.7625 328.076 22.2495C327.772 22.7262 327.501 23.2229 327.264 23.7362L325.812 26.7609C324.993 28.785 324.325 30.8669 323.813 32.9897C323.308 35.0335 322.939 37.1086 322.71 39.2013C322.522 41.2206 322.473 43.2504 322.565 45.2763C322.896 52.5115 325.066 59.5428 328.871 65.7057L329.025 65.9534H328.734L328.888 65.8509C327.051 72.3531 325.47 78.0436 324.137 82.7002L324.018 82.5635L336.731 79.7354L340.055 79.0176L340.91 78.8382C341.008 78.8152 341.108 78.7981 341.209 78.7869V78.7613Z" fill="#263238"/>
<path d="M377.206 99.3017C373.028 100.276 370.37 104.505 369.456 108.7C368.542 112.896 369.003 117.245 368.602 121.517C368.2 125.789 366.705 130.326 363.108 132.624L366.688 133.667C365.98 135.909 364.487 137.82 362.484 139.05C363.883 140.132 365.602 140.718 367.371 140.716C365.269 141.271 364.688 144.279 365.85 146.116C367.012 147.953 369.225 148.824 371.336 149.363C373.804 150.121 376.431 150.201 378.94 149.593C382.358 148.559 384.99 145.518 386.314 142.151C387.638 138.785 387.886 135.111 388.023 131.497C388.279 122.448 387.749 113.306 385.46 104.548C384.896 102.429 384.127 100.182 382.324 98.9344C380.521 97.6869 377.445 98.191 376.898 100.31" fill="#0F7CE3"/>
<path d="M471.645 229.909C470.654 226.133 464.878 204.858 459.683 190.965C453.95 175.542 442.125 172.355 442.125 172.355C415.51 163.273 391.594 163.221 366.081 172.073C365.227 172.33 364.466 172.603 363.706 172.928H363.629C344.686 180.361 342.73 200.372 342.73 200.372L334.741 248.912C334.657 249.295 334.594 249.683 334.553 250.074L334.476 250.535C334.34 252.804 334.888 255.061 336.049 257.015C337.21 258.97 338.929 260.531 340.987 261.497C352.094 266.624 362.723 265.402 371.848 261.634L365.218 271.289H444.159L438.981 258.55L440.69 250.86L452.916 265.573C454.381 267.334 456.344 268.612 458.547 269.239C472.645 270.879 474.926 249.886 472.278 237.668" fill="#455A64"/>
<path d="M421.636 167.066C421.636 167.066 408.896 231.148 404.411 230.653C399.925 230.157 378.88 168.28 378.88 168.28C378.88 168.28 405.778 161.102 421.636 167.066Z" fill="#FFBE9D"/>
<path d="M385.511 171.791C385.442 164.418 385.237 156.651 385.237 156.651C385.237 156.651 375.728 155.138 373.677 142.749C371.729 130.941 373.515 103.625 373.515 103.625C380.241 100.877 387.647 100.252 394.739 101.832C401.832 103.413 408.271 107.124 413.194 112.468L412.758 172.381C412.707 179.336 406.683 184.83 399.241 184.719C391.714 184.608 385.571 178.849 385.511 171.791Z" fill="#FFBE9D"/>
<path d="M376.668 124.294C376.665 124.708 376.824 125.107 377.112 125.405C377.399 125.704 377.791 125.878 378.205 125.891C378.408 125.906 378.612 125.881 378.804 125.816C378.996 125.751 379.174 125.648 379.326 125.514C379.478 125.379 379.602 125.215 379.69 125.032C379.777 124.849 379.828 124.65 379.837 124.447C379.84 124.033 379.68 123.634 379.393 123.336C379.106 123.037 378.713 122.863 378.299 122.85C378.097 122.835 377.893 122.86 377.701 122.925C377.508 122.99 377.331 123.093 377.179 123.227C377.027 123.362 376.903 123.526 376.815 123.709C376.727 123.892 376.677 124.091 376.668 124.294Z" fill="#263238"/>
<path d="M374.574 123.166C374.771 123.371 375.967 122.474 377.676 122.465C379.385 122.457 380.649 123.32 380.837 123.098C381.025 122.875 380.718 122.636 380.171 122.243C379.417 121.728 378.52 121.462 377.607 121.483C376.715 121.503 375.852 121.801 375.138 122.337C374.651 122.696 374.472 123.072 374.574 123.166Z" fill="#263238"/>
<path d="M393.97 125.122C393.967 125.537 394.126 125.935 394.414 126.234C394.701 126.532 395.093 126.707 395.507 126.72C395.708 126.732 395.909 126.703 396.098 126.637C396.288 126.57 396.462 126.467 396.611 126.333C396.761 126.199 396.882 126.036 396.968 125.855C397.055 125.673 397.104 125.477 397.114 125.276C397.116 124.862 396.957 124.463 396.67 124.165C396.382 123.866 395.99 123.692 395.576 123.678C395.375 123.667 395.175 123.695 394.985 123.762C394.796 123.828 394.621 123.931 394.472 124.066C394.322 124.2 394.201 124.362 394.115 124.544C394.029 124.725 393.979 124.922 393.97 125.122Z" fill="#263238"/>
<path d="M392.423 123.678C392.628 123.883 393.824 122.986 395.533 122.978C397.242 122.969 398.507 123.832 398.686 123.61C398.866 123.388 398.575 123.149 398.028 122.756C397.274 122.241 396.378 121.975 395.465 121.995C394.571 122.008 393.706 122.308 392.996 122.85C392.509 123.209 392.329 123.584 392.423 123.678Z" fill="#263238"/>
<path d="M386.297 136.401C385.392 136.127 384.456 135.966 383.511 135.922C383.076 135.922 382.657 135.794 382.589 135.495C382.547 135.044 382.645 134.59 382.871 134.197L384.144 130.864C385.904 126.114 387.185 122.217 386.989 122.141C386.792 122.064 385.212 125.866 383.443 130.616C383.024 131.787 382.589 132.898 382.23 133.966C381.959 134.492 381.884 135.098 382.016 135.675C382.079 135.828 382.176 135.965 382.301 136.075C382.425 136.185 382.574 136.264 382.734 136.307C382.977 136.37 383.226 136.405 383.477 136.409C384.414 136.526 385.361 136.524 386.297 136.401Z" fill="#263238"/>
<path d="M385.237 156.634C391.075 156.687 396.813 155.119 401.813 152.105C401.813 152.105 397.832 160.65 385.417 159.564L385.237 156.634Z" fill="#EB996E"/>
<path d="M387.04 140.519C387.366 140.11 387.79 139.789 388.272 139.586C388.754 139.383 389.279 139.305 389.8 139.357C390.177 139.39 390.544 139.499 390.879 139.676C391.214 139.854 391.509 140.097 391.748 140.391C391.979 140.675 392.116 141.024 392.142 141.389C392.168 141.754 392.081 142.119 391.893 142.433C391.62 142.741 391.261 142.961 390.862 143.063C390.463 143.165 390.042 143.145 389.655 143.006C388.847 142.726 388.103 142.287 387.467 141.715C387.271 141.581 387.103 141.41 386.972 141.211C386.908 141.118 386.873 141.008 386.873 140.895C386.873 140.782 386.908 140.672 386.972 140.579" fill="#EB996E"/>
<path d="M391.338 137.554C391.056 137.554 391.064 139.4 389.484 140.724C387.903 142.049 385.921 141.861 385.912 142.117C385.912 142.237 386.357 142.476 387.194 142.493C388.282 142.502 389.337 142.127 390.176 141.434C390.984 140.771 391.497 139.816 391.603 138.776C391.671 138.007 391.466 137.546 391.338 137.554Z" fill="#263238"/>
<path d="M406.513 102.48C402.095 109.025 390.202 115.895 381.632 117.586C382.614 116.245 387.843 112.896 388.817 111.563C384.972 114.536 379.419 118.526 374.292 118.885C373.685 118.979 373.065 118.893 372.506 118.637C372.211 118.411 371.972 118.118 371.809 117.783C371.645 117.448 371.563 117.079 371.567 116.706C371.215 112.966 371.269 109.199 371.729 105.471C372.087 102.319 373.637 99.4246 376.061 97.3793C379.333 94.7562 384.058 94.047 388.527 93.859C392.269 93.7053 396.131 93.859 399.583 95.1492C403.035 96.4394 406.008 99.0625 406.564 102.258" fill="#0F7CE3"/>
<path d="M421.166 132.462C421.699 129.718 422.064 126.945 422.26 124.157C422.516 117.749 424.43 94.6451 402.411 96.935L403.659 103.147C403.659 103.147 399.549 117.535 409.007 127.241C409.007 127.241 406.316 147.508 412.895 154.053C412.895 154.053 419.953 139.374 421.166 132.462Z" fill="#0F7CE3"/>
<path d="M408.726 126.165C410.052 125.877 411.432 125.956 412.716 126.396C414.007 126.852 415.064 127.801 415.655 129.036C416.178 130.299 416.2 131.714 415.715 132.992C415.227 134.261 414.463 135.405 413.476 136.341C412.813 137.06 411.991 137.613 411.075 137.956C410.617 138.117 410.126 138.164 409.645 138.093C409.164 138.021 408.708 137.833 408.316 137.546" fill="#FFBE9D"/>
<path d="M409.503 134.197C409.358 134.248 409.939 135.051 411.144 134.718C411.796 134.493 412.333 134.02 412.639 133.402C412.995 132.717 413.213 131.967 413.28 131.198C413.377 130.376 413.174 129.548 412.707 128.865C412.518 128.578 412.265 128.337 411.969 128.161C411.673 127.985 411.341 127.878 410.998 127.848C409.751 127.848 409.366 128.703 409.512 128.703C409.657 128.703 410.093 128.352 410.904 128.54C411.407 128.728 411.826 129.09 412.083 129.561C412.34 130.031 412.42 130.579 412.306 131.104C412.169 132.471 411.648 133.718 410.921 134.034C410.195 134.35 409.589 134.086 409.503 134.197Z" fill="#EB996E"/>
<path d="M365.286 231.473C365.167 231.473 365.064 226.441 365.064 220.229C365.064 214.017 365.167 208.993 365.286 208.993C365.406 208.993 365.509 214.026 365.509 220.229C365.509 226.432 365.406 231.473 365.286 231.473Z" fill="#263238"/>
<path d="M397.37 208.523C397.37 208.523 386.263 208.651 385.588 211.086C384.426 215.153 386.502 237.48 386.502 237.48L396.712 240.897C396.712 240.897 401.634 239.761 399.361 230.285C397.877 224.332 395.607 218.603 392.611 213.248C392.611 213.248 406.179 213.624 405.804 210.591C405.428 207.558 397.37 208.523 397.37 208.523Z" fill="#FFBE9D"/>
<path d="M392.962 215.111C393.568 214.991 407.128 213.872 406.282 216.042C405.436 218.212 392.962 218.751 392.962 218.751V215.111Z" fill="#FFBE9D"/>
<path d="M436.528 182.284L434.854 224.629L428.668 240.889L390.663 241.675L389.125 189.222L436.528 182.284Z" fill="#263238"/>
<path d="M384.708 223.45C384.564 223.548 384.409 223.628 384.246 223.689L382.879 224.304L377.812 226.466L361.049 233.464L351.829 237.266C349.287 238.22 346.819 239.362 344.447 240.684C342.858 241.584 341.454 242.779 340.312 244.204C339.526 245.229 339.244 245.913 339.201 245.913C339.246 245.742 339.315 245.578 339.406 245.426C339.618 244.971 339.876 244.539 340.175 244.136C341.279 242.643 342.674 241.391 344.276 240.453C346.645 239.087 349.119 237.912 351.676 236.941L360.912 233.114L377.727 226.235L382.854 224.202L384.255 223.672C384.396 223.58 384.548 223.505 384.708 223.45Z" fill="#263238"/>
<path d="M397.276 240.043C397.024 240.408 396.738 240.748 396.422 241.06C395.866 241.7 395.038 242.598 393.97 243.666C391.842 245.819 388.766 248.655 385.229 251.612C381.692 254.568 378.393 257.114 375.933 258.892C374.711 259.746 373.711 260.481 373.011 260.959C372.661 261.222 372.29 261.454 371.9 261.651C372.209 261.336 372.546 261.05 372.908 260.797L375.745 258.618C378.137 256.781 381.41 254.209 384.947 251.253C388.484 248.297 391.577 245.52 393.747 243.426C394.841 242.393 395.704 241.521 396.311 240.931C396.606 240.608 396.929 240.311 397.276 240.043Z" fill="#263238"/>
<path d="M454.514 267.145C454.42 267.231 448.849 260.84 442.065 252.876C435.281 244.913 429.855 238.402 429.949 238.351C430.043 238.3 435.614 244.64 442.398 252.586C449.183 260.532 454.608 267.068 454.514 267.145Z" fill="#263238"/>
<path d="M465.254 236.377C464.833 236.266 464.422 236.12 464.024 235.942C463.238 235.634 462.11 235.156 460.735 234.54C457.983 233.301 454.241 231.456 450.259 229.149C446.278 226.842 442.8 224.527 440.356 222.758C439.135 221.903 438.161 221.134 437.503 220.605C437.147 220.351 436.815 220.065 436.511 219.75C436.897 219.953 437.263 220.191 437.605 220.459C438.366 220.981 439.357 221.664 440.536 222.493C443.022 224.202 446.517 226.458 450.481 228.756C454.446 231.054 458.171 232.943 460.871 234.241L464.092 235.771C464.497 235.938 464.886 236.141 465.254 236.377Z" fill="#263238"/>
<path d="M445.586 227.081C445.466 227.081 444.799 222.578 444.099 216.99C443.398 211.402 442.928 206.848 443.048 206.84C443.168 206.831 443.843 211.343 444.543 216.931C445.244 222.519 445.714 227.073 445.586 227.081Z" fill="#263238"/>
<path d="M413.442 134.12C413.344 134.31 413.226 134.491 413.092 134.658L412.007 136.11L408.068 141.237V140.964L414.484 146.005L415.057 146.466H414.749L420.303 139.511V139.767L416.125 136.35L414.98 135.384C414.838 135.274 414.709 135.148 414.596 135.008C414.596 135.008 414.766 135.094 415.048 135.299L416.253 136.153L420.525 139.434L420.671 139.545L420.551 139.69C418.97 141.724 417.09 144.116 415.066 146.697L414.929 146.876L414.749 146.74L414.203 146.381C411.887 144.535 409.708 142.792 407.82 141.297L407.666 141.169L407.786 141.023L411.853 136.016L413.015 134.624C413.271 134.265 413.425 134.103 413.442 134.12Z" fill="#263238"/>
<path d="M429.744 237.685C423.593 237.402 417.464 236.746 411.391 235.719C404.206 234.575 404.283 233.917 404.556 233.096C405.24 230.892 417.27 234.634 415.108 232.319C412.946 230.003 399.916 229.456 400.728 227.192C401.788 224.227 414.314 228.38 415.399 228.653C416.484 228.927 416.868 227.363 415.877 227.167C414.459 226.885 399.566 223.595 400.574 220.673C401.138 219.05 403.941 220.408 403.941 220.408C403.941 220.408 417.671 224.526 418.107 223.125C418.543 221.724 410.563 219.015 407.803 218.306C405.043 217.597 404.283 216.008 405.564 215.051C406.419 214.401 414.963 216.392 417.62 217.17C420.277 217.947 427.719 220.186 424.9 216.102L424.78 215.905C421.892 211.958 420.978 207.959 421.499 206.618C421.643 206.338 421.861 206.103 422.129 205.939C422.397 205.775 422.706 205.688 423.02 205.688C423.335 205.688 423.643 205.775 423.911 205.939C424.18 206.103 424.398 206.338 424.541 206.618C424.679 206.815 424.775 207.039 424.823 207.276C424.85 207.394 424.885 207.511 424.925 207.626C425.605 209.158 426.441 210.615 427.42 211.975C428.267 213.217 429.319 214.306 430.531 215.196C431.932 216.213 435.478 219.955 436.512 220.622" fill="#FFBE9D"/>
<path d="M175.467 187.316C171.619 187.246 167.946 185.698 165.207 182.995C162.468 180.291 160.874 176.638 160.754 172.791C160.549 166.135 160.395 159.718 160.395 159.718C160.395 159.718 148.168 158.582 147.271 146.483C146.374 134.384 146.758 106.453 146.758 106.453C153.46 103.071 160.944 101.538 168.436 102.014C175.928 102.491 183.157 104.958 189.377 109.162L191.257 110.435L190.736 172.466C190.717 174.446 190.306 176.403 189.527 178.224C188.747 180.044 187.615 181.692 186.196 183.073C184.776 184.454 183.097 185.539 181.256 186.268C179.414 186.996 177.447 187.352 175.467 187.316Z" fill="#B78876"/>
<path d="M160.096 139.015C160.096 138.879 159.053 138.733 157.362 138.605C156.917 138.605 156.576 138.511 156.507 138.281C156.47 137.842 156.553 137.402 156.747 137.007L157.874 133.564C159.395 128.626 160.438 124.558 160.173 124.482C159.908 124.405 158.464 128.344 156.96 133.282C156.601 134.487 156.26 135.64 155.926 136.777C155.677 137.354 155.632 137.999 155.798 138.605C155.872 138.767 155.982 138.91 156.12 139.022C156.258 139.135 156.419 139.214 156.593 139.255C156.84 139.303 157.093 139.32 157.345 139.306C159.036 139.238 160.087 139.144 160.096 139.015Z" fill="#263238"/>
<path d="M165.624 140.519C163.056 141.76 160.364 142.726 157.593 143.399C158.212 144.24 159.098 144.847 160.107 145.12C161.116 145.393 162.187 145.316 163.146 144.903C166.684 143.347 165.624 140.519 165.624 140.519Z" fill="white"/>
<path d="M160.369 159.53C165.966 159.291 171.365 157.39 175.877 154.07C175.877 154.07 172.682 163.016 160.498 162.666L160.369 159.53Z" fill="#A36957"/>
<path d="M190.582 125.379C190.579 124.912 190.754 124.462 191.071 124.121C191.389 123.779 191.825 123.572 192.291 123.542C194.555 123.482 198.272 124.396 198.596 130.608C199.092 139.519 190.522 137.298 190.496 137.042C190.471 136.785 190.556 128.839 190.582 125.379Z" fill="#B78876"/>
<path d="M192.496 133.564C192.496 133.564 192.65 133.667 192.923 133.769C193.296 133.918 193.712 133.918 194.085 133.769C195.008 133.368 195.717 131.83 195.666 130.223C195.65 129.459 195.46 128.708 195.11 128.027C195.013 127.753 194.849 127.507 194.635 127.311C194.421 127.114 194.161 126.973 193.88 126.9C193.698 126.862 193.509 126.889 193.345 126.977C193.181 127.064 193.053 127.206 192.983 127.378C192.88 127.634 192.983 127.805 192.897 127.822C192.812 127.839 192.701 127.686 192.752 127.31C192.79 127.089 192.902 126.887 193.068 126.737C193.185 126.637 193.321 126.562 193.468 126.515C193.615 126.468 193.769 126.451 193.923 126.464C194.294 126.514 194.647 126.66 194.946 126.886C195.245 127.111 195.481 127.411 195.632 127.754C196.05 128.485 196.288 129.305 196.324 130.146C196.366 131.941 195.538 133.675 194.273 134.119C194.038 134.202 193.788 134.23 193.541 134.202C193.294 134.174 193.056 134.09 192.846 133.957C192.521 133.752 192.462 133.564 192.496 133.564Z" fill="#A36957"/>
<path d="M150.552 126.951C150.58 127.379 150.775 127.78 151.094 128.067C151.413 128.354 151.832 128.505 152.261 128.489C152.47 128.491 152.678 128.451 152.872 128.372C153.066 128.292 153.242 128.174 153.39 128.025C153.537 127.876 153.653 127.699 153.731 127.504C153.808 127.309 153.846 127.101 153.841 126.891C153.817 126.46 153.624 126.057 153.304 125.767C152.985 125.478 152.564 125.326 152.133 125.345C151.922 125.343 151.714 125.384 151.52 125.465C151.326 125.546 151.15 125.664 151.003 125.814C150.856 125.964 150.74 126.141 150.662 126.337C150.585 126.532 150.547 126.741 150.552 126.951Z" fill="#263238"/>
<path d="M147.758 125.302C147.98 125.498 149.159 124.447 150.919 124.37C152.679 124.294 154.046 125.037 154.217 124.815C154.388 124.593 154.072 124.336 153.483 123.96C152.678 123.486 151.747 123.271 150.817 123.345C149.899 123.401 149.024 123.752 148.322 124.345C147.809 124.815 147.621 125.208 147.758 125.302Z" fill="#263238"/>
<path d="M168.128 126.643C168.154 127.072 168.348 127.474 168.667 127.762C168.987 128.049 169.407 128.2 169.836 128.181C170.046 128.184 170.255 128.144 170.449 128.064C170.644 127.985 170.82 127.867 170.968 127.718C171.116 127.569 171.233 127.392 171.312 127.197C171.39 127.002 171.429 126.794 171.426 126.584C171.397 126.155 171.203 125.755 170.883 125.468C170.564 125.18 170.146 125.029 169.717 125.046C169.507 125.044 169.299 125.085 169.105 125.165C168.911 125.245 168.735 125.363 168.587 125.511C168.44 125.66 168.323 125.837 168.244 126.031C168.165 126.225 168.125 126.434 168.128 126.643Z" fill="#263238"/>
<path d="M165.675 125.302C165.897 125.498 167.076 124.447 168.837 124.371C170.597 124.294 171.955 125.037 172.135 124.815C172.314 124.593 171.989 124.336 171.391 123.96C170.591 123.485 169.662 123.27 168.734 123.345C167.817 123.401 166.942 123.752 166.239 124.345C165.726 124.815 165.564 125.208 165.675 125.302Z" fill="#263238"/>
<path d="M177.355 102.258C176.556 104.144 176.321 106.222 176.679 108.239C177.037 110.256 177.972 112.126 179.372 113.622C180.559 114.852 182.063 115.792 183.097 117.168C185.233 120.013 184.883 123.926 185.225 127.464C185.378 129.104 185.763 130.881 186.933 131.966C188.104 133.052 190.394 133.163 191.206 131.753C191.434 131.306 191.584 130.823 191.65 130.326C192.396 126.378 193.137 122.434 193.871 118.492C194.427 115.527 194.991 112.511 194.478 109.521C194.179 107.781 193.519 106.124 192.54 104.655C191.562 103.186 190.287 101.938 188.797 100.992C187.307 100.045 185.636 99.4213 183.891 99.1597C182.145 98.898 180.364 99.0046 178.663 99.4726" fill="#263238"/>
<path d="M179.235 99.7544C175.125 98.9684 172.818 97.6526 169.913 96.3367C167.044 94.9122 163.766 94.5402 160.651 95.2858C158.584 95.8668 156.627 97.1143 154.499 97.0886C152.372 97.063 150.484 95.8155 148.467 95.1747C147.087 94.7487 145.635 94.6047 144.198 94.7515C142.761 94.8983 141.368 95.3328 140.102 96.0292C138.112 97.1228 136.326 99.0795 136.155 101.472C135.984 103.864 138.12 106.334 140.265 105.65C138.026 106.428 137.12 109.726 138.231 111.921C138.812 112.954 139.697 113.781 140.766 114.291C141.836 114.8 143.036 114.966 144.204 114.767C146.568 114.245 148.691 112.949 150.236 111.084C150.287 113.75 152.961 115.621 155.439 115.544C157.917 115.467 160.156 113.981 162.198 112.451C164.24 110.922 166.308 109.256 168.734 108.717C170.443 108.341 172.152 108.546 173.861 108.341C175.57 108.136 177.407 107.393 178.235 105.778C179.064 104.163 182.345 102.266 180.628 102.215" fill="#263238"/>
<path d="M154.884 112.87C155.18 113.048 155.485 113.211 155.798 113.357C156.689 113.653 157.651 113.653 158.541 113.357C159.159 113.177 159.751 112.915 160.301 112.579C160.899 112.221 161.506 111.725 162.155 111.289C162.831 110.775 163.548 110.318 164.3 109.922C165.131 109.497 166.049 109.266 166.983 109.247C168.888 109.247 170.605 109.726 172.161 109.589C172.845 109.547 173.512 109.356 174.114 109.028C174.717 108.7 175.24 108.244 175.647 107.692C176.222 106.949 176.583 106.063 176.689 105.129C176.757 104.462 176.689 104.086 176.732 104.086C176.774 104.086 176.774 104.172 176.809 104.351C176.853 104.611 176.87 104.874 176.86 105.137C176.821 106.124 176.488 107.076 175.903 107.872C175.51 108.434 175.007 108.91 174.425 109.273C173.752 109.685 172.99 109.931 172.203 109.991C170.546 110.153 168.786 109.649 167 109.683C165.214 109.717 163.676 110.7 162.394 111.614C161.737 112.075 161.121 112.528 160.489 112.887C159.905 113.229 159.275 113.485 158.618 113.647C157.669 113.937 156.65 113.891 155.73 113.519C155.487 113.405 155.262 113.256 155.063 113.075C154.938 112.95 154.878 112.881 154.884 112.87Z" fill="#263238"/>
<path d="M177.962 95.5336C177.97 96.4842 178.053 97.4326 178.21 98.3703C178.509 99.2744 178.883 100.152 179.329 100.993C178.568 100.334 178.029 99.4559 177.784 98.4791C177.54 97.5023 177.602 96.4739 177.962 95.5336Z" fill="#263238"/>
<path d="M182.516 95.3456C182.61 95.4396 181.508 96.482 180.687 98.1225C179.867 99.763 179.637 101.25 179.508 101.224C179.415 100.068 179.687 98.9111 180.286 97.9174C180.75 96.853 181.528 95.9557 182.516 95.3456Z" fill="#263238"/>
<path d="M239.652 222.04L258.252 269.896H229.783L216.514 235.822L239.652 222.04Z" fill="#B78876"/>
<path d="M138.829 183.181C138.829 183.181 114.299 208.429 103.704 208.429C100.235 208.429 97.5177 166.374 97.475 154.25C98.0371 152.684 98.8415 151.217 99.8588 149.901C100.755 148.649 101.79 147.503 102.943 146.483C104.399 145.236 106.017 144.193 107.754 143.382C109.411 142.801 109.548 140.536 108.036 140.083C106.523 139.631 101.927 141.126 97.7826 145.031C93.6386 148.935 94.8946 140.195 95.2876 137.008C95.6807 133.82 96.424 123.884 95.5354 123.012C94.2367 121.73 92.5876 122.918 92.263 126.114C91.9383 129.309 90.3747 138.862 88.6658 138.614C86.957 138.366 89.2297 122.14 89.2297 122.14C89.2297 122.14 90.2636 118.723 88.3753 118.381C84.8893 117.757 83.8041 135.153 83.7443 136.811C83.7443 137.964 81.8646 137.768 81.9757 136.529C82.0867 135.29 84.5389 120.38 81.0272 119.705C78.3187 119.193 80.0019 134.017 77.7719 136.862C75.5418 139.707 77.6437 125.456 75.0292 125.071C74.0551 124.934 73.3203 124.96 73.3203 133.282C73.3203 137.759 75.0292 144.518 74.3627 153.131C75.4906 178.558 74.2431 249.963 102.559 241.504C133.668 232.191 154.927 211.813 154.927 211.813L138.829 183.181Z" fill="#B78876"/>
<path d="M207.508 205.806C207.634 206.131 207.726 206.469 207.782 206.814C207.935 207.464 208.132 208.412 208.354 209.591C208.79 211.949 209.311 215.222 209.713 218.853C210.114 222.484 210.319 225.791 210.405 228.183C210.405 229.38 210.464 230.354 210.456 231.02C210.483 231.368 210.465 231.719 210.405 232.062C210.332 231.722 210.292 231.376 210.285 231.029C210.234 230.268 210.165 229.32 210.088 228.2C209.926 225.817 209.67 222.527 209.234 218.904C208.798 215.282 208.38 212.009 208.004 209.642C207.833 208.532 207.696 207.6 207.576 206.848C207.513 206.505 207.49 206.155 207.508 205.806Z" fill="#263238"/>
<path d="M134.677 269.896L213.045 270.29L210.405 253.748C211.096 245.898 211.059 238 210.293 230.157L214.267 240.914L246.658 224.68C246.658 224.68 234.884 193.289 225.024 182.651C212.575 169.211 190.163 170.552 190.163 170.552L175.023 180.805L161.087 170.988C153.612 171.865 146.335 173.981 139.555 177.251L138.838 177.456V177.61C130.618 181.882 118.887 192.366 107.719 202.525L120.613 215.076L134.89 228.38C135.699 228.26 136.518 228.226 137.334 228.277C137.573 229.747 134.677 269.896 134.677 269.896Z" fill="#455A64"/>
<path opacity="0.2" d="M207.884 200.79L218.539 238.778L214.267 240.914L210.302 230.157C210.302 230.157 206.431 207.634 207.884 200.79Z" fill="black"/>
<path d="M160.216 170.877V166.776C160.216 166.776 172.451 165.827 174.929 180.284C174.929 180.284 178.919 166.776 190.796 165.417L192.504 171.731C192.504 171.731 186.874 189.324 186.062 189.478C185.25 189.632 174.954 192.631 174.954 192.631L168.973 191.281L162.352 183.736L160.216 170.877Z" fill="#455A64"/>
<path d="M192.769 171.253C192.567 171.513 192.338 171.75 192.086 171.962C191.641 172.415 190.992 173.047 190.223 173.876C188.227 176.018 186.449 178.353 184.917 180.848C184.541 181.463 184.199 182.07 183.875 182.66L183.678 183.018L183.49 182.66C182.132 180.096 180.927 177.875 180.004 176.14C179.805 175.806 179.541 175.515 179.227 175.286C178.974 175.111 178.679 175.008 178.372 174.987C178.119 174.983 177.867 175.027 177.629 175.115C177.629 175.115 177.825 174.842 178.381 174.833C178.713 174.828 179.04 174.92 179.321 175.098C179.686 175.336 179.995 175.651 180.226 176.021C181.192 177.636 182.422 179.9 183.849 182.489H183.507C183.832 181.891 184.174 181.267 184.558 180.652C186.095 178.122 187.928 175.784 190.018 173.688C190.821 172.885 191.505 172.278 191.992 171.868C192.22 171.627 192.482 171.42 192.769 171.253Z" fill="#263238"/>
<path d="M159.421 172.013C159.641 172.192 159.836 172.399 160.002 172.628C160.361 173.047 160.856 173.654 161.463 174.414C162.685 175.927 164.342 178.037 166.154 180.395L166.444 180.771H166.068C166.726 179.566 166.778 178.208 167.077 176.96C167.267 175.828 167.877 174.809 168.785 174.107C169.107 173.894 169.472 173.758 169.855 173.709C170.237 173.66 170.625 173.699 170.99 173.825C171.181 173.905 171.357 174.018 171.511 174.158C171.605 174.269 171.639 174.329 171.631 174.337C171.414 174.196 171.181 174.078 170.939 173.987C170.601 173.903 170.248 173.893 169.906 173.958C169.564 174.022 169.24 174.161 168.956 174.363C168.157 175.051 167.637 176.009 167.495 177.054C167.337 178.405 166.995 179.727 166.478 180.985L166.316 181.284L166.111 181.01L165.821 180.634C164.009 178.285 162.403 176.14 161.232 174.577C160.66 173.799 160.198 173.158 159.882 172.714C159.699 172.501 159.544 172.266 159.421 172.013Z" fill="#263238"/>
<path d="M168.127 269.896C168.116 269.817 168.116 269.737 168.127 269.657C168.127 269.486 168.127 269.256 168.127 268.982C168.127 268.35 168.204 267.478 168.264 266.368C168.409 264.069 168.623 260.797 168.871 256.772C169.435 248.638 170.204 237.462 171.05 225.116L173.348 193.502C173.664 189.478 173.92 186.214 174.1 183.915C174.194 182.805 174.271 181.933 174.331 181.309C174.331 181.028 174.382 180.805 174.399 180.626C174.389 180.552 174.389 180.478 174.399 180.404C174.414 180.48 174.414 180.558 174.399 180.634V181.309C174.399 181.942 174.313 182.813 174.254 183.924C174.108 186.222 173.903 189.495 173.647 193.519C173.092 201.653 172.323 212.829 171.477 225.176C170.631 237.522 169.768 248.698 169.17 256.79C168.854 260.814 168.606 264.078 168.426 266.376C168.324 267.487 168.247 268.358 168.196 268.991C168.196 269.264 168.145 269.486 168.127 269.666C168.14 269.742 168.14 269.82 168.127 269.896Z" fill="#263238"/>
<path d="M139.991 193.887C140.006 194.341 139.98 194.796 139.914 195.245C139.846 196.194 139.744 197.433 139.624 198.936C139.393 202.046 139.154 206.361 138.889 211.129C138.624 215.897 138.334 220.203 138.035 223.322C137.881 224.877 137.727 226.141 137.599 227.004C137.557 227.458 137.474 227.907 137.351 228.346C137.337 227.892 137.362 227.437 137.428 226.987C137.505 226.039 137.599 224.791 137.719 223.296C137.958 220.177 138.188 215.863 138.462 211.103C138.735 206.344 139.009 202.021 139.316 198.902C139.47 197.347 139.624 196.091 139.752 195.22C139.794 194.769 139.874 194.324 139.991 193.887Z" fill="#263238"/>
<path d="M174.109 178.217C174.109 178.217 169.905 183.711 170.52 184.531L174.109 189.324H176.672C176.672 189.324 179.064 182.608 178.449 181.754C177.834 180.899 174.109 178.217 174.109 178.217Z" fill="#0F7CE3"/>
<path d="M180.517 176.738L175.877 180.361L177.654 183.77L182.422 180.25L180.517 176.738Z" fill="#0F7CE3"/>
<path d="M166.889 179.028L171.118 182.557L173.459 179.028L168.119 174.97L166.889 179.028Z" fill="#0F7CE3"/>
<path d="M174.057 189.315L167.606 247.126L173.955 267.222L182.422 247.305L176.851 188.632L174.057 189.315Z" fill="#0F7CE3"/>
<path d="M219.197 178.575C218.93 178.359 218.644 178.167 218.342 178.003C217.508 177.616 216.558 177.561 215.685 177.849C214.406 178.34 213.269 179.141 212.378 180.182C211.202 181.395 210.186 182.753 209.354 184.223C207.852 186.913 206.976 189.906 206.79 192.981C206.654 195.348 206.953 196.809 206.859 196.817C206.753 196.486 206.678 196.146 206.637 195.801C206.505 194.864 206.454 193.918 206.483 192.972C206.573 189.825 207.427 186.746 208.969 184.001C209.818 182.496 210.867 181.114 212.088 179.891C213.034 178.818 214.245 178.011 215.599 177.55C216.067 177.408 216.558 177.361 217.044 177.413C217.53 177.464 218 177.612 218.428 177.849C218.655 177.981 218.86 178.148 219.034 178.345C219.162 178.481 219.205 178.567 219.197 178.575Z" fill="#263238"/>
<path d="M280.263 107.077C274.786 110.435 270.983 116.049 268.728 122.055C266.472 128.062 265.618 134.504 264.951 140.853C263.186 157.729 262.595 174.707 263.183 191.665C283.885 194.28 304.75 196.911 325.556 195.493C321.942 171.714 319.652 147.961 322.548 124.08" fill="#263238"/>
<path d="M326.769 304.68L311.671 274.194L317.43 251.894C318.105 256.619 318.703 260.72 318.703 260.72L351.043 259.011C351.328 258.996 351.606 258.922 351.861 258.794C352.115 258.665 352.34 258.485 352.521 258.265C352.702 258.044 352.835 257.789 352.911 257.514C352.988 257.24 353.006 256.952 352.966 256.67L346.703 212.069C346.703 212.069 344.678 191.375 325.086 183.685H324.992C324.206 183.377 323.385 183.104 322.54 182.831C296.129 173.671 271.394 173.731 243.872 183.121C243.872 183.121 231.646 186.411 225.716 202.363C219.786 218.315 213.754 241.76 213.754 241.76L241.181 251.475L241.36 246.836L247.427 270.042L234.123 303.843L280.562 304.988L326.769 304.68Z" fill="#FACF38"/>
<path d="M213.779 241.461L210.695 255.986C208.046 268.504 217.317 281.354 230.031 282.798L297.624 289.736C301.186 290.138 304.792 289.822 308.23 288.809C311.668 287.795 314.869 286.104 317.644 283.835C320.418 281.566 322.711 278.765 324.387 275.596C326.063 272.428 327.087 268.956 327.401 265.385L242.181 257.268L242.71 249.083L213.779 241.461Z" fill="#FACF38"/>
<path d="M298.308 256.32L303.554 255.346C303.554 255.346 315.994 241.735 318.327 241.547C320.25 241.384 330.836 241.487 334.561 241.547C334.898 241.551 335.22 241.688 335.456 241.928C335.693 242.168 335.826 242.491 335.826 242.828C335.826 243.161 335.697 243.481 335.466 243.72C335.234 243.959 334.919 244.099 334.587 244.11L322.087 244.597L322.027 245.605L334.544 245.767C335.826 245.87 336.637 247.886 332.562 248.254L322.087 248.621V249.271L332.707 250.757C333.245 250.834 334.655 251.108 334.664 251.654C334.664 251.654 335.313 252.979 332.28 253.363C331.246 253.491 322.027 253.184 322.027 253.184L322.377 254.038L331.93 256.097C332.264 256.17 332.558 256.366 332.753 256.647C332.948 256.927 333.029 257.272 332.98 257.61C332.933 257.956 332.754 258.271 332.48 258.487C332.206 258.704 331.859 258.806 331.511 258.772L321.318 257.832L311.304 265.821H297.889L298.308 256.32Z" fill="#FFBE9D"/>
<path d="M265.088 176.542C265.088 176.542 278.255 243.871 282.894 243.384C287.534 242.897 309.296 178.849 309.296 178.849C309.296 178.849 281.484 170.381 265.088 176.542Z" fill="#FAFAFA"/>
<path d="M323.351 241.718C323.232 241.718 323.129 237.069 323.129 231.345C323.129 225.62 323.232 220.981 323.351 220.981C323.471 220.981 323.573 225.62 323.573 231.345C323.573 237.069 323.479 241.718 323.351 241.718Z" fill="#263238"/>
<path d="M242.522 242.153C242.541 241.154 242.633 240.157 242.796 239.171C243.027 237.326 243.368 234.797 243.778 232.003C244.189 229.209 244.573 226.671 244.881 224.851C245.004 223.855 245.201 222.87 245.47 221.903C245.451 222.906 245.36 223.905 245.197 224.894C244.966 226.731 244.624 229.269 244.214 232.063C243.804 234.857 243.42 237.377 243.112 239.206C242.989 240.201 242.792 241.187 242.522 242.153Z" fill="#263238"/>
<path d="M280.562 304.945C280.538 304.738 280.538 304.529 280.562 304.322C280.562 303.869 280.562 303.279 280.562 302.536C280.562 300.981 280.562 298.734 280.621 295.957C280.724 290.403 281.023 282.739 281.407 274.28C281.792 265.821 282.134 258.157 282.322 252.603C282.399 249.869 282.467 247.639 282.518 246.033C282.518 245.298 282.518 244.7 282.569 244.247C282.564 244.038 282.582 243.829 282.621 243.623C282.639 243.831 282.639 244.039 282.621 244.247C282.621 244.697 282.621 245.295 282.621 246.041C282.621 247.588 282.621 249.835 282.569 252.612C282.467 258.165 282.159 265.83 281.783 274.297C281.407 282.764 281.049 290.42 280.869 295.965C280.784 298.708 280.715 300.938 280.673 302.536C280.673 303.279 280.673 303.877 280.613 304.322C280.609 304.53 280.591 304.739 280.562 304.945Z" fill="#263238"/>
<path d="M309.185 178.738C309.185 178.738 309.228 179.028 309.33 179.592C309.477 180.387 309.703 181.166 310.005 181.916C310.486 183.098 311.058 184.24 311.714 185.334C312.599 186.794 313.406 188.3 314.132 189.845C315.061 191.742 315.417 193.868 315.157 195.963C314.946 197.126 314.476 198.227 313.782 199.184C313.059 200.18 312.253 201.112 311.372 201.97C309.491 203.772 307.775 205.739 306.246 207.848C304.615 210.108 303.696 212.804 303.605 215.589C303.607 216.989 303.916 218.372 304.511 219.639C305.137 220.885 305.69 222.166 306.169 223.476C306.385 224.142 306.474 224.844 306.434 225.543C306.384 226.241 306.164 226.916 305.793 227.508C305.017 228.565 304.052 229.469 302.948 230.174L292.242 238.069L285.005 243.35L283.022 244.776L282.501 245.135L282.313 245.246C282.313 245.246 282.364 245.187 282.475 245.093L282.971 244.7L284.902 243.213L292.019 237.804L302.666 229.841C303.725 229.163 304.65 228.294 305.391 227.278C305.728 226.745 305.928 226.138 305.972 225.509C306.004 224.858 305.918 224.207 305.716 223.587C305.241 222.296 304.69 221.035 304.067 219.81C303.446 218.49 303.125 217.048 303.127 215.589C303.216 212.716 304.166 209.936 305.853 207.609C307.397 205.476 309.136 203.491 311.047 201.679C312.799 199.97 314.414 198.082 314.756 195.895C315.023 193.871 314.694 191.813 313.807 189.973C313.105 188.426 312.321 186.917 311.458 185.454C310.819 184.333 310.268 183.165 309.809 181.959C309.52 181.192 309.319 180.396 309.21 179.584C309.179 179.374 309.159 179.163 309.151 178.951C309.15 178.879 309.162 178.807 309.185 178.738Z" fill="#263238"/>
<path d="M282.843 242.692H282.638L282.031 242.581C281.259 242.42 280.497 242.212 279.75 241.957C276.997 241.025 274.447 239.575 272.239 237.685C268.939 234.846 266.542 231.104 265.344 226.919C264.638 224.461 264.349 221.902 264.49 219.349C264.56 218.003 264.74 216.666 265.028 215.35C265.355 214.041 265.392 212.677 265.139 211.351C264.962 210.723 264.602 210.161 264.105 209.736C263.574 209.349 262.978 209.059 262.345 208.882C261.713 208.668 261.055 208.498 260.414 208.233C259.778 207.969 259.198 207.587 258.705 207.105C257.78 206.131 257.167 204.902 256.945 203.576C256.708 202.341 256.639 201.079 256.74 199.825C257.14 195.534 258.081 191.311 259.543 187.257C260.518 184.527 261.718 181.884 263.131 179.353C263.635 178.499 264.045 177.781 264.344 177.337L264.678 176.824C264.711 176.761 264.755 176.703 264.806 176.653C264.806 176.653 264.806 176.721 264.72 176.841L264.421 177.379C264.148 177.841 263.763 178.541 263.276 179.439C261.94 181.989 260.797 184.637 259.859 187.359C258.464 191.4 257.561 195.594 257.167 199.851C257.084 201.069 257.159 202.292 257.389 203.491C257.601 204.73 258.171 205.879 259.03 206.797C259.494 207.236 260.036 207.583 260.628 207.823C261.226 208.07 261.875 208.241 262.533 208.463C263.219 208.662 263.862 208.986 264.43 209.42C264.998 209.901 265.408 210.541 265.609 211.257C265.884 212.646 265.849 214.079 265.507 215.453C265.225 216.752 265.045 218.072 264.968 219.4C264.842 221.908 265.131 224.42 265.823 226.834C266.984 230.953 269.313 234.648 272.53 237.471C274.696 239.371 277.192 240.856 279.895 241.854C280.852 242.196 281.604 242.418 282.142 242.555L282.732 242.709C282.768 242.701 282.806 242.696 282.843 242.692Z" fill="#263238"/>
<path d="M318.404 256.414L261.781 254.585L261.867 273.383L299.359 281.619L325.735 285.832C342.123 285.832 355.238 270.785 352.701 254.594H352.632L318.404 256.414Z" fill="#FACF38"/>
<path d="M333.989 256.055C333.746 256.094 333.5 256.111 333.254 256.106L331.152 256.166L323.411 256.303C316.875 256.405 307.843 256.516 297.864 256.414C287.884 256.311 278.853 255.961 272.325 255.559C269.061 255.337 266.429 255.132 264.635 254.944L262.542 254.731C262.294 254.717 262.048 254.683 261.807 254.628C262.051 254.607 262.297 254.607 262.542 254.628L264.644 254.756C266.472 254.884 269.112 255.047 272.333 255.226C278.861 255.585 287.884 255.901 297.864 255.995C307.843 256.089 316.858 255.995 323.394 255.995H331.144H333.245C333.494 255.996 333.743 256.016 333.989 256.055Z" fill="#263238"/>
<path d="M261.303 256.32L256.057 255.346C256.057 255.346 243.616 241.735 241.275 241.547C239.361 241.384 228.775 241.487 225.084 241.547C224.747 241.551 224.425 241.688 224.188 241.928C223.952 242.168 223.819 242.491 223.819 242.828C223.819 243.159 223.947 243.478 224.176 243.717C224.405 243.956 224.718 244.097 225.049 244.11L237.558 244.597L237.618 245.605L225.092 245.767C223.819 245.87 222.999 247.886 227.083 248.254L237.558 248.621V249.271L226.938 250.757C226.399 250.834 224.99 251.108 224.972 251.654C224.972 251.654 224.332 252.979 227.356 253.363C228.399 253.491 237.609 253.184 237.609 253.184L237.251 254.038L227.707 256.097C227.373 256.171 227.079 256.368 226.883 256.648C226.687 256.928 226.603 257.271 226.647 257.61C226.696 257.955 226.876 258.268 227.15 258.485C227.423 258.701 227.769 258.804 228.117 258.772L238.319 257.832L248.332 265.821H261.713L261.303 256.32Z" fill="#FFBE9D"/>
<path d="M324.727 285.524C324.514 285.549 324.299 285.549 324.086 285.524L322.258 285.327C320.66 285.148 318.37 284.858 315.533 284.473C309.86 283.687 302.051 282.448 293.481 280.773C284.911 279.099 277.247 277.287 271.659 275.869C268.89 275.168 266.652 274.57 265.114 274.16L263.345 273.647C263.135 273.594 262.93 273.526 262.73 273.442C262.944 273.46 263.156 273.5 263.362 273.562L265.156 273.989L271.736 275.596C277.298 276.928 285.005 278.68 293.566 280.363C302.127 282.046 309.928 283.328 315.576 284.191L322.275 285.191L324.095 285.473C324.306 285.478 324.517 285.495 324.727 285.524Z" fill="#263238"/>
<path d="M262.379 273.46C262.13 272.586 261.964 271.69 261.884 270.785C261.662 269.076 261.422 266.804 261.286 264.249C261.149 261.694 261.158 259.361 261.209 257.678C261.197 256.771 261.268 255.864 261.422 254.97C261.524 255.872 261.558 256.78 261.525 257.687C261.525 259.396 261.602 261.668 261.73 264.223C261.858 266.778 262.055 269.076 262.2 270.742C262.32 271.643 262.38 272.551 262.379 273.46Z" fill="#263238"/>
<path d="M268.565 274.194C268.452 273.967 268.368 273.726 268.317 273.476C268.189 273.015 268.018 272.332 267.848 271.486C266.938 267.053 266.65 262.515 266.993 258.003C267.061 257.148 267.147 256.439 267.224 255.961C267.238 255.709 267.29 255.462 267.378 255.226C267.41 256.158 267.387 257.091 267.309 258.02C267.241 259.729 267.215 262.121 267.378 264.744C267.54 267.367 267.848 269.726 268.121 271.426C268.326 272.339 268.475 273.263 268.565 274.194Z" fill="#263238"/>
<path d="M263.336 257.977C263.388 258.029 263.063 258.259 263.072 258.832C263.071 258.977 263.102 259.12 263.161 259.253C263.22 259.385 263.306 259.504 263.413 259.601C263.554 259.695 263.719 259.745 263.888 259.745C264.056 259.745 264.221 259.695 264.362 259.601C264.515 259.521 264.64 259.396 264.721 259.244C264.802 259.091 264.834 258.918 264.815 258.746C264.786 258.605 264.728 258.47 264.644 258.353C264.56 258.235 264.452 258.136 264.328 258.063C263.875 257.789 263.473 257.952 263.473 257.883C263.473 257.815 263.823 257.516 264.464 257.789C264.647 257.864 264.81 257.98 264.94 258.129C265.071 258.277 265.165 258.453 265.216 258.644C265.247 258.897 265.202 259.154 265.087 259.382C264.972 259.61 264.793 259.799 264.572 259.926C264.35 260.052 264.096 260.111 263.842 260.094C263.587 260.077 263.343 259.986 263.14 259.832C262.994 259.694 262.882 259.525 262.813 259.336C262.745 259.148 262.722 258.945 262.747 258.746C262.849 258.089 263.336 257.918 263.336 257.977Z" fill="#263238"/>
<path d="M273.632 276.971C273.439 276.995 273.244 276.995 273.051 276.971C272.667 276.971 272.111 276.971 271.385 276.971C269.35 277.025 267.32 277.216 265.31 277.544C262.331 278.049 259.38 278.705 256.467 279.509C253.16 280.363 249.555 281.431 245.684 282.277C242.044 283.126 238.314 283.531 234.576 283.482C231.521 283.403 228.5 282.826 225.631 281.773C223.706 281.044 221.902 280.027 220.282 278.757C219.846 278.41 219.432 278.036 219.043 277.638C218.896 277.511 218.764 277.367 218.65 277.211C218.65 277.211 219.239 277.757 220.359 278.62C221.995 279.824 223.796 280.785 225.707 281.474C228.569 282.489 231.575 283.035 234.611 283.089C238.306 283.112 241.991 282.699 245.59 281.859C249.435 281.004 253.049 279.979 256.364 279.124C259.296 278.339 262.268 277.711 265.267 277.245C267.293 276.947 269.338 276.804 271.385 276.817C272.111 276.817 272.675 276.817 273.051 276.894C273.247 276.902 273.441 276.927 273.632 276.971Z" fill="#263238"/>
<path d="M298.539 184.471C299.88 176.969 301.435 169.091 301.435 169.091C301.435 169.091 311.398 169.185 315.627 156.916C319.66 145.21 322.574 117.048 322.574 117.048C316.192 113.081 308.749 111.161 301.245 111.544C293.74 111.927 286.532 114.596 280.587 119.193L270.659 180.353C269.505 187.453 274.692 194.1 282.305 195.271C289.986 196.459 297.257 191.665 298.539 184.471Z" fill="#FFBE9D"/>
<path d="M315.166 138.135C315.096 138.558 314.864 138.937 314.519 139.19C314.175 139.444 313.744 139.553 313.32 139.494C313.11 139.476 312.907 139.416 312.721 139.317C312.535 139.219 312.371 139.084 312.238 138.92C312.106 138.757 312.008 138.568 311.95 138.366C311.892 138.163 311.876 137.951 311.902 137.742C311.973 137.319 312.207 136.941 312.553 136.687C312.899 136.433 313.331 136.325 313.756 136.384C313.964 136.404 314.167 136.466 314.351 136.565C314.535 136.665 314.698 136.8 314.829 136.963C314.961 137.126 315.058 137.314 315.116 137.515C315.174 137.717 315.191 137.927 315.166 138.135Z" fill="#263238"/>
<path d="M318.114 136.785C317.874 136.965 316.806 135.837 315.063 135.538C313.32 135.239 311.893 135.88 311.74 135.632C311.663 135.529 311.936 135.179 312.594 134.872C313.441 134.484 314.386 134.365 315.303 134.53C316.21 134.69 317.045 135.133 317.686 135.794C318.114 136.298 318.225 136.709 318.114 136.785Z" fill="#263238"/>
<path d="M297.274 135.273C297.203 135.695 296.97 136.072 296.626 136.325C296.282 136.579 295.852 136.689 295.429 136.632C295.014 136.593 294.632 136.391 294.366 136.071C294.1 135.75 293.972 135.337 294.01 134.923C294.082 134.499 294.315 134.12 294.661 133.865C295.007 133.61 295.438 133.499 295.864 133.556C296.278 133.599 296.658 133.803 296.922 134.125C297.186 134.446 297.312 134.859 297.274 135.273Z" fill="#263238"/>
<path d="M299.82 134.222C299.581 134.393 298.513 133.274 296.77 132.966C295.027 132.659 293.6 133.316 293.446 133.069C293.369 132.958 293.634 132.607 294.301 132.3C295.148 131.912 296.094 131.795 297.009 131.967C297.917 132.121 298.753 132.561 299.393 133.223C299.82 133.727 299.931 134.145 299.82 134.222Z" fill="#263238"/>
<path d="M303.862 148.252C304.832 148.135 305.813 148.135 306.784 148.252C307.237 148.252 307.638 148.252 307.801 147.978C307.92 147.527 307.899 147.051 307.741 146.611C307.51 145.458 307.271 144.253 307.023 142.989C306.041 137.862 305.417 133.641 305.63 133.59C305.844 133.539 306.793 137.691 307.775 142.835C308.006 144.108 308.228 145.313 308.433 146.466C308.616 147.052 308.589 147.684 308.356 148.252C308.264 148.399 308.139 148.523 307.99 148.613C307.842 148.704 307.675 148.758 307.502 148.773C307.244 148.809 306.982 148.809 306.724 148.773C305.752 148.724 304.789 148.548 303.862 148.252Z" fill="#263238"/>
<path d="M301.418 169.091C295.458 168.129 289.88 165.536 285.304 161.598C285.304 161.598 287.867 170.997 300.683 172.039L301.418 169.091Z" fill="#EB996E"/>
<path d="M302.392 152.362C302.138 151.878 301.764 151.467 301.306 151.168C300.849 150.869 300.323 150.692 299.778 150.653C299.387 150.62 298.995 150.666 298.623 150.79C298.251 150.913 297.909 151.111 297.616 151.371C297.33 151.618 297.128 151.948 297.038 152.316C296.948 152.683 296.973 153.069 297.112 153.421C297.336 153.783 297.664 154.069 298.052 154.244C298.44 154.419 298.871 154.475 299.291 154.404C300.164 154.254 301 153.935 301.751 153.464C301.973 153.359 302.172 153.214 302.341 153.037C302.423 152.952 302.477 152.845 302.497 152.729C302.517 152.613 302.501 152.494 302.452 152.387" fill="#EB996E"/>
<path d="M298.53 148.559C298.812 148.559 298.479 150.482 299.863 152.114C301.247 153.746 303.281 153.883 303.281 154.156C303.281 154.276 302.768 154.438 301.914 154.31C300.804 154.134 299.793 153.571 299.06 152.72C298.345 151.918 297.965 150.872 298 149.798C298.103 148.944 298.402 148.525 298.53 148.559Z" fill="#263238"/>
<path d="M289.123 110.17C292.498 117.612 303.434 126.669 311.876 129.882C311.107 128.344 306.365 124.02 305.596 122.491C309.014 126.191 313.927 131.215 319.13 132.471C319.732 132.673 320.38 132.694 320.993 132.53C321.332 132.349 321.624 132.092 321.848 131.779C322.071 131.466 322.22 131.107 322.283 130.728C323.289 126.972 323.885 123.119 324.06 119.236C324.25 115.964 323.18 112.745 321.07 110.238C318.19 107 313.491 105.454 308.971 104.488C305.177 103.685 301.213 103.172 297.471 103.89C293.728 104.608 290.242 106.761 289.123 109.931" fill="#263238"/>
<path d="M268.993 138.195C268.925 135.306 269.034 132.416 269.317 129.54C270.172 122.969 272.214 99.0711 294.267 105.223L291.926 111.349C291.926 111.349 293.634 126.729 282.296 134.983C282.296 134.983 282.347 150.362 274.504 155.873C274.504 155.873 269.035 145.466 268.993 138.204" fill="#263238"/>
<path d="M282.766 133.932C281.463 133.408 280.042 133.252 278.656 133.479C277.275 133.728 276.047 134.51 275.239 135.658C274.489 136.856 274.223 138.295 274.495 139.682C274.773 141.061 275.357 142.361 276.204 143.484C276.75 144.323 277.484 145.022 278.349 145.526C278.788 145.773 279.281 145.908 279.785 145.918C280.289 145.929 280.788 145.815 281.237 145.586" fill="#FFBE9D"/>
<path d="M280.579 141.989C280.724 142.066 279.998 142.784 278.818 142.228C278.509 142.06 278.236 141.832 278.014 141.558C277.793 141.283 277.628 140.968 277.528 140.63C277.278 139.871 277.185 139.069 277.255 138.272C277.3 137.419 277.648 136.61 278.237 135.991C278.488 135.727 278.795 135.524 279.135 135.397C279.476 135.269 279.841 135.221 280.203 135.256C281.476 135.453 281.715 136.401 281.561 136.401C281.407 136.401 281.031 135.948 280.168 135.999C279.626 136.103 279.139 136.398 278.795 136.831C278.452 137.264 278.275 137.806 278.297 138.358C278.203 139.776 278.511 141.143 279.194 141.587C279.878 142.032 280.519 141.861 280.579 141.989Z" fill="#EB996E"/>
<path d="M280.562 145.578C277.144 166.007 279.921 186.889 280.562 207.6C280.621 209.583 280.639 211.659 279.707 213.428C278.349 216.102 275.17 217.409 272.171 217.589C269.172 217.768 266.19 217.076 263.208 216.828C262.884 214.846 262.567 212.855 262.243 210.847C261.243 213.137 260.243 215.418 259.252 217.683C260.568 203.157 262.009 188.632 263.576 174.107" fill="#263238"/>
</svg>
