<svg width="143" height="40" viewBox="0 0 143 40" fill="none" xmlns="http://www.w3.org/2000/svg">
<path fill-rule="evenodd" clip-rule="evenodd" d="M52.5745 29.9613H55.8121L55.2753 27.3213V11.5853H52.1791V18.7625C51.2471 17.6282 49.9664 16.9627 48.4536 16.9627C45.3566 16.9627 42.9575 19.6509 42.9575 23.5979C42.9575 27.5448 45.3566 30.233 48.4536 30.233C49.1796 30.2404 49.8978 30.0757 50.5548 29.7513C51.2118 29.4268 51.7909 28.9509 52.2489 28.3589L52.5745 29.962V29.961V29.9613ZM113.79 20.4894C114.418 20.4894 115 20.662 115.536 21.0566L117.003 17.5784C116.328 17.1347 115.536 16.937 114.768 16.937C113.37 16.937 112.206 17.6035 111.461 18.8371L111.136 17.2331H107.945L108.457 19.7245V29.9609H111.554V21.8451C111.972 21.0068 112.765 20.4889 113.789 20.4889H113.79V20.4894ZM122.87 26.8043C121.078 26.8043 119.75 25.5465 119.75 23.5972C119.75 21.6237 121.078 20.3911 122.87 20.3911C124.686 20.3911 125.991 21.6237 125.991 23.5972C125.991 25.5465 124.686 26.8043 122.87 26.8043ZM45.9632 23.5972C45.9632 21.6237 47.2907 20.3911 49.0833 20.3911C50.8997 20.3911 52.2033 21.6237 52.2033 23.5972C52.2033 25.5465 50.8997 26.8043 49.0833 26.8043C47.2907 26.8043 45.9632 25.5465 45.9632 23.5972ZM136.587 26.8043C134.794 26.8043 133.467 25.5465 133.467 23.5972C133.467 21.6237 134.795 20.3911 136.587 20.3911C138.403 20.3911 139.707 21.6237 139.707 23.5972C139.707 25.5465 138.403 26.8043 136.587 26.8043ZM63.334 20.1933C64.9413 20.1933 65.9889 20.9823 66.3136 22.4378H60.3543C60.7029 20.9823 61.7506 20.1933 63.334 20.1933ZM100.379 20.1933C101.986 20.1933 103.034 20.9823 103.36 22.4378H97.3991C97.7486 20.9823 98.7964 20.1933 100.379 20.1933ZM85.2687 29.961H90.2508L93.4882 17.2329H90.1106L87.7364 27.5438L85.3614 17.2329H82.0313L85.2687 29.961ZM77.2812 29.961H80.3779V17.2329H77.2812V29.961ZM63.8093 30.1969C65.5322 30.1969 67.2321 29.703 68.6522 28.7414L67.4651 25.9307C66.3478 26.547 65.113 26.9165 63.8552 26.9165C62.2259 26.9165 61.0856 26.2509 60.5957 25.0173H69.3048C69.4017 24.5219 69.4485 24.0172 69.4442 23.5115C69.4442 19.5656 66.86 16.9266 63.3894 16.9266C59.8979 16.9266 57.3365 19.5907 57.3365 23.5617C57.3365 27.607 59.875 30.1969 63.8096 30.1969H63.8093ZM142.713 23.5969C142.713 19.6499 140.106 16.9617 136.589 16.9617C133.072 16.9617 130.465 19.6499 130.465 23.5969C130.465 27.5438 133.072 30.232 136.589 30.232C140.104 30.232 142.713 27.5438 142.713 23.5969ZM100.801 30.232C102.524 30.232 104.224 29.7392 105.643 28.7765L104.456 25.9658C103.339 26.5821 102.104 26.9516 100.847 26.9516C99.2175 26.9516 98.0771 26.286 97.5867 25.0524H106.296C106.393 24.5571 106.44 24.0523 106.435 23.5467C106.435 19.6017 103.85 16.9617 100.381 16.9617C96.8892 16.9617 94.3266 19.6258 94.3266 23.5969C94.3266 27.6422 96.8651 30.232 100.801 30.232ZM122.874 30.232C126.39 30.232 128.997 27.5438 128.997 23.5969C128.997 19.6499 126.39 16.9617 122.874 16.9617C119.359 16.9617 116.75 19.6499 116.75 23.5969C116.75 27.5438 119.358 30.232 122.874 30.232ZM71.4149 29.961H74.5121V11.5842H71.4159V29.961H71.4149ZM78.8428 15.4811C79.9373 15.4811 80.7757 14.5937 80.7757 13.4093C80.7757 12.2248 79.9373 11.3374 78.8428 11.3374C77.7257 11.3374 76.8874 12.2258 76.8874 13.4093C76.8874 14.5937 77.7257 15.4811 78.8428 15.4811Z" fill="#C7D3EE"/>
<path fill-rule="evenodd" clip-rule="evenodd" d="M25.6382 0L35.2814 1.06004L32.6637 27.0927L27.1657 40L3.12788 34.6598L0.712646 22.7818L14.3827 19.7443L11.3591 4.87584L20.8426 2.76782L23.8661 17.6371L25.6387 0.000158632L25.6382 0ZM18.0432 25.587C18.5398 25.1112 18.6945 24.5028 18.5341 23.7791C18.4214 23.2762 17.8694 22.946 17.5428 22.7913C17.3839 22.7157 17.211 22.6779 17.0366 22.6809C16.5744 22.691 15.6518 22.8074 15.4561 23.5954C15.1934 24.6565 15.5019 25.5348 16.1971 25.7756C16.8915 26.0166 17.5466 26.0607 18.0432 25.587ZM25.0024 26.4051C25.3634 25.7496 25.5344 25.0941 25.1925 24.4998C24.8506 23.9046 24.247 23.5753 23.545 23.5944C23.1134 23.6065 22.7391 23.9929 22.5146 24.289C22.3523 24.5049 22.2482 24.7608 22.2109 25.0319C22.1431 25.5308 22.1392 26.3478 22.7667 26.6701C23.6969 27.1458 24.6414 27.0585 25.0024 26.4051Z" fill="#C7D3EE"/>
</svg>
