<svg width="112" height="32" viewBox="0 0 112 32" fill="none" xmlns="http://www.w3.org/2000/svg">
<path fill-rule="evenodd" clip-rule="evenodd" d="M41.8936 0.0741471C45.0703 6.216 48.16 12.1901 51.3067 18.2737C54.4295 12.2003 57.5159 6.19922 60.7023 0V31.765H58.9943V7.75543L58.8308 7.64285C56.3226 12.5625 53.8151 17.4823 51.2484 22.5173C48.7222 17.5033 46.244 12.5851 43.7657 7.66668C43.7147 7.69587 43.6637 7.72486 43.6128 7.75385V31.7775H41.893V0.0743324L41.8936 0.0741471Z" fill="#C7D3EE"/>
<path fill-rule="evenodd" clip-rule="evenodd" d="M36.3339 15.7137C36.3221 8.25207 32.8273 2.72123 28.1282 2.72829C23.4504 2.73531 19.9466 8.32771 19.9522 15.7782C19.9576 23.2102 23.4797 28.7786 28.1702 28.7707C32.8512 28.7628 36.3456 23.1737 36.3339 15.7137ZM28.1276 0.120782C33.8626 0.101838 38.2793 6.91124 38.2743 15.7632C38.2691 24.5741 33.8799 31.3535 28.173 31.3641C22.4173 31.375 18.0392 24.6205 18.0403 15.7305C18.0412 6.9078 22.415 0.139319 28.1276 0.120782Z" fill="#C7D3EE"/>
<path fill-rule="evenodd" clip-rule="evenodd" d="M100.031 1.32393H111.596V3.81607H101.839V19.2056H110.56V21.6911H101.844V29.3198H112V31.7772H100.031V1.32393Z" fill="#C7D3EE"/>
<path fill-rule="evenodd" clip-rule="evenodd" d="M85.1088 29.3206H96.5731V31.7768H82.0736C85.8978 22.4678 89.6818 13.2542 93.5497 3.83928H83.5542V1.32393H96.6084C92.7752 10.6559 88.9874 19.8775 85.1088 29.3206Z" fill="#C7D3EE"/>
<path fill-rule="evenodd" clip-rule="evenodd" d="M12.2179 21.702H1.75468V31.5775H0V12.7561H1.74129V19.0669H12.1588V1.47131H13.9276V31.5644H12.2179V21.702Z" fill="#C7D3EE"/>
<path fill-rule="evenodd" clip-rule="evenodd" d="M72.8224 31.7772H70.9548C70.9357 31.4981 70.9038 31.2376 70.9027 30.977C70.8982 29.3649 70.8137 27.7399 70.9201 26.1438C71.1021 23.4216 70.5465 21.1134 69.6466 18.7833C67.5399 13.3273 65.562 7.75919 63.5342 2.23435C63.4497 2.00344 63.3853 1.75564 63.2693 1.37736C63.9094 1.37736 64.4806 1.2862 65.0283 1.41956C65.2685 1.47801 65.5267 1.9384 65.6633 2.31011C67.6396 7.68127 69.5968 13.0685 71.559 18.4512C71.6453 18.6873 71.7399 18.9161 71.8928 19.3068C72.0513 18.9055 72.1773 18.6095 72.2887 18.3019C74.1798 13.0951 76.0877 7.90186 77.9413 2.66478C78.2874 1.68737 78.6553 1.17002 79.4069 1.36403C79.6919 1.43751 79.9926 1.37597 80.3684 1.37597C80.2715 1.70959 80.2149 1.95368 80.1332 2.17801C77.8092 8.59182 75.4745 14.9975 73.1679 21.4262C72.9629 21.9973 72.8459 22.7082 72.8375 23.3584C72.8017 26.1281 72.8224 28.8997 72.8224 31.7772V31.7772Z" fill="#C7D3EE"/>
<path fill-rule="evenodd" clip-rule="evenodd" d="M0.00476532 10.5755C0.00476532 7.63649 0.0103249 4.08361 0 1.32393C0.369578 1.34157 1.2292 1.32854 1.6982 1.32854V2.87468C1.69807 5.13678 1.68284 7.3995 1.70733 9.66108C1.71474 10.3458 1.70363 9.28231 1.7076 10.5923C1.7076 10.5923 0.426149 10.5753 0.0048048 10.5753L0.00476532 10.5755Z" fill="#C7D3EE"/>
</svg>
