<svg width="128" height="50" viewBox="0 0 128 50" fill="#C7D3EE" xmlns="http://www.w3.org/2000/svg">
<path d="M0 0V3.4054H24.9138V0H0ZM28.4433 0V3.4054H63.9463C63.9463 3.4054 60.3202 0 55.517 0H28.444H28.4433ZM70.9114 0V3.4054H92.3904L91.1149 0H70.9114ZM107.789 0L106.513 3.4054H127.798V0H107.789ZM0.00350665 6.62281V10.0279H24.9173V6.62281H0.00350665ZM28.4468 6.62718V10.0279H68.0701C68.0701 10.0279 67.6075 7.40678 66.8 6.62718H28.447H28.4468ZM70.9149 6.62718V10.0279H94.7478L93.5687 6.62718H70.9149ZM105.243 6.62718L104.063 10.0279H127.802V6.62718H105.243ZM7.16232 13.2453V16.6557H17.9514V13.2453H7.16232ZM35.6056 13.2453V16.6557H46.3947V13.2453H35.6056ZM56.8892 13.2453V16.6557H67.6782C67.6782 16.6557 68.3634 14.8543 68.3634 13.2453H56.8888H56.8892ZM78.0728 13.2453V16.6557H97.2016L95.9269 13.2453H78.0728ZM102.891 13.2453L101.611 16.6557H120.835V13.2453H102.891ZM7.15969 19.8732V23.2789H17.9488V19.8732H7.15969ZM35.603 19.8732V23.2789H63.1617C63.1617 23.2789 65.4663 21.5309 66.2017 19.8732H35.6027H35.603ZM78.0711 19.8732V23.2789H88.861V21.3826L89.5457 23.2789H109.309L110.045 21.3826V23.2789H120.834V19.8732H100.58L99.5054 22.7582L98.4254 19.8732H78.0711ZM7.15969 26.4956V29.9021H17.9488V26.4956H7.15969ZM35.603 26.4956V29.9021H66.202C65.4663 28.249 63.162 26.4956 63.162 26.4956H35.6032H35.603ZM78.0711 26.4956V29.9021H88.861V26.4956H78.0711ZM90.8204 26.4956L92.1248 29.9021H106.943L108.184 26.4956H90.8204ZM110.044 26.4956V29.9021H120.834V26.4956H110.044ZM7.15882 33.1191V36.5249H17.9479V33.1191H7.15882ZM35.6021 33.1191V36.5249H46.3912V33.1191H35.6021ZM56.8857 33.1191V36.5249H68.3594C68.3594 34.9176 67.6747 33.1191 67.6747 33.1191H56.8856H56.8857ZM78.0693 33.1191V36.5249H88.8593V33.1191H78.0693ZM93.268 33.1191L94.533 36.5249H104.468L105.743 33.1191H93.268ZM110.042 33.1191V36.5249H120.832V33.1191H110.042ZM0.196372 39.742V43.1517H25.1102V39.742H0.196372ZM28.445 39.742V43.1517H66.7981C67.6052 42.3713 68.0683 39.742 68.0683 39.742H28.4449H28.445ZM71.1077 39.742V43.1517H88.8619V39.742H71.1077ZM95.7262 39.742L97.0262 43.1517H102.081L103.301 39.742H95.7262ZM110.045 39.742V43.1517H127.993V39.742H110.045ZM0.199002 46.3691V49.7749H25.1128V46.3691H0.199002ZM28.4477 46.3691V49.7695H55.5207C60.3238 49.7695 63.95 46.3691 63.95 46.3691H28.447H28.4477ZM71.1104 46.3691V49.7749H88.8645V46.3691H71.1104ZM98.1931 46.3691L99.4441 49.7643L99.658 49.7695L100.928 46.3691H98.1931ZM110.047 46.3691V49.7749H127.996V46.3691H110.047Z" fill="#C7D3EE"/>
</svg>
