<svg width="144" height="56" viewBox="0 0 144 56" fill="none" xmlns="http://www.w3.org/2000/svg">
<rect width="144" height="56" fill="white"/>
<path d="M63.8675 49.1635H53.9846L60.1661 6.76917H70.0481L63.8672 49.1635H63.8675Z" fill="#C7D3EE"/>
<path d="M99.693 7.8049C97.7443 6.9471 94.6525 6 90.8296 6C81.0696 6 74.1975 11.7725 74.1548 20.0253C74.0738 26.1144 79.0755 29.496 82.816 31.5269C86.6396 33.6016 87.9393 34.9557 87.9393 36.805C87.9004 39.6451 84.8497 40.9543 82.0043 40.9543C78.0586 40.9543 75.9445 40.2794 72.7315 38.6992L71.4301 38.0218L70.0471 47.5381C72.365 48.7093 76.6355 49.7488 81.0689 49.7943C91.4389 49.7943 98.1899 44.111 98.2701 35.3165C98.3093 30.4905 95.668 26.7925 89.9741 23.7711C86.5175 21.8312 84.4007 20.5233 84.4007 18.5385C84.4412 16.7342 86.1911 14.8862 90.093 14.8862C93.3058 14.7957 95.6663 15.6522 97.4545 16.5094L98.3486 16.9596L99.6923 7.80462L99.693 7.8049Z" fill="#C7D3EE"/>
<path d="M112.829 34.1446C113.643 31.7091 116.775 22.2826 116.775 22.2826C116.734 22.3731 117.587 19.8022 118.075 18.2238L118.765 21.8768C118.765 21.8768 120.637 32.0245 121.043 34.144H112.829V34.1446ZM125.028 6.76916H117.384C115.027 6.76916 113.235 7.53524 112.218 10.2866L97.5388 49.1628H107.908C107.908 49.1628 109.615 43.9303 109.982 42.8033H122.671C122.955 44.2918 123.851 49.1628 123.851 49.1628H133.001L125.028 6.76843V6.76916Z" fill="#C7D3EE"/>
<path d="M45.7306 6.76886L36.0525 35.678L34.9948 29.815C33.2054 23.0497 27.5936 15.6994 21.3308 12.0443L30.1959 49.1185H40.6469L56.181 6.76886H45.7308H45.7306Z" fill="#C7D3EE"/>
<path d="M27.0636 6.76886H11.1627L11 7.62546C23.4031 11.1436 31.618 19.6234 34.9931 29.8167L31.5364 10.3325C30.9674 7.62491 29.2185 6.85823 27.0633 6.76891L27.0636 6.76886Z" fill="#C7D3EE"/>
</svg>
